<?xml version="1.0" encoding="UTF-8"?>
<svg width="224px" height="75px" viewBox="0 0 224 75" version="1.1" xmlns="http://www.w3.org/2000/svg" xmlns:xlink="http://www.w3.org/1999/xlink">
    <!-- Generator: Sketch 58 (84663) - https://sketch.com -->
    <title>LOGOS/logo_rayno</title>
    <desc>Created with Sketch.</desc>
    <defs>
        <rect id="path-1" x="0" y="0" width="224" height="75"></rect>
    </defs>
    <g id="LOGOS/logo_rayno" stroke="none" stroke-width="1" fill="none" fill-rule="evenodd">
        <mask id="mask-2" fill="white">
            <use xlink:href="#path-1"></use>
        </mask>
        <g id="Background"></g>
        <g id="Ресурс-1" mask="url(#mask-2)" fill-rule="nonzero">
            <g transform="translate(16.000000, 17.000000)">
                <path d="M0,24 L23.3,10.54 L23.3,10.54 L23.3,10.54 L23.68,10.27 L22.56,9.6 L22.76,9.5 L22.96,9.38 L22.96,9.38 L23.02,9.38 C28.69,6 33.31,3.19 38.74,0.08 L37.24,0.08 L28.76,4.79 C28.76,4.79 1.47,20.62 0,21.53 L0,24 Z" id="Path" fill="#E56D0B"></path>
                <path d="M0,28 L27.43,12.31 L26.59,11.77 C26.59,11.77 37.52,5.28 43.59,1.77 L44.14,0.17 C44.14,0.17 2.42,24.17 0,25.61 L0,28 Z" id="Path" fill="#E56D0B"></path>
                <path d="M0,15.5 L16.35,6.07 L16.18,6 L15.83,5.79 L15.83,5.79 L15.72,5.67 L15.72,5.67 L15.18,5.36 L16,4.9 C20.1,2.44 21.37,1.77 24.07,0.08 L22.39,0.08 L0,12.93 L0,15.5 Z" id="Path" fill="#E56D0B"></path>
                <path d="M0,11.15 L6.2,7.59 L6.26,7.59 C8.4,6.42 10.37,5.13 12.52,4 L12.52,4 L12.57,4 L12.57,4 L11.98,3.66 L11.58,3.42 L11.77,3.31 L11.92,3.23 L11.92,3.23 C14.5,1.6 15.22,1.23 16.74,0.23 L15.34,0.23 L0,8.65 L0,11.15 Z" id="Path" fill="#E56D0B"></path>
                <path d="M33.58,28.18 L33.92,27.3 C27.61,30.89 22.2,34 15.14,38.19 L17.32,39.42 L22.84,36.23 L22.84,36.23 L28.68,32.85 L28.68,32.85 L28.76,32.79 L28.76,31.62 L33.17,29 L33.58,28.18 Z" id="Path" fill="#E56D0B"></path>
                <path d="M28.78,35.89 L31.16,34.48 L31.77,32.92 C26.27,36.04 25.42,36.44 18.69,40.44 L20.78,41.63 L28.78,36.99 L28.78,35.89 Z" id="Path" fill="#E56D0B"></path>
                <path d="M28.83,19.07 L28.88,19.07 C32.96,16.6 36.23,14.64 39.53,12.7 L40.17,11 C27.87,18.08 16.85,24.23 3.93,31.82 L6.05,33 L28.65,20.13 L28.83,20.04 L28.83,19.07 Z" id="Path" fill="#E56D0B"></path>
                <path d="M28.63,28.62 L28.63,28.62 L28.68,28.62 L28.8,28.55 L28.8,27.28 L28.86,27.28 C31.56,25.74 33.45,24.64 35.34,23.54 L35.46,23.3 L36,21.89 C27.62,26.68 20.1,30.89 11.45,36.08 L13.45,37.23 L28.63,28.62 Z" id="Path" fill="#E56D0B"></path>
                <path d="M28.81,24.29 L28.81,23.13 L28.87,23.13 C32.28,21.29 34.87,19.76 37.4,18.25 L38.1,16.42 C28.05,22.11 18.92,27.31 7.7,34 L9.9,35.25 L28.81,24.29 Z" id="Path" fill="#E56D0B"></path>
                <path d="M0,19.7 L20.1,8.18 L19.27,7.69 L19.08,7.59 L19.26,7.48 C24.83,4 27,2.69 31.25,0.08 L29.89,0.08 L0,17.25 L0,19.7 Z" id="Path" fill="#E56D0B"></path>
                <path d="M2.44,31 C2.44,31 24.29,18.5 28.74,15.93 L28.83,15.93 L28.83,14.63 L28.9,14.63 C33.9,11.63 37.74,9.34 41.76,6.96 L42.41,5.27 C28.13,13.42 15.76,20.94 0.26,29.73 L2.44,31 Z" id="Path" fill="#E56D0B"></path>
                <polygon id="Path" fill="#E56D0B" points="0 5.54 0.01 5.54 0.01 6.98 9.28 1.88 8.44 1.36 10.7 0.08 9.28 0.08 0 5.31"></polygon>
                <path d="M54.21,29.68 C54.2947199,29.8248356 54.3618608,29.9792598 54.41,30.14 L56.51,36.08 L56.77,36.08 L58.6,31.4 L58.67,31.4 L60.36,36.08 L60.62,36.08 L62.62,30.08 C62.76,29.65 62.99,29.43 63.32,29.4 L63.32,29.16 L61.48,29.16 L61.48,29.4 C61.6565095,29.393604 61.8318195,29.4314159 61.99,29.51 C62.1193036,29.586451 62.1932069,29.730368 62.18,29.88 L62.18,30 L62.18,30.11 L62.18,30.24 L61,33.68 L59.91,30.23 C59.85,30.01 59.81,29.85 59.79,29.76 C59.7848315,29.6433588 59.8525827,29.5357538 59.96,29.49 C60.1368584,29.4297572 60.323308,29.4026373 60.51,29.41 L60.51,29.17 L57.36,29.17 L57.36,29.41 L57.53,29.41 L57.74,29.41 L57.96,29.53 C58.0290473,29.590581 58.0779015,29.6708415 58.1,29.76 L58.43,30.67 L57.25,33.72 L56,30.11 L56,29.84 C55.9858677,29.7111688 56.0484557,29.5859929 56.16,29.52 C56.307021,29.4310128 56.4790499,29.392394 56.65,29.41 L56.65,29.17 L53.7,29.17 L53.7,29.41 L54.02,29.5 C54.1075468,29.5277541 54.1775577,29.5940801 54.21,29.68" id="Path" fill="#223266"></path>
                <path d="M70.19,35.34 C70.1399493,35.4368832 70.0590109,35.5143025 69.96,35.56 C69.8626496,35.5957618 69.7622309,35.6225401 69.66,35.64 C69.5540249,35.6571773 69.4459751,35.6571773 69.34,35.64 L69.34,35.89 L72.85,35.89 L72.85,35.64 L72.5,35.64 C72.4001509,35.6266169 72.3025884,35.5997031 72.21,35.56 C72.0979682,35.5165832 72.0079515,35.4301671 71.96,35.32 C71.905587,35.1316974 71.8819493,34.9358414 71.89,34.74 L71.89,30.19 C71.8753025,30.0116055 71.9172981,29.8331241 72.01,29.68 C72.0793791,29.5784784 72.1818994,29.5042395 72.3,29.47 L72.55,29.47 L72.85,29.47 L72.85,29.23 L69.34,29.23 L69.34,29.47 C69.4564653,29.4603072 69.5735347,29.4603072 69.69,29.47 C69.7898726,29.4884789 69.8872135,29.5186881 69.98,29.56 C70.0742983,29.595314 70.1501308,29.6675354 70.19,29.76 C70.2552651,29.8898161 70.2829728,30.0352814 70.27,30.18 L70.27,34.93 C70.2820504,35.0843632 70.2545153,35.2392485 70.19,35.38" id="Path" fill="#223266"></path>
                <path d="M82.66,35.68 C82.3980417,35.675389 82.1435893,35.5917335 81.93,35.44 C81.7617563,35.2840932 81.6765742,35.0581756 81.7,34.83 L81.7,30.68 L86.16,36.11 L86.43,36.11 L86.43,30.17 C86.4160859,29.9826485 86.4653786,29.7960403 86.57,29.64 C86.6605239,29.5476827 86.7811666,29.4909097 86.91,29.48 L87.21,29.43 L87.21,29.17 L85.08,29.17 L85.08,29.43 C85.3390609,29.4003749 85.5973861,29.4912933 85.7807855,29.6766438 C85.964185,29.8619943 86.0523648,30.1212671 86.02,30.38 L86.02,33.46 L82.52,29.17 L80.42,29.17 L80.42,29.43 C80.5640705,29.4402711 80.6977085,29.5088961 80.79,29.62 L81.26,30.12 L81.26,34.68 C81.2738037,34.8530585 81.2738037,35.0269415 81.26,35.2 C81.2371318,35.3100715 81.1771094,35.408932 81.09,35.48 L80.94,35.58 L80.77,35.64 L80.59,35.64 L80.41,35.64 L80.41,35.89 L82.69,35.89 L82.66,35.68 Z" id="Path" fill="#223266"></path>
                <path d="M94.93,34.8 C94.9384826,34.9761479 94.9147609,35.1523657 94.86,35.32 C94.8142634,35.4240656 94.737406,35.5114035 94.64,35.57 C94.4622444,35.6322728 94.2775399,35.672572 94.09,35.69 L94.09,35.93 L96.93,35.93 C99.55,35.93 100.86,34.7 100.86,32.24 C100.85297,31.927058 100.799036,31.6169409 100.7,31.32 C100.413725,30.5017231 99.796881,29.8413369 99,29.5 C98.4337171,29.2635307 97.8233787,29.1510102 97.21,29.17 L94.09,29.17 L94.09,29.39 L94.5,29.47 C94.6150448,29.481402 94.7218515,29.5348054 94.8,29.62 C94.8580795,29.7275869 94.8889764,29.8477415 94.89,29.97 C94.9041038,30.1931107 94.9041038,30.4168893 94.89,30.64 L94.89,34.8 L94.93,34.8 Z M96.54,29.8 C96.5483827,29.7002436 96.6093857,29.6125518 96.7,29.57 C96.8392418,29.5002663 96.9946485,29.469185 97.15,29.48 C97.5060737,29.4647418 97.857335,29.5666076 98.15,29.77 C98.4078763,29.9798608 98.6133073,30.2469211 98.75,30.55 C98.8941521,30.8692832 98.9982753,31.2051643 99.06,31.55 C99.1193187,31.9002293 99.1494224,32.2547833 99.15,32.61 C99.154315,33.0127031 99.1174568,33.4147927 99.04,33.81 C98.993885,34.1095633 98.8921348,34.3978555 98.74,34.66 C98.5951378,34.9314791 98.3768208,35.1567269 98.11,35.31 C97.828846,35.4358773 97.5274215,35.5103868 97.22,35.53 C96.8,35.53 96.58,35.38 96.58,35.1 L96.54,29.8 Z" id="Shape" fill="#223266"></path>
                <path d="M113.37,29.38 C112.882946,29.1340297 112.345625,29.0039775 111.8,29 C111.184379,28.9917759 110.576295,29.136067 110.03,29.42 C109.516062,29.6811403 109.081104,30.0746738 108.77,30.56 C108.614702,30.8220619 108.48093,31.0962954 108.37,31.38 C108.270253,31.6418542 108.21941,31.9197915 108.219955,32.2 L108.219955,32.59 C108.217613,33.06983 108.309344,33.5454713 108.49,33.99 C108.660959,34.4159691 108.919942,34.8010359 109.25,35.12 C109.597476,35.4356755 110.001136,35.6832991 110.44,35.85 C110.903904,36.0226529 111.39501,36.1107133 111.89,36.1100207 C112.229026,36.1111966 112.566246,36.0606135 112.89,35.96 C113.196676,35.8747664 113.487228,35.739626 113.75,35.56 C114.245743,35.2250812 114.645567,34.7666622 114.91,34.23 C115.174528,33.7167518 115.31172,33.1474045 115.31,32.57 C115.324081,32.3936139 115.324081,32.2163861 115.31,32.04 C115.177085,30.8803614 114.46027,29.8692753 113.41,29.36 M113.41,34.2 C113.330467,34.6159153 113.140493,35.0027704 112.86,35.32 C112.602756,35.6024838 112.241889,35.7684825 111.86,35.78 L111.86,35.78 C111.482724,35.7962884 111.117255,35.6464464 110.86,35.37 C110.568233,35.0511757 110.364848,34.6616405 110.27,34.24 C110.141582,33.6860685 110.081136,33.1185533 110.09,32.55 L110.09,32.21 C110.083631,31.815468 110.130726,31.4218909 110.23,31.04 C110.307265,30.7133742 110.424833,30.3976199 110.58,30.1 C110.825104,29.6143758 111.326094,29.3114515 111.87,29.32 C112.126444,29.3126838 112.379663,29.3785902 112.6,29.51 C112.818195,29.6419029 112.994916,29.8324852 113.11,30.06 C113.246773,30.3078597 113.347775,30.573831 113.41,30.85 C113.463639,31.0509997 113.507029,31.2545957 113.54,31.46 L113.54,31.53 C113.559056,31.7161804 113.559056,31.9038196 113.54,32.09 L113.54,32.72 C113.543598,33.2151048 113.486505,33.7087846 113.37,34.19" id="Shape" fill="#223266"></path>
                <path d="M124,29.41 L124,29.17 L121.1,29.17 L121.1,29.41 L121.42,29.5 C121.507547,29.5277541 121.577558,29.5940801 121.61,29.68 C121.694668,29.8262038 121.764995,29.9802544 121.82,30.14 L123.91,36.08 L124.17,36.08 L126,31.4 L126.07,31.4 L127.75,36.08 L128,36.08 L130,30.08 C130.14,29.65 130.37,29.42 130.7,29.4 L130.7,29.16 L128.88,29.16 L128.88,29.4 C129.050031,29.3943894 129.218683,29.43225 129.37,29.51 C129.508951,29.5789179 129.592071,29.725367 129.58,29.88 L129.58,29.98 L129.58,30.09 L129.58,30.22 L128.42,33.67 L127.33,30.22 C127.278669,30.0671313 127.24184,29.9097707 127.22,29.75 C127.208292,29.6317227 127.278281,29.5205642 127.39,29.48 C127.565178,29.4130525 127.753009,29.3857316 127.94,29.4 L127.94,29.16 L124.82,29.16 L124.82,29.4 L124.98,29.4 L125.2,29.4 L125.4,29.52 C125.47196,29.5818708 125.527017,29.6610145 125.56,29.75 L125.88,30.66 L124.7,33.71 L123.49,30.04 L123.43,29.77 C123.418521,29.6440682 123.475864,29.5217373 123.58,29.45 C123.731635,29.363425 123.906031,29.3250579 124.08,29.34" id="Path" fill="#223266"></path>
                <path d="M148.59,29.59 C148.765,29.5217854 148.952385,29.4911223 149.14,29.5 C149.47701,29.4985458 149.812902,29.5388529 150.14,29.62 C150.442566,29.6959743 150.710463,29.8722225 150.9,30.12 C151.127026,30.4305032 151.265297,30.796922 151.3,31.18 L151.54,31.18 L151.54,29.18 L145.86,29.18 L145.86,29.44 C146.069458,29.4226137 146.279809,29.4605458 146.47,29.55 C146.584199,29.6025295 146.671222,29.7004299 146.71,29.82 C146.731764,29.9893034 146.731764,30.1606966 146.71,30.33 L146.71,35 C146.739297,35.2111495 146.664806,35.4234482 146.51,35.57 C146.292615,35.6677603 146.058225,35.7221115 145.82,35.73 L145.82,35.98 L149.44,35.98 L149.44,35.73 C149.211767,35.7366552 148.983541,35.7165176 148.76,35.67 C148.629321,35.6395606 148.512921,35.5654877 148.43,35.46 C148.351863,35.3199475 148.31706,35.1598519 148.33,35 L148.33,32.63 L148.72,32.63 C148.903559,32.6485295 149.080944,32.7065206 149.24,32.8 C149.411958,32.9149309 149.550061,33.0737483 149.64,33.26 C149.708873,33.390082 149.762559,33.5276522 149.8,33.67 C149.850489,33.8282882 149.874149,33.9939063 149.87,34.16 L150.1,34.16 L150.1,30.81 L149.87,30.81 C149.826214,31.1023312 149.745572,31.387938 149.63,31.66 C149.531409,31.8784495 149.35229,32.0504038 149.13,32.14 C148.880662,32.258652 148.605793,32.3136258 148.33,32.3 L148.33,30 C148.308943,29.8383714 148.388063,29.6801313 148.53,29.6" id="Path" fill="#223266"></path>
                <path d="M162.07,29.68 C162.141601,29.580668 162.243286,29.5070338 162.36,29.47 L162.61,29.47 L162.91,29.47 L162.91,29.23 L159.4,29.23 L159.4,29.47 C159.516455,29.4600711 159.633545,29.4600711 159.75,29.47 C159.85022,29.4870502 159.947736,29.5173139 160.04,29.56 C160.136865,29.5950014 160.215953,29.6668988 160.26,29.76 C160.320398,29.8914198 160.347857,30.0355793 160.34,30.18 L160.34,34.93 C160.34843,35.0841645 160.321048,35.2381871 160.26,35.38 C160.208766,35.4795848 160.123656,35.5576023 160.02,35.6 L159.72,35.69 C159.613689,35.7023191 159.506311,35.7023191 159.4,35.69 L159.4,35.94 L162.91,35.94 L162.91,35.69 L162.56,35.69 C162.459852,35.6781093 162.36208,35.6511375 162.27,35.61 C162.160214,35.5631236 162.071317,35.4777819 162.02,35.37 C161.963956,35.1820328 161.940285,34.9859036 161.95,34.79 L161.95,30.19 C161.935303,30.0116055 161.977298,29.8331241 162.07,29.68" id="Path" fill="#223266"></path>
                <path d="M171.26,35.34 C171.222561,35.4421005 171.142101,35.5225607 171.04,35.56 C170.959111,35.6027216 170.870914,35.6298594 170.78,35.64 C170.684183,35.6581281 170.585817,35.6581281 170.49,35.64 L170.49,35.89 L176.26,35.89 L176.67,33.62 L176.38,33.62 L176.38,33.73 C176.38,33.81 176.33,33.87 176.31,33.91 C176.276398,34.0173915 176.225752,34.1186836 176.16,34.21 C176.075437,34.376001 175.974966,34.5334051 175.86,34.68 L175.68,34.91 L175.49,35.09 C175.292108,35.2578726 175.060082,35.3807099 174.81,35.45 L174.35,35.54 C174.193602,35.5529859 174.036398,35.5529859 173.88,35.54 C173.713729,35.5562512 173.546271,35.5562512 173.38,35.54 C173.281654,35.5176623 173.187253,35.480576 173.1,35.43 C173.03253,35.2611528 172.995296,35.0817511 172.99,34.9 L172.99,34.8 L172.99,34.73 L172.99,30.19 C172.973066,30.0069364 173.01891,29.8235576 173.12,29.67 C173.195142,29.5692536 173.306124,29.5012327 173.43,29.48 C173.504643,29.4426714 173.586572,29.422189 173.67,29.42 L174,29.42 L174,29.18 L170.51,29.18 L170.51,29.42 C170.74432,29.4005424 170.978003,29.4642741 171.17,29.6 C171.30428,29.7500912 171.369561,29.949561 171.35,30.15 L171.35,34.9 C171.358612,35.0532556 171.334758,35.2066021 171.28,35.35" id="Path" fill="#223266"></path>
                <path d="M191.12,29.41 L191.12,29.17 L188.6,29.17 L186.6,33.9 L184.6,29.17 L182.06,29.17 L182.06,29.41 C182.298259,29.4176311 182.532698,29.4719937 182.75,29.57 C182.892869,29.6863914 182.967956,29.8665982 182.95,30.05 L182.95,34.91 C182.954648,35.0630352 182.930915,35.2156079 182.88,35.36 C182.836302,35.4556165 182.757544,35.530794 182.66,35.57 C182.566392,35.6045571 182.469065,35.62805 182.37,35.64 C182.260675,35.6572276 182.149325,35.6572276 182.04,35.64 L182.04,35.89 L184.38,35.89 L184.38,35.64 L184.13,35.64 L183.9,35.64 L183.82,35.64 C183.686825,35.6093059 183.571541,35.5264456 183.5,35.41 C183.393798,35.2434728 183.344658,35.0469134 183.36,34.85 L183.36,30.08 L185.86,35.98 L186.14,35.98 L188.66,29.91 L188.66,34.91 C188.667241,35.0558321 188.646884,35.2017202 188.6,35.34 C188.569259,35.4301352 188.509465,35.5075152 188.43,35.56 C188.35106,35.6072595 188.261853,35.6347078 188.17,35.64 L187.78,35.7 L187.78,35.95 L191.1,35.95 L191.1,35.7 L190.75,35.64 C190.653838,35.6333129 190.560942,35.6023477 190.48,35.55 C190.391729,35.4996827 190.321702,35.4226527 190.28,35.33 C190.231367,35.1921403 190.210963,35.0459066 190.22,34.9 L190.22,30.21 C190.22,29.67 190.51,29.41 191.1,29.41" id="Path" fill="#223266"></path>
                <path d="M72,0.05 L53.7,0.05 L53.7,22.24 L59.7,22.24 L59.7,17 L67.35,17 L71.85,22.26 L78.85,22.26 L74.94,17.65 L74.19,16.76 L75.19,16.22 C77.9301249,14.6466157 79.5883002,11.6987485 79.51,8.54 L79.51,8.54 C79.5325662,6.33691381 78.7462349,4.20207776 77.3,2.54 C75.9820469,0.97543141 74.0456366,0.0656839173 72,0.05 M70.18,11.89 L59.68,11.89 L59.68,5.13 L70.18,5.13 C71.9730757,5.20579605 73.367663,6.71659901 73.3,8.51 C73.3621335,10.3013536 71.9705932,11.8088556 70.18,11.89" id="Shape" fill="#223266"></path>
                <polygon id="Path" fill="#223266" points="125.18 0.01 118.78 7.53 112.42 0.01 105.5 0.01 115.7 12.2 115.7 22.24 121.76 22.24 121.76 12.12 132.12 0.01"></polygon>
                <path d="M170.33,22.2 L184.48,22.2 C186.351105,22.1653041 188.109937,21.3005451 189.28,19.84 C190.62469,18.1926494 191.350002,16.1263948 191.33,14 L191.33,8.24 C191.355142,6.10060516 190.629777,4.02004377 189.28,2.36 C188.110832,0.898340006 186.351442,0.0333065268 184.48,0 L170.33,0 C168.460219,0.0308598696 166.701119,0.89208604 165.53,2.35 C164.180223,4.01004377 163.454858,6.09060516 163.48,8.23 L163.48,14 C163.45295,16.1366669 164.178672,18.2147087 165.53,19.87 C166.700063,21.3305451 168.458895,22.1953041 170.33,22.23 L170.33,22.2 Z M169.46,8.58 C169.363032,6.7749979 170.736244,5.2279042 172.54,5.11 L182.26,5.11 C184.065177,5.22793224 185.441293,6.77328031 185.35,8.58 L185.35,13.68 C185.441464,15.4885941 184.066714,17.036857 182.26,17.16 L172.54,17.16 C170.73471,17.0368742 169.362872,15.4868749 169.46,13.68 L169.46,8.58 Z" id="Shape" fill="#223266"></path>
                <polygon id="Path" fill="#223266" points="159.09 22.23 159.09 0 152.95 0 152.95 14.51 140.53 0 133.95 0 133.95 22.23 139.97 22.23 139.97 7.69 152.32 22.23"></polygon>
                <path d="M87.55,22.23 L89,19.17 L102.47,19.17 L103.93,22.23 L110,22.23 L99.56,0 L91.68,0 L81.39,22.23 L87.55,22.23 Z M95.55,4.81 L100.2,14.59 L91.08,14.59 L95.55,4.81 Z" id="Shape" fill="#223266"></path>
            </g>
        </g>
    </g>
</svg>