<svg xmlns="http://www.w3.org/2000/svg" width="100" height="100" viewBox="0 0 100 100">
  <g fill="none" fill-rule="evenodd">
    <path stroke="#0E974F" stroke-width="2" d="M54.5,3.75277675 C51.7153903,2.1450816 48.2846097,2.1450816 45.5,3.75277675 L12.1987298,22.9792741 C9.41412012,24.5869692 7.69872981,27.5581124 7.69872981,30.7735027 L7.69872981,69.2264973 C7.69872981,72.4418876 9.41412012,75.4130308 12.1987298,77.0207259 L45.5,96.2472233 C48.2846097,97.8549184 51.7153903,97.8549184 54.5,96.2472233 L87.8012702,77.0207259 C90.5858799,75.4130308 92.3012702,72.4418876 92.3012702,69.2264973 L92.3012702,30.7735027 C92.3012702,27.5581124 90.5858799,24.5869692 87.8012702,22.9792741 L54.5,3.75277675 Z"/>
    <g stroke="#000" stroke-width="2" transform="translate(30.4 29)">
      <polygon stroke-linejoin="round" points="18.8 0 37.2 9.288 18.8 18.577 .4 9.288"/>
      <polyline stroke-linecap="round" stroke-linejoin="round" points="37.2 32.712 18.8 42 .4 32.712"/>
      <path d="M.4 8.88461538L.4 33.1153846M18.8 18.5769231L18.8 42M37.2 8.88461538L37.2 33.1153846"/>
    </g>
    <ellipse cx="32" cy="60.077" fill="#FFF" stroke="#000" stroke-width="2" rx="8" ry="8.077"/>
    <polyline stroke="#000" stroke-linecap="round" stroke-linejoin="round" stroke-width="1.8" points="28 60.105 31.613 64.429 36 57.571"/>
  </g>
</svg>
