<?xml version="1.0" encoding="UTF-8"?>
<svg width="224px" height="75px" viewBox="0 0 224 75" version="1.1" xmlns="http://www.w3.org/2000/svg" xmlns:xlink="http://www.w3.org/1999/xlink">
    <!-- Generator: Sketch 58 (84663) - https://sketch.com -->
    <title>LOGOS/logo_zoon</title>
    <desc>Created with Sketch.</desc>
    <g id="LOGOS/logo_zoon" stroke="none" stroke-width="1" fill="none" fill-rule="evenodd">
        <rect id="Rectangle" fill="#D8D8D8" opacity="0" x="0" y="7.10542736e-15" width="224" height="75"></rect>
        <path d="M89.2178082,57.9455137 C87.6833219,56.6669863 86.204589,55.4112671 84.6954452,54.1960959 C84.4204795,53.9743493 84.5383219,53.847637 84.6472945,53.6550342 C85.6609932,51.8574087 86.6746918,50.0593607 87.6883904,48.2608904 C88.0799315,47.567774 88.485411,46.8809932 88.8807534,46.190411 C88.9694521,46.0358219 89.0492808,45.9369863 88.8326027,45.7456507 C86.7063699,43.8196233 85.3125342,41.4374315 84.5826712,38.6713014 C84.190164,37.176013 84.0665978,35.6228551 84.2177397,34.0843151 C84.4990411,31.1826027 85.5216096,28.5634589 87.4108904,26.292774 C89.2798973,24.0474315 91.5923973,22.5078767 94.3940068,21.7159247 C96.0780137,21.2407534 97.7658219,21.0215411 99.5435959,21.1888014 C102.235707,21.4166699 104.806456,22.4098836 106.952466,24.0512329 C109.73,26.1647945 111.507774,28.9930137 112.185685,32.4142466 C112.964966,36.3423288 112.246507,40.0169863 109.937808,43.3330479 C107.816644,46.3868151 104.923801,48.267226 101.32137,49.1047945 C100.332783,49.3324621 99.3213432,49.445978 98.3068836,49.4431164 C97.2817808,49.4431164 96.2161301,49.3975 95.2303082,49.0731164 C94.5967466,48.8653082 94.3534589,48.9755479 94.0265411,49.562226 C92.4907877,52.3118836 90.8828082,55.0222603 89.3027055,57.7478425 C89.2701843,57.8118383 89.2418263,57.8778659 89.2178082,57.9455137 Z M98.2739384,42.7603082 C102.521336,42.8870205 105.749966,39.3682192 105.86274,35.5453082 C105.989452,31.2092123 102.602432,27.742363 98.3106849,27.7499533 C94.2348619,27.7431536 90.8985914,30.9905469 90.7953767,35.0650685 C90.664863,39.3884932 94.2660274,42.8768836 98.2739384,42.7603082 Z" id="Shape" fill="#000000" fill-rule="nonzero"></path>
        <path d="M115.748836,29.5910959 C115.30721,28.3826623 114.752717,27.2185231 114.092705,26.1141096 C113.765386,25.5800482 113.40834,25.0647853 113.023253,24.5707534 C112.830651,24.3173288 112.806575,24.145 113.075205,23.9574658 C114.771884,22.7739726 116.613014,21.8869863 118.640411,21.4815068 C119.556541,21.2990411 120.498014,21.1013699 121.428082,21.1292466 C123.048733,21.1761301 124.669384,21.2559589 126.225411,21.914863 C126.941336,22.2177055 127.745959,22.3646918 128.436541,22.7524315 C130.133219,23.7103767 131.747534,24.7646233 132.986781,26.3333219 C133.766062,27.320411 134.489589,28.3303082 135.036986,29.4542466 C135.766152,30.9561986 136.234896,32.571096 136.423219,34.2300342 C136.865445,38.0212671 135.91637,41.4272945 133.740719,44.5178082 C132.799247,45.8546233 131.671507,47.0431849 130.584315,48.2621575 C128.682785,50.3943037 126.768162,52.5167352 124.840445,54.6294521 C123.947123,55.6089384 123.011986,56.550411 122.102192,57.5146918 C121.881712,57.7478425 121.722055,57.8188014 121.45089,57.5324315 C119.104178,55.0649201 116.805616,52.5539041 114.555205,49.9993836 C113.703699,49.0401712 112.823048,48.1075685 111.953801,47.1610274 C113.273325,45.7872122 114.338976,44.1904513 115.101336,42.4447945 C115.326884,41.925274 115.554966,41.987363 115.873014,42.2775342 C116.488122,42.8247741 117.169196,43.2930129 117.900411,43.6713699 C118.770522,44.1450568 119.729029,44.4340755 120.715959,44.5203425 C124.517329,44.8383904 127.50774,43.3710616 129.389418,40.0435959 C131.0975,37.0050342 130.765514,33.2910959 128.523973,30.4932877 C127.130137,28.7522603 125.321952,27.6777397 123.171644,27.3356164 C120.745103,26.9554795 118.460479,27.4864041 116.479966,29.0386301 C116.254418,29.2185616 116.021267,29.387089 115.748836,29.5910959 Z" id="Path" fill="#654AA4" fill-rule="nonzero"></path>
        <path d="M156.299315,37.8413356 C156.299315,33.6281507 156.310719,29.5138014 156.285377,25.3994521 C156.285377,24.8710616 156.412089,24.7380137 156.935411,24.7532192 C158.391336,24.7937671 159.849795,24.782363 161.305719,24.7532192 C161.756815,24.7456164 161.88226,24.9065411 161.88226,25.3398973 C161.872123,32.0978881 161.872123,38.855879 161.88226,45.6138699 C161.88226,45.9800685 161.772021,46.0662329 161.422295,46.0636986 C159.563847,46.0476484 157.7054,46.0476484 155.846952,46.0636986 C155.574299,46.0808564 155.31231,45.9551398 155.155103,45.7317123 C153.120103,43.0289384 151.100308,40.3198288 149.05137,37.6221233 C147.942637,36.1585959 146.807295,34.7153425 145.630137,33.1935274 L145.630137,35.6010616 C145.630137,38.872774 145.630137,42.1457534 145.644075,45.4174658 C145.644075,45.8989726 145.541438,46.0814384 145.010514,46.0675 C143.533048,46.0282192 142.054315,46.0446918 140.575582,46.0598973 C140.230925,46.0598973 140.06113,46.0396233 140.068733,45.6037329 C140.085628,38.8271575 140.085628,32.0501598 140.068733,25.2727397 C140.068733,24.9040068 140.143493,24.7506849 140.554041,24.7570205 C142.115137,24.7798288 143.678767,24.7861644 145.242397,24.7570205 C145.690959,24.7481507 145.891164,25.0357877 146.10024,25.2942808 C147.961644,27.5890411 149.798973,29.9091438 151.652774,32.212774 C153.12137,34.0361644 154.605171,35.8481507 156.087705,37.6614041 C156.154046,37.7261484 156.224748,37.7862666 156.299315,37.8413356 L156.299315,37.8413356 Z" id="Path" fill="#000000" fill-rule="nonzero"></path>
        <path d="M72.0457534,30.4692123 L67.6361644,30.4692123 C66.0104452,30.4692123 64.384726,30.4565411 62.760274,30.4780822 C62.380137,30.4780822 62.2610274,30.4007877 62.2686301,29.9978425 C62.2939726,28.4367466 62.287637,26.8743836 62.2686301,25.3094863 C62.2686301,24.9889041 62.3383219,24.8824658 62.6817123,24.8837217 C68.4260046,24.8938699 74.1677626,24.8938699 79.9069863,24.8837217 C80.3073973,24.8837217 80.4062329,25.0218493 80.3998973,25.3981849 C80.3796233,26.622226 80.3859589,27.8462671 80.3998973,29.0728425 C80.4092613,29.3455231 80.308309,29.6104658 80.119863,29.807774 C78.7260274,31.3663356 77.3195205,32.9210959 75.9383562,34.4961301 C74.1783219,36.4994521 72.4360274,38.5167123 70.6164384,40.6087329 L71.8594863,40.6087329 C74.5204452,40.6087329 77.1814041,40.6239384 79.842363,40.5947945 C80.3314726,40.5947945 80.427774,40.7215068 80.417637,41.1865411 C80.387226,42.6424658 80.397363,44.1009247 80.417637,45.5568493 C80.417637,45.9015068 80.3948288,46.0700342 79.9602055,46.0638708 C74.1314384,46.0459589 68.3056279,46.0459589 62.482774,46.0638708 C62.1254452,46.0638708 62.0190068,45.9711986 62.0291438,45.6113356 C62.0757676,44.7248768 62.0728064,43.836505 62.020274,42.9503767 C61.9670548,42.3028767 62.2002055,41.8277055 62.5942808,41.3791438 C64.1148288,39.6495205 65.6353767,37.9287671 67.1432534,36.1915411 C68.7601027,34.3149315 70.3706164,32.4218493 72.0457534,30.4692123 Z" id="Path" fill="#000000" fill-rule="nonzero"></path>
    </g>
</svg>