<?xml version="1.0" encoding="UTF-8"?>
<svg width="224px" height="75px" viewBox="0 0 224 75" version="1.1" xmlns="http://www.w3.org/2000/svg" xmlns:xlink="http://www.w3.org/1999/xlink">
    <!-- Generator: Sketch 58 (84663) - https://sketch.com -->
    <title>LOGOS/logo_propartner</title>
    <desc>Created with Sketch.</desc>
    <g id="LOGOS/logo_propartner" stroke="none" stroke-width="1" fill="none" fill-rule="evenodd">
        <rect id="Rectangle" fill="#D8D8D8" opacity="0" x="0" y="7.10542736e-15" width="224" height="75"></rect>
        <g id="Group-8" transform="translate(18.000000, 28.000000)">
            <g id="Group-7">
                <path d="M78.6599997,6.13607141 C78.6599997,10.3992857 75.648095,12.2721428 70.8290474,12.2721428 L69.6965712,12.2721428 L69.6965712,16.7817857 C69.6965712,17.0528571 69.5038093,17.2499999 69.2387617,17.2499999 L63.9378093,17.2499999 C63.6727617,17.2499999 63.4799998,17.0528571 63.4799998,16.7817857 L63.4799998,0.468214284 C63.4799998,0.197142856 63.6727617,0 63.9378093,0 L70.8290474,0 C75.648095,0 78.6599997,1.84821428 78.6599997,6.13607141 Z M73.1399997,6.20999998 C73.1399997,4.63285713 72.3036361,4.13999999 71.1536361,4.13999999 L69.6899998,4.13999999 L69.6899998,8.27999997 L71.1536361,8.27999997 C72.3036361,8.27999997 73.1399997,7.76249997 73.1399997,6.20999998 Z M84.4672987,0 L92.8739812,0 C93.1404754,0 93.3100627,0.147857142 93.3827429,0.369642856 L97.9615988,16.6585714 C98.0342791,16.9542857 97.8889186,17.2499999 97.5739708,17.2499999 L91.8080042,17.2499999 C91.5415099,17.2499999 91.3234692,17.0528571 91.2992424,16.8310714 L90.7662539,14.2928571 L86.5507993,14.2928571 L86.0420375,16.8310714 C85.9693573,17.0528571 85.79977,17.2499999 85.509049,17.2499999 L79.7430824,17.2499999 C79.4281346,17.2499999 79.2827741,16.9542857 79.3796811,16.6585714 L83.958537,0.369642856 C84.0312172,0.147857142 84.1765777,0 84.4672987,0 Z M89.0099997,4.13999999 L87.6299997,9.65999997 L90.3899997,9.65999997 L89.0099997,4.13999999 Z M109.02,5.87706292 C109.02,4.64664334 108.305357,4.13999999 107.393571,4.13999999 L106.26,4.13999999 L106.26,7.58999997 L107.393571,7.58999997 C108.305357,7.58999997 109.02,7.10748249 109.02,5.87706292 Z M109.740971,16.9296428 L106.428241,12.075 L106.428241,16.7817857 C106.428241,17.0528571 106.230466,17.2499999 105.958526,17.2499999 L100.519715,17.2499999 C100.247775,17.2499999 100.05,17.0528571 100.05,16.7817857 L100.05,0.468214284 C100.05,0.197142856 100.247775,0 100.519715,0 L107.590169,0 C112.534542,0 115.624775,1.65107142 115.624775,5.71714284 C115.624775,8.18142854 114.487569,9.88178568 112.089548,10.7689285 L116.49004,16.5599999 C116.761981,16.8803571 116.539484,17.2499999 116.143934,17.2499999 L110.334296,17.2499999 C110.062355,17.2499999 109.86458,17.1514285 109.740971,16.9296428 Z M121.169476,16.7817857 L121.169476,4.43571427 L117.088619,4.43571427 C116.811523,4.43571427 116.61,4.23857141 116.61,3.96749999 L116.61,0.468214284 C116.61,0.197142856 116.811523,0 117.088619,0 L132.00138,0 C132.278476,0 132.48,0.197142856 132.48,0.468214284 L132.48,3.96749999 C132.48,4.23857141 132.278476,4.43571427 132.00138,4.43571427 L127.920523,4.43571427 L127.920523,16.7817857 C127.920523,17.0528571 127.719,17.2499999 127.441904,17.2499999 L121.648095,17.2499999 C121.371,17.2499999 121.169476,17.0528571 121.169476,16.7817857 Z M144.793697,16.9049999 L140.203361,7.83642854 L140.203361,16.7817857 C140.203361,17.0528571 140.010084,17.2499999 139.744327,17.2499999 L135.009033,17.2499999 C134.743277,17.2499999 134.55,17.0528571 134.55,16.7817857 L134.55,0.468214284 C134.55,0.197142856 134.743277,0 135.009033,0 L141.00063,0 C141.290546,0 141.459663,0.123214285 141.556302,0.344999999 L146.146638,9.4135714 L146.146638,0.468214284 C146.146638,0.197142856 146.339915,0 146.605672,0 L151.365126,0 C151.582563,0 151.799999,0.197142856 151.799999,0.468214284 L151.799999,16.7817857 C151.799999,17.0528571 151.582563,17.2499999 151.365126,17.2499999 L145.373529,17.2499999 C145.083613,17.2499999 144.914495,17.1021428 144.793697,16.9049999 Z M155.249999,16.7817857 L155.249999,0.468214284 C155.249999,0.197142856 155.443344,0 155.709194,0 L168.421628,0 C168.687478,0 168.880823,0.197142856 168.880823,0.468214284 L168.880823,3.72107142 C168.880823,3.99214284 168.687478,4.1892857 168.421628,4.1892857 L161.727057,4.1892857 L161.727057,6.48107141 L167.938266,6.48107141 C168.155779,6.48107141 168.373292,6.67821426 168.373292,6.94928569 L168.373292,10.2021428 C168.373292,10.4732142 168.155779,10.6703571 167.938266,10.6703571 L161.727057,10.6703571 L161.727057,13.0607142 L168.590805,13.0607142 C168.856654,13.0607142 169.049999,13.2825 169.049999,13.5042857 L169.049999,16.7817857 C169.049999,17.0528571 168.856654,17.2499999 168.590805,17.2499999 L155.709194,17.2499999 C155.443344,17.2499999 155.249999,17.0528571 155.249999,16.7817857 Z M180.779999,5.87706292 C180.779999,4.64664334 180.065357,4.13999999 179.153571,4.13999999 L178.019999,4.13999999 L178.019999,7.58999997 L179.153571,7.58999997 C180.065357,7.58999997 180.779999,7.10748249 180.779999,5.87706292 Z M180.810971,16.9296428 L177.498241,12.075 L177.498241,16.7817857 C177.498241,17.0528571 177.300466,17.2499999 177.028525,17.2499999 L171.589715,17.2499999 C171.317774,17.2499999 171.119999,17.0528571 171.119999,16.7817857 L171.119999,0.468214284 C171.119999,0.197142856 171.317774,0 171.589715,0 L178.660169,0 C183.604542,0 186.694775,1.65107142 186.694775,5.71714284 C186.694775,8.18142854 185.557569,9.88178568 183.159548,10.7689285 L187.56004,16.5599999 C187.831981,16.8803571 187.609484,17.2499999 187.213934,17.2499999 L181.404296,17.2499999 C181.132355,17.2499999 180.93458,17.1514285 180.810971,16.9296428 Z" id="PARTNER-Copy" fill="#00ADE6" fill-rule="nonzero"></path>
                <polygon id="Path-14-Copy" fill="#FF9400" points="0 0 14.8349999 0 18.2849999 3.44999999 18.2849999 13.8 14.8349999 17.2499999 4.48499998 17.2499999 4.48499998 23.1149999 0 23.1149999 0 13.11 14.145 13.11 14.145 4.13999999 0 4.13999999"></polygon>
                <path d="" id="Path-17" stroke="#979797" stroke-width="0.689999998"></path>
                <polygon id="Path-18-Copy" fill="#FF9400" points="21.0449999 17.2499999 25.8749999 17.2499999 25.8749999 4.13999999 38.9849999 4.13999999 38.9849999 0 24.4949999 0 21.0449999 3.44999999"></polygon>
                <path d="M54.8549998,0 L58.3049998,3.44999999 L58.3049998,13.8 L54.8549998,17.2499999 L43.8149998,17.2499999 L40.3649999,13.8 L40.3649999,3.44999999 L43.8149998,0 L54.8549998,0 Z M53.4749998,4.13999999 L44.5049998,4.13999999 L44.5049998,13.11 L53.4749998,13.11 L53.4749998,4.13999999 Z" id="Combined-Shape-Copy" fill="#FF9400"></path>
                <path d="M64.5562011,24.0530908 L64.5562011,21.2019224 L63.6279137,21.2019224 C63.5718084,21.2019224 63.5310046,21.1611185 63.5310046,21.1050133 L63.5310046,20.6765729 C63.5310046,20.6204676 63.5718084,20.5796638 63.6279137,20.5796638 L66.2801634,20.5796638 C66.3362687,20.5796638 66.3770725,20.6204676 66.3770725,20.6765729 L66.3770725,21.1050133 C66.3770725,21.1611185 66.3362687,21.2019224 66.2801634,21.2019224 L65.351876,21.2019224 L65.351876,24.0530908 C65.351876,24.1091961 65.3110722,24.1499999 65.2549669,24.1499999 L64.6531102,24.1499999 C64.5970049,24.1499999 64.5562011,24.1091961 64.5562011,24.0530908 Z M75.4008153,22.3648319 C75.4008153,23.4053298 74.7938582,24.2112057 73.7074559,24.2112057 C72.6261541,24.2112057 72.0140965,23.4053298 72.0140965,22.3648319 C72.0140965,21.3192334 72.6261541,20.518458 73.7074559,20.518458 C74.7938582,20.518458 75.4008153,21.3192334 75.4008153,22.3648319 Z M74.5949395,22.3648319 C74.5949395,21.5946594 74.2532073,21.1509176 73.7074559,21.1509176 C73.166805,21.1509176 72.8199724,21.5946594 72.8199724,22.3648319 C72.8199724,23.1350044 73.166805,23.5787461 73.7074559,23.5787461 C74.2532073,23.5787461 74.5949395,23.1350044 74.5949395,22.3648319 Z M81.3693705,24.0530908 L81.3693705,20.6765729 C81.3693705,20.6204676 81.4101744,20.5796638 81.4662796,20.5796638 L82.7107968,20.5796638 C83.5421751,20.5796638 84.0165197,20.9724008 84.0165197,21.5538555 C84.0165197,21.81398 83.9094096,22.079205 83.6135818,22.2526213 C84.0165197,22.4158367 84.1797351,22.7575688 84.1797351,23.0891 C84.1797351,23.7725644 83.6645866,24.1499999 82.777103,24.1499999 L81.4662796,24.1499999 C81.4101744,24.1499999 81.3693705,24.1091961 81.3693705,24.0530908 Z M83.3483568,23.0635976 C83.3483568,22.7779708 83.1545386,22.6096549 82.6648925,22.6096549 L82.1650454,22.6096549 L82.1650454,23.5481433 L82.6648925,23.5481433 C83.1545386,23.5481433 83.3483568,23.4053298 83.3483568,23.0635976 Z M83.2106439,21.6099608 C83.2106439,21.3192334 83.0270266,21.1815205 82.6138877,21.1815205 L82.1650454,21.1815205 L82.1650454,22.0077983 L82.6138877,22.0077983 C83.0270266,22.0077983 83.2106439,21.8802862 83.2106439,21.6099608 Z M91.4795156,21.2886305 L91.0306734,22.7320664 L91.9283579,22.7320664 L91.4795156,21.2886305 Z M91.0663767,20.5796638 L91.8926545,20.5796638 C91.9487598,20.5796638 91.9844631,20.6051662 92.0048651,20.656171 L93.172875,24.0224879 C93.1983774,24.0887942 93.1473726,24.1499999 93.0810664,24.1499999 L92.4588078,24.1499999 C92.4027025,24.1499999 92.3618987,24.1244975 92.3465972,24.0683922 L92.1221761,23.354325 L90.8368551,23.354325 L90.612434,24.0683922 C90.5971325,24.1244975 90.5563287,24.1499999 90.5002234,24.1499999 L89.8779648,24.1499999 C89.8014576,24.1499999 89.7606538,24.0887942 89.7861562,24.0224879 L90.9592666,20.656171 C90.9745681,20.6051662 91.0102714,20.5796638 91.0663767,20.5796638 Z M101.69167,21.7476738 C101.69167,22.5076453 101.151019,22.9207842 100.263536,22.9207842 L99.8197941,22.9207842 L99.8197941,24.0530908 C99.8197941,24.1091961 99.7738898,24.1499999 99.7279854,24.1499999 L99.1210283,24.1499999 C99.064923,24.1499999 99.0241192,24.1091961 99.0241192,24.0530908 L99.0241192,20.6765729 C99.0241192,20.6204676 99.064923,20.5796638 99.1210283,20.5796638 L100.263536,20.5796638 C101.151019,20.5796638 101.69167,20.9724008 101.69167,21.7476738 Z M100.885794,21.7476738 C100.885794,21.3396353 100.671574,21.1815205 100.187029,21.1815205 L99.8197941,21.1815205 L99.8197941,22.3189275 L100.187029,22.3189275 C100.671574,22.3189275 100.885794,22.1557122 100.885794,21.7476738 Z M107.71123,20.5796638 L108.313087,20.5796638 C108.369192,20.5796638 108.409996,20.6204676 108.409996,20.6765729 L108.409996,21.8547838 L108.889441,21.8547838 C109.685116,21.8547838 110.164561,22.2985256 110.164561,23.0023919 C110.164561,23.6960572 109.685116,24.1499999 108.889441,24.1499999 L107.71123,24.1499999 C107.655125,24.1499999 107.614321,24.1091961 107.614321,24.0530908 L107.614321,20.6765729 C107.614321,20.6204676 107.655125,20.5796638 107.71123,20.5796638 Z M110.521595,20.5796638 L111.123452,20.5796638 C111.179557,20.5796638 111.220361,20.6204676 111.220361,20.6765729 L111.220361,24.0530908 C111.220361,24.1091961 111.179557,24.1499999 111.123452,24.1499999 L110.521595,24.1499999 C110.46549,24.1499999 110.424686,24.1091961 110.424686,24.0530908 L110.424686,20.6765729 C110.424686,20.6204676 110.46549,20.5796638 110.521595,20.5796638 Z M109.394389,23.0023919 C109.394389,22.6555592 109.200571,22.461741 108.807834,22.461741 L108.409996,22.461741 L108.409996,23.5430428 L108.807834,23.5430428 C109.200571,23.5430428 109.394389,23.3441241 109.394389,23.0023919 Z M127.324563,20.6765729 L127.324563,24.0530908 C127.324563,24.1091961 127.283759,24.1499999 127.227654,24.1499999 L126.6513,24.1499999 C126.595195,24.1499999 126.554391,24.1091961 126.554391,24.0530908 L126.554391,21.7017694 L125.202764,24.0989951 C125.187462,24.1346985 125.146658,24.1499999 125.121156,24.1499999 L124.376486,24.1499999 C124.320381,24.1499999 124.279577,24.1091961 124.279577,24.0530908 L124.279577,20.6765729 C124.279577,20.6204676 124.320381,20.5796638 124.376486,20.5796638 L124.95284,20.5796638 C125.008945,20.5796638 125.049749,20.6204676 125.049749,20.6765729 L125.049749,23.0278943 L126.401376,20.6255681 C126.416678,20.5898648 126.462582,20.5796638 126.488085,20.5796638 L127.227654,20.5796638 C127.283759,20.5796638 127.324563,20.6204676 127.324563,20.6765729 Z M141.612995,22.2883247 L142.352565,20.6357691 C142.367866,20.6000657 142.40357,20.5796638 142.439273,20.5796638 L143.04113,20.5796638 C143.117637,20.5796638 143.158441,20.64597 143.132938,20.7122763 L141.633397,24.0887942 C141.618096,24.1244975 141.572191,24.1499999 141.546689,24.1499999 L140.939732,24.1499999 C140.863225,24.1499999 140.81732,24.0836937 140.853024,24.0173874 L141.255961,23.1044015 L140.098152,20.7173768 C140.062449,20.6408696 140.108353,20.5796638 140.184861,20.5796638 L140.786717,20.5796638 C140.81222,20.5796638 140.858124,20.6102667 140.873425,20.6357691 L141.612995,22.2883247 Z M151.656834,24.0581913 C151.386508,24.1653014 151.08558,24.2163062 150.779551,24.2163062 C149.616642,24.2163062 148.871972,23.481837 148.871972,22.3648319 C148.871972,21.2682286 149.606441,20.518458 150.76425,20.518458 C151.065178,20.518458 151.381408,20.5643624 151.631332,20.666372 C151.682336,20.6918744 151.707839,20.7275777 151.702738,20.783683 L151.667035,21.2172238 C151.661934,21.293731 151.595628,21.3243339 151.519121,21.2886305 C151.315102,21.1917214 151.100882,21.1509176 150.856059,21.1509176 C150.106288,21.1509176 149.677848,21.6354632 149.677848,22.3648319 C149.677848,23.1248034 150.12669,23.5838466 150.87136,23.5838466 C151.100882,23.5838466 151.340604,23.5328418 151.539523,23.4257317 C151.61603,23.3900284 151.682336,23.4206313 151.687437,23.4971385 L151.728241,23.9459807 C151.733341,24.0071865 151.702738,24.0377894 151.656834,24.0581913 Z M158.941313,21.2019224 L158.941313,22.7728703 C158.941313,23.8082677 158.716892,24.2112057 157.860011,24.2112057 C157.701896,24.2112057 157.564183,24.1959042 157.42137,24.1704018 C157.365265,24.1551004 157.334662,24.1040956 157.339762,24.0581913 L157.380566,23.6348514 C157.385667,23.5736457 157.441772,23.5328418 157.497877,23.5481433 C157.584585,23.5685452 157.666193,23.5787461 157.752901,23.5787461 C158.05893,23.5787461 158.145638,23.4512341 158.145638,23.0788991 L158.145638,20.6765729 C158.145638,20.6204676 158.186442,20.5796638 158.242547,20.5796638 L160.629572,20.5796638 C160.685677,20.5796638 160.726481,20.6204676 160.726481,20.6765729 L160.726481,24.0530908 C160.726481,24.1091961 160.685677,24.1499999 160.629572,24.1499999 L160.027715,24.1499999 C159.97161,24.1499999 159.930806,24.1091961 159.930806,24.0530908 L159.930806,21.2019224 L158.941313,21.2019224 Z M168.102769,22.2883247 L168.842338,20.6357691 C168.85764,20.6000657 168.893343,20.5796638 168.929047,20.5796638 L169.530903,20.5796638 C169.60741,20.5796638 169.648214,20.64597 169.622712,20.7122763 L168.123171,24.0887942 C168.107869,24.1244975 168.061965,24.1499999 168.036463,24.1499999 L167.429505,24.1499999 C167.352998,24.1499999 167.307094,24.0836937 167.342797,24.0173874 L167.745735,23.1044015 L166.587926,20.7173768 C166.552223,20.6408696 166.598127,20.5796638 166.674634,20.5796638 L167.276491,20.5796638 C167.301993,20.5796638 167.347898,20.6102667 167.363199,20.6357691 L168.102769,22.2883247 Z M175.540262,24.0530908 L175.540262,20.6765729 C175.540262,20.6204676 175.581066,20.5796638 175.637171,20.5796638 L177.85588,20.5796638 C177.911986,20.5796638 177.952789,20.6204676 177.952789,20.6765729 L177.952789,21.1050133 C177.952789,21.1611185 177.911986,21.2019224 177.85588,21.2019224 L176.335937,21.2019224 L176.335937,24.0530908 C176.335937,24.1091961 176.295133,24.1499999 176.239028,24.1499999 L175.637171,24.1499999 C175.581066,24.1499999 175.540262,24.1091961 175.540262,24.0530908 Z M186.808216,20.6765729 L186.808216,24.0530908 C186.808216,24.1091961 186.767413,24.1499999 186.711307,24.1499999 L186.134953,24.1499999 C186.078848,24.1499999 186.038044,24.1091961 186.038044,24.0530908 L186.038044,21.7017694 L184.686417,24.0989951 C184.671115,24.1346985 184.630311,24.1499999 184.604809,24.1499999 L183.860139,24.1499999 C183.804034,24.1499999 183.76323,24.1091961 183.76323,24.0530908 L183.76323,20.6765729 C183.76323,20.6204676 183.804034,20.5796638 183.860139,20.5796638 L184.436493,20.5796638 C184.492598,20.5796638 184.533402,20.6204676 184.533402,20.6765729 L184.533402,23.0278943 L185.885029,20.6255681 C185.900331,20.5898648 185.946235,20.5796638 185.971738,20.5796638 L186.711307,20.5796638 C186.767413,20.5796638 186.808216,20.6204676 186.808216,20.6765729 Z" id="ТОВАРЫИУСЛУГИ" fill="#888888" fill-rule="nonzero"></path>
            </g>
        </g>
    </g>
</svg>