<svg xmlns="http://www.w3.org/2000/svg" width="18" height="15" viewBox="0 0 18 15"><g><g><g/><g><path fill="#ed1c24" d="M11.967 3.17l-2.93 6.048L6.147 3.17l-2.4 7.295H3.33v.813h2.438v-.775H5.39l1.19-3.27 2.155 4.045h.586l2.155-4.082 1.21 3.27h-.435v.812h2.494v-.813h-.434z"/></g><g><path fill="#ed1c24" d="M17.519 8.524a8.592 8.592 0 0 1-1.91 5.424.359.359 0 0 1-.283.151c-.623.019-2.022.019-3.685.019-2.041 0-4.498-.019-6.407-.019H2.74a.34.34 0 0 1-.283-.132A8.54 8.54 0 0 1 .49 8.543c-.019-2.25.85-4.385 2.438-6.01A8.463 8.463 0 0 1 8.976 0c4.706 0 8.543 3.837 8.543 8.524zm-.756.019c0-4.29-3.497-7.787-7.787-7.787-2.079 0-4.025.832-5.5 2.306a7.752 7.752 0 0 0-.567 10.281h2.306c3.119.019 8.278.038 9.904 0a7.732 7.732 0 0 0 1.644-4.8z"/></g></g></g></svg>