<?xml version="1.0" encoding="UTF-8"?>
<svg width="88px" height="98px" viewBox="0 0 88 98" version="1.1" xmlns="http://www.w3.org/2000/svg" xmlns:xlink="http://www.w3.org/1999/xlink">
    <!-- Generator: Sketch 58 (84663) - https://sketch.com -->
    <title>Icons/apply_icon</title>
    <desc>Created with Sketch.</desc>
    <g id="Page-1" stroke="none" stroke-width="1" fill="none" fill-rule="evenodd">
        <g id="DELIVERY:-Extra-Large:-Desktops-≥1200" transform="translate(-416.000000, -2001.000000)">
            <g id="Как-мы-работаем-Copy" transform="translate(0.000000, 1852.000000)">
                <g id="2" transform="translate(330.000000, 148.000000)">
                    <g id="Icons/step2" transform="translate(80.000000, 0.000000)">
                        <path d="M54.5,3.75277675 C51.7153903,2.1450816 48.2846097,2.1450816 45.5,3.75277675 L12.1987298,22.9792741 C9.41412012,24.5869692 7.69872981,27.5581124 7.69872981,30.7735027 L7.69872981,69.2264973 C7.69872981,72.4418876 9.41412012,75.4130308 12.1987298,77.0207259 L45.5,96.2472233 C48.2846097,97.8549184 51.7153903,97.8549184 54.5,96.2472233 L87.8012702,77.0207259 C90.5858799,75.4130308 92.3012702,72.4418876 92.3012702,69.2264973 L92.3012702,30.7735027 C92.3012702,27.5581124 90.5858799,24.5869692 87.8012702,22.9792741 L54.5,3.75277675 Z" id="Polygon" stroke="#0E974F" stroke-width="2"></path>
                        <g id="Group" stroke-width="1" fill-rule="evenodd" transform="translate(27.000000, 29.000000)">
                            <g id="Group-5" fill="#FFFFFF" fill-rule="nonzero">
                                <circle id="Oval" cx="34.6640625" cy="3.5859375" r="1.1953125"></circle>
                                <circle id="Oval" cx="39.046875" cy="3.5859375" r="1.1953125"></circle>
                                <path d="M39.4453125,13.546875 L22.7109375,13.546875 C22.2726563,13.546875 21.9140625,13.9054687 21.9140625,14.34375 C21.9140625,14.7820313 22.2726563,15.140625 22.7109375,15.140625 L39.4453125,15.140625 C39.8835938,15.140625 40.2421875,14.7820313 40.2421875,14.34375 C40.2421875,13.9054687 39.8835938,13.546875 39.4453125,13.546875 Z" id="Path"></path>
                                <path d="M39.4453125,16.734375 L22.7109375,16.734375 C22.2726563,16.734375 21.9140625,17.0929688 21.9140625,17.53125 C21.9140625,17.9695312 22.2726563,18.328125 22.7109375,18.328125 L39.4453125,18.328125 C39.8835938,18.328125 40.2421875,17.9695312 40.2421875,17.53125 C40.2421875,17.0929688 39.8835938,16.734375 39.4453125,16.734375 Z" id="Path"></path>
                                <path d="M40.2421875,20.71875 C40.2421875,20.2804688 39.8835938,19.921875 39.4453125,19.921875 L22.7109375,19.921875 C22.2726563,19.921875 21.9140625,20.2804688 21.9140625,20.71875 C21.9140625,21.1570312 22.2726563,21.515625 22.7109375,21.515625 L39.4453125,21.515625 C39.8835938,21.515625 40.2421875,21.1570312 40.2421875,20.71875 Z" id="Path"></path>
                                <path d="M30.3210938,24.703125 C30.759375,24.703125 31.1179688,24.3445312 31.1179688,23.90625 C31.1179688,23.4679688 30.759375,23.109375 30.3210938,23.109375 L22.7109375,23.109375 C22.2726563,23.109375 21.9140625,23.4679688 21.9140625,23.90625 C21.9140625,24.3445312 22.2726563,24.703125 22.7109375,24.703125 L30.3210938,24.703125 Z" id="Path"></path>
                                <path d="M3.1875,41.4375 C2.3109375,41.4375 1.59375,40.7203125 1.59375,39.84375 L1.59375,7.171875 L43.03125,7.171875 L43.03125,32.034375 L44.625,32.6320313 L44.625,3.1875 C44.625,1.434375 43.190625,0 41.4375,0 L3.1875,0 C1.434375,0 0,1.434375 0,3.1875 L0,39.84375 C0,41.596875 1.434375,43.03125 3.1875,43.03125 L33.15,43.03125 L32.5921875,41.4375 L3.1875,41.4375 Z M3.1875,1.59375 L41.4375,1.59375 C42.3140625,1.59375 43.03125,2.3109375 43.03125,3.1875 L43.03125,5.578125 L1.59375,5.578125 L1.59375,3.1875 C1.59375,2.3109375 2.3109375,1.59375 3.1875,1.59375 Z" id="Shape"></path>
                            </g>
                            <ellipse id="Oval" stroke="#FFFFFF" stroke-width="2" stroke-linecap="round" stroke-linejoin="round" cx="40" cy="39.0769231" rx="8" ry="8.07692308"></ellipse>
                            <polyline id="Path" stroke="#FFFFFF" stroke-width="1.80000007" stroke-linecap="round" stroke-linejoin="round" fill-rule="nonzero" points="36 39.1046571 39.6131199 43.4285714 44 36.5714286"></polyline>
                        </g>
                        <path d="M34.1875,53.75 L42.953125,53.75 C44.70625,53.75 46.140625,52.315625 46.140625,50.5625 L46.140625,44.1875 C46.140625,42.434375 44.70625,41 42.953125,41 L34.1875,41 C32.434375,41 31,42.434375 31,44.1875 L31,50.5625 C31,52.315625 32.434375,53.75 34.1875,53.75 Z M32.59375,44.1875 C32.59375,43.3109375 33.3109375,42.59375 34.1875,42.59375 L42.953125,42.59375 C43.8296875,42.59375 44.546875,43.3109375 44.546875,44.1875 L44.546875,50.5625 C44.546875,51.4390625 43.8296875,52.15625 42.953125,52.15625 L34.1875,52.15625 C33.3109375,52.15625 32.59375,51.4390625 32.59375,50.5625 L32.59375,44.1875 Z" id="Shape" fill="#FFFFFF" fill-rule="nonzero"></path>
                        <path d="M48.53125,58 L31.796875,58 C31.3585938,58 31,58.3585937 31,58.796875 C31,59.2351563 31.3585938,59.59375 31.796875,59.59375 L48.53125,59.59375 C48.9695313,59.59375 49.328125,59.2351563 49.328125,58.796875 C49.328125,58.3585937 48.9695313,58 48.53125,58 Z" id="Path-Copy" fill="#FFFFFF" fill-rule="nonzero"></path>
                        <path d="M49.328125,61.796875 C49.328125,61.3585937 48.9695313,61 48.53125,61 L31.796875,61 C31.3585938,61 31,61.3585937 31,61.796875 C31,62.2351563 31.3585938,62.59375 31.796875,62.59375 L48.53125,62.59375 C48.9695313,62.59375 49.328125,62.2351563 49.328125,61.796875 Z" id="Path-Copy-2" fill="#FFFFFF" fill-rule="nonzero"></path>
                        <path d="M39.4070313,65.59375 C39.8453125,65.59375 40.2039063,65.2351563 40.2039063,64.796875 C40.2039063,64.3585937 39.8453125,64 39.4070313,64 L31.796875,64 C31.3585938,64 31,64.3585937 31,64.796875 C31,65.2351563 31.3585938,65.59375 31.796875,65.59375 L39.4070313,65.59375 Z" id="Path-Copy-3" fill="#FFFFFF" fill-rule="nonzero"></path>
                    </g>
                </g>
            </g>
        </g>
    </g>
</svg>