<svg xmlns="http://www.w3.org/2000/svg" width="100" height="100" viewBox="0 0 100 100"><defs><clipPath id="tg5la"><path fill="#fff" d="M79 41.887a10 10 0 0 1 10 0l33.301 19.226a10 10 0 0 1 5 8.66v38.453a10 10 0 0 1-5 8.66L89 136.114a10 10 0 0 1-10 0l-33.301-19.226a10 10 0 0 1-5-8.66V69.773a10 10 0 0 1 5-8.66z"/></clipPath></defs><g><g><g><path fill="none" stroke="#0e974f" stroke-miterlimit="50" stroke-width="4" d="M79 41.887a10 10 0 0 1 10 0l33.301 19.226a10 10 0 0 1 5 8.66v38.453a10 10 0 0 1-5 8.66L89 136.114a10 10 0 0 1-10 0l-33.301-19.226a10 10 0 0 1-5-8.66V69.773a10 10 0 0 1 5-8.66z" clip-path="url(&quot;#tg5la&quot;)"/></g><g><g><path fill="#fff" d="M95.665 72.78a1.195 1.195 0 1 0 0-2.39 1.195 1.195 0 0 0 0 2.39z"/></g><g><path fill="#fff" d="M100.045 72.78a1.195 1.195 0 1 0 0-2.39 1.195 1.195 0 0 0 0 2.39z"/></g><g><path fill="#fff" d="M66.594 83.19a1.6 1.6 0 0 1 1.595-1.596h8.773a1.6 1.6 0 0 1 1.595 1.595v6.382a1.6 1.6 0 0 1-1.595 1.595h-8.773a1.6 1.6 0 0 1-1.595-1.595zm1.594 9.56h8.765a3.197 3.197 0 0 0 3.188-3.188v-6.374A3.197 3.197 0 0 0 76.953 80h-8.766A3.197 3.197 0 0 0 65 83.188v6.374a3.197 3.197 0 0 0 3.188 3.188z"/></g><g><path fill="#fff" d="M100.441 81.55H83.707a.8.8 0 0 0-.797.797.8.8 0 0 0 .797.797h16.734a.8.8 0 0 0 .797-.797.8.8 0 0 0-.797-.797z"/></g><g><path fill="#fff" d="M100.441 84.73H83.707a.8.8 0 0 0-.797.797.8.8 0 0 0 .797.797h16.734a.8.8 0 0 0 .797-.797.8.8 0 0 0-.797-.797z"/></g><g><path fill="#fff" d="M82.531 97H65.797a.8.8 0 0 0-.797.797.8.8 0 0 0 .797.797H82.53a.8.8 0 0 0 .797-.797.8.8 0 0 0-.797-.797z"/></g><g><path fill="#fff" d="M101.238 88.717a.8.8 0 0 0-.797-.797H83.707a.8.8 0 0 0-.797.797.8.8 0 0 0 .797.797h16.734a.8.8 0 0 0 .797-.797z"/></g><g><path fill="#fff" d="M83.328 100.797a.8.8 0 0 0-.797-.797H65.797a.8.8 0 0 0-.797.797.8.8 0 0 0 .797.797H82.53a.8.8 0 0 0 .797-.797z"/></g><g><path fill="#fff" d="M91.317 92.704a.8.8 0 0 0 .797-.797.8.8 0 0 0-.797-.797h-7.61a.8.8 0 0 0-.797.797.8.8 0 0 0 .797.797z"/></g><g><path fill="#fff" d="M73.407 104.594a.8.8 0 0 0 .797-.797.8.8 0 0 0-.797-.797h-7.61a.8.8 0 0 0-.797.797.8.8 0 0 0 .797.797z"/></g><g><path fill="#fff" d="M64.188 69.594h38.25a1.6 1.6 0 0 1 1.593 1.598v2.396H62.594v-2.396a1.6 1.6 0 0 1 1.593-1.598zm0 39.844a1.598 1.598 0 0 1-1.594-1.594V75.172h41.437v24.862l1.594.598V71.187A3.197 3.197 0 0 0 102.437 68h-38.25A3.197 3.197 0 0 0 61 71.188v36.656a3.197 3.197 0 0 0 3.188 3.187H94.15l-.558-1.594z"/></g><g><path fill="#fff" d="M108.123 115.164c-.16.16-.399.24-.678.24-.517 0-1.115-.28-1.553-.758l-3.658-4.056-1.634-1.753-.996 2.191-.956 2.192c-.08.16-.16.279-.24.358-.04-.12-.119-.278-.198-.478l-4.383-12.83c-.12-.398-.16-.637-.16-.796.12 0 .32.08.558.16h.04l12.272 4.74c.279.12.478.24.558.32-.08.079-.24.238-.518.358l-2.072.916-2.032.917 1.514 1.633 3.737 4.176c.797.916.837 2.032.399 2.47zm.757-3.506l-3.738-4.176 2.152-.956c2.032-1.116 1.992-2.71-.16-3.626L94.824 98.2c-.478-.2-.917-.319-1.315-.319-1.275 0-1.793 1.116-1.235 2.909l4.383 12.79c.398 1.235.996 1.872 1.633 1.872.598 0 1.196-.518 1.714-1.514l.996-2.271 3.657 4.056c.757.837 1.793 1.275 2.71 1.275.677 0 1.315-.239 1.793-.717 1.195-1.116 1.076-3.188-.28-4.622z"/></g></g></g></g></svg>