<?xml version="1.0" encoding="UTF-8"?>
<svg width="88px" height="98px" viewBox="0 0 88 98" version="1.1" xmlns="http://www.w3.org/2000/svg" xmlns:xlink="http://www.w3.org/1999/xlink">
    <!-- Generator: Sketch 58 (84663) - https://sketch.com -->
    <title>Icons/order_icon</title>
    <desc>Created with Sketch.</desc>
    <g id="Page-1" stroke="none" stroke-width="1" fill="none" fill-rule="evenodd">
        <g id="DELIVERY:-Extra-Large:-Desktops-≥1200" transform="translate(-126.000000, -2001.000000)">
            <g id="Как-мы-работаем-Copy" transform="translate(0.000000, 1852.000000)">
                <g id="1" transform="translate(45.000000, 148.000000)">
                    <g id="Icons/step1" transform="translate(75.000000, 0.000000)">
                        <path d="M54.5,3.75277675 C51.7153903,2.1450816 48.2846097,2.1450816 45.5,3.75277675 L12.1987298,22.9792741 C9.41412012,24.5869692 7.69872981,27.5581124 7.69872981,30.7735027 L7.69872981,69.2264973 C7.69872981,72.4418876 9.41412012,75.4130308 12.1987298,77.0207259 L45.5,96.2472233 C48.2846097,97.8549184 51.7153903,97.8549184 54.5,96.2472233 L87.8012702,77.0207259 C90.5858799,75.4130308 92.3012702,72.4418876 92.3012702,69.2264973 L92.3012702,30.7735027 C92.3012702,27.5581124 90.5858799,24.5869692 87.8012702,22.9792741 L54.5,3.75277675 Z" id="Polygon" stroke="#0E974F" stroke-width="2"></path>
                        <g id="Group-5" stroke-width="1" fill-rule="evenodd" transform="translate(27.000000, 29.000000)" fill="#FFFFFF">
                            <circle id="Oval" fill-rule="nonzero" cx="34.6640625" cy="3.5859375" r="1.1953125"></circle>
                            <circle id="Oval" fill-rule="nonzero" cx="39.046875" cy="3.5859375" r="1.1953125"></circle>
                            <path d="M7.1875,24.75 L15.953125,24.75 C17.70625,24.75 19.140625,23.315625 19.140625,21.5625 L19.140625,15.1875 C19.140625,13.434375 17.70625,12 15.953125,12 L7.1875,12 C5.434375,12 4,13.434375 4,15.1875 L4,21.5625 C4,23.315625 5.434375,24.75 7.1875,24.75 Z M5.59375,15.1875 C5.59375,14.3109375 6.3109375,13.59375 7.1875,13.59375 L15.953125,13.59375 C16.8296875,13.59375 17.546875,14.3109375 17.546875,15.1875 L17.546875,21.5625 C17.546875,22.4390625 16.8296875,23.15625 15.953125,23.15625 L7.1875,23.15625 C6.3109375,23.15625 5.59375,22.4390625 5.59375,21.5625 L5.59375,15.1875 Z" id="Shape" fill-rule="nonzero"></path>
                            <path d="M39.4453125,13.546875 L22.7109375,13.546875 C22.2726563,13.546875 21.9140625,13.9054687 21.9140625,14.34375 C21.9140625,14.7820313 22.2726563,15.140625 22.7109375,15.140625 L39.4453125,15.140625 C39.8835938,15.140625 40.2421875,14.7820313 40.2421875,14.34375 C40.2421875,13.9054687 39.8835938,13.546875 39.4453125,13.546875 Z" id="Path" fill-rule="nonzero"></path>
                            <path d="M39.4453125,16.734375 L22.7109375,16.734375 C22.2726563,16.734375 21.9140625,17.0929688 21.9140625,17.53125 C21.9140625,17.9695312 22.2726563,18.328125 22.7109375,18.328125 L39.4453125,18.328125 C39.8835938,18.328125 40.2421875,17.9695312 40.2421875,17.53125 C40.2421875,17.0929688 39.8835938,16.734375 39.4453125,16.734375 Z" id="Path" fill-rule="nonzero"></path>
                            <path d="M21.53125,29 L4.796875,29 C4.35859375,29 4,29.3585938 4,29.796875 C4,30.2351562 4.35859375,30.59375 4.796875,30.59375 L21.53125,30.59375 C21.9695312,30.59375 22.328125,30.2351562 22.328125,29.796875 C22.328125,29.3585938 21.9695312,29 21.53125,29 Z" id="Path-Copy" fill-rule="nonzero"></path>
                            <path d="M40.2421875,20.71875 C40.2421875,20.2804688 39.8835938,19.921875 39.4453125,19.921875 L22.7109375,19.921875 C22.2726563,19.921875 21.9140625,20.2804688 21.9140625,20.71875 C21.9140625,21.1570312 22.2726563,21.515625 22.7109375,21.515625 L39.4453125,21.515625 C39.8835938,21.515625 40.2421875,21.1570312 40.2421875,20.71875 Z" id="Path" fill-rule="nonzero"></path>
                            <path d="M22.328125,32.796875 C22.328125,32.3585937 21.9695312,32 21.53125,32 L4.796875,32 C4.35859375,32 4,32.3585937 4,32.796875 C4,33.2351563 4.35859375,33.59375 4.796875,33.59375 L21.53125,33.59375 C21.9695312,33.59375 22.328125,33.2351563 22.328125,32.796875 Z" id="Path-Copy-2" fill-rule="nonzero"></path>
                            <path d="M30.3210937,24.703125 C30.759375,24.703125 31.1179687,24.3445312 31.1179687,23.90625 C31.1179687,23.4679688 30.759375,23.109375 30.3210937,23.109375 L22.7109375,23.109375 C22.2726562,23.109375 21.9140625,23.4679688 21.9140625,23.90625 C21.9140625,24.3445312 22.2726562,24.703125 22.7109375,24.703125 L30.3210937,24.703125 Z" id="Path" fill-rule="nonzero"></path>
                            <path d="M12.4070312,36.59375 C12.8453125,36.59375 13.2039062,36.2351563 13.2039062,35.796875 C13.2039062,35.3585937 12.8453125,35 12.4070312,35 L4.796875,35 C4.35859375,35 4,35.3585937 4,35.796875 C4,36.2351563 4.35859375,36.59375 4.796875,36.59375 L12.4070312,36.59375 Z" id="Path-Copy-3" fill-rule="nonzero"></path>
                            <path d="M3.1875,41.4375 C2.3109375,41.4375 1.59375,40.7203125 1.59375,39.84375 L1.59375,7.171875 L43.03125,7.171875 L43.03125,32.034375 L44.625,32.6320313 L44.625,3.1875 C44.625,1.434375 43.190625,0 41.4375,0 L3.1875,0 C1.434375,0 0,1.434375 0,3.1875 L0,39.84375 C0,41.596875 1.434375,43.03125 3.1875,43.03125 L33.15,43.03125 L32.5921875,41.4375 L3.1875,41.4375 Z M3.1875,1.59375 L41.4375,1.59375 C42.3140625,1.59375 43.03125,2.3109375 43.03125,3.1875 L43.03125,5.578125 L1.59375,5.578125 L1.59375,3.1875 C1.59375,2.3109375 2.3109375,1.59375 3.1875,1.59375 Z" id="Shape" fill-rule="nonzero"></path>
                            <path d="M47.884375,43.6609375 L44.146875,39.4851563 L46.2984375,38.5289062 C48.3304688,37.4132812 48.290625,35.8195312 46.1390625,34.903125 L33.8273438,30.2015625 C33.3492188,30.0023437 32.9109375,29.8828125 32.5125,29.8828125 C31.2375,29.8828125 30.7195313,30.9984375 31.2773438,32.7914063 L35.6601563,45.58125 C36.0585938,46.8164062 36.65625,47.4539063 37.29375,47.4539063 C37.8914063,47.4539063 38.4890625,46.9359375 39.0070313,45.9398438 L40.003125,43.66875 L43.6609375,47.725 C44.4179688,48.5617188 45.4539063,49 46.3703125,49 C47.0476563,49 47.6851563,48.7609375 48.1632813,48.2828125 C49.3585938,47.1671875 49.2390625,45.0953125 47.884375,43.6609375 Z M47.1273437,47.1671875 C46.9679687,47.3265625 46.7289062,47.40625 46.45,47.40625 C45.9320312,47.40625 45.334375,47.1273437 44.8960938,46.6492187 L41.2382813,42.5929687 L39.6046875,40.8398437 L38.6085938,43.03125 L37.6523438,45.2226562 C37.5726563,45.3820312 37.4929688,45.5015625 37.4132813,45.58125 C37.3734375,45.4617188 37.29375,45.3023437 37.2140625,45.103125 L32.83125,32.2734375 C32.7117188,31.875 32.671875,31.6359375 32.671875,31.4765625 C32.7914063,31.4765625 32.990625,31.55625 33.2296875,31.6359375 L33.2695313,31.6359375 L45.5414063,36.3773438 C45.8203125,36.496875 46.0195313,36.6164063 46.0992188,36.6960938 C46.0195313,36.7757813 45.8601563,36.9351562 45.58125,37.0546875 L43.509375,37.9710938 L41.4773438,38.8875 L42.9914063,40.5210937 L46.7289063,44.696875 C47.5257813,45.6132813 47.565625,46.7289063 47.1273437,47.1671875 Z" id="Shape" fill-rule="nonzero"></path>
                        </g>
                    </g>
                </g>
            </g>
        </g>
    </g>
</svg>