<svg xmlns="http://www.w3.org/2000/svg" width="100" height="100" viewBox="0 0 100 100"><defs><clipPath id="81uia"><path fill="#fff" d="M79 41.887a10 10 0 0 1 10 0l33.301 19.226a10 10 0 0 1 5 8.66v38.453a10 10 0 0 1-5 8.66L89 136.114a10 10 0 0 1-10 0l-33.301-19.226a10 10 0 0 1-5-8.66V69.773a10 10 0 0 1 5-8.66z"/></clipPath></defs><g><g><g><path fill="none" stroke="#0e974f" stroke-miterlimit="50" stroke-width="4" d="M79 41.887a10 10 0 0 1 10 0l33.301 19.226a10 10 0 0 1 5 8.66v38.453a10 10 0 0 1-5 8.66L89 136.114a10 10 0 0 1-10 0l-33.301-19.226a10 10 0 0 1-5-8.66V69.773a10 10 0 0 1 5-8.66z" clip-path="url(&quot;#81uia&quot;)"/></g><g><g><g><path fill="#fff" d="M95.665 72.78a1.195 1.195 0 1 0 0-2.39 1.195 1.195 0 0 0 0 2.39z"/></g><g><path fill="#fff" d="M100.045 72.78a1.195 1.195 0 1 0 0-2.39 1.195 1.195 0 0 0 0 2.39z"/></g><g><path fill="#fff" d="M100.441 81.55H83.707a.8.8 0 0 0-.797.797.8.8 0 0 0 .797.797h16.734a.8.8 0 0 0 .797-.797.8.8 0 0 0-.797-.797z"/></g><g><path fill="#fff" d="M100.441 84.73H83.707a.8.8 0 0 0-.797.797.8.8 0 0 0 .797.797h16.734a.8.8 0 0 0 .797-.797.8.8 0 0 0-.797-.797z"/></g><g><path fill="#fff" d="M101.238 88.717a.8.8 0 0 0-.797-.797H83.707a.8.8 0 0 0-.797.797.8.8 0 0 0 .797.797h16.734a.8.8 0 0 0 .797-.797z"/></g><g><path fill="#fff" d="M91.317 92.704a.8.8 0 0 0 .797-.797.8.8 0 0 0-.797-.797h-7.61a.8.8 0 0 0-.797.797.8.8 0 0 0 .797.797z"/></g><g><path fill="#fff" d="M64.188 69.594h38.25a1.6 1.6 0 0 1 1.593 1.598v2.396H62.594v-2.396a1.6 1.6 0 0 1 1.593-1.598zm0 39.844a1.598 1.598 0 0 1-1.594-1.594V75.172h41.437v24.862l1.594.598V71.187A3.197 3.197 0 0 0 102.437 68h-38.25A3.197 3.197 0 0 0 61 71.188v36.656a3.197 3.197 0 0 0 3.188 3.187H94.15l-.558-1.594z"/></g></g><g><path fill="none" stroke="#fff" stroke-linecap="round" stroke-linejoin="round" stroke-miterlimit="50" stroke-width="2" d="M101 115.154c4.418 0 8-3.616 8-8.077 0-4.46-3.582-8.077-8-8.077s-8 3.616-8 8.077c0 4.46 3.582 8.077 8 8.077z"/></g><g><path fill="none" stroke="#fff" stroke-linecap="round" stroke-linejoin="round" stroke-miterlimit="50" stroke-width="1.8" d="M97 107.103v0l3.613 4.324v0L105 104.57v0"/></g></g><g><path fill="#fff" d="M66.594 83.19a1.6 1.6 0 0 1 1.595-1.596h8.773a1.6 1.6 0 0 1 1.595 1.595v6.382a1.6 1.6 0 0 1-1.595 1.595h-8.773a1.6 1.6 0 0 1-1.595-1.595zm1.594 9.56h8.765a3.197 3.197 0 0 0 3.188-3.188v-6.374A3.197 3.197 0 0 0 76.953 80h-8.766A3.197 3.197 0 0 0 65 83.188v6.374a3.197 3.197 0 0 0 3.188 3.188z"/></g><g><path fill="#fff" d="M82.531 97H65.797a.8.8 0 0 0-.797.797.8.8 0 0 0 .797.797H82.53a.8.8 0 0 0 .797-.797.8.8 0 0 0-.797-.797z"/></g><g><path fill="#fff" d="M83.328 100.797a.8.8 0 0 0-.797-.797H65.797a.8.8 0 0 0-.797.797.8.8 0 0 0 .797.797H82.53a.8.8 0 0 0 .797-.797z"/></g><g><path fill="#fff" d="M73.407 104.594a.8.8 0 0 0 .797-.797.8.8 0 0 0-.797-.797h-7.61a.8.8 0 0 0-.797.797.8.8 0 0 0 .797.797z"/></g></g></g></svg>