<svg xmlns="http://www.w3.org/2000/svg" width="100" height="100" viewBox="0 0 100 100"><defs><clipPath id="pcj8a"><path fill="#fff" d="M79 41.887a10 10 0 0 1 10 0l33.301 19.226a10 10 0 0 1 5 8.66v38.453a10 10 0 0 1-5 8.66L89 136.114a10 10 0 0 1-10 0l-33.301-19.226a10 10 0 0 1-5-8.66V69.773a10 10 0 0 1 5-8.66z"/></clipPath></defs><g><g><g><path fill="none" stroke="#0e974f" stroke-miterlimit="50" stroke-width="4" d="M79 41.887a10 10 0 0 1 10 0l33.301 19.226a10 10 0 0 1 5 8.66v38.453a10 10 0 0 1-5 8.66L89 136.114a10 10 0 0 1-10 0l-33.301-19.226a10 10 0 0 1-5-8.66V69.773a10 10 0 0 1 5-8.66z" clip-path="url(&quot;#pcj8a&quot;)"/></g><g><path fill="#fff" d="M105.463 108.104H95.176a2.388 2.388 0 0 0-.698-1.938l-6.55-6.5a.384.384 0 0 1-.112-.271.41.41 0 0 1 .133-.292.352.352 0 0 1 .495 0l1.908 1.893c.571.57 1.348.89 2.158.888a3.04 3.04 0 0 0 2.157-.887l.54-.536c.269-.267.299-.69.07-.991l-4.298-5.665a13.001 13.001 0 0 0-7.456-4.803l-3.815-.869a.77.77 0 0 1-.37-.204l-.77-.763 1.62-1.607a.753.753 0 0 0 0-1.07L67.356 71.752h13.689v8.33a.76.76 0 0 0 .763.758h7.63a.76.76 0 0 0 .764-.757v-8.33h15.261zm-12.558.49a.792.792 0 0 1-.528-.216l-1.394-1.386a.767.767 0 0 0-1.08 0 .754.754 0 0 0 0 1.071.754.754 0 0 1-.55 1.289.78.78 0 0 1-.53-.217l-1.078-1.07a.767.767 0 0 0-1.062.016.754.754 0 0 0-.016 1.054.754.754 0 0 1 0 1.07.801.801 0 0 1-.55.217.658.658 0 0 1-.53-.218l-1.078-1.069a.767.767 0 0 0-1.277.34c-.07.261.005.54.197.732a.754.754 0 0 1 0 1.07.707.707 0 0 1-.55.218.756.756 0 0 1-.529-.217L72.127 101.12a3.782 3.782 0 0 1-.992-1.72L71 98.886a5.304 5.304 0 0 0-1.391-2.41l-.2-.198 8.086-8.037.769.763c.304.302.687.512 1.106.606l3.814.87a11.473 11.473 0 0 1 6.578 4.243l3.899 5.141-.071.07a1.518 1.518 0 0 1-1.078.445c-.405 0-.794-.16-1.08-.445l-1.907-1.894a1.866 1.866 0 0 0-1.326-.547 1.92 1.92 0 0 0-1.763 1.18c-.294.711-.13 1.527.416 2.072l6.549 6.502a.816.816 0 0 1 .108 1.08.807.807 0 0 1-.604.267zm-27.122-.49V98.037l.381.379a.768.768 0 0 0 1.08 0l1.079-1.071.2.2c.479.475.821 1.069.993 1.719l.134.514c.24.912.721 1.743 1.392 2.41l5.966 5.916zm22.898-36.35v7.582h-6.106v-7.583zm17.556-1.515H65.83l-2.032-2.017a.768.768 0 0 0-1.08 0 .753.753 0 0 0 0 1.07l15.86 15.736L66.704 96.81l-4.41-4.376a.768.768 0 0 0-1.07.01.753.753 0 0 0-.01 1.06l3.042 3.019v12.338a.76.76 0 0 0 .763.758h13.516l2.742 2.72c.418.42.986.658 1.58.661h.06a2.256 2.256 0 0 0 1.603-.661c.204-.202.367-.441.481-.704a2.28 2.28 0 0 0 1.128.294 2.28 2.28 0 0 0 2.111-1.363c.342.195.731.296 1.126.293a2.376 2.376 0 0 0 1.63-.66c.186-.184.338-.399.45-.634.83.692 2.035.714 2.891.054h11.9a.76.76 0 0 0 .763-.758V70.996a.76.76 0 0 0-.763-.757z"/></g></g></g></svg>