<?xml version="1.0" encoding="UTF-8"?>
<svg width="88px" height="98px" viewBox="0 0 88 98" version="1.1" xmlns="http://www.w3.org/2000/svg" xmlns:xlink="http://www.w3.org/1999/xlink">
    <!-- Generator: Sketch 58 (84663) - https://sketch.com -->
    <title>Icons/customer_icon</title>
    <desc>Created with Sketch.</desc>
    <g id="Page-1" stroke="none" stroke-width="1" fill="none" fill-rule="evenodd">
        <g id="DELIVERY:-Extra-Large:-Desktops-≥1200" transform="translate(-984.000000, -2001.000000)">
            <g id="Как-мы-работаем-Copy" transform="translate(0.000000, 1852.000000)">
                <g id="4" transform="translate(900.000000, 148.000000)">
                    <g id="Icons/step4" transform="translate(78.000000, 0.000000)">
                        <path d="M54.5,3.75277675 C51.7153903,2.1450816 48.2846097,2.1450816 45.5,3.75277675 L12.1987298,22.9792741 C9.41412012,24.5869692 7.69872981,27.5581124 7.69872981,30.7735027 L7.69872981,69.2264973 C7.69872981,72.4418876 9.41412012,75.4130308 12.1987298,77.0207259 L45.5,96.2472233 C48.2846097,97.8549184 51.7153903,97.8549184 54.5,96.2472233 L87.8012702,77.0207259 C90.5858799,75.4130308 92.3012702,72.4418876 92.3012702,69.2264973 L92.3012702,30.7735027 C92.3012702,27.5581124 90.5858799,24.5869692 87.8012702,22.9792741 L54.5,3.75277675 Z" id="Polygon" stroke="#0E974F" stroke-width="2"></path>
                        <path d="M72.2367136,31.2387476 L31.8298567,31.2387476 L29.7979882,29.2220438 C29.4999514,28.9261333 29.0165672,28.9259638 28.7183196,29.2216652 C28.4200719,29.5173666 28.4199011,29.9969628 28.7179379,30.2928734 L44.5782666,46.0281606 L32.7038197,57.8095575 L28.2935507,53.4338481 C27.9940532,53.1468505 27.517987,53.150955 27.2235616,53.4430732 C26.9291362,53.7351914 26.9249993,54.2075271 27.2142637,54.5046777 L30.2559601,57.5225388 L30.2559601,69.8613123 C30.2559601,70.2795604 30.5976951,70.6186175 31.0192465,70.6186175 L44.5347593,70.6186175 L47.2772474,73.3396151 C47.6947781,73.7589622 48.2631456,73.9965143 48.8572503,74 L48.9167867,74 C49.5187734,74.0015272 50.0962123,73.7633586 50.5196882,73.3388578 C50.7237652,73.1367857 50.8872176,72.8980261 51.0013219,72.6353212 C51.3448763,72.8290853 51.7335149,72.9303786 52.1286959,72.9291556 C53.0446401,72.9371452 53.8763515,72.4001426 54.2399462,71.5660063 C54.5824534,71.7608814 54.970976,71.8620204 55.3657937,71.8590834 C55.9746464,71.8552785 56.5585885,71.6187582 56.9961735,71.1987133 C57.181792,71.0145942 57.3341238,70.800183 57.4465125,70.5648488 C58.2768131,71.2565253 59.4812298,71.2789291 60.3370782,70.6186175 L72.2367136,70.6186175 C72.658265,70.6186175 73,70.2795604 73,69.8613123 L73,31.9960528 C73,31.5778047 72.658265,31.2387476 72.2367136,31.2387476 Z M54.6811258,32.753358 L54.6811258,40.3264099 L48.5748343,40.3264099 L48.5748343,32.753358 L54.6811258,32.753358 Z M31.7825329,69.1040071 L31.7825329,59.0371492 L32.1641762,59.4158018 C32.4622394,59.7114401 32.9453999,59.7114401 33.2434632,59.4158018 L34.3227502,58.3449723 L34.5234945,58.5441435 C35.0017677,59.020241 35.3441723,59.6137083 35.5157669,60.2639836 L35.6501053,60.7781939 C35.8905026,61.6895393 36.3710255,62.5209897 37.0423397,63.1871817 L43.0081864,69.1040071 L31.7825329,69.1040071 Z M58.9150756,69.5856532 C58.7179214,69.5814624 58.529491,69.5041954 58.3868814,69.3690639 L56.9915938,67.9839528 L56.9915938,67.9839528 C56.6935569,67.6880422 56.2101728,67.6878727 55.9119251,67.9835741 C55.6136775,68.2792755 55.6135066,68.7588718 55.9115435,69.0547823 C56.2095167,69.3505099 56.2095167,69.8298843 55.9115435,70.1256118 C55.7669221,70.2718719 55.5668101,70.3507944 55.3604507,70.3429584 C55.1627973,70.3400756 54.9736657,70.2626329 54.8314932,70.1263691 L53.7522062,69.0555396 C53.4515899,68.7758491 52.9814817,68.7834231 52.6901766,69.07265 C52.3988715,69.3618769 52.3915704,69.8283065 52.6736824,70.1263691 L52.6736824,70.1263691 C52.9701328,70.4218347 52.9701328,70.8994612 52.6736824,71.1949268 C52.5253057,71.3345273 52.3285986,71.4123225 52.1241162,71.4122734 C51.9232842,71.4243004 51.7280055,71.3441767 51.5943954,71.1949268 L50.5151084,70.1263691 C50.3223124,69.9349486 50.0412333,69.8601181 49.7777509,69.9300658 C49.5142685,70.0000134 49.308412,70.2041124 49.2377257,70.4654806 C49.1670394,70.7268488 49.2422621,71.0057781 49.4350581,71.1971987 C49.7330314,71.4929262 49.7330314,71.9723007 49.4350581,72.2680282 C49.2928899,72.4169783 49.0919508,72.4964472 48.8854919,72.4853748 C48.6869506,72.4850107 48.4965804,72.4069011 48.3557711,72.2680282 L38.127733,62.1155948 C37.6489608,61.6398754 37.306474,61.0462656 37.1354607,60.3957547 L37.000359,59.8815445 C36.7599175,58.9706061 36.2796901,58.1394726 35.6088878,57.473314 L35.4081435,57.2741427 L43.4982163,49.2414066 L44.267609,50.0040129 C44.5715715,50.3050641 44.9548882,50.5150368 45.3736111,50.6098571 L49.1900432,51.4792434 C51.8177546,52.0814321 54.1475894,53.582979 55.7703355,55.7201525 L59.6707291,60.8592255 L59.5997435,60.9296549 C59.3145734,61.2148134 58.9260968,61.3746601 58.5212198,61.3734357 L58.5212198,61.3734357 C58.1161198,61.3739021 57.7275983,61.2138773 57.4419328,60.9288976 L55.5337167,59.0356346 C55.1831515,58.684487 54.7052757,58.4875234 54.2071249,58.4888603 L54.2071249,58.4888603 C53.4332309,58.4937752 52.7379321,58.9590972 52.4434505,59.6691824 C52.148969,60.3792675 52.3128559,61.1953426 52.8591611,61.7392141 L59.4104485,68.2391646 C59.7157717,68.5205697 59.7622305,68.9834639 59.5188351,69.3190818 L59.5188351,69.3190818 C59.3653514,69.4896328 59.1455209,69.5866922 58.9150756,69.5856532 Z M71.4734271,69.1040071 L61.1827995,69.1040071 C61.2554658,68.386847 60.9993048,67.6752724 60.4851557,67.1660631 L53.9338683,60.6661127 C53.8616685,60.594046 53.8210694,60.4966095 53.8209019,60.3949974 C53.8235924,60.2836086 53.8718085,60.1780911 53.9544771,60.1026776 C54.0912858,59.9669928 54.3130412,59.9669928 54.44985,60.1026776 L56.358066,61.9959406 C56.9293303,62.5659074 57.7064829,62.8857294 58.51664,62.8842596 L58.51664,62.8842596 C59.3265741,62.8864874 60.1036819,62.5668435 60.6744508,61.9966979 L61.2140943,61.4612831 C61.4832994,61.1944159 61.5132525,60.7715742 61.2843166,60.4699706 L56.9847242,54.8053278 C55.1454994,52.3840283 52.5051027,50.6832304 49.5274158,50.001741 L45.7109837,49.1331119 C45.5707848,49.1009628 45.4425118,49.030375 45.3407897,48.9293968 L44.571397,48.1660332 L46.1910908,46.5590316 C46.4890641,46.263304 46.4890641,45.7839296 46.1910908,45.488202 L33.3564296,32.753358 L47.0482615,32.753358 L47.0482615,41.0837151 C47.0482615,41.5019632 47.3899965,41.8410202 47.8115479,41.8410202 L55.4444122,41.8410202 C55.8659636,41.8410202 56.2076986,41.5019632 56.2076986,41.0837151 L56.2076986,32.753358 L71.4734271,32.753358 L71.4734271,69.1040071 Z" id="Shape" fill="#FFFFFF" fill-rule="nonzero"></path>
                    </g>
                </g>
            </g>
        </g>
    </g>
</svg>