<svg xmlns="http://www.w3.org/2000/svg" width="100" height="100" viewBox="0 0 100 100"><defs><clipPath id="tptaa"><path fill="#fff" d="M79 41.887a10 10 0 0 1 10 0l33.301 19.226a10 10 0 0 1 5 8.66v38.453a10 10 0 0 1-5 8.66L89 136.114a10 10 0 0 1-10 0l-33.301-19.226a10 10 0 0 1-5-8.66V69.773a10 10 0 0 1 5-8.66z"/></clipPath></defs><g><g><g><path fill="none" stroke="#0e974f" stroke-miterlimit="50" stroke-width="4" d="M79 41.887a10 10 0 0 1 10 0l33.301 19.226a10 10 0 0 1 5 8.66v38.453a10 10 0 0 1-5 8.66L89 136.114a10 10 0 0 1-10 0l-33.301-19.226a10 10 0 0 1-5-8.66V69.773a10 10 0 0 1 5-8.66z" clip-path="url(&quot;#tptaa&quot;)"/></g><g><g><g><path fill="none" stroke="#fff" stroke-linecap="round" stroke-linejoin="round" stroke-miterlimit="50" stroke-width="1.9" d="M90.684 70v0l17.465 8.846v0l-17.465 8.846v0L73.22 78.846v0z"/></g><g><path fill="none" stroke="#fff" stroke-linecap="round" stroke-linejoin="round" stroke-miterlimit="50" stroke-width="1.9" d="M108.149 101.156v0l-17.465 8.836v0l-17.464-8.836v0"/></g><g><path fill="none" stroke="#fff" stroke-linejoin="round" stroke-miterlimit="50" stroke-width="1.9" d="M73.22 78.46v23.077"/></g><g><path fill="none" stroke="#fff" stroke-linejoin="round" stroke-miterlimit="50" stroke-width="1.9" d="M90.68 87.69v22.308"/></g><g><path fill="none" stroke="#fff" stroke-linejoin="round" stroke-miterlimit="50" stroke-width="1.9" d="M108.15 78.46v23.077"/></g></g><g><path fill="none" stroke="#fff" stroke-linecap="round" stroke-linejoin="round" stroke-miterlimit="50" stroke-width="1.9" d="M60.59 97.616h6.644"/></g><g><path fill="none" stroke="#fff" stroke-linecap="round" stroke-linejoin="round" stroke-miterlimit="50" stroke-width="1.9" d="M53 82.856h14.237"/></g><g><path fill="none" stroke="#fff" stroke-linecap="round" stroke-linejoin="round" stroke-miterlimit="50" stroke-width="1.9" d="M56.8 89.996h10.44"/></g><g transform="rotate(-270 99.5 87)"><path fill="none" stroke="#fff" stroke-linecap="round" stroke-linejoin="round" stroke-miterlimit="50" stroke-width="1.9" d="M96 86.996h6.644"/></g></g></g></g></svg>