<?xml version="1.0" encoding="UTF-8"?>
<svg width="17px" height="13px" viewBox="0 0 17 13" version="1.1" xmlns="http://www.w3.org/2000/svg" xmlns:xlink="http://www.w3.org/1999/xlink">
    <!-- Generator: Sketch 58 (84663) - https://sketch.com -->
    <title>header-phone</title>
    <desc>Created with Sketch.</desc>
    <g id="Page-1" stroke="none" stroke-width="1" fill="none" fill-rule="evenodd">
        <g id="DELIVERY:-Extra-Large:-Desktops-≥1200" transform="translate(-932.000000, -1157.000000)" fill="#0E974F">
            <g id="Group-14" transform="translate(45.000000, 850.000000)">
                <g id="Group-6" transform="translate(0.000000, 75.000000)">
                    <g id="Group-10-Copy" transform="translate(855.000000, 0.000000)">
                        <g id="Group-36" transform="translate(28.000000, 25.000000)">
                            <g id="Group-29" transform="translate(0.000000, 200.000000)">
                                <g id="header-email">
                                    <g id="noun_Email_1569995" transform="translate(4.000000, 7.000000)">
                                        <g id="Group" transform="translate(0.000000, 0.543554)">
                                            <path d="M1.24390244,0.0824911321 C1.08095744,0.0824911321 0.926282317,0.120094771 0.783917683,0.182137358 L8.00114329,6.92961496 C8.31702402,7.2252283 8.66927232,7.22543329 8.98589939,6.92961496 L16.2096037,0.175008383 C16.0692977,0.115038437 15.9161712,0.0824911321 15.7560976,0.0824911321 L1.24390244,0.0824911321 Z M0.0129573171,1.2497755 C0.00452365854,1.31427792 0,1.38192348 0,1.44906795 L0,10.5595846 C0,11.3166454 0.554792927,11.9261615 1.24390244,11.9261615 L15.7560976,11.9261615 C16.4452071,11.9261615 17,11.3166454 17,10.5595846 L17,1.44906795 C17,1.38192348 16.9954805,1.31427792 16.9870427,1.2497755 L9.79573171,7.96878275 C9.05026098,8.66523585 7.93674024,8.66635189 7.19131098,7.96878275 L0.0129573171,1.2497755 Z" id="Shape"></path>
                                        </g>
                                    </g>
                                </g>
                            </g>
                        </g>
                    </g>
                </g>
            </g>
        </g>
    </g>
</svg>