<svg xmlns="http://www.w3.org/2000/svg" width="26" height="26" viewBox="0 0 26 26"><g><g><g/><g><path fill="none" stroke="#fff" stroke-miterlimit="50" stroke-width="1.55" d="M12.975 25C19.6 25 24.97 19.627 24.97 13S19.6 1 12.975 1C6.35 1 .98 6.373.98 13s5.37 12 11.995 12z"/></g><g><path fill="#fff" d="M17.62 10.192a2.46 2.46 0 0 0 1.033-1.37c-.454.284-.956.49-1.492.6a2.286 2.286 0 0 0-1.714-.782c-1.297 0-2.348 1.11-2.348 2.478 0 .195.02.384.06.565-1.952-.104-3.683-1.09-4.842-2.59A2.578 2.578 0 0 0 8 10.34c0 .86.415 1.618 1.045 2.063a2.264 2.264 0 0 1-1.064-.31v.03c0 1.202.809 2.204 1.885 2.43a2.208 2.208 0 0 1-1.061.043c.298.985 1.166 1.703 2.194 1.722a4.56 4.56 0 0 1-3.478 1.027 6.403 6.403 0 0 0 3.6 1.113c4.322 0 6.684-3.776 6.684-7.052 0-.108-.002-.215-.006-.32.459-.35.858-.787 1.172-1.284a4.5 4.5 0 0 1-1.35.39z"/></g></g></g></svg>