<svg xmlns="http://www.w3.org/2000/svg" width="26" height="26" viewBox="0 0 26 26"><g><g><g/><g><path fill="none" stroke="#fff" stroke-miterlimit="50" stroke-width="1.55" d="M12.995 25c6.625 0 11.995-5.373 11.995-12S19.62 1 12.995 1C6.37 1 1 6.373 1 13s5.37 12 11.995 12z"/></g><g><path fill="#fff" d="M13.394 17.324s.246-.026.372-.16c.115-.121.111-.35.111-.35s-.015-1.074.492-1.232c.5-.156 1.142 1.037 1.824 1.496.514.347.905.271.905.271l1.82-.025s.953-.057.501-.792c-.037-.06-.263-.544-1.353-1.538-1.142-1.04-.989-.872.386-2.672.837-1.096 1.172-1.765 1.067-2.051-.1-.274-.715-.201-.715-.201l-2.05.012s-.152-.02-.264.046c-.11.065-.182.216-.182.216s-.324.848-.756 1.57c-.913 1.521-1.278 1.602-1.427 1.507-.347-.22-.26-.885-.26-1.357 0-1.475.227-2.09-.444-2.249-.223-.053-.387-.087-.957-.093-.73-.008-1.35.002-1.7.17-.234.112-.414.363-.304.377.136.018.442.081.605.298.21.281.203.911.203.911s.12 1.736-.282 1.952c-.276.148-.655-.154-1.469-1.535-.417-.707-.731-1.489-.731-1.489s-.06-.146-.17-.224c-.13-.095-.314-.125-.314-.125l-1.948.013s-.292.008-.4.133c-.095.11-.007.34-.007.34s1.525 3.503 3.251 5.27c1.584 1.617 3.381 1.511 3.381 1.511z"/></g></g></g></svg>