<svg xmlns="http://www.w3.org/2000/svg" width="26" height="24" viewBox="0 0 26 24"><g><g><path fill="#fff" d="M10.386 3.592L12.28 5.64c.189.204.45.32.724.32a.986.986 0 0 0 .723-.32l1.885-2.036c1.946-2.097 4.978-2.097 6.924 0 1.947 2.097 1.947 5.492 0 7.59C19.36 14.616 16.178 18.036 13 21.46l-9.538-10.28c-1.945-2.1-1.946-5.492 0-7.589.974-1.048 2.214-1.576 3.457-1.576 1.243 0 2.495.528 3.468 1.576zM2.014 2.166c-2.687 2.897-2.684 7.538 0 10.436L12.27 23.68c.19.204.45.319.724.319a.986.986 0 0 0 .724-.32c3.421-3.687 6.845-7.38 10.267-11.067 2.687-2.897 2.687-7.54 0-10.436s-7.122-2.896-9.809 0l-1.177 1.255-1.176-1.266C10.479.718 8.699 0 6.918 0c-1.78 0-3.56.718-4.904 2.166z"/></g></g></svg>