<?xml version="1.0" encoding="UTF-8"?>
<svg width="100px" height="100px" viewBox="0 0 100 100" version="1.1" xmlns="http://www.w3.org/2000/svg" xmlns:xlink="http://www.w3.org/1999/xlink">
    <!-- Generator: Sketch 58 (84663) - https://sketch.com -->
    <title>Circle_Icons/circle_icon_5</title>
    <desc>Created with Sketch.</desc>
    <g id="Circle_Icons/circle_icon_5" stroke="none" stroke-width="1" fill="none" fill-rule="evenodd">
        <g id="Group-10" transform="translate(0.000000, 0.000000)">
            <circle id="Oval" cx="49.999997" cy="49.999997" r="49.999997"></circle>
        </g>
        <g id="Group" transform="translate(25.000000, 23.000000)" fill="#FFFFFF" fill-rule="nonzero">
            <path d="M20.3912643,6.814719 L22.4212643,6.63249678 C22.5257088,6.63249678 22.6757088,6.72027456 22.7162643,6.78860789 L23.757931,8.52916345 C23.9862643,8.91138567 24.2818199,8.96916345 24.437931,8.96916345 C24.7107088,8.96860789 25.0412643,8.79527456 25.1518199,8.30916345 L25.6034866,6.33027456 C25.6234866,6.24249678 25.7557088,6.109719 25.8462643,6.08916345 L27.8218199,5.63749678 C28.3423754,5.51916345 28.4512643,5.17083011 28.4740421,5.02638567 C28.4968199,4.88194123 28.5007088,4.51694123 28.0440421,4.24360789 L26.3034866,3.20249678 C26.2251532,3.15583011 26.1395977,2.98860789 26.1484866,2.89805234 L26.3295977,0.877496781 C26.3612643,0.534719004 26.242931,0.32638567 26.1384866,0.212496781 C25.8773754,-0.0730587742 25.4301532,-0.0763921075 25.0723754,0.23638567 L23.5445977,1.569719 C23.5112643,1.59805234 23.4162643,1.63805234 23.3051532,1.63805234 C23.2573754,1.63805234 23.2234866,1.63027456 23.2057088,1.62305234 L21.3423754,0.826941226 C20.9434866,0.65638567 20.5640421,0.751941226 20.3718199,1.04138567 C20.2901532,1.16638567 20.1768199,1.43305234 20.3440421,1.824719 L21.1401532,3.69027456 C21.1751532,3.77305234 21.1468199,3.95916345 21.0862643,4.02749678 L19.7518199,5.55638567 C19.4145977,5.94138567 19.5123754,6.279719 19.5707088,6.40694123 C19.6984866,6.69360789 19.987931,6.84527456 20.3912643,6.814719 Z M21.902931,4.74249678 C22.2351532,4.36360789 22.3351532,3.72860789 22.137931,3.26527456 L21.6595977,2.14249678 L22.7801532,2.62138567 C23.2384866,2.81694123 23.8862643,2.71083011 24.2573754,2.38694123 L25.1757088,1.58638567 L25.0668199,2.80083011 C25.0212643,3.30194123 25.312931,3.87583011 25.7457088,4.13416345 L26.7923754,4.759719 L25.6051532,5.03083011 C25.1134866,5.14249678 24.6590421,5.59805234 24.5473754,6.08860789 L24.2751532,7.27805234 L23.6490421,6.23083011 C23.4084866,5.82805234 22.9040421,5.54749678 22.4223754,5.54749678 C22.3862643,5.54749678 22.3501532,5.54860789 22.3157088,5.55194123 L21.1018199,5.66083011 L21.902931,4.74249678 Z" id="Shape"></path>
            <path d="M8.962931,24.5402746 C8.98570878,24.3958301 8.98959767,24.0313857 8.532931,23.7574968 L6.79181989,22.7163857 C6.71348656,22.669719 6.627931,22.5013857 6.63626434,22.4113857 L6.81737545,20.3891634 C6.847931,20.0463857 6.72959767,19.8386079 6.62570878,19.724719 C6.36570878,19.439719 5.91737545,19.4358301 5.55959767,19.7491634 L4.03070878,21.0830523 C3.997931,21.1119412 3.902931,21.1513857 3.79181989,21.1513857 C3.74459767,21.1513857 3.71015322,21.1441634 3.69348656,21.1369412 L1.82904211,20.3391634 C1.42959767,20.169719 1.05015322,20.2641634 0.858486558,20.5541634 C0.776264335,20.6786079 0.662931002,20.9452746 0.83070878,21.3374968 L1.62737545,23.2013857 C1.662931,23.284719 1.63404211,23.4708301 1.57459767,23.5391634 L0.239597669,25.0686079 C-0.0965134423,25.4536079 0.00126433544,25.7919412 0.0595976688,25.9191634 C0.188486558,26.2036079 0.479042113,26.359719 0.881264335,26.324719 L2.91070878,26.144719 C3.01515322,26.144719 3.16515322,26.2319412 3.20626434,26.299719 L4.24626434,28.0413857 C4.47515322,28.4236079 4.77015322,28.479719 4.92626434,28.479719 C5.19848656,28.479719 5.52959767,28.3058301 5.64015322,27.819719 L6.09237545,25.8413857 C6.11237545,25.7536079 6.24515322,25.6208301 6.33404211,25.599719 L8.31126434,25.1480523 C8.83070878,25.0324968 8.94015322,24.684719 8.962931,24.5402746 Z M6.092931,24.544719 C5.60070878,24.6563857 5.14681989,25.1119412 5.03515322,25.6019412 L4.762931,26.789719 L4.13737545,25.7441634 C3.89626434,25.3413857 3.39181989,25.0608301 2.91070878,25.0608301 C2.87515322,25.0608301 2.83959767,25.0619412 2.80515322,25.0658301 L1.58848656,25.1736079 L2.39181989,24.254719 C2.72237545,23.8758301 2.82237545,23.2408301 2.62515322,22.7774968 L2.14681989,21.6558301 L3.26737545,22.1352746 C3.72126434,22.3291634 4.37848656,22.2219412 4.74404211,21.9002746 L5.66404211,21.0986079 L5.55459767,22.3152746 C5.51015322,22.8158301 5.80181989,23.3891634 6.23404211,23.6474968 L7.28015322,24.2730523 L6.092931,24.544719 Z" id="Shape"></path>
            <path d="M41.2801532,16.3730523 L43.3090421,16.1919412 C43.4134866,16.1919412 43.5640421,16.279719 43.6040421,16.3474968 L44.6445977,18.0891634 C44.8734866,18.4713857 45.1673754,18.5274968 45.3245977,18.5274968 C45.5968199,18.5274968 45.9273754,18.3541634 46.0384866,17.8680523 L46.4901532,15.8902746 C46.5107088,15.8019412 46.6434866,15.6686079 46.732931,15.6480523 L48.7107088,15.1963857 C49.2312643,15.0780523 49.3401532,14.729719 49.362931,14.5852746 C49.3857088,14.4402746 49.3890421,14.0758301 48.9323754,13.8024968 L47.1918199,12.7608301 C47.1134866,12.7141634 47.0290421,12.5458301 47.0373754,12.4558301 L47.2184866,10.4358301 C47.2490421,10.0930523 47.1312643,9.88527456 47.0268199,9.77138567 C46.7662643,9.48638567 46.3195977,9.48249678 45.9601532,9.79583011 L44.4323754,11.1308301 C44.3995977,11.159719 44.3051532,11.1991634 44.1940421,11.1991634 C44.1468199,11.1991634 44.1123754,11.1913857 44.0951532,11.184719 L42.2295977,10.3858301 C41.8295977,10.2141634 41.4507088,10.309719 41.2584866,10.599719 C41.1768199,10.7241634 41.062931,10.9908301 41.2307088,11.3830523 L42.027931,13.249719 C42.062931,13.3330523 42.0345977,13.5186079 41.9745977,13.5869412 L40.6401532,15.1141634 C40.302931,15.499719 40.4012643,15.8374968 40.4590421,15.964719 C40.587931,16.2508301 40.8762643,16.4063857 41.2801532,16.3730523 Z M42.7901532,14.3024968 C43.1223754,13.9230523 43.2223754,13.2886079 43.0245977,12.824719 L42.5468199,11.7024968 L43.6684866,12.1819412 C44.1207088,12.3774968 44.7784866,12.269719 45.1462643,11.9480523 L46.0645977,11.1458301 L45.9557088,12.359719 C45.9112643,12.8608301 46.202931,13.434719 46.6351532,13.6924968 L47.6818199,14.3191634 L46.492931,14.5908301 C46.0012643,14.7019412 45.5468199,15.1574968 45.4345977,15.6480523 L45.1623754,16.8369412 L44.5373754,15.7902746 C44.2957088,15.3874968 43.7918199,15.1063857 43.3101532,15.1063857 C43.2751532,15.1063857 43.2390421,15.1080523 43.2057088,15.1113857 L41.9901532,15.2191634 L42.7901532,14.3024968 Z" id="Shape"></path>
            <path d="M18.4851532,44.2480523 L16.7457088,43.2074968 C16.6673754,43.1608301 16.5818199,42.9930523 16.5901532,42.9036079 L16.7718199,40.8802746 C16.8023754,40.5374968 16.6840421,40.3302746 16.5801532,40.2169412 C16.3195977,39.9308301 15.8723754,39.9274968 15.5134866,40.2408301 L13.9857088,41.5752746 C13.952931,41.6041634 13.8584866,41.6436079 13.7473754,41.6436079 C13.7007088,41.6436079 13.6657088,41.6358301 13.647931,41.6286079 L11.7834866,40.8319412 C11.3868199,40.6602746 11.0045977,40.754719 10.812931,41.0463857 C10.7307088,41.1708301 10.6173754,41.4374968 10.7851532,41.8291634 L11.5818199,43.6952746 C11.6173754,43.7780523 11.5884866,43.9641634 11.5284866,44.0319412 L10.1940421,45.5613857 C9.85681989,45.9469412 9.95515322,46.284719 10.012931,46.4119412 C10.1418199,46.6969412 10.4312643,46.8524968 10.8345977,46.8180523 L12.8640421,46.6369412 C12.9684866,46.6369412 13.1190421,46.724719 13.1601532,46.7930523 L14.2001532,48.5313857 C14.4284866,48.9136079 14.7240421,48.9719412 14.8801532,48.9719412 C15.152931,48.9708301 15.4840421,48.7980523 15.5945977,48.3119412 L16.0462643,46.3352746 C16.0662643,46.2474968 16.1995977,46.1141634 16.2884866,46.0930523 L18.2657088,45.6408301 C18.7851532,45.5213857 18.8945977,45.1730523 18.9173754,45.0286079 C18.9395977,44.8858301 18.942931,44.5213857 18.4851532,44.2480523 Z M16.0457088,45.0363857 C15.5540421,45.1491634 15.1001532,45.6036079 14.9890421,46.0936079 L14.7173754,47.2813857 L14.0912643,46.2363857 C13.8507088,45.8324968 13.3457088,45.5519412 12.8640421,45.5519412 C12.8284866,45.5519412 12.7934866,45.5536079 12.7584866,45.5569412 L11.5440421,45.664719 L12.3462643,44.7474968 C12.677931,44.3680523 12.777931,43.7336079 12.5807088,43.269719 L12.1018199,42.1474968 L13.222931,42.6252746 C13.6795977,42.8219412 14.3295977,42.7163857 14.7007088,42.3913857 L15.6190421,41.5902746 L15.5095977,42.8058301 C15.4651532,43.3069412 15.7568199,43.8802746 16.1895977,44.1380523 L17.2357088,44.7636079 L16.0457088,45.0363857 Z" id="Shape"></path>
            <path d="M49.7368199,47.8708301 L31.0157088,29.149719 L33.3434866,28.6169412 L35.6651532,28.0863857 C36.787931,27.8291634 37.0145977,27.1374968 37.0595977,26.8519412 C37.1045977,26.5652746 37.102931,25.8391634 36.1145977,25.2469412 L34.0712643,24.0263857 L31.1118199,22.2780523 L31.4223754,18.8252746 L31.6340421,16.4536079 C31.737931,15.3063857 31.1490421,14.8763857 30.8907088,14.7458301 C30.6345977,14.6141634 29.9401532,14.3908301 29.0734866,15.1486079 L27.2795977,16.7136079 L24.7007088,18.9874968 L21.5134866,17.6263857 L19.3234866,16.6913857 C18.2640421,16.239719 17.6751532,16.6652746 17.4701532,16.8702746 C17.2662643,17.074719 16.8395977,17.664719 17.2918199,18.7241634 L18.2273754,20.9130523 L19.5940421,24.0674968 L17.3145977,26.6786079 L15.7490421,28.4724968 C14.9912643,29.3402746 15.2151532,30.0336079 15.3462643,30.289719 C15.4668199,30.5280523 15.8407088,31.0441634 16.7951532,31.0441634 C16.8768199,31.0441634 16.9634866,31.0402746 17.0540421,31.0324968 L19.4257088,30.819719 L22.847931,30.4941634 L24.6251532,33.4686079 C24.6251532,33.4686079 24.6251532,33.4691634 24.6257088,33.469719 L25.8468199,35.5152746 C26.3351532,36.3313857 26.9157088,36.474719 27.2645977,36.474719 C27.337931,36.474719 27.4018199,36.4691634 27.4512643,36.4613857 C27.7373754,36.4163857 28.4290421,36.1908301 28.6868199,35.0669412 L29.2168199,32.7452746 L29.7395977,30.404719 L48.4718199,49.1369412 C48.6462643,49.3113857 48.8768199,49.399719 49.1057088,49.399719 C49.3340421,49.399719 49.5634866,49.3124968 49.7384866,49.1369412 C50.0873754,48.7874968 50.0873754,48.2208301 49.7368199,47.8708301 Z M27.0740421,34.079719 L26.1612643,32.5530523 C26.1612643,32.5524968 26.1612643,32.5519412 26.1607088,32.5513857 L24.382931,29.5769412 C24.0540421,29.0269412 23.3473754,28.669719 22.7162643,28.7286079 L19.2640421,29.0391634 L17.4923754,29.1980523 L18.6618199,27.8574968 L20.9418199,25.2458301 C21.3618199,24.7630523 21.4851532,23.9863857 21.2334866,23.3986079 L19.8723754,20.2119412 L19.1734866,18.5763857 L20.8090421,19.2752746 L23.9962643,20.6363857 C24.2012643,20.7236079 24.4284866,20.7652746 24.6584866,20.7652746 C25.0895977,20.7652746 25.5290421,20.6180523 25.8440421,20.3436079 L28.4545977,18.0636079 L29.7945977,16.894719 L29.6362643,18.6669412 L29.3262643,22.1202746 C29.2690421,22.7569412 29.6268199,23.4580523 30.1762643,23.7869412 L33.1507088,25.5652746 L34.6768199,26.4769412 L32.9440421,26.8730523 L29.5690421,27.644719 C29.417931,27.6791634 29.2707088,27.7380523 29.1318199,27.8169412 C28.9601532,27.849719 28.7962643,27.9308301 28.6640421,28.0630523 C28.5318199,28.1952746 28.4484866,28.359719 28.417931,28.5308301 C28.3384866,28.669719 28.2801532,28.8169412 28.2445977,28.9669412 L27.4712643,32.3458301 L27.0740421,34.079719 Z" id="Shape"></path>
            <path d="M14.302931,13.3713857 C14.9384866,12.7358301 14.9395977,11.7063857 14.3018199,11.0702746 C13.667931,10.4341634 12.6373754,10.4341634 12.0007088,11.0708301 C11.3651532,11.7063857 11.3651532,12.7369412 12.0001532,13.3736079 C12.6368199,14.0086079 13.6684866,14.0074968 14.302931,13.3713857 Z" id="Path"></path>
            <path d="M35.667931,10.9119412 C36.302931,10.2752746 36.3040421,9.24527456 35.6668199,8.60860789 C35.0318199,7.97360789 34.0001532,7.97416345 33.3651532,8.609719 C32.7295977,9.24583011 32.7290421,10.274719 33.3640421,10.9124968 C34.0018199,11.5458301 35.0323754,11.5458301 35.667931,10.9119412 Z" id="Path"></path>
            <path d="M11.4295977,35.1474968 C12.0668199,34.5119412 12.0668199,33.4830523 11.4295977,32.8463857 C10.7934866,32.2091634 9.76404211,32.209719 9.12904211,32.8463857 C8.49404211,33.4830523 8.49348656,34.5108301 9.127931,35.1463857 C9.76515322,35.7836079 10.7968199,35.7824968 11.4295977,35.1474968 Z" id="Path"></path>
            <path d="M41.6384866,25.0441634 C41.0040421,25.6808301 41.002931,26.7124968 41.6384866,27.3474968 C42.2740421,27.9824968 43.3062643,27.9830523 43.9418199,27.3486079 C44.5784866,26.7130523 44.5768199,25.6808301 43.9401532,25.0452746 C43.3062643,24.4102746 42.2762643,24.4102746 41.6384866,25.0441634 Z" id="Path"></path>
            <path d="M26.3807088,41.1130523 C25.7440421,41.7491634 25.7468199,42.7813857 26.3807088,43.4163857 C27.0173754,44.0508301 28.0484866,44.0508301 28.6840421,43.4152746 C29.3195977,42.7808301 29.3195977,41.7486079 28.6823754,41.1119412 C28.0473754,40.4791634 27.0162643,40.4769412 26.3807088,41.1130523 Z" id="Path"></path>
        </g>
    </g>
</svg>