<?xml version="1.0" encoding="UTF-8"?>
<svg width="100px" height="100px" viewBox="0 0 100 100" version="1.1" xmlns="http://www.w3.org/2000/svg" xmlns:xlink="http://www.w3.org/1999/xlink">
    <!-- Generator: Sketch 58 (84663) - https://sketch.com -->
    <title>Circle_Icons/circle_icon_4</title>
    <desc>Created with Sketch.</desc>
    <g id="Circle_Icons/circle_icon_4" stroke="none" stroke-width="1" fill="none" fill-rule="evenodd">
        <g id="Group-10" transform="translate(0.000000, 0.000000)">
            <circle id="Oval" cx="49.999997" cy="49.999997" r="49.999997"></circle>
        </g>
        <polygon id="Star-Copy" stroke="#FFFFFF" stroke-width="2" stroke-linecap="round" stroke-linejoin="round" points="48 66.5 42.7099327 69.2811529 43.7202457 63.3905765 39.4404914 59.2188471 45.3549664 58.3594235 48 53 50.6450336 58.3594235 56.5595086 59.2188471 52.2797543 63.3905765 53.2900673 69.2811529"></polygon>
        <polygon id="Star-Copy-2" stroke="#FFFFFF" stroke-width="2" stroke-linecap="round" stroke-linejoin="round" points="62 47.5 55.5343622 50.8991869 56.7691892 43.6995935 51.5383783 38.6008131 58.7671811 37.5504065 62 31 65.2328189 37.5504065 72.4616217 38.6008131 67.2308108 43.6995935 68.4656378 50.8991869"></polygon>
        <polygon id="Star-Copy" stroke="#FFFFFF" stroke-width="2" stroke-linecap="round" stroke-linejoin="round" points="36 47 32.4732885 48.854102 33.1468305 44.927051 30.2936609 42.145898 34.2366442 41.572949 36 38 37.7633558 41.572949 41.7063391 42.145898 38.8531695 44.927051 39.5267115 48.854102"></polygon>
    </g>
</svg>