<?xml version="1.0" encoding="UTF-8"?>
<svg width="100px" height="100px" viewBox="0 0 100 100" version="1.1" xmlns="http://www.w3.org/2000/svg" xmlns:xlink="http://www.w3.org/1999/xlink">
    <!-- Generator: Sketch 58 (84663) - https://sketch.com -->
    <title>Circle_Icons/circle_icon_6</title>
    <desc>Created with Sketch.</desc>
    <g id="Circle_Icons/circle_icon_6" stroke="none" stroke-width="1" fill="none" fill-rule="evenodd">
        <g id="Group-10" transform="translate(0.000000, 0.000000)">
            <circle id="Oval" cx="49.999997" cy="49.999997" r="49.999997"></circle>
        </g>
        <g id="Group" transform="translate(11.000000, 31.000000)">
            <circle id="Oval" fill="#FFFFFF" cx="50.0402879" cy="24.3999985" r="1.19999993"></circle>
            <polyline id="Path" stroke="#FFFFFF" stroke-width="1.5999999" stroke-linecap="round" stroke-linejoin="round" points="59.2402873 8.79999948 59.2402873 39.1999977 20.8402896 39.1999977 20.8402896 8.79999948 20.8402896 8.79999948"></polyline>
            <path d="M16.8402898,0.799999952 L16.8402898,8.18611753 C18.223864,9.2772276 20.2032968,9.19504063 21.4919982,7.98214538 L22.0050228,7.49929879 L22.780708,8.13809847 C24.1665327,9.27936597 26.184681,9.21256122 27.4919982,7.98214534 L28.0050228,7.49929879 L28.7807076,8.13809817 C30.1665323,9.27936584 32.1846809,9.21256121 33.4919983,7.98214531 L34.0050229,7.49929879 L34.7807072,8.13809787 C36.166532,9.27936572 38.1846807,9.2125612 39.4919983,7.98214527 L40.0050229,7.49929879 L40.7807068,8.13809757 C42.1665317,9.27936559 44.1846806,9.21256119 45.4919983,7.98214524 L46.005023,7.4992988 L46.7807064,8.13809726 C48.1665313,9.27936547 50.1846804,9.21256118 51.4919984,7.9821452 L52.0050231,7.4992988 L52.780706,8.13809696 C54.166531,9.27936534 56.1846802,9.21256117 57.4919984,7.98214517 L58.0050231,7.4992988 L58.7807057,8.13809666 C60.0803869,9.20842322 61.9362244,9.2161984 63.2402899,8.19809644 L63.2402899,0.799999952 L16.8402898,0.799999952 Z" id="Rectangle" stroke="#FFFFFF" stroke-width="1.5999999"></path>
            <path d="M44.8402882,39.1999977 L55.2402883,39.1999977 L55.2402883,19.9999988 C55.2402883,18.6745155 54.1657717,17.599999 52.8402884,17.599999 L47.240288,17.599999 C45.9148047,17.599999 44.8402882,18.6745155 44.8402882,19.9999988 L44.8402882,39.1999977 Z" id="Rectangle" stroke="#FFFFFF" stroke-width="1.5999999"></path>
            <rect id="Rectangle" stroke="#FFFFFF" stroke-width="1.5999999" x="26.4402893" y="17.599999" width="12.7999992" height="10.3999994" rx="3.19999981"></rect>
            <circle id="Oval" fill="#FFFFFF" cx="13.691295" cy="12.1629058" r="1.19999993"></circle>
            <path d="M6.66186137,10.0420949 C6.49508186,10.1937127 6.39999962,10.408651 6.39999962,10.634047 L6.39999962,24.1738734 C6.39999962,24.6157012 6.7581718,24.9738733 7.19999957,24.9738733 L14.8952372,24.9738733 C15.337065,24.9738733 15.6952372,24.6157012 15.6952372,24.1738734 L15.6952372,10.634047 C15.6952372,10.408651 15.6001549,10.1937127 15.4333754,10.0420949 L11.5857566,6.54425965 C11.2806196,6.26686241 10.8146171,6.26686241 10.5094802,6.54425965 L6.66186137,10.0420949 Z" id="Rectangle" stroke="#FFFFFF" stroke-width="1.5999999" transform="translate(11.047618, 15.373874) rotate(42.000000) translate(-11.047618, -15.373874) "></path>
        </g>
    </g>
</svg>