<svg xmlns="http://www.w3.org/2000/svg" width="100" height="100" viewBox="0 0 100 100"><defs><clipPath id="v3hla"><path fill="#fff" d="M79 41.887a10 10 0 0 1 10 0l33.301 19.226a10 10 0 0 1 5 8.66v38.453a10 10 0 0 1-5 8.66L89 136.114a10 10 0 0 1-10 0l-33.301-19.226a10 10 0 0 1-5-8.66V69.773a10 10 0 0 1 5-8.66z"/></clipPath></defs><g><g><g><path fill="none" stroke="#0e974f" stroke-miterlimit="50" stroke-width="4" d="M79 41.887a10 10 0 0 1 10 0l33.301 19.226a10 10 0 0 1 5 8.66v38.453a10 10 0 0 1-5 8.66L89 136.114a10 10 0 0 1-10 0l-33.301-19.226a10 10 0 0 1-5-8.66V69.773a10 10 0 0 1 5-8.66z" clip-path="url(&quot;#v3hla&quot;)"/></g><g><g><g><path fill="none" stroke="#000" stroke-linejoin="round" stroke-miterlimit="50" stroke-width="1.6" d="M68 78.656C68 71.114 75.163 65 84 65s16 6.114 16 13.656"/></g><g><path fill="none" stroke="#000" stroke-linecap="round" stroke-linejoin="round" stroke-miterlimit="50" stroke-width="1.6" d="M92.471 78.656c0-5.828-3.792-13.656-8.47-13.656-4.679 0-8.471 7.828-8.471 13.656"/></g><g><path fill="none" stroke="#000" stroke-linejoin="round" stroke-miterlimit="50" stroke-width="1.6" d="M84 65v36.55"/></g><g><path fill="none" stroke="#000" stroke-linejoin="round" stroke-miterlimit="50" stroke-width="1.6" d="M92.47 78.66L84 101.553"/></g><g><path fill="none" stroke="#000" stroke-linejoin="round" stroke-miterlimit="50" stroke-width="1.6" d="M75.53 78.66L84 101.553"/></g><g><path fill="none" stroke="#000" stroke-linejoin="round" stroke-miterlimit="50" stroke-width="1.6" d="M68 78.66v0l16 22.893v0l16-22.893v0"/></g></g><g><g><path fill="none" stroke="#000" stroke-linejoin="round" stroke-miterlimit="50" stroke-width="1.6" d="M83.86 96v0l7.69 3.908v0l-7.69 3.909v0l-7.69-3.909v0z"/></g><g><path fill="none" stroke="#000" stroke-linecap="round" stroke-linejoin="round" stroke-miterlimit="50" stroke-width="1.6" d="M91.55 109.768v0l-7.69 3.909v0l-7.69-3.909v0"/></g><g><path fill="none" stroke="#000" stroke-miterlimit="50" stroke-width="1.6" d="M76.167 99.74v10.195"/></g><g><path fill="none" stroke="#000" stroke-miterlimit="50" stroke-width="1.6" d="M83.857 103.82v9.856"/></g><g><path fill="none" stroke="#000" stroke-miterlimit="50" stroke-width="1.6" d="M91.547 99.74v10.195"/></g></g></g></g></g></svg>