<?xml version="1.0" encoding="UTF-8"?>
<svg width="100px" height="100px" viewBox="0 0 100 100" version="1.1" xmlns="http://www.w3.org/2000/svg" xmlns:xlink="http://www.w3.org/1999/xlink">
    <!-- Generator: Sketch 58 (84663) - https://sketch.com -->
    <title>Icons/price_icon</title>
    <desc>Created with Sketch.</desc>
    <g id="Icons/price_icon" stroke="none" stroke-width="1" fill="none" fill-rule="evenodd">
        <path d="M54.5,3.75277675 C51.7153903,2.1450816 48.2846097,2.1450816 45.5,3.75277675 L12.1987298,22.9792741 C9.41412012,24.5869692 7.69872981,27.5581124 7.69872981,30.7735027 L7.69872981,69.2264973 C7.69872981,72.4418876 9.41412012,75.4130308 12.1987298,77.0207259 L45.5,96.2472233 C48.2846097,97.8549184 51.7153903,97.8549184 54.5,96.2472233 L87.8012702,77.0207259 C90.5858799,75.4130308 92.3012702,72.4418876 92.3012702,69.2264973 L92.3012702,30.7735027 C92.3012702,27.5581124 90.5858799,24.5869692 87.8012702,22.9792741 L54.5,3.75277675 Z" id="Polygon" stroke="#0E974F" stroke-width="2"></path>
        <path d="M29.7133266,52.2133266 L50.1715729,72.6715729 C51.73367,74.23367 54.26633,74.23367 55.8284271,72.6715729 L68.1994385,60.3005615 C69.7506108,58.7493892 69.7630417,56.2383025 68.2273027,54.6718488 L47.6667018,33.7000359 C46.6122815,32.6245271 45.1292197,32.0816357 43.6296341,32.2222218 L34.0265226,33.1225135 C31.6781787,33.3426707 29.8030597,35.1739925 29.5274731,37.5164784 L28.2831075,48.0935864 C28.1043131,49.6133388 28.6312881,51.1312881 29.7133266,52.2133266 Z" id="Path-8" stroke="#000000" stroke-width="2" stroke-linejoin="round" transform="translate(49.500000, 53.750000) rotate(-315.000000) translate(-49.500000, -53.750000) "></path>
        <path d="M49,37 L47.2016759,27.93984 C46.3388065,23.592364 42.9371532,20.684787 39.1089344,21.0273505 C35.1226362,21.3838693 32,25.30426 32,29.9525652 L32,31.5857322" id="Shape" stroke="#000000" stroke-width="2" stroke-linecap="round" stroke-linejoin="round"></path>
        <circle id="Oval" stroke="#000000" stroke-width="2" cx="49.5" cy="35.5" r="2.5"></circle>
        <g id="Group" transform="translate(46.000000, 54.000000)" stroke="#000000">
            <path d="M1.152,9.425 L4.56620581,9.425" id="Line" stroke-width="1.43000003" stroke-linecap="round" stroke-linejoin="round" transform="translate(3.024000, 9.425000) scale(-1, 1) translate(-3.024000, -9.425000) "></path>
            <path d="M8.352,3.692 C8.352,6.06666667 6.498,7.40133333 3.618,7.40133333 L1.152,7.40133333 L1.152,11.8733333 C1.152,12.0293333 1.044,12.1333333 0.9,12.1333333 L0.252,12.1333333 C0.108,12.1333333 -1.42108547e-14,12.0293333 -1.42108547e-14,11.8733333 L-1.42108547e-14,0.242666667 C-1.42108547e-14,0.104 0.108,1.77635684e-15 0.252,1.77635684e-15 L3.618,1.77635684e-15 C6.498,1.77635684e-15 8.352,1.3 8.352,3.692 Z M7.164,3.692 C7.164,1.82 5.886,0.970666667 3.51,0.970666667 L1.152,0.970666667 L1.152,6.43066667 L3.51,6.43066667 C5.886,6.43066667 7.164,5.58133333 7.164,3.692 Z" id="P" stroke-width="0.550000012" fill="#000000" fill-rule="nonzero"></path>
        </g>
    </g>
</svg>