<?xml version="1.0" encoding="UTF-8"?>
<svg width="100px" height="100px" viewBox="0 0 100 100" version="1.1" xmlns="http://www.w3.org/2000/svg" xmlns:xlink="http://www.w3.org/1999/xlink">
    <!-- Generator: Sketch 58 (84663) - https://sketch.com -->
    <title>Icons/support_icon</title>
    <desc>Created with Sketch.</desc>
    <g id="Icons/support_icon" stroke="none" stroke-width="1" fill="none" fill-rule="evenodd">
        <path d="M54.5,3.75277675 C51.7153903,2.1450816 48.2846097,2.1450816 45.5,3.75277675 L12.1987298,22.9792741 C9.41412012,24.5869692 7.69872981,27.5581124 7.69872981,30.7735027 L7.69872981,69.2264973 C7.69872981,72.4418876 9.41412012,75.4130308 12.1987298,77.0207259 L45.5,96.2472233 C48.2846097,97.8549184 51.7153903,97.8549184 54.5,96.2472233 L87.8012702,77.0207259 C90.5858799,75.4130308 92.3012702,72.4418876 92.3012702,69.2264973 L92.3012702,30.7735027 C92.3012702,27.5581124 90.5858799,24.5869692 87.8012702,22.9792741 L54.5,3.75277675 Z" id="Polygon" stroke="#0E974F" stroke-width="2"></path>
        <g id="Group-6" transform="translate(27.000000, 40.000000)">
            <path d="M38.3585443,5.205 L32.9446203,10.665 L30.2674051,7.965 C29.731962,7.425 28.8990506,7.425 28.3636076,7.965 C27.8281646,8.505 27.8281646,9.345 28.3636076,9.885 L31.9927215,13.545 C32.2306962,13.785 32.5876582,13.965 32.9446203,13.965 C33.3015823,13.965 33.6585443,13.845 33.896519,13.545 L40.2623418,7.125 C40.7977848,6.585 40.7977848,5.745 40.2623418,5.205 C39.7268987,4.665 38.8939873,4.665 38.3585443,5.205 Z" id="Path" fill="#000000" fill-rule="nonzero"></path>
            <path d="M13.30686,15 C12.6763693,15 12.1359487,14.4461538 12.1359487,13.8 C12.1359487,13.1538462 12.6763693,12.6 13.30686,12.6 C13.9373507,12.6 14.4777713,13.1538462 14.4777713,13.8 C14.4777713,14.4923077 13.9373507,15 13.30686,15 Z" id="Path" fill="#000000" fill-rule="nonzero"></path>
            <path d="M16.1440681,8.74090909 C15.6937176,9.36136364 15.2433671,9.67159091 14.8830867,9.89318182 C14.4777713,10.1590909 14.3426661,10.2920455 14.2976311,10.9125 C14.2976311,11.1784091 14.0274208,11.4 13.7572105,11.4 L12.9015445,11.4 C12.5862992,11.4 12.3160889,11.1340909 12.3611239,10.8238636 C12.4962291,9.36136364 13.0366497,8.87386364 13.7572105,8.34204545 C14.0724558,8.12045455 14.2976311,7.94318182 14.5678414,7.58863636 C14.8380517,7.23409091 14.8830867,6.74659091 14.6579115,6.30340909 C14.5228063,5.99318182 14.1174909,5.50568182 13.1717548,5.50568182 C11.9558085,5.50568182 11.5504931,6.25909091 11.460423,6.87954545 C11.4153879,7.14545455 11.1902127,7.32272727 10.9200024,7.32272727 L10.0643364,7.32272727 C9.74909107,7.32272727 9.47888077,7.05681818 9.52391582,6.70227273 C9.74909107,5.10681818 10.9200024,3.6 13.1717548,3.6 C14.5678414,3.6 15.7837877,4.26477273 16.3692434,5.41704545 C16.954699,6.56931818 16.8646289,7.81022727 16.1440681,8.74090909 Z" id="Path" fill="#000000" fill-rule="nonzero"></path>
            <path d="M23.3880898,14.9462626 C25.6712267,17.1674041 29.269089,18.6 33.3164557,18.6 L33.3164557,18.6 C35.0104121,18.6 36.6256289,18.3490524 38.098673,17.8943753 C38.8592215,17.6596206 46.0265138,21.0368748 46.7025316,20.7 C47.3838516,20.360483 41.5731629,16.306084 42.1508151,15.8760931 C44.4117248,14.1931241 45.8101266,11.8681241 45.8101266,9.3 C45.8101266,4.16375183 40.2165196,0 33.3164557,0 C29.3200284,0 25.761862,1.39676209 23.4749183,3.57024874" id="Path" stroke="#000000" stroke-width="2" stroke-linecap="round"></path>
            <path d="M12.4936709,18.6 C14.1876273,18.6 15.8028441,18.3490524 17.2758882,17.8943753 C18.0364367,17.6596206 25.203729,21.0368748 25.8797468,20.7 C26.5610668,20.360483 20.7503781,16.306084 21.3280303,15.8760931 C23.58894,14.1931241 24.9873418,11.8681241 24.9873418,9.3 C24.9873418,4.16375183 19.3937348,7.10542736e-15 12.4936709,7.10542736e-15 C5.59360699,7.10542736e-15 3.26849658e-13,4.16375183 3.26849658e-13,9.3 C3.26849658e-13,14.4362482 5.59360699,18.6 12.4936709,18.6 Z" id="Oval" stroke="#000000" stroke-width="2" stroke-linecap="round" transform="translate(12.967699, 10.361825) scale(-1, 1) translate(-12.967699, -10.361825) "></path>
        </g>
    </g>
</svg>