<?xml version="1.0" encoding="UTF-8"?>
<svg width="100px" height="100px" viewBox="0 0 100 100" version="1.1" xmlns="http://www.w3.org/2000/svg" xmlns:xlink="http://www.w3.org/1999/xlink">
    <!-- Generator: Sketch 58 (84663) - https://sketch.com -->
    <title>Icons/garage_icon</title>
    <desc>Created with Sketch.</desc>
    <g id="Icons/garage_icon" stroke="none" stroke-width="1" fill="none" fill-rule="evenodd">
        <path d="M54.5,3.75277675 C51.7153903,2.1450816 48.2846097,2.1450816 45.5,3.75277675 L12.1987298,22.9792741 C9.41412012,24.5869692 7.69872981,27.5581124 7.69872981,30.7735027 L7.69872981,69.2264973 C7.69872981,72.4418876 9.41412012,75.4130308 12.1987298,77.0207259 L45.5,96.2472233 C48.2846097,97.8549184 51.7153903,97.8549184 54.5,96.2472233 L87.8012702,77.0207259 C90.5858799,75.4130308 92.3012702,72.4418876 92.3012702,69.2264973 L92.3012702,30.7735027 C92.3012702,27.5581124 90.5858799,24.5869692 87.8012702,22.9792741 L54.5,3.75277675 Z" id="Polygon" stroke="#0E974F" stroke-width="2"></path>
        <path d="M51.2863327,35 L51.2863327,31 L51.2863327,35 Z" id="Path" stroke="#000000" stroke-width="2" stroke-linecap="round" stroke-linejoin="round"></path>
        <path d="M63.5276046,43 L67.3131407,43 L63.5276046,43 Z" id="Path" stroke="#000000" stroke-width="2" stroke-linecap="round" stroke-linejoin="round"></path>
        <path d="M34.3131407,43 L38.0986769,43 L34.3131407,43 Z" id="Path" stroke="#000000" stroke-width="2" stroke-linecap="round" stroke-linejoin="round"></path>
        <path d="M39.7911295,34.3535534 L42.4679078,37.1819805 L39.7911295,34.3535534 Z" id="Path" stroke="#000000" stroke-width="2" stroke-linecap="round" stroke-linejoin="round"></path>
        <path d="M61.3955886,34.3535534 L58.7188103,37.1819805 L61.3955886,34.3535534 Z" id="Path" stroke="#000000" stroke-width="2" stroke-linecap="round" stroke-linejoin="round"></path>
        <path d="M49.7720152,39 C55.1260951,39 59.2308896,42.87068 59.2308896,47.7090301 C59.2308896,50.6120401 57.9459105,53.1924935 55.4473399,54.8052768 L55.4473399,57.8695652 L49.7720152,57.8695652 L53.5198711,50.6696395 L46.0241593,50.6696395 L49.7720152,57.8695652 L44.0966905,57.8695652 L44.0966905,54.8052768 C41.4196506,53.1924935 40.3131407,50.6120401 40.3131407,47.7090301 C40.3131407,42.87068 44.5964046,39 49.7720152,39 Z" id="Path" stroke="#000000" stroke-width="2" stroke-linecap="round" stroke-linejoin="round"></path>
        <rect id="Rectangle" stroke="#000000" stroke-width="2" stroke-linecap="round" stroke-linejoin="round" x="44.0966905" y="60.7" width="11.3506494" height="2.83043478" rx="0.391999963"></rect>
        <path d="M44.0966905,66.3608696 L55.4473399,66.3608696 C53.555565,68.2478261 51.6637901,69.1913043 49.7720152,69.1913043 C47.8802403,69.1913043 45.9884654,68.2478261 44.0966905,66.3608696 Z" id="Rectangle" stroke="#000000" stroke-width="2" stroke-linecap="round" stroke-linejoin="round"></path>
    </g>
</svg>