<?xml version="1.0" encoding="UTF-8"?>
<svg width="100px" height="100px" viewBox="0 0 100 100" version="1.1" xmlns="http://www.w3.org/2000/svg" xmlns:xlink="http://www.w3.org/1999/xlink">
    <!-- Generator: Sketch 58 (84663) - https://sketch.com -->
    <title>Icons/sklad_icon</title>
    <desc>Created with Sketch.</desc>
    <g id="Icons/sklad_icon" stroke="none" stroke-width="1" fill="none" fill-rule="evenodd">
        <path d="M54.5,3.75277675 C51.7153903,2.1450816 48.2846097,2.1450816 45.5,3.75277675 L12.1987298,22.9792741 C9.41412012,24.5869692 7.69872981,27.5581124 7.69872981,30.7735027 L7.69872981,69.2264973 C7.69872981,72.4418876 9.41412012,75.4130308 12.1987298,77.0207259 L45.5,96.2472233 C48.2846097,97.8549184 51.7153903,97.8549184 54.5,96.2472233 L87.8012702,77.0207259 C90.5858799,75.4130308 92.3012702,72.4418876 92.3012702,69.2264973 L92.3012702,30.7735027 C92.3012702,27.5581124 90.5858799,24.5869692 87.8012702,22.9792741 L54.5,3.75277675 Z" id="Polygon" stroke="#0E974F" stroke-width="2"></path>
        <g id="Group-2" transform="translate(24.000000, 29.000000)" stroke="#000000">
            <g id="Group" transform="translate(6.400000, 0.000000)" stroke-width="2">
                <polygon id="Polygon" stroke-linejoin="round" points="18.8 0 37.2 9.28846154 18.8 18.5769231 0.4 9.28846154"></polygon>
                <polyline id="Shape" stroke-linecap="round" stroke-linejoin="round" points="37.2 32.7115385 18.8 42 0.4 32.7115385"></polyline>
                <path d="M0.4,8.88461538 L0.4,33.1153846" id="Path-4"></path>
                <path d="M18.8,18.5769231 L18.8,42" id="Path-4-Copy"></path>
                <path d="M37.2,8.88461538 L37.2,33.1153846" id="Path-4-Copy-2"></path>
            </g>
            <ellipse id="Oval" stroke-width="2" fill="#FFFFFF" cx="8" cy="31.0769231" rx="8" ry="8.07692308"></ellipse>
            <polyline id="Path" stroke-width="1.80000007" stroke-linecap="round" stroke-linejoin="round" fill-rule="nonzero" points="4 31.1046571 7.61311987 35.4285714 12 28.5714286"></polyline>
        </g>
    </g>
</svg>