<svg xmlns="http://www.w3.org/2000/svg" width="100" height="100" viewBox="0 0 100 100"><defs><clipPath id="kpqma"><path fill="#fff" d="M79 41.887a10 10 0 0 1 10 0l33.301 19.226a10 10 0 0 1 5 8.66v38.453a10 10 0 0 1-5 8.66L89 136.114a10 10 0 0 1-10 0l-33.301-19.226a10 10 0 0 1-5-8.66V69.773a10 10 0 0 1 5-8.66z"/></clipPath></defs><g><g><g><path fill="none" stroke="#0e974f" stroke-miterlimit="50" stroke-width="4" d="M79 41.887a10 10 0 0 1 10 0l33.301 19.226a10 10 0 0 1 5 8.66v38.453a10 10 0 0 1-5 8.66L89 136.114a10 10 0 0 1-10 0l-33.301-19.226a10 10 0 0 1-5-8.66V69.773a10 10 0 0 1 5-8.66z" clip-path="url(&quot;#kpqma&quot;)"/></g><g><g><path d="M99.357 84.205l-5.414 5.46-2.678-2.7a1.321 1.321 0 0 0-1.903 0 1.348 1.348 0 0 0 0 1.92l3.629 3.66c.238.24.595.42.952.42s.714-.12.951-.42l6.366-6.42c.536-.54.536-1.38 0-1.92a1.321 1.321 0 0 0-1.903 0z"/></g><g><path d="M74.31 94c-.63 0-1.17-.554-1.17-1.2 0-.646.54-1.2 1.17-1.2.631 0 1.172.554 1.172 1.2 0 .692-.54 1.2-1.171 1.2z"/></g><g><path d="M77.145 87.74c-.45.621-.9.932-1.26 1.153-.406.266-.541.4-.586 1.02 0 .265-.27.487-.54.487h-.856c-.316 0-.586-.266-.54-.576.134-1.463.675-1.95 1.395-2.482.315-.222.54-.399.81-.753.271-.355.316-.842.09-1.286-.134-.31-.54-.797-1.485-.797-1.216 0-1.621.753-1.712 1.374a.533.533 0 0 1-.54.443h-.856a.542.542 0 0 1-.54-.62c.225-1.596 1.396-3.103 3.648-3.103 1.396 0 2.612.665 3.197 1.817.586 1.152.496 2.393-.225 3.324z"/></g><g><path fill="none" stroke="#000" stroke-linecap="round" stroke-miterlimit="50" stroke-width="2" d="M84.39 93.946c2.283 2.221 5.881 3.654 9.928 3.654v0c1.694 0 3.31-.251 4.783-.706.76-.234 7.927 3.143 8.603 2.806.682-.34-5.129-4.394-4.551-4.824 2.26-1.683 3.659-4.008 3.659-6.576 0-5.136-5.594-9.3-12.494-9.3-3.996 0-7.554 1.397-9.841 3.57"/></g><g><path fill="none" stroke="#000" stroke-linecap="round" stroke-miterlimit="50" stroke-width="2" d="M74.442 97.6a16.24 16.24 0 0 1-4.782-.706c-.761-.234-7.928 3.143-8.604 2.806-.682-.34 5.129-4.394 4.551-4.824-2.26-1.683-3.659-4.008-3.659-6.576 0-5.136 5.594-9.3 12.494-9.3 6.9 0 12.493 4.164 12.493 9.3 0 5.136-5.593 9.3-12.493 9.3z"/></g></g></g></g></svg>