<?xml version="1.0" encoding="UTF-8"?>
<svg width="100px" height="100px" viewBox="0 0 100 100" version="1.1" xmlns="http://www.w3.org/2000/svg" xmlns:xlink="http://www.w3.org/1999/xlink">
    <!-- Generator: Sketch 58 (84663) - https://sketch.com -->
    <title>Icons/chain_icon</title>
    <desc>Created with Sketch.</desc>
    <g id="Icons/chain_icon" stroke="none" stroke-width="1" fill="none" fill-rule="evenodd">
        <path d="M54.5,3.75277675 C51.7153903,2.1450816 48.2846097,2.1450816 45.5,3.75277675 L12.1987298,22.9792741 C9.41412012,24.5869692 7.69872981,27.5581124 7.69872981,30.7735027 L7.69872981,69.2264973 C7.69872981,72.4418876 9.41412012,75.4130308 12.1987298,77.0207259 L45.5,96.2472233 C48.2846097,97.8549184 51.7153903,97.8549184 54.5,96.2472233 L87.8012702,77.0207259 C90.5858799,75.4130308 92.3012702,72.4418876 92.3012702,69.2264973 L92.3012702,30.7735027 C92.3012702,27.5581124 90.5858799,24.5869692 87.8012702,22.9792741 L54.5,3.75277675 Z" id="Polygon" stroke="#0E974F" stroke-width="2"></path>
        <g id="noun_Chain-Stores_2648264" transform="translate(26.000000, 29.000000)" fill="#000000" fill-rule="nonzero">
            <g id="Group">
                <path d="M17.213086,8.09299662 L17.213086,15.2728272 C17.213086,15.6990051 17.5623047,16.0445862 17.9929688,16.0445862 L30.2619141,16.0445862 C30.6925781,16.0445862 31.0417969,15.6990052 31.0417969,15.2728272 L31.0417969,8.05947492 C32.1523316,7.68928717 32.9595704,6.66098782 32.9595704,5.43884274 C32.9595704,5.33215329 32.9373047,5.22662349 32.8939454,5.12921138 L30.834961,0.477783144 C30.7107423,0.197143525 30.4306642,0.0156554656 30.1207032,0.0156554656 L17.9830078,0.0156554656 C17.6712891,0.0156554656 17.3894531,0.199462831 17.2664063,0.483001672 L15.2496094,5.13442991 C15.2074219,5.23068237 15.1863281,5.33447266 15.1863281,5.43884274 C15.1863281,6.70059777 16.0464478,7.75618552 17.213086,8.09299662 Z M18.7728515,14.5010681 L18.7728515,8.09274291 C19.2516357,7.95448876 19.6833618,7.70545006 20.0197265,7.35809325 C20.530664,7.88632198 21.2501953,8.21566769 22.0458984,8.21566769 C22.8416015,8.21566769 23.5611328,7.88632198 24.0726562,7.35809325 C24.5841797,7.88632198 25.3037109,8.21566769 26.099414,8.21566769 C26.8951172,8.21566769 27.6146484,7.88632198 28.1261719,7.35809325 C28.4883911,7.73212238 28.9580566,7.99899098 29.4820312,8.12727927 L29.4820312,14.5010681 L18.7728515,14.5010681 L18.7728515,14.5010681 Z M18.496875,1.55917361 L29.6109375,1.55917361 L31.3916015,5.58148198 C31.3195312,6.19436652 30.7916015,6.67214973 30.1529297,6.67214973 C29.465625,6.67214973 28.9060547,6.11898812 28.9060547,5.43884286 C28.9060547,5.01266491 28.556836,4.66708382 28.1261719,4.66708382 C27.6955078,4.66708382 27.346289,5.01266485 27.346289,5.43884286 C27.346289,6.11898812 26.7867187,6.67214973 26.099414,6.67214973 C25.4121094,6.67214973 24.852539,6.11898812 24.852539,5.43884286 C24.852539,5.01266491 24.5033203,4.66708382 24.0726562,4.66708382 C23.6419921,4.66708382 23.2927734,5.01266485 23.2927734,5.43884286 C23.2927734,6.11898812 22.7332031,6.67214973 22.0458984,6.67214973 C21.3585937,6.67214973 20.7996094,6.11898812 20.7996094,5.43884286 C20.7996094,5.01266491 20.4503906,4.66708382 20.0197265,4.66708382 C19.5890624,4.66708382 19.2398437,5.01266485 19.2398437,5.43884286 C19.2398437,6.11898812 18.6802734,6.67214973 17.9929687,6.67214973 C17.3537109,6.67214973 16.8246094,6.19320687 16.7542969,5.57916267 L18.496875,1.55917361 Z" id="Shape"></path>
                <path d="M18.1458985,27.3780213 C18.1458985,27.2713318 18.1236328,27.165802 18.0802735,27.0683899 L16.0212891,22.4175415 C15.8970704,22.1369019 15.6169922,21.9554138 15.3070313,21.9554138 L3.16933596,21.9554138 C2.85761724,21.9554138 2.57578128,22.1392212 2.45273442,22.42276 L0.43593756,27.0736084 C0.39433602,27.1698609 0.37265628,27.2736512 0.37265628,27.3780213 C0.37265628,28.6397762 1.2327759,29.6957264 2.3994141,30.0326824 L2.3994141,37.2125855 C2.3994141,37.6387635 2.74863282,37.9843445 3.17929692,37.9843445 L15.4482422,37.9843445 C15.8789063,37.9843445 16.2281251,37.6387635 16.2281251,37.2125855 L16.2281251,29.9991607 C17.3386597,29.6288281 18.1458985,28.6001663 18.1458985,27.3780213 Z M3.95917968,36.4408264 L3.95917968,30.0325012 C4.43796384,29.8942471 4.86968994,29.6452084 5.20605468,29.2978516 C5.71757814,29.8260803 6.43710936,30.155426 7.2328125,30.155426 C8.02851564,30.155426 8.74804686,29.8260803 9.25957032,29.2978516 C9.77109378,29.8260803 10.490625,30.155426 11.2863281,30.155426 C12.0820313,30.155426 12.8015625,29.8260803 13.3125,29.2978516 C13.6747192,29.6718807 14.1443848,29.9387493 14.6683594,30.0670376 L14.6683594,36.4408264 L3.95917968,36.4408264 Z M15.3392578,28.611908 C14.6519531,28.611908 14.0923828,28.0581665 14.0923828,27.3780213 C14.0923828,26.9518433 13.7431641,26.6062622 13.3125,26.6062622 C12.8818359,26.6062622 12.5326172,26.9518432 12.5326172,27.3780213 C12.5326172,28.0581665 11.9736328,28.611908 11.2863281,28.611908 C10.5990235,28.611908 10.0394531,28.0581665 10.0394531,27.3780213 C10.0394531,26.9518433 9.69023442,26.6062622 9.25957032,26.6062622 C8.82890622,26.6062622 8.4796875,26.9518432 8.4796875,27.3780213 C8.4796875,28.0581665 7.92011718,28.611908 7.2328125,28.611908 C6.54550782,28.611908 5.9859375,28.0581665 5.9859375,27.3780213 C5.9859375,26.9518433 5.63671878,26.6062622 5.20605468,26.6062622 C4.77539058,26.6062622 4.42617186,26.9518432 4.42617186,27.3780213 C4.42617186,28.0581665 3.86660154,28.611908 3.17929686,28.611908 C2.53945314,28.611908 2.0109375,28.1329651 1.940625,27.5183411 L3.68320314,23.4989319 L14.7972656,23.4989319 L16.5779297,27.5206604 C16.5058594,28.1341248 15.9779297,28.611908 15.3392578,28.611908 Z" id="Shape"></path>
                <path d="M47.6273437,27.3780213 C47.6273437,27.2713318 47.6050781,27.165802 47.5617187,27.0683899 L45.5027344,22.4175415 C45.3785156,22.1369019 45.0984375,21.9554138 44.7884765,21.9554138 L32.6507813,21.9554138 C32.3390626,21.9554138 32.0572266,22.1392212 31.9341797,22.42276 L29.9173829,27.0736084 C29.8751954,27.1698609 29.8541016,27.2736512 29.8541016,27.3780213 C29.8541016,28.6397762 30.7142212,29.6957264 31.8808594,30.0326824 L31.8808594,37.2125855 C31.8808594,37.6387635 32.2300781,37.9843445 32.6607422,37.9843445 L44.9296876,37.9843445 C45.3603516,37.9843445 45.7095704,37.6387635 45.7095704,37.2125855 L45.7095704,29.9991607 C46.820105,29.6288281 47.6273437,28.6001663 47.6273437,27.3780213 Z M33.440625,36.4408264 L33.440625,30.0325012 C33.9194092,29.8942471 34.3511353,29.6452084 34.6875,29.2978516 C35.1984375,29.8260803 35.9179687,30.155426 36.7136719,30.155426 C37.509375,30.155426 38.2289062,29.8260803 38.7404297,29.2978516 C39.2519531,29.8260803 39.9714844,30.155426 40.7671875,30.155426 C41.5628906,30.155426 42.2824219,29.8260803 42.7939453,29.2978516 C43.1561645,29.6718807 43.6258301,29.9387493 44.1498047,30.0670376 L44.1498047,36.4408264 L33.440625,36.4408264 Z M44.8207031,28.611908 C44.1333985,28.611908 43.5738281,28.0581665 43.5738281,27.3780213 C43.5738281,26.9518433 43.2246094,26.6062622 42.7939453,26.6062622 C42.3632812,26.6062622 42.0140625,26.9518432 42.0140625,27.3780213 C42.0140625,28.0581665 41.4544922,28.611908 40.7671875,28.611908 C40.0798828,28.611908 39.5203125,28.0581665 39.5203125,27.3780213 C39.5203125,26.9518433 39.1710938,26.6062622 38.7404297,26.6062622 C38.3097656,26.6062622 37.9605469,26.9518432 37.9605469,27.3780213 C37.9605469,28.0581665 37.4009765,28.611908 36.7136719,28.611908 C36.0263672,28.611908 35.4673828,28.0581665 35.4673828,27.3780213 C35.4673828,26.9518433 35.1181641,26.6062622 34.6875,26.6062622 C34.2568359,26.6062622 33.9076172,26.9518432 33.9076172,27.3780213 C33.9076172,28.0581665 33.3480469,28.611908 32.6607422,28.611908 C32.0208985,28.611908 31.4923828,28.1329651 31.4220703,27.5183411 L33.1646485,23.4989319 L44.278711,23.4989319 L46.059375,27.5206604 C45.9873047,28.1341248 45.459375,28.611908 44.8207031,28.611908 Z" id="Shape"></path>
            </g>
        </g>
        <path d="M58.8722296,40 L59.3187133,40 C60.5659703,40 61.3018396,40.1856512 61.9536914,40.5342654 C62.6055433,40.8828796 63.1171204,41.3944567 63.4657346,42.0463086 C63.8143488,42.6981604 64,43.4340297 64,44.6812867 L64,45.5 L64,48.5 M55.5,62 L53.5,62 L50,62 L46.5,62 L45,62 L44,62 M36,48.5 L36,45.5 L36,44.8251553 C36,43.4052559 36.1856512,42.6981604 36.5342654,42.0463086 C36.8828796,41.3944567 37.3944567,40.8828796 38.0463086,40.5342654 C38.6981604,40.1856512 39.4052559,40 40.8251553,40 L40.8251553,40" id="Shape" stroke="#000000" stroke-width="2" stroke-linecap="round"></path>
    </g>
</svg>