<svg xmlns="http://www.w3.org/2000/svg" width="100" height="100" viewBox="0 0 100 100"><defs><clipPath id="tb5ma"><path fill="#fff" d="M79 41.887a10 10 0 0 1 10 0l33.301 19.226a10 10 0 0 1 5 8.66v38.453a10 10 0 0 1-5 8.66L89 136.114a10 10 0 0 1-10 0l-33.301-19.226a10 10 0 0 1-5-8.66V69.773a10 10 0 0 1 5-8.66z"/></clipPath></defs><g><g><g><path fill="none" stroke="#0e974f" stroke-miterlimit="50" stroke-width="4" d="M79 41.887a10 10 0 0 1 10 0l33.301 19.226a10 10 0 0 1 5 8.66v38.453a10 10 0 0 1-5 8.66L89 136.114a10 10 0 0 1-10 0l-33.301-19.226a10 10 0 0 1-5-8.66V69.773a10 10 0 0 1 5-8.66z" clip-path="url(&quot;#tb5ma&quot;)"/></g><g><g><g><path fill="none" stroke="#000" stroke-linejoin="round" stroke-miterlimit="50" stroke-width="2" d="M83.2 68v0l18.4 9.288v0l-18.4 9.289v0l-18.4-9.289v0z"/></g><g><path fill="none" stroke="#000" stroke-linecap="round" stroke-linejoin="round" stroke-miterlimit="50" stroke-width="2" d="M101.6 100.708v0l-18.4 9.289v0l-18.4-9.289v0"/></g><g><path fill="none" stroke="#000" stroke-miterlimit="50" stroke-width="2" d="M64.8 76.88v24.23"/></g><g><path fill="none" stroke="#000" stroke-miterlimit="50" stroke-width="2" d="M83.2 86.58v23.423"/></g><g><path fill="none" stroke="#000" stroke-miterlimit="50" stroke-width="2" d="M101.6 76.88v24.23"/></g></g><g><path fill="#fff" d="M66 107.154c4.418 0 8-3.616 8-8.077C74 94.617 70.418 91 66 91s-8 3.616-8 8.077c0 4.46 3.582 8.077 8 8.077z"/><path fill="none" stroke="#000" stroke-miterlimit="50" stroke-width="2" d="M66 107.154c4.418 0 8-3.616 8-8.077C74 94.617 70.418 91 66 91s-8 3.616-8 8.077c0 4.46 3.582 8.077 8 8.077z"/></g><g><path fill="none" stroke="#000" stroke-linecap="round" stroke-linejoin="round" stroke-miterlimit="50" stroke-width="1.8" d="M62 99.103v0l3.613 4.324v0L70 96.57v0"/></g></g></g></g></svg>