<?xml version="1.0" encoding="UTF-8"?>
<svg width="100px" height="100px" viewBox="0 0 100 100" version="1.1" xmlns="http://www.w3.org/2000/svg" xmlns:xlink="http://www.w3.org/1999/xlink">
    <!-- Generator: Sketch 58 (84663) - https://sketch.com -->
    <title>Icons/razrabotka_icon</title>
    <desc>Created with Sketch.</desc>
    <g id="Icons/razrabotka_icon" stroke="none" stroke-width="1" fill="none" fill-rule="evenodd">
        <path d="M54.5,3.75277675 C51.7153903,2.1450816 48.2846097,2.1450816 45.5,3.75277675 L12.1987298,22.9792741 C9.41412012,24.5869692 7.69872981,27.5581124 7.69872981,30.7735027 L7.69872981,69.2264973 C7.69872981,72.4418876 9.41412012,75.4130308 12.1987298,77.0207259 L45.5,96.2472233 C48.2846097,97.8549184 51.7153903,97.8549184 54.5,96.2472233 L87.8012702,77.0207259 C90.5858799,75.4130308 92.3012702,72.4418876 92.3012702,69.2264973 L92.3012702,30.7735027 C92.3012702,27.5581124 90.5858799,24.5869692 87.8012702,22.9792741 L54.5,3.75277675 Z" id="Polygon" stroke="#0E974F" stroke-width="2"></path>
        <path d="M74.305069,48.7225871 L72.3805847,48.3855155 C72.1829223,47.5971775 71.8739776,46.8434918 71.4584197,46.1362715 L72.5836944,44.5202181 C72.751007,44.2800152 72.7229919,43.9523942 72.5175476,43.7444809 L70.8444213,42.0512475 C70.638977,41.8425466 70.3160248,41.8149823 70.0771179,41.9843057 L68.4818115,43.1231036 C67.7845459,42.7041268 67.0413666,42.3914693 66.2639466,42.1914315 L65.9308777,40.2477571 C65.881073,39.9579385 65.6320495,39.7460875 65.3417816,39.7460875 L62.9752807,39.7460875 C62.6850128,39.7460875 62.4359893,39.9579385 62.3861847,40.2477571 L62.0531158,42.1914315 C61.2718047,42.3922569 60.527069,42.7049144 59.8298034,43.1231036 L58.234497,41.9843057 C57.9963683,41.8149824 57.673416,41.8425466 57.4671935,42.0512475 L55.7940673,43.7444809 C55.588623,43.9523942 55.5606078,44.2800152 55.7279205,44.5202181 L56.8524169,46.1362715 C56.4391936,46.8419167 56.1302489,47.5948149 55.9318084,48.3855155 L54.0119933,48.7225871 C53.7256164,48.7729903 53.5162811,49.0250065 53.5162811,49.3187627 L53.5162811,51.714491 C53.5162811,52.5419327 54.6318434,52.3035849 55.9318084,52.6477383 C56.1302489,53.4352887 56.4384155,54.1866118 56.8524169,54.8914694 L55.7279205,56.5075229 C55.5606079,56.7477258 55.588623,57.0753468 55.7940673,57.2832601 L57.4671935,58.9764935 C57.6734161,59.1844068 57.9963683,59.2127586 58.234497,59.0434352 L59.8290252,57.9054249 C60.519287,58.3228266 61.264801,58.6346966 62.0531158,58.837097 L62.3861847,60.7854967 C62.4359893,61.0753152 62.6842346,61.2871663 62.9752807,61.2871663 L63.561264,61.2871663 L63.561264,68.2577749 C63.561264,71.133909 61.2484588,73.4745088 58.4057006,73.4745088 L44.809021,73.4745088 C42.1400928,73.4745088 39.9384727,71.4100439 39.6802082,68.776623 C41.4534301,68.4986669 42.841444,67.0707888 43.0912456,65.233729 C44.1267357,65.1495596 44.9467621,64.2795133 44.9467621,63.2103644 L44.9467621,62.4598288 L45.8782654,62.4598288 C46.2082214,62.4598288 46.4759216,62.1889115 46.4759216,61.8549901 C46.4759216,61.5210687 46.2082214,61.2501514 45.8782654,61.2501514 L44.9467621,61.2501514 L44.9467621,59.8530369 L45.8782654,59.8530369 C46.2082214,59.8530369 46.4759216,59.5821196 46.4759216,59.2481982 C46.4759216,58.9142769 46.2082214,58.6433595 45.8782654,58.6433595 L44.9467621,58.6433595 L44.9467621,57.892824 C44.9467621,57.1928393 44.5959893,56.574563 44.0635071,56.2070231 C44.120121,53.1397603 45.2160187,50.2534373 47.1794129,48.0571069 C49.4175111,45.5550593 50.3964845,42.1851311 49.864975,38.8136278 C49.0416261,33.589603 44.5553603,29.5402226 39.0526886,29.5402226 C33.0162049,29.5402226 28.1042176,34.5136034 28.1042176,40.6273564 C28.1042176,43.332592 29.0800782,45.9370212 30.8520356,47.9618133 C32.8627053,50.2592948 33.9873963,53.1663894 34.0546132,56.1748811 C33.4920731,56.5372035 33.1158143,57.1697542 33.1158143,57.8928239 L33.1158143,58.6433594 L32.1850891,58.6433594 C31.8551331,58.6433594 31.5874329,58.9142768 31.5874329,59.2481981 C31.5874329,59.5821195 31.8551331,59.8530369 32.1850891,59.8530369 L33.1158143,59.8530369 L33.1158143,61.2501513 L32.1850891,61.2501513 C31.8551331,61.2501513 31.5874329,61.5210686 31.5874329,61.85499 C31.5874329,62.1889114 31.8551331,62.4598287 32.1850891,62.4598287 L33.1158143,62.4598287 L33.1158143,63.2103643 C33.1158143,64.2947227 33.9587975,65.1758932 35.0157852,65.2382081 C35.2563458,67.0739881 36.6760712,68.522884 38.4851876,68.7820865 C38.7503587,72.0803969 41.4828073,74.6841861 44.809021,74.6841861 L58.4057007,74.6841861 C61.9075929,74.6841861 64.7565766,71.8009641 64.7565766,68.2577748 L64.7565766,61.2871662 L65.3417817,61.2871662 C65.6328278,61.2871662 65.8810731,61.0753152 65.9308777,60.7854966 L66.2647248,58.8363094 C67.0413666,58.635484 67.784546,58.323614 68.4818116,57.9046373 L70.077118,59.0434352 C70.3160248,59.2127585 70.6389771,59.1844067 70.8444214,58.9764934 L72.5175477,57.28326 C72.722992,57.0753467 72.7510072,56.7477257 72.5836945,56.5075228 L71.4584198,54.8914694 C71.8731995,54.1866118 72.181366,53.4352886 72.3798065,52.6477382 L74.305069,52.3106666 C74.5914459,52.2602634 74.8007812,52.0090348 74.8007812,51.714491 L74.8007812,49.3187627 C74.8007812,49.0242189 74.5914459,48.7729903 74.305069,48.7225871 Z M29.29953,40.6273565 C29.29953,35.1806579 33.6745605,30.7499002 39.0526886,30.7499002 C43.9507322,30.7499002 47.9507319,34.3472581 48.6852264,39.0042152 C49.1591492,42.0118702 48.2875671,45.0163749 46.2938232,47.2459302 C44.2066955,49.579442 43.0028228,52.617024 42.8697509,55.8530686 L41.5009002,55.8530686 L41.5009002,48.3047425 C43.3057365,47.9338555 44.3374328,47.1966591 44.3374328,46.2402283 C44.3374328,45.0726618 42.6053854,44.3319937 41.9133453,44.3319937 C41.0269775,44.3319937 40.3055877,45.0691409 40.3055877,45.9756114 L40.3055877,47.2668002 C39.494997,47.3564826 38.6218586,47.3566794 37.8067932,47.2666034 L37.8067932,45.9724612 C37.8067932,44.8570099 36.7388422,44.0665308 35.7103271,44.4083861 C34.1111297,44.9391951 33.7757262,45.6976061 33.7757262,46.2402284 C33.7757262,47.1894727 34.8304767,47.9422725 36.6114807,48.3063669 L36.6114807,55.8530686 L35.2496337,55.8530686 C35.1111144,52.6634895 33.8800048,49.5967682 31.7469634,47.1600873 C30.1687774,45.3565967 29.29953,43.0364731 29.29953,40.6273565 Z M36.6114807,47.0758192 C35.3803711,46.7867882 34.9710388,46.3567856 34.9710388,46.2402282 C34.9710388,46.1890374 35.164032,45.8629916 36.0830841,45.5582096 C36.326534,45.4744431 36.6114807,45.6735303 36.6114807,45.9724611 L36.6114807,47.0758192 L36.6114807,47.0758192 Z M37.8067932,48.4918348 C38.6161194,48.572165 39.4993744,48.572165 40.3055878,48.4918348 L40.3055878,55.8530685 L37.8067932,55.8530685 L37.8067932,48.4918348 Z M41.5009003,47.0718815 L41.5009003,45.9756113 C41.5009003,45.0070581 43.1421204,46.0108203 43.1421204,46.2402282 C43.1421204,46.3496977 42.7164459,46.7804878 41.5009003,47.0718815 Z M34.3111267,57.892824 C34.3111267,57.4352572 34.6792145,57.0627458 35.1321258,57.0627458 C35.3445724,57.0627458 43.0117645,57.0627458 42.9312286,57.0627458 C43.3833618,57.0627458 43.7514496,57.4352572 43.7514496,57.892824 L43.7514496,58.6433595 L34.3111267,58.6433595 L34.3111267,57.892824 Z M34.3111267,59.8530369 L43.7514496,59.8530369 L43.7514496,61.2501514 L34.3111267,61.2501514 L34.3111267,59.8530369 Z M34.3111267,63.2103643 L34.3111267,62.4598287 L43.7514496,62.4598287 L43.7514496,63.2103643 C43.7514496,63.667931 43.3833618,64.0404424 42.9312286,64.0404424 C42.2546338,64.0404424 34.833933,64.0404424 35.1321258,64.0404424 C34.6714325,64.0404424 34.3111267,63.6758066 34.3111267,63.2103643 Z M36.2169342,65.2501198 L41.904007,65.2501198 C41.6472016,66.6047065 40.4682313,67.6308847 39.0565796,67.6308847 C37.6566009,67.6308847 36.4854126,66.6220327 36.2169342,65.2501198 Z M73.6054688,51.2057335 L71.7837067,51.5246915 C70.9825516,51.66502 71.5824969,52.5282152 70.242096,54.5772369 C69.8729047,55.1441224 70.5591419,55.5339722 71.3167877,56.7878908 L70.3549347,57.7613031 L68.8460083,56.6839342 C68.1774843,56.2129483 67.97639,57.2613563 65.6242675,57.743977 C64.9628173,57.8800171 65.1750921,58.6666292 64.8390654,60.0774889 L63.4779967,60.0774889 L63.1628264,58.2338334 C63.0272011,57.4408132 62.0841707,57.9857089 60.1418609,56.6752711 C59.5781171,56.2970869 59.1771534,57.0068176 57.9566802,57.7613031 L56.9948272,56.7878908 L58.0586241,55.2592555 C58.5253698,54.5896531 57.4904118,54.3844469 57.0111693,52.0003719 C56.9613646,51.7562313 56.7699278,51.5672192 56.52713,51.5246915 L54.7115935,51.2057335 L54.7115935,49.8275203 L56.52713,49.5085624 C56.7699278,49.4660347 56.9613646,49.2770226 57.0111693,49.0328819 C57.1963805,48.111448 57.5520171,47.2419923 58.0687407,46.4497166 C58.2041472,46.2418033 58.2002562,45.9716735 58.0586241,45.7684855 L56.9948272,44.2398502 L57.9566802,43.2664378 L59.4656066,44.3438068 C59.66716,44.4855659 59.9348602,44.4910787 60.1395263,44.3540449 C60.9223937,43.8311115 61.7815246,43.4712009 62.6927948,43.283764 C62.9340362,43.2341483 63.1208038,43.0396233 63.1628265,42.7939076 L63.4779968,40.9557649 L64.8390655,40.9557649 L65.1542358,42.7939076 C65.1962585,43.0396233 65.3830261,43.2341482 65.6242676,43.283764 C66.5300904,43.4696259 67.3876648,43.830324 68.1720886,44.3540449 C68.3783112,44.4910787 68.6444549,44.4863534 68.8460083,44.3438068 L70.3549347,43.2664378 L71.3167877,44.2398502 L70.2522125,45.7684855 C70.1105804,45.9716735 70.1066895,46.2425908 70.242096,46.4497166 C70.7549286,47.2349044 71.1082306,48.0917592 71.29422,48.9974422 C71.3292389,49.253396 71.5253449,49.4628844 71.7837067,49.5085624 L73.6054688,49.8275203 L73.6054688,51.2057335 Z" id="Shape" stroke="#000000" stroke-width="0.7" fill="#000000" fill-rule="nonzero"></path>
        <path d="M64.1589203,45.0384263 C61.1737518,45.0384263 58.7449951,47.4955835 58.7449951,50.5166269 C58.7449951,53.5376703 61.1737519,55.9956151 64.1589203,55.9956151 C67.1440887,55.9956151 69.5720673,53.5376702 69.5720673,50.5166269 C69.5720673,47.4955836 67.1440888,45.0384263 64.1589203,45.0384263 Z M64.1589203,54.7859377 C61.8328857,54.7859377 59.9403076,52.8706151 59.9403076,50.5166269 C59.9403076,48.1626388 61.8328857,46.2481037 64.1589203,46.2481037 C66.4849548,46.2481037 68.3767548,48.1626387 68.3767548,50.5166269 C68.3767548,52.8706152 66.4849548,54.7859377 64.1589203,54.7859377 Z" id="Shape" stroke="#000000" stroke-width="0.7" fill="#000000" fill-rule="nonzero"></path>
        <path d="M39.6542359,27.9619717 L39.6542359,25.920641 C39.6542359,25.5867197 39.3865357,25.3158023 39.0565796,25.3158023 C38.7266236,25.3158023 38.4589234,25.5867197 38.4589234,25.920641 L38.4589234,27.9619717 C38.4589234,28.2958931 38.7266236,28.5668104 39.0565796,28.5668104 C39.3865357,28.5668104 39.6542359,28.2958931 39.6542359,27.9619717 Z" id="Path" stroke="#000000" stroke-width="0.7" fill="#000000" fill-rule="nonzero"></path>
        <path d="M32.35318,30.0379545 C32.5183943,30.32761 32.8846438,30.4260353 33.1695099,30.2592562 C33.4551087,30.0922955 33.5531617,29.7221469 33.3881837,29.4331158 L32.3796388,27.6650652 C32.2154389,27.3768217 31.8496857,27.2752277 31.5633088,27.4437635 C31.27771,27.6107242 31.179657,27.9808728 31.344635,28.2699039 L32.35318,30.0379545 Z" id="Path" stroke="#000000" stroke-width="0.7" fill="#000000" fill-rule="nonzero"></path>
        <path d="M28.9073181,34.7034023 C29.0722962,34.4143721 28.9742432,34.0442234 28.6886444,33.8772627 L26.9415893,32.8565974 C26.6544341,32.6888492 26.2894592,32.7896556 26.1252593,33.0778991 C25.9602813,33.3669301 26.0583343,33.7370788 26.3439331,33.9040395 L28.0909881,34.924704 C28.3758642,35.0914894 28.742106,34.9930563 28.9073181,34.7034023 Z" id="Path" stroke="#000000" stroke-width="0.7" fill="#000000" fill-rule="nonzero"></path>
        <path d="M26.8147431,40.1044231 L24.796875,40.1044231 C24.4669189,40.1044231 24.1992188,40.3753404 24.1992188,40.7092618 C24.1992188,41.0431831 24.4669189,41.3141005 24.796875,41.3141005 L26.8147431,41.3141005 C27.1446991,41.3141005 27.4123993,41.0431831 27.4123993,40.7092618 C27.4123993,40.3753404 27.1446991,40.1044231 26.8147431,40.1044231 Z" id="Path" stroke="#000000" stroke-width="0.7" fill="#000000" fill-rule="nonzero"></path>
        <path d="M51.0540619,40.3509263 C51.0540619,40.6848477 51.3217621,40.955765 51.6517181,40.955765 L53.6695862,40.955765 C53.9995423,40.955765 54.2672425,40.6848477 54.2672425,40.3509263 C54.2672425,40.0170049 53.9995423,39.7460876 53.6695862,39.7460876 L51.6517181,39.7460876 C51.3217621,39.7460876 51.0540619,40.0170049 51.0540619,40.3509263 Z" id="Path" stroke="#000000" stroke-width="0.7" fill="#000000" fill-rule="nonzero"></path>
        <path d="M51.3482208,32.5470902 L49.6003875,33.5677555 C49.3147888,33.7347162 49.2167358,34.1040773 49.3817138,34.3938959 C49.5469289,34.6835522 49.9131776,34.781976 50.1980438,34.6151976 L51.945877,33.5945323 C52.2314758,33.4275715 52.3295288,33.0582104 52.1645508,32.7683919 C52.0003509,32.4801483 51.635376,32.3793419 51.3482208,32.5470902 Z" id="Path" stroke="#000000" stroke-width="0.7" fill="#000000" fill-rule="nonzero"></path>
        <path d="M45.8066712,29.8591806 L46.8159943,28.0911299 C46.9809724,27.802099 46.8829194,27.4319502 46.5973206,27.2649895 C46.3109436,27.0972413 45.9451904,27.1980477 45.7809906,27.4862912 L44.7716674,29.2543419 C44.6066894,29.5433728 44.7047424,29.9135215 44.9903412,30.0804823 C45.275218,30.2472669 45.6414591,30.1488331 45.8066712,29.8591806 Z" id="Path" stroke="#000000" stroke-width="0.7" fill="#000000" fill-rule="nonzero"></path>
    </g>
</svg>