<svg xmlns="http://www.w3.org/2000/svg" width="100" height="100" viewBox="0 0 100 100"><defs><clipPath id="ivd0a"><path fill="#fff" d="M79 41.887a10 10 0 0 1 10 0l33.301 19.226a10 10 0 0 1 5 8.66v38.453a10 10 0 0 1-5 8.66L89 136.114a10 10 0 0 1-10 0l-33.301-19.226a10 10 0 0 1-5-8.66V69.773a10 10 0 0 1 5-8.66z"/></clipPath><clipPath id="ivd0b"><path fill="#fff" d="M83.5 78a3.5 3.5 0 1 0 0-7 3.5 3.5 0 0 0 0 7z"/></clipPath></defs><g><g><g><path fill="none" stroke="#0e974f" stroke-miterlimit="50" stroke-width="4" d="M79 41.887a10 10 0 0 1 10 0l33.301 19.226a10 10 0 0 1 5 8.66v38.453a10 10 0 0 1-5 8.66L89 136.114a10 10 0 0 1-10 0l-33.301-19.226a10 10 0 0 1-5-8.66V69.773a10 10 0 0 1 5-8.66z" clip-path="url(&quot;#ivd0a&quot;)"/></g><g transform="rotate(-315 83.5 88.5)"><path fill="none" stroke="#000" stroke-linejoin="round" stroke-miterlimit="50" stroke-width="2" d="M62.283 87.094a5 5 0 0 0 1.43 4.12l20.459 20.458a4 4 0 0 0 5.656 0L102.2 99.3a4 4 0 0 0 .028-5.63l-20.56-20.97a5 5 0 0 0-4.037-1.479l-9.603.9a5 5 0 0 0-4.5 4.394z"/></g><g><path fill="none" stroke="#000" stroke-linecap="round" stroke-linejoin="round" stroke-miterlimit="50" stroke-width="2" d="M83 76v0l-1.798-9.06c-.863-4.348-4.265-7.255-8.093-6.913-3.986.357-7.109 4.277-7.109 8.926v1.633"/></g><g><path fill="none" stroke="#000" stroke-miterlimit="50" stroke-width="4" d="M83.5 78a3.5 3.5 0 1 0 0-7 3.5 3.5 0 0 0 0 7z" clip-path="url(&quot;#ivd0b&quot;)"/></g><g><g><path fill="none" stroke="#000" stroke-linecap="round" stroke-linejoin="round" stroke-miterlimit="50" stroke-width="1.43" d="M84.562 102.422h-3.414"/></g><g><path d="M83.51 99.43h-2.358v-5.46h2.358c2.376 0 3.654.85 3.654 2.722 0 1.89-1.278 2.739-3.654 2.739zm.108-6.43h-3.366c-.144 0-.252.104-.252.243v11.63c0 .156.108.26.252.26h.648c.144 0 .252-.104.252-.26v-4.472h2.466c2.88 0 4.734-1.334 4.734-3.709 0-2.392-1.854-3.692-4.734-3.692z"/><path fill="none" stroke="#000" stroke-miterlimit="50" stroke-width=".55" d="M83.51 99.43h-2.358v-5.46h2.358c2.376 0 3.654.85 3.654 2.722 0 1.89-1.278 2.739-3.654 2.739zm.108-6.43h-3.366c-.144 0-.252.104-.252.243v11.63c0 .156.108.26.252.26h.648c.144 0 .252-.104.252-.26v-4.472h2.466c2.88 0 4.734-1.334 4.734-3.709 0-2.392-1.854-3.692-4.734-3.692z"/></g></g></g></g></svg>