<svg xmlns="http://www.w3.org/2000/svg" width="100" height="100" viewBox="0 0 100 100"><defs><clipPath id="3jc8a"><path fill="#fff" d="M79 41.887a10 10 0 0 1 10 0l33.301 19.226a10 10 0 0 1 5 8.66v38.453a10 10 0 0 1-5 8.66L89 136.114a10 10 0 0 1-10 0l-33.301-19.226a10 10 0 0 1-5-8.66V69.773a10 10 0 0 1 5-8.66z"/></clipPath></defs><g><g><g><path fill="none" stroke="#0e974f" stroke-miterlimit="50" stroke-width="4" d="M79 41.887a10 10 0 0 1 10 0l33.301 19.226a10 10 0 0 1 5 8.66v38.453a10 10 0 0 1-5 8.66L89 136.114a10 10 0 0 1-10 0l-33.301-19.226a10 10 0 0 1-5-8.66V69.773a10 10 0 0 1 5-8.66z" clip-path="url(&quot;#3jc8a&quot;)"/></g><g><path d="M107.601 90.206l-1.822.318c-.8.14-.2 1.004-1.541 3.053-.37.567.317.957 1.075 2.21l-.962.974-1.51-1.077c-.668-.471-.869.577-3.221 1.06-.661.136-.45.922-.785 2.333h-1.361l-.315-1.843c-.136-.793-1.079-.249-3.021-1.559-.564-.378-.965.332-2.186 1.086l-.961-.973 1.063-1.529c.467-.67-.568-.875-1.047-3.259a.602.602 0 0 0-.484-.476l-1.816-.318v-1.379l1.816-.319a.602.602 0 0 0 .484-.475c.185-.922.54-1.791 1.058-2.584a.61.61 0 0 0-.01-.68l-1.064-1.53.961-.973 1.51 1.078c.2.141.469.147.673.01a7.183 7.183 0 0 1 2.554-1.07.602.602 0 0 0 .47-.49l.315-1.838h1.36l.316 1.838c.042.245.229.44.47.49a7.168 7.168 0 0 1 2.548 1.07.594.594 0 0 0 .674-.01l1.509-1.078.962.974-1.065 1.528a.61.61 0 0 0-.01.681 7.34 7.34 0 0 1 1.052 2.548.602.602 0 0 0 .49.511l1.821.32zM70.213 104.25H75.9c-.257 1.354-1.436 2.38-2.848 2.38-1.4 0-2.57-1.008-2.84-2.38zm-1.906-2.04v-.75h9.44v.75c0 .458-.368.83-.82.83h-7.8a.817.817 0 0 1-.82-.83zm0-3.357h9.44v1.397h-9.44zm0-1.96c0-.458.368-.83.82-.83h7.8c.452 0 .82.372.82.83v.75h-9.44zm7.19-10.821v-1.097c0-.968 1.64.036 1.64.265 0 .11-.425.54-1.64.832zm-3.694 1.42c.809.08 1.692.08 2.498 0v7.36h-2.498zm-2.836-2.252c0-.051.193-.377 1.112-.682.243-.084.528.115.528.414v1.104c-1.23-.29-1.64-.72-1.64-.836zm-5.672-5.613c0-5.447 4.375-9.877 9.753-9.877 4.899 0 8.899 3.597 9.633 8.254.474 3.008-.398 6.012-2.391 8.242-2.088 2.333-3.291 5.37-3.424 8.607h-1.37v-7.548c1.806-.371 2.837-1.109 2.837-2.065 0-1.168-1.732-1.908-2.424-1.908-.886 0-1.608.737-1.608 1.643v1.292c-.81.09-1.683.09-2.498 0v-1.295c0-1.115-1.068-1.906-2.097-1.564-1.6.531-1.934 1.29-1.934 1.832 0 .95 1.054 1.702 2.835 2.066v7.547h-1.362a14.137 14.137 0 0 0-3.502-8.693 9.914 9.914 0 0 1-2.448-6.533zm45.006 8.095l-1.925-.337a8.52 8.52 0 0 0-.922-2.249l1.125-1.616a.61.61 0 0 0-.066-.776l-1.673-1.693a.592.592 0 0 0-.767-.067l-1.595 1.139a8.326 8.326 0 0 0-2.218-.932l-.333-1.943a.6.6 0 0 0-.59-.502h-2.366a.6.6 0 0 0-.589.502l-.333 1.943c-.781.201-1.526.514-2.223.932l-1.596-1.139a.592.592 0 0 0-.767.067l-1.673 1.693a.61.61 0 0 0-.066.776l1.124 1.616a8.567 8.567 0 0 0-.92 2.25l-1.92.336a.604.604 0 0 0-.496.597v2.395c0 .828 1.116.59 2.416.934.198.787.506 1.538.92 2.243l-1.124 1.616a.61.61 0 0 0 .066.776l1.673 1.693c.206.208.53.237.767.067l1.595-1.138a8.25 8.25 0 0 0 2.224.932l.333 1.948a.6.6 0 0 0 .59.502h.585v6.97c0 2.877-2.313 5.217-5.156 5.217H78.805c-2.67 0-4.87-2.064-5.129-4.698 1.773-.278 3.161-1.705 3.411-3.542a2.026 2.026 0 0 0 1.856-2.024v-.75h.931c.33 0 .598-.271.598-.605a.601.601 0 0 0-.598-.605h-.931v-1.397h.931c.33 0 .598-.271.598-.605a.601.601 0 0 0-.598-.605h-.931v-.75c0-.7-.351-1.319-.884-1.686.057-3.067 1.153-5.954 3.116-8.15 2.238-2.502 3.217-5.872 2.686-9.244-.824-5.224-5.31-9.273-10.813-9.273-6.036 0-10.948 4.973-10.948 11.087 0 2.705.976 5.31 2.748 7.335a12.908 12.908 0 0 1 3.202 8.213 2.04 2.04 0 0 0-.938 1.718v.75h-.931c-.33 0-.598.271-.598.605 0 .334.268.605.598.605h.93v1.397h-.93c-.33 0-.598.27-.598.605 0 .334.268.605.598.605h.93v.75c0 1.085.844 1.966 1.9 2.028.241 1.836 1.66 3.285 3.47 3.544.265 3.298 2.998 5.902 6.324 5.902H92.4c3.502 0 6.351-2.883 6.351-6.426v-6.971h.586a.6.6 0 0 0 .589-.502l.334-1.949c.776-.2 1.52-.513 2.217-.932l1.595 1.14c.239.169.562.14.767-.068l1.673-1.693a.61.61 0 0 0 .066-.776l-1.125-1.616a8.513 8.513 0 0 0 .922-2.243l1.925-.338a.603.603 0 0 0 .496-.596V88.32a.603.603 0 0 0-.496-.597z"/><path fill="none" stroke="#000" stroke-miterlimit="50" stroke-width=".7" d="M107.601 90.206l-1.822.318c-.8.14-.2 1.004-1.541 3.053-.37.567.317.957 1.075 2.21l-.962.974-1.51-1.077c-.668-.471-.869.577-3.221 1.06-.661.136-.45.922-.785 2.333h-1.361l-.315-1.843c-.136-.793-1.079-.249-3.021-1.559-.564-.378-.965.332-2.186 1.086l-.961-.973 1.063-1.529c.467-.67-.568-.875-1.047-3.259a.602.602 0 0 0-.484-.476l-1.816-.318v-1.379l1.816-.319a.602.602 0 0 0 .484-.475c.185-.922.54-1.791 1.058-2.584a.61.61 0 0 0-.01-.68l-1.064-1.53.961-.973 1.51 1.078c.2.141.469.147.673.01a7.183 7.183 0 0 1 2.554-1.07.602.602 0 0 0 .47-.49l.315-1.838h1.36l.316 1.838c.042.245.229.44.47.49a7.168 7.168 0 0 1 2.548 1.07.594.594 0 0 0 .674-.01l1.509-1.078.962.974-1.065 1.528a.61.61 0 0 0-.01.681 7.34 7.34 0 0 1 1.052 2.548.602.602 0 0 0 .49.511l1.821.32zM70.213 104.25H75.9c-.257 1.354-1.436 2.38-2.848 2.38-1.4 0-2.57-1.008-2.84-2.38zm-1.906-2.04v-.75h9.44v.75c0 .458-.368.83-.82.83h-7.8a.817.817 0 0 1-.82-.83zm0-3.357h9.44v1.397h-9.44zm0-1.96c0-.458.368-.83.82-.83h7.8c.452 0 .82.372.82.83v.75h-9.44zm7.19-10.821v-1.097c0-.968 1.64.036 1.64.265 0 .11-.425.54-1.64.832zm-3.694 1.42c.809.08 1.692.08 2.498 0v7.36h-2.498zm-2.836-2.252c0-.051.193-.377 1.112-.682.243-.084.528.115.528.414v1.104c-1.23-.29-1.64-.72-1.64-.836zm-5.672-5.613c0-5.447 4.375-9.877 9.753-9.877 4.899 0 8.899 3.597 9.633 8.254.474 3.008-.398 6.012-2.391 8.242-2.088 2.333-3.291 5.37-3.424 8.607h-1.37v-7.548c1.806-.371 2.837-1.109 2.837-2.065 0-1.168-1.732-1.908-2.424-1.908-.886 0-1.608.737-1.608 1.643v1.292c-.81.09-1.683.09-2.498 0v-1.295c0-1.115-1.068-1.906-2.097-1.564-1.6.531-1.934 1.29-1.934 1.832 0 .95 1.054 1.702 2.835 2.066v7.547h-1.362a14.137 14.137 0 0 0-3.502-8.693 9.914 9.914 0 0 1-2.448-6.533zm45.006 8.095l-1.925-.337a8.52 8.52 0 0 0-.922-2.249l1.125-1.616a.61.61 0 0 0-.066-.776l-1.673-1.693a.592.592 0 0 0-.767-.067l-1.595 1.139a8.326 8.326 0 0 0-2.218-.932l-.333-1.943a.6.6 0 0 0-.59-.502h-2.366a.6.6 0 0 0-.589.502l-.333 1.943c-.781.201-1.526.514-2.223.932l-1.596-1.139a.592.592 0 0 0-.767.067l-1.673 1.693a.61.61 0 0 0-.066.776l1.124 1.616a8.567 8.567 0 0 0-.92 2.25l-1.92.336a.604.604 0 0 0-.496.597v2.395c0 .828 1.116.59 2.416.934.198.787.506 1.538.92 2.243l-1.124 1.616a.61.61 0 0 0 .066.776l1.673 1.693c.206.208.53.237.767.067l1.595-1.138a8.25 8.25 0 0 0 2.224.932l.333 1.948a.6.6 0 0 0 .59.502h.585v6.97c0 2.877-2.313 5.217-5.156 5.217H78.805c-2.67 0-4.87-2.064-5.129-4.698 1.773-.278 3.161-1.705 3.411-3.542a2.026 2.026 0 0 0 1.856-2.024v-.75h.931c.33 0 .598-.271.598-.605a.601.601 0 0 0-.598-.605h-.931v-1.397h.931c.33 0 .598-.271.598-.605a.601.601 0 0 0-.598-.605h-.931v-.75c0-.7-.351-1.319-.884-1.686.057-3.067 1.153-5.954 3.116-8.15 2.238-2.502 3.217-5.872 2.686-9.244-.824-5.224-5.31-9.273-10.813-9.273-6.036 0-10.948 4.973-10.948 11.087 0 2.705.976 5.31 2.748 7.335a12.908 12.908 0 0 1 3.202 8.213 2.04 2.04 0 0 0-.938 1.718v.75h-.931c-.33 0-.598.271-.598.605 0 .334.268.605.598.605h.93v1.397h-.93c-.33 0-.598.27-.598.605 0 .334.268.605.598.605h.93v.75c0 1.085.844 1.966 1.9 2.028.241 1.836 1.66 3.285 3.47 3.544.265 3.298 2.998 5.902 6.324 5.902H92.4c3.502 0 6.351-2.883 6.351-6.426v-6.971h.586a.6.6 0 0 0 .589-.502l.334-1.949c.776-.2 1.52-.513 2.217-.932l1.595 1.14c.239.169.562.14.767-.068l1.673-1.693a.61.61 0 0 0 .066-.776l-1.125-1.616a8.513 8.513 0 0 0 .922-2.243l1.925-.338a.603.603 0 0 0 .496-.596V88.32a.603.603 0 0 0-.496-.597z"/></g><g><path d="M98.149 93.788c-2.323 0-4.214-1.916-4.214-4.27 0-2.354 1.89-4.268 4.214-4.268 2.323 0 4.213 1.914 4.213 4.268s-1.89 4.27-4.213 4.27zm.005-9.748c-2.985 0-5.414 2.457-5.414 5.478s2.429 5.48 5.414 5.48 5.413-2.459 5.413-5.48c0-3.02-2.428-5.478-5.413-5.478z"/><path fill="none" stroke="#000" stroke-miterlimit="50" stroke-width=".7" d="M98.149 93.788c-2.323 0-4.214-1.916-4.214-4.27 0-2.354 1.89-4.268 4.214-4.268 2.323 0 4.213 1.914 4.213 4.268s-1.89 4.27-4.213 4.27zm.005-9.748c-2.985 0-5.414 2.457-5.414 5.478s2.429 5.48 5.414 5.48 5.413-2.459 5.413-5.48c0-3.02-2.428-5.478-5.413-5.478z"/></g><g><path d="M73.655 66.966v-2.041a.601.601 0 0 0-.597-.605c-.33 0-.598.27-.598.605v2.041c0 .334.268.605.598.605.33 0 .597-.27.597-.605z"/><path fill="none" stroke="#000" stroke-miterlimit="50" stroke-width=".7" d="M73.655 66.966v-2.041a.601.601 0 0 0-.597-.605c-.33 0-.598.27-.598.605v2.041c0 .334.268.605.598.605.33 0 .597-.27.597-.605z"/></g><g><path d="M66.349 69.036c.165.29.531.388.816.221a.609.609 0 0 0 .219-.826l-1.009-1.768a.593.593 0 0 0-.816-.221.609.609 0 0 0-.219.826z"/><path fill="none" stroke="#000" stroke-miterlimit="50" stroke-width=".7" d="M66.349 69.036c.165.29.531.388.816.221a.609.609 0 0 0 .219-.826l-1.009-1.768a.593.593 0 0 0-.816-.221.609.609 0 0 0-.219.826z"/></g><g><path d="M62.912 73.708a.609.609 0 0 0-.219-.826l-1.747-1.02a.593.593 0 0 0-.816.22.609.609 0 0 0 .219.827l1.747 1.02a.594.594 0 0 0 .816-.22z"/><path fill="none" stroke="#000" stroke-miterlimit="50" stroke-width=".7" d="M62.912 73.708a.609.609 0 0 0-.219-.826l-1.747-1.02a.593.593 0 0 0-.816.22.609.609 0 0 0 .219.827l1.747 1.02a.594.594 0 0 0 .816-.22z"/></g><g><path d="M60.816 79.1h-2.018c-.33 0-.598.27-.598.605 0 .334.268.605.598.605h2.018c.33 0 .597-.271.597-.605a.601.601 0 0 0-.597-.605z"/><path fill="none" stroke="#000" stroke-miterlimit="50" stroke-width=".7" d="M60.816 79.1h-2.018c-.33 0-.598.27-.598.605 0 .334.268.605.598.605h2.018c.33 0 .597-.271.597-.605a.601.601 0 0 0-.597-.605z"/></g><g><path d="M85.05 79.355c0 .334.268.605.598.605h2.018c.33 0 .597-.271.597-.605a.601.601 0 0 0-.597-.605h-2.018c-.33 0-.598.27-.598.605z"/><path fill="none" stroke="#000" stroke-miterlimit="50" stroke-width=".7" d="M85.05 79.355c0 .334.268.605.598.605h2.018c.33 0 .597-.271.597-.605a.601.601 0 0 0-.597-.605h-2.018c-.33 0-.598.27-.598.605z"/></g><g><path d="M85.347 71.551l-1.748 1.02a.609.609 0 0 0-.219.827c.165.29.532.388.816.221l1.748-1.02a.609.609 0 0 0 .219-.826.593.593 0 0 0-.816-.222z"/><path fill="none" stroke="#000" stroke-miterlimit="50" stroke-width=".7" d="M85.347 71.551l-1.748 1.02a.609.609 0 0 0-.219.827c.165.29.532.388.816.221l1.748-1.02a.609.609 0 0 0 .219-.826.593.593 0 0 0-.816-.222z"/></g><g><path d="M79.805 68.855l1.01-1.768a.609.609 0 0 0-.22-.826.594.594 0 0 0-.816.222L78.77 68.25a.609.609 0 0 0 .219.826.594.594 0 0 0 .816-.222z"/><path fill="none" stroke="#000" stroke-miterlimit="50" stroke-width=".7" d="M79.805 68.855l1.01-1.768a.609.609 0 0 0-.22-.826.594.594 0 0 0-.816.222L78.77 68.25a.609.609 0 0 0 .219.826.594.594 0 0 0 .816-.222z"/></g></g></g></svg>