<svg xmlns="http://www.w3.org/2000/svg" width="100" height="100" viewBox="0 0 100 100"><defs><clipPath id="n4e0a"><path fill="#fff" d="M79 41.887a10 10 0 0 1 10 0l33.301 19.226a10 10 0 0 1 5 8.66v38.453a10 10 0 0 1-5 8.66L89 136.114a10 10 0 0 1-10 0l-33.301-19.226a10 10 0 0 1-5-8.66V69.773a10 10 0 0 1 5-8.66z"/></clipPath></defs><g><g><g><path fill="none" stroke="#0e974f" stroke-miterlimit="50" stroke-width="4" d="M79 41.887a10 10 0 0 1 10 0l33.301 19.226a10 10 0 0 1 5 8.66v38.453a10 10 0 0 1-5 8.66L89 136.114a10 10 0 0 1-10 0l-33.301-19.226a10 10 0 0 1-5-8.66V69.773a10 10 0 0 1 5-8.66z" clip-path="url(&quot;#n4e0a&quot;)"/></g><g><path fill="none" stroke="#000" stroke-linejoin="round" stroke-miterlimit="50" stroke-width="2" d="M84 95.8v0l-9.992 6.953v0l3.525-11.652v0l-9.701-7.354v0l12.171-.248v0L84 72v0l3.997 11.499v0l12.171.248v0l-9.7 7.354v0l3.524 11.652v0z"/></g></g></g></svg>