<svg xmlns="http://www.w3.org/2000/svg" width="100" height="100" viewBox="0 0 100 100"><defs><clipPath id="46kpa"><path fill="#fff" d="M79 41.887a10 10 0 0 1 10 0l33.301 19.226a10 10 0 0 1 5 8.66v38.453a10 10 0 0 1-5 8.66L89 136.114a10 10 0 0 1-10 0l-33.301-19.226a10 10 0 0 1-5-8.66V69.773a10 10 0 0 1 5-8.66z"/></clipPath></defs><g><g><g><path fill="none" stroke="#0e974f" stroke-miterlimit="50" stroke-width="4" d="M79 41.887a10 10 0 0 1 10 0l33.301 19.226a10 10 0 0 1 5 8.66v38.453a10 10 0 0 1-5 8.66L89 136.114a10 10 0 0 1-10 0l-33.301-19.226a10 10 0 0 1-5-8.66V69.773a10 10 0 0 1 5-8.66z" clip-path="url(&quot;#46kpa&quot;)"/></g><g><g><g><path d="M78.5 69.564h11.115l1.78 4.03a1.245 1.245 0 0 1-1.238 1.093 1.243 1.243 0 0 1-1.247-1.236.777.777 0 0 0-.78-.773c-.43 0-.78.346-.78.773 0 .681-.56 1.236-1.247 1.236a1.243 1.243 0 0 1-1.247-1.236.777.777 0 0 0-.78-.773c-.43 0-.78.346-.78.773 0 .681-.56 1.236-1.246 1.236a1.242 1.242 0 0 1-1.247-1.236.777.777 0 0 0-.78-.773c-.43 0-.78.346-.78.773 0 .681-.56 1.236-1.246 1.236-.64 0-1.169-.48-1.239-1.096zm.277 6.534c.478-.138.91-.388 1.246-.736a2.81 2.81 0 0 0 2.027.86c.795 0 1.515-.33 2.026-.86a2.812 2.812 0 0 0 2.027.86c.796 0 1.515-.33 2.027-.86.362.375.832.642 1.356.77v6.383h-10.71zm-1.56 0v7.18c0 .425.349.77.78.77h12.269c.43 0 .78-.345.78-.77v-7.214c1.11-.37 1.917-1.399 1.917-2.62a.761.761 0 0 0-.065-.31l-2.06-4.652a.78.78 0 0 0-.714-.462H77.987a.78.78 0 0 0-.717.467l-2.017 4.652a.758.758 0 0 0-.063.304c0 1.262.86 2.318 2.027 2.654z"/></g><g><path d="M75.337 96.627a1.243 1.243 0 0 1-1.247-1.237.777.777 0 0 0-.78-.773c-.43 0-.78.346-.78.773 0 .682-.559 1.237-1.246 1.237a1.243 1.243 0 0 1-1.247-1.237.777.777 0 0 0-.78-.773c-.43 0-.78.346-.78.773 0 .682-.56 1.237-1.247 1.237a1.243 1.243 0 0 1-1.247-1.237.777.777 0 0 0-.78-.773c-.43 0-.78.346-.78.773 0 .682-.56 1.237-1.246 1.237-.64 0-1.169-.48-1.239-1.096l1.743-4.027h11.114l1.78 4.03a1.245 1.245 0 0 1-1.238 1.093zm-11.38 7.828v-6.417c.478-.138.91-.388 1.246-.736a2.812 2.812 0 0 0 2.027.86c.796 0 1.515-.33 2.027-.86a2.812 2.812 0 0 0 2.027.86 2.81 2.81 0 0 0 2.026-.86c.362.375.832.642 1.356.77v6.383zm14.186-9.072a.761.761 0 0 0-.065-.31l-2.06-4.65a.78.78 0 0 0-.714-.463H63.167a.78.78 0 0 0-.717.467l-2.017 4.651a.768.768 0 0 0-.063.305c0 1.261.86 2.317 2.027 2.654v7.18c0 .426.349.772.78.772h12.269c.43 0 .78-.346.78-.772v-7.213c1.11-.37 1.917-1.4 1.917-2.621z"/></g><g><path d="M104.817 96.627a1.243 1.243 0 0 1-1.247-1.237.777.777 0 0 0-.78-.773c-.43 0-.78.346-.78.773 0 .682-.56 1.237-1.247 1.237a1.243 1.243 0 0 1-1.247-1.237.777.777 0 0 0-.78-.773c-.43 0-.78.346-.78.773 0 .682-.56 1.237-1.246 1.237a1.243 1.243 0 0 1-1.247-1.237.777.777 0 0 0-.78-.773c-.43 0-.78.346-.78.773 0 .682-.56 1.237-1.246 1.237-.64 0-1.169-.48-1.239-1.096l1.743-4.027h11.114l1.78 4.03a1.245 1.245 0 0 1-1.238 1.093zm-11.38 7.828v-6.417c.478-.138.91-.388 1.246-.736a2.81 2.81 0 0 0 2.027.86c.795 0 1.515-.33 2.026-.86a2.812 2.812 0 0 0 2.027.86c.796 0 1.515-.33 2.027-.86.362.375.832.642 1.356.77v6.383zm14.186-9.072a.761.761 0 0 0-.065-.31l-2.06-4.65a.78.78 0 0 0-.714-.463H92.647a.78.78 0 0 0-.717.467l-2.017 4.651a.758.758 0 0 0-.063.305c0 1.261.86 2.317 2.027 2.654v7.18c0 .426.349.772.78.772h12.269c.43 0 .78-.346.78-.772v-7.213c1.11-.37 1.917-1.4 1.917-2.621z"/></g></g></g><g><path fill="none" stroke="#000" stroke-linecap="round" stroke-miterlimit="50" stroke-width="2" d="M74.825 79c-1.42 0-2.127.186-2.779.534a3.635 3.635 0 0 0-1.512 1.512c-.348.652-.534 1.36-.534 2.78V87.5M89.5 101H78m20-13.5v-3.819c0-1.247-.186-1.983-.534-2.635a3.635 3.635 0 0 0-1.512-1.512c-.652-.348-1.388-.534-2.635-.534h-.447"/></g></g></g></svg>