<svg xmlns="http://www.w3.org/2000/svg" width="25" height="25" fill="none" viewBox="0 0 25 25">
    <path fill="#0E974F" fill-rule="evenodd" d="M21.139 11.82l-.94-1.72a1.8 1.8 0 0 0-1.58-.94h-2.18V8.5a1.4 1.4 0 0 0-1.4-1.4h-8.18a1.4 1.4 0 0 0-1.4 1.4V9h-1.78a.58.58 0 0 0-.6.6.6.6 0 0 0 .6.6h4.66a.62.62 0 0 0 .6-.6.6.6 0 0 0-.6-.6h-1.68v-.5c0-.11.089-.2.2-.2h8.18a.22.22 0 0 1 .2.2v7.32h-4.46a2.04 2.04 0 0 0-3.9 0h-.02a.2.2 0 0 1-.2-.2V13.9h1.68a.62.62 0 0 0 .6-.6.6.6 0 0 0-.6-.6h-4.66a.58.58 0 0 0-.6.6.6.6 0 0 0 .6.6h1.78v1.72a1.4 1.4 0 0 0 1.4 1.4 2.06 2.06 0 0 0 1.98 1.48c.91 0 1.71-.605 1.96-1.48h5.98a2.04 2.04 0 0 0 3.92 0h.22a1.2 1.2 0 0 0 1.2-1.2V13a1.18 1.18 0 0 0-.98-1.18zm-2.52-1.46a.6.6 0 0 1 .52.3l.62 1.14h-3.32v-1.44h2.18zM8.028 16.778a.86.86 0 0 0 .81.522.84.84 0 0 0 .84-.84.86.86 0 1 0-1.65.318zm10.71.522a.86.86 0 1 1 .84-.84.84.84 0 0 1-.84.84zm1.94-1.48h.24V13h-4.48v2.82h.36a2.04 2.04 0 0 1 3.88 0z" clip-rule="evenodd"/>
    <path fill="#0E974F" d="M9.56 12.04a.58.58 0 0 0 .6-.6.6.6 0 0 0-.6-.6H4.9a.62.62 0 0 0-.6.6.6.6 0 0 0 .6.6h4.66z"/>
</svg>
