<svg xmlns="http://www.w3.org/2000/svg" width="75" height="75" fill="none" viewBox="0 0 75 75">
    <path stroke="#0E974F" stroke-width="1.5" d="M34.125 2.815a6.75 6.75 0 0 1 6.75 0l24.976 14.42a6.75 6.75 0 0 1 3.375 5.845v28.84a6.75 6.75 0 0 1-3.375 5.846l-24.976 14.42a6.75 6.75 0 0 1-6.75 0L9.149 57.765a6.75 6.75 0 0 1-3.375-5.846V23.08a6.75 6.75 0 0 1 3.375-5.845l24.976-14.42z"/>
    <path stroke="#000" stroke-linecap="round" stroke-linejoin="round" stroke-width="1.2" d="M43.854 29.742c0-4.371-2.844-10.242-6.353-10.242-3.508 0-6.353 5.871-6.353 10.242"/>
    <path stroke="#000" stroke-linejoin="round" stroke-width="1.2" d="M37.5 19.5v25.223M43.5 30l-6 15M31.5 30l6 15.75M28.125 29.625L37.5 45.75l9.375-16.125"/>
    <path fill-rule="evenodd" stroke="#000" stroke-linejoin="round" stroke-width="1.2" d="M37.393 42.75l5.768 2.931-5.768 2.931-5.768-2.93 5.768-2.932z" clip-rule="evenodd"/>
    <path stroke="#000" stroke-linecap="round" stroke-linejoin="round" stroke-width="1.2" d="M43.16 53.073l-5.767 2.931-5.768-2.931"/>
    <path stroke="#000" stroke-width="1.2" d="M31.625 45.554V53.2M37.395 48.612v7.392M43.16 45.554V53.2"/>
    <path stroke="#000" stroke-linejoin="round" stroke-width="1.2" d="M37.5 18.75c-5.799 0-10.5 3.358-10.5 7.5 0 1.366.511 2.647 1.405 3.75h18.19C47.49 28.897 48 27.616 48 26.25c0-4.142-4.701-7.5-10.5-7.5z"/>
</svg>
