<svg xmlns="http://www.w3.org/2000/svg" width="75" height="75" fill="none" viewBox="0 0 75 75">
    <path stroke="#0E974F" stroke-width="2" d="M33 3.753a9 9 0 0 1 9 0l22.476 12.976a9 9 0 0 1 4.5 7.794v25.954a9 9 0 0 1-4.5 7.794L42 71.247a9 9 0 0 1-9 0L10.524 58.271a9 9 0 0 1-4.5-7.794V24.524a9 9 0 0 1 4.5-7.795L33 3.753z"/>
    <path fill="#000" fill-rule="evenodd" d="M41.004 36.565c.553.529 1.619.955 2.786 1.402 3.012 1.159 7.13 2.744 7.642 8.069.103.995-.491 1.95-1.434 2.337l-11.043 4.49a3.96 3.96 0 0 1-1.516.306 3.96 3.96 0 0 1-1.516-.305L24.86 48.373c-.943-.386-1.537-1.342-1.434-2.337.552-5.335 4.655-6.925 7.645-8.082l.017-.007c1.168-.447 2.336-.894 2.868-1.422a4.004 4.004 0 0 1-2.93-3.882v-4.227c0-3.536 3.033-6.646 6.557-6.646h.02c3.483.041 6.536 3.09 6.536 6.564v4.33c0 1.788-1.332 3.413-3.135 3.901zm-2.622 14.836l11.043-4.492c.286-.101.47-.406.41-.67-.43-4.37-3.73-5.65-6.639-6.768l-.01-.003c-1.45-.568-2.696-1.055-3.473-1.887a1.464 1.464 0 0 1-.328-1.463 1.646 1.646 0 0 1 1.148-1.077c1.127-.305 1.987-1.3 1.987-2.378v-4.328c0-2.582-2.376-4.939-4.958-4.96h-.081c-2.644 0-4.98 2.358-4.98 5.04v4.208c0 1.077.8 2.073 1.906 2.357.533.142.942.528 1.106 1.057.144.508.02 1.056-.328 1.463-.775.87-2.038 1.358-3.506 1.924l-.017.007c-2.89 1.117-6.167 2.398-6.618 6.767-.02.305.164.59.45.711l11.064 4.492c.594.243 1.23.243 1.824 0z" clip-rule="evenodd"/>
    <path fill="#000" d="M21.97 45.548l-3.545-1.504c-.185-.081-.308-.264-.287-.447.369-3.597 3.093-4.654 5.49-5.569 1.27-.487 2.357-.914 3.012-1.666.349-.386.471-.915.308-1.402-.144-.468-.472-.813-.943-.935-.84-.224-1.352-.955-1.352-1.85V28.6c0-2.175 1.803-4.065 3.893-4.105h.02c.492 0 .881.101 1.414.345.41.183.901 0 1.086-.406a.816.816 0 0 0-.41-1.078c-.758-.345-1.393-.487-2.11-.487h-.144v-.02l.041.02c-2.95.081-5.388 2.682-5.388 5.73v3.557c0 1.484.88 2.805 2.213 3.313-.472.365-1.332.69-2.193 1.016-2.56.996-6.084 2.337-6.535 6.93a2.09 2.09 0 0 0 1.27 2.113l3.524 1.504c.102.04.205.061.328.061a.827.827 0 0 0 .758-.487.806.806 0 0 0-.45-1.057zM58.457 43.414c-.471-4.573-3.975-5.934-6.536-6.93-.86-.325-1.66-.65-2.13-1.016 1.372-.508 2.335-1.83 2.335-3.313V28.6c0-3.11-2.622-5.731-5.675-5.731-.738 0-1.434.162-2.172.488-.41.182-.614.67-.41 1.077a.829.829 0 0 0 1.086.406c.513-.223 1.004-.345 1.496-.345 2.13 0 4.036 1.91 4.036 4.105v3.556c0 .874-.635 1.626-1.475 1.85a1.425 1.425 0 0 0-.697 2.337c.676.752 1.762 1.178 3.012 1.666 2.397.935 5.122 1.992 5.49 5.568.021.183-.102.366-.307.447l-3.523 1.504a.819.819 0 0 0-.43 1.078c.143.304.43.487.757.487.103 0 .226-.02.328-.06l3.524-1.505a2.023 2.023 0 0 0 1.29-2.113z"/>
</svg>
