<svg xmlns="http://www.w3.org/2000/svg" width="25" height="25" fill="none" viewBox="0 0 25 25">
    <path fill="#0E974F" fill-rule="evenodd" d="M9.8 12.6A2.803 2.803 0 0 1 7 9.8C7 8.256 8.256 7 9.8 7c1.544 0 2.8 1.256 2.8 2.8 0 1.544-1.256 2.8-2.8 2.8zM8.6 19a.8.8 0 0 1-.566-1.366l9.6-9.6a.8.8 0 1 1 1.132 1.132l-9.6 9.6A.798.798 0 0 1 8.6 19zm0-9.2c0-.662.538-1.2 1.2-1.2.662 0 1.2.538 1.2 1.2 0 .662-.538 1.2-1.2 1.2-.662 0-1.2-.538-1.2-1.2zm8.4 10a2.803 2.803 0 0 1-2.8-2.8c0-1.544 1.256-2.8 2.8-2.8 1.544 0 2.8 1.256 2.8 2.8 0 1.544-1.256 2.8-2.8 2.8zM15.8 17c0-.662.538-1.2 1.2-1.2.662 0 1.2.538 1.2 1.2 0 .662-.538 1.2-1.2 1.2-.662 0-1.2-.538-1.2-1.2z" clip-rule="evenodd"/>
</svg>
