<svg xmlns="http://www.w3.org/2000/svg" width="75" height="75" fill="none" viewBox="0 0 75 75">
    <path stroke="#0E974F" stroke-width="1.5" d="M34.125 2.815a6.75 6.75 0 0 1 6.75 0l24.976 14.42a6.75 6.75 0 0 1 3.375 5.845v28.84a6.75 6.75 0 0 1-3.375 5.846l-24.976 14.42a6.75 6.75 0 0 1-6.75 0L9.149 57.765a6.75 6.75 0 0 1-3.375-5.846V23.08a6.75 6.75 0 0 1 3.375-5.845l24.976-14.42z"/>
    <path fill-rule="evenodd" stroke="#000" stroke-linejoin="round" stroke-width="1.5" d="M29.349 25.685a5 5 0 0 0-1.902 3.925v20.093a4 4 0 0 0 4 4h11.131a4 4 0 0 0 4-3.96l.202-20.44a5 5 0 0 0-1.81-3.9l-4.333-3.59a5 5 0 0 0-6.288-.075l-5 3.947z" clip-rule="evenodd"/>
    <path stroke="#000" stroke-linecap="round" stroke-linejoin="round" stroke-width="1.5" d="M36.75 27.75l-1.349-6.795c-.647-3.26-3.198-5.441-6.07-5.184-2.989.267-5.331 3.207-5.331 6.693v1.225"/>
    <path stroke="#000" stroke-width="1.5" d="M39 26.625a1.875 1.875 0 1 1-3.75 0 1.875 1.875 0 0 1 3.75 0z"/>
    <path stroke="#000" stroke-linecap="round" stroke-linejoin="round" stroke-width="1.073" d="M38.17 47.569h-2.561"/>
    <path fill="#000" fill-rule="evenodd" d="M37.214 46.051c2.16 0 3.55-1.001 3.55-2.782 0-1.794-1.39-2.769-3.55-2.769h-2.525c-.108 0-.189.078-.189.182v8.723c0 .117.081.195.189.195h.486c.108 0 .189-.078.189-.195v-3.354h1.85zm-.081-4.823c1.782 0 2.74.637 2.74 2.041 0 1.417-.958 2.054-2.74 2.054h-1.769v-4.095h1.769z" clip-rule="evenodd"/>
    <path fill="#000" d="M35.364 46.051v-.206h-.206v.206h.206zm0-.728h-.206v.206h.206v-.206zm0-4.095v-.206h-.206v.206h.206zm5.194 2.041c0 .83-.321 1.464-.885 1.895-.57.437-1.408.68-2.46.68v.413c1.11 0 2.046-.256 2.711-.765.672-.515 1.046-1.273 1.046-2.223h-.412zm-3.344-2.563c1.052 0 1.89.238 2.46.67.563.426.884 1.056.884 1.893h.412c0-.957-.374-1.712-1.047-2.222-.665-.504-1.602-.753-2.71-.753v.412zm-2.525 0h2.525v-.412h-2.525v.412zm.017-.024l-.002.008a.034.034 0 0 1-.007.01c-.007.007-.012.006-.008.006v-.412a.387.387 0 0 0-.395.388h.412zm0 8.723v-8.723h-.412v8.723h.412zm-.017-.011h.002a.028.028 0 0 1 .01.007.028.028 0 0 1 .005.009v-.005h-.412c0 .108.038.21.113.286a.393.393 0 0 0 .282.115v-.412zm.486 0h-.486v.412h.486v-.412zm-.017.011v.005l.005-.009a.028.028 0 0 1 .01-.006l.002-.001v.412a.393.393 0 0 0 .282-.115.403.403 0 0 0 .113-.286h-.412zm0-3.354v3.354h.412v-3.354h-.412zm2.056-.206h-1.85v.412h1.85v-.412zm2.866-2.576c0-.754-.262-1.333-.788-1.714-.513-.372-1.25-.533-2.16-.533v.412c.873 0 1.507.157 1.918.455.399.289.617.73.617 1.38h.413zm-2.947 2.26c.909 0 1.646-.161 2.16-.535.526-.383.787-.965.787-1.725h-.413c0 .657-.219 1.102-.617 1.392-.411.299-1.044.456-1.917.456v.412zm-1.769 0h1.769v-.412h-1.769v.412zm-.206-4.301v4.095h.413v-4.095h-.413zm1.975-.206h-1.769v.412h1.769v-.412z"/>
</svg>
