<svg xmlns="http://www.w3.org/2000/svg" width="100" height="61" viewBox="0 0 100 61">
  <g fill="none" fill-rule="evenodd">
    <path fill="#FFF" fill-rule="nonzero" d="M55.7012448,21.8745548 L55.7012448,20.3812215 C55.7012448,13.7326778 55.7012448,7.08551492 55.7012448,0.439732824 C55.7012448,0.081415672 55.7863071,-0.00350342186 56.1369295,0.00271017037 C57.3423237,0.0254933419 58.5477178,0.0213509471 59.7551867,0.00271017037 C60.060166,0.00271017037 60.159751,0.0648460927 60.157708,0.392095284 C60.1410788,2.55856778 60.1473029,4.72504027 60.1473029,6.89151276 C60.1473029,14.179366 60.1507607,21.4686001 60.157708,28.759215 C60.157708,29.1382442 60.0477178,29.2128073 59.6929461,29.2065937 C58.4875519,29.1858817 57.2821577,29.1900241 56.0767635,29.2065937 C55.8515423,29.230251 55.6343296,29.1156903 55.526971,28.916626 C52.6016598,24.3599917 49.670816,19.813023 46.7344398,15.2757199 L41.4751037,7.12348687 C41.4045643,7.0157846 41.3257261,6.91636713 41.1804979,6.70924739 L41.1804979,7.43830888 C41.1804979,14.5411352 41.1804979,21.6432711 41.1804979,28.7447166 C41.1804979,29.1009626 41.1058091,29.2169497 40.7261411,29.2086649 C39.5207469,29.1817393 38.3153527,29.1900241 37.1099585,29.2086649 C36.8278008,29.2086649 36.7219917,29.1693121 36.7219917,28.8482765 C36.7316736,19.3525268 36.7316736,9.85608665 36.7219917,0.358956125 C36.7219917,0.0752020798 36.7987552,0.00478136778 37.0788382,0.00685256519 C38.4709544,0.0213509471 39.8651452,0.0192797497 41.2593361,0.00685256519 C41.4583206,-0.0108433922 41.6486346,0.0919000045 41.7427386,0.267823439 C45.077455,5.46100575 48.4142462,10.6514265 51.753112,15.8390856 C53.0103734,17.7942959 54.2683264,19.7481255 55.526971,21.7005742 C55.5811608,21.762336 55.6393789,21.8204561 55.7012448,21.8745548 Z"/>
    <path fill="#FEFDFE" fill-rule="nonzero" d="M53.0787393 60.7955904C45.033865 60.7776435 38.2732147 54.3067898 38.3830628 45.9814232 38.4909137 37.8734136 45.2236026 31.5421468 53.2385183 31.5919993 61.253434 31.6418518 67.8403246 38.1725286 67.8423237 46.1608922 67.8463163 54.2629196 61.2554312 60.7955904 53.0787393 60.7955904zM63.6929461 46.8161777C63.678962 44.0658484 63.129587 42.105592 62.0128576 40.3045443 60.468424 37.7661236 57.9041645 36.0105681 54.971771 35.4840422 52.0393776 34.9575164 49.0212025 35.7107179 46.6842978 37.5522249 42.1794233 41.0408843 41.1805597 47.7176966 44.4708162 52.4521635 47.4314477 56.7129847 52.8153222 58.2752195 57.4440558 56.07217 61.5693622 54.1079334 63.4931734 50.6590762 63.6929461 46.8161777zM89.3029046 42.3514465C89.3029046 45.5631716 89.3278008 48.7769269 89.3029046 51.9866219 89.2697095 55.2856443 87.746888 57.7665091 84.8609959 59.4454577 82.8008299 60.6452867 80.5622407 60.951842 78.2095436 60.6635582 73.2302905 60.0727795 70.1784232 56.4245683 69.719917 51.9622599 69.7147177 51.8709732 69.7147177 51.779474 69.719917 51.6881873 69.719917 45.1320994 69.7164592 38.5773649 69.7095436 32.0239839 69.7095436 31.6321616 69.8215768 31.552985 70.1991701 31.5611057 71.3775934 31.5854677 72.5567082 31.5854677 73.7365145 31.5611057 74.06639 31.5611057 74.1244813 31.6565236 74.1244813 31.952928 74.1244813 38.5347314 74.1493776 45.1145046 74.1037344 51.6963079 74.0829876 54.4816979 75.8278008 56.239823 78.0871369 56.7575158 79.2878708 57.0700877 80.5592664 56.9989549 81.7157676 56.554499 82.8838174 56.0672588 83.8443983 55.3526398 84.473029 54.2563493 84.8792067 53.5754347 85.0939487 52.8014418 85.0954357 52.0130141 85.0954357 45.3520342 85.0954357 38.6930845 85.0809129 32.0341347 85.0809129 31.6402822 85.1929461 31.5611057 85.5705394 31.5692264 86.6825726 31.5956185 87.7946058 31.5915582 88.906639 31.5692264 89.2323651 31.5692264 89.3319502 31.6321616 89.3215768 31.9752599 89.2987552 35.4306051 89.3029046 38.8920409 89.3029046 42.3514465z"/>
    <path fill="#FF0700" d="M17.5518672,41.9641057 L17.5518672,51.7132319 C17.5518672,51.955562 17.4481328,52.2724552 17.56639,52.4215814 C17.753112,52.6639115 18.1141079,52.5065005 18.3962656,52.5147853 C19.0186722,52.5354973 19.626556,52.5292837 20.2427386,52.5147853 C20.4875519,52.5147853 20.6058091,52.5582804 20.6017652,52.8441057 C20.5864454,53.8465652 20.5864454,54.8490248 20.6017652,55.8514843 C20.6017652,56.1228112 20.5082988,56.1953031 20.253112,56.1911607 C19.5435685,56.1766623 18.8319502,56.1911607 18.1224066,56.1766623 C17.8651452,56.1766623 17.7842324,56.2242999 17.7904564,56.5018403 C17.8215768,57.6907076 17.7427386,58.8795749 17.8091286,60.0684423 C17.8091286,60.1471478 17.8091286,60.2299957 17.8091286,60.3087012 C17.840249,60.7229406 17.6576763,60.8472125 17.2406639,60.8347853 C16.1307054,60.8057885 15.0186722,60.8161445 13.906639,60.8347853 C13.6037344,60.8347853 13.5124481,60.7436526 13.5311203,60.4412578 C13.6141079,59.1198338 13.5518672,57.7963387 13.5684647,56.4749148 C13.5684647,56.2035879 13.4605809,56.1787335 13.2323651,56.1787335 C9.06915629,56.1787335 4.90387275,56.1787335 0.736514523,56.1787335 C0.629413005,56.1725066 0.522039277,56.1725066 0.414937759,56.1787335 C0.0954356846,56.2160151 0,56.0813872 0,55.764494 C0.0165975104,54.6543322 0.0124481328,53.5441704 0,52.4360798 C0.000305895038,52.2498498 0.0582779583,52.0682686 0.165975104,51.9162093 C1.85753804,49.3354973 3.54702628,46.7513333 5.23443983,44.1637173 C7.7780083,40.2429406 10.3298755,36.3242351 12.846473,32.3889601 C13.2053942,31.8276656 13.5580913,31.5459827 14.2614108,31.5977626 C15.2614108,31.674397 16.2697095,31.622617 17.2738589,31.6143322 C17.4813278,31.6143322 17.5767635,31.6495426 17.5746888,31.8980863 C17.56639,35.2534261 17.56639,38.6094563 17.5746888,41.9661769 L17.5518672,41.9641057 Z M13.5705394,45.4375037 L13.5705394,45.4375037 C13.5705394,43.1757562 13.5705394,40.9153894 13.5705394,38.6564034 C13.5705394,38.5176332 13.626556,38.3084423 13.4626556,38.2649471 C13.2987552,38.221452 13.2551867,38.4265005 13.1784232,38.54663 C11.5656985,41.2074282 9.95228216,43.8606321 8.33817427,46.5062416 C7.23651452,48.3123258 6.12448133,50.1101251 5.0186722,51.9120669 C4.92116183,52.0715491 4.78630705,52.2538144 4.87966805,52.4319374 C4.97302905,52.6100604 5.19294606,52.5189277 5.35477178,52.5189277 C7.95435685,52.5189277 10.5539419,52.5189277 13.153527,52.5292837 C13.4792531,52.5292837 13.5829876,52.4443646 13.5809433,52.1046882 C13.5643154,49.8843646 13.5705394,47.664041 13.5705394,45.4375037 Z"/>
    <path fill="#FFF" fill-rule="nonzero" d="M16.9854772,21.750283 C17.7759336,19.7287943 18.5311203,17.7942959 19.2946058,15.8577264 C20.9737206,11.5454933 22.6514523,7.23395073 24.3278008,2.92309852 C24.6659751,2.05319561 25.0124481,1.18536389 25.3381743,0.311318585 C25.3767479,0.116537991 25.5572909,-0.0170721426 25.7551867,0.00271017037 C27.0926694,0.0178989514 28.4322268,0.0178989514 29.7738589,0.00271017037 C30.0518672,0.00271017037 30.0809129,0.0565613031 29.9813278,0.309247387 C28.0975104,4.98186875 26.2178423,9.6579421 24.3423237,14.3374675 C22.4059474,19.1702614 20.4695712,23.9968418 18.533195,28.8172086 C18.4731727,29.0799439 18.2185971,29.2505855 17.9522822,29.2065937 C17.2427386,29.1755257 16.533195,29.1879529 15.8215768,29.2065937 C15.6486884,29.2318064 15.4850254,29.1213851 15.4439834,28.9518364 C13.1549101,23.2063348 10.8609959,17.4622139 8.56224066,11.7194739 C7.0560166,7.95817943 5.54633472,4.19688493 4.03319502,0.435590429 C3.86307054,0.0213509471 3.86099585,0.0213509471 4.3153527,0.0213509471 C5.61618257,0.0213509471 6.91493776,0.0213509471 8.21576763,0.0213509471 C8.40103789,-0.00720788953 8.57685611,0.112219685 8.61825726,0.294749005 C10.813278,5.94083315 13.0138313,11.5896789 15.219917,17.2412862 C15.7946058,18.7159788 16.373444,20.1906713 16.9854772,21.750283 Z"/>
    <path fill="#FEFDFE" fill-rule="nonzero" d="M18.4647303,31.6140213 C19.8174274,31.6140213 21.1161826,31.6658012 22.406639,31.5953805 C23.1058091,31.558099 23.4149378,31.8025003 23.7012448,32.4238595 C25.6058091,36.5517559 27.5580913,40.6568692 29.4958506,44.7702672 C29.5352697,44.8531151 29.5767635,44.9338918 29.6307054,45.0395229 C29.8323993,44.7359817 29.9994148,44.4108494 30.1286307,44.0702025 C32.0387275,40.03551 33.9426003,35.9973654 35.840249,31.9557689 C35.9164097,31.7278224 36.1428151,31.5849334 36.3817427,31.6140213 C37.7344398,31.6285197 39.0788382,31.6140213 40.4419087,31.6140213 C40.5456432,31.6140213 40.6493776,31.6243773 40.8091286,31.6326621 C40.4522822,32.3720795 40.1141079,33.0825003 39.7717842,33.7784226 C37.8755187,37.6722737 35.9785615,41.5668153 34.0809129,45.4620472 C33.3672199,46.9243126 32.6521438,48.3851971 31.9356846,49.8447009 C31.8147861,50.081329 31.7521951,50.3433427 31.753112,50.6089728 C31.753112,53.8731799 31.753112,57.1353158 31.7655602,60.3974517 C31.7655602,60.7205585 31.6784232,60.7951216 31.3672199,60.788908 C30.2033195,60.7702672 29.0373444,60.7723384 27.8713693,60.788908 C27.5850622,60.788908 27.5186722,60.7081313 27.5207469,60.4285197 C27.5207469,57.1933093 27.5207469,53.9560278 27.5207469,50.7208174 C27.5252491,50.3359613 27.4362644,49.9557479 27.2614108,49.6127268 C25.2351314,45.4965671 23.2178423,41.3769555 21.2095436,37.2538918 C20.379668,35.5665564 19.5497925,33.8792209 18.719917,32.1918854 C18.6514523,32.0158336 18.5705394,31.8377106 18.4647303,31.6140213 Z"/>
    <path fill="#FFF" fill-rule="nonzero" d="M60.7551867.00271017037C62.313278.00271017037 63.813278.00271017037 65.3195021.00271017037 65.4916782-.0175390649 65.6541728.0865600491 65.7074689.25125386 67.2510373 3.54860014 68.8001383 6.84249442 70.3547718 10.1329367L71.9294606 13.4862053C72.3298755 12.6577264 72.7033195 11.8727425 73.0705394 11.0939723 74.7704011 7.48870801 76.466805 3.88137252 78.159751.271965834 78.2209822.0929833491 78.3989534-.0191395356 78.5871369.00271017037 79.9785615.0151373548 81.3713693.0151373548 82.7655602.00271017037 83.1078838.00271017037 83.0726141.110412436 82.9585062.340315348 81.2240664 3.88620532 79.4951591 7.43347608 77.7717842 10.9821276 76.5587828 13.4661837 75.346473 15.9509302 74.1348548 18.4363671 74.0616357 18.6081603 74.0303478 18.7948618 74.0435685 18.981092 74.0435685 22.2577264 74.0435685 25.5343607 74.0435685 28.810995 74.0435685 29.1071762 73.9937759 29.2252344 73.659751 29.2148785 72.5089903 29.1927857 71.3568465 29.1927857 70.2033195 29.2148785 69.8692946 29.2148785 69.8153527 29.1071762 69.8153527 28.800639 69.8153527 25.5115775 69.8153527 22.2204448 69.8153527 18.9313833 69.8170387 18.6919133 69.7615661 18.4554864 69.653527 18.2416746 66.7378976 12.2821492 63.8201936 6.31917187 60.9004149.352742533 60.8547718.259538649 60.8195021.162192371 60.7551867.00271017037zM85.1639004 14.5901535C85.1639004 9.86920424 85.1639004 5.14825494 85.1639004.42730564 85.1639004.0959140539 85.2427386-.00143222445 85.5788382.0130661574 86.7842324.0337781315 87.9896266.0358493289 89.1950207.0130661574 89.5518672.0130661574 89.6348548.0959140539 89.6348548.452160009 89.6237898 8.59886983 89.6168741 16.7455796 89.6141079 24.8922895 89.6141079 25.3230985 89.7385892 25.3976616 90.1390041 25.3955904 93.2510373 25.3790208 96.3630705 25.3955904 99.4626556 25.381092 99.7572614 25.381092 99.8775934 25.4183736 99.8775934 25.7621924 99.8506224 26.7977911 99.8568465 27.8478882 99.8775934 28.8917717 99.8775934 29.1651697 99.7925311 29.2190208 99.5373444 29.2190208 94.8609959 29.2190208 90.1853389 29.2190208 85.5103734 29.2190208 85.1514523 29.2190208 85.1742739 29.0450403 85.1742739 28.8047814 85.1687414 24.0631201 85.1652835 19.3249108 85.1639004 14.5901535zM35.1369295 14.6191503C35.1369295 19.3394092 35.1369295 24.0617393 35.1369295 28.7819982 35.1369295 29.1568849 35.0248963 29.2148785 34.6887967 29.2086649 33.5643154 29.1879529 32.4377593 29.1858817 31.313278 29.2086649 30.9543568 29.2086649 30.8526971 29.1278882 30.8526971 28.7550726 30.8651452 21.9891611 30.8651452 15.2232495 30.8526971 8.457338 30.8526971 5.78342214 30.8526971 3.10743509 30.8423237.433519232 30.8423237.0607036979 30.9522822-.00350342186 31.2904564.00478136778 32.4273859.0254933419 33.5726141.0254933419 34.7053942.00478136778 35.0373444.00478136778 35.120332.0834868694 35.120332.41902085 35.1258645 5.15239733 35.131397 9.88577382 35.1369295 14.6191503z"/>
  </g>
</svg>
