<svg xmlns="http://www.w3.org/2000/svg" width="100" height="100" viewBox="0 0 100 100">
  <g fill="none" fill-rule="evenodd">
    <path stroke="#0E974F" stroke-width="2" d="M54.5,3.75277675 C51.7153903,2.1450816 48.2846097,2.1450816 45.5,3.75277675 L12.1987298,22.9792741 C9.41412012,24.5869692 7.69872981,27.5581124 7.69872981,30.7735027 L7.69872981,69.2264973 C7.69872981,72.4418876 9.41412012,75.4130308 12.1987298,77.0207259 L45.5,96.2472233 C48.2846097,97.8549184 51.7153903,97.8549184 54.5,96.2472233 L87.8012702,77.0207259 C90.5858799,75.4130308 92.3012702,72.4418876 92.3012702,69.2264973 L92.3012702,30.7735027 C92.3012702,27.5581124 90.5858799,24.5869692 87.8012702,22.9792741 L54.5,3.75277675 Z"/>
    <g stroke="#000" stroke-width="1.6" transform="translate(34 26)">
      <g stroke-linejoin="round">
        <path d="M32,13.6557377 L0,13.6557377 C0,6.11388202 7.163444,0 16,0 C24.836556,0 32,6.11388202 32,13.6557377 Z"/>
        <path stroke-linecap="round" d="M24.4705882,13.6557377 C24.4705882,7.82794013 20.6781767,0 16,0 C11.3218233,0 7.52941176,7.82794013 7.52941176,13.6557377"/>
        <path d="M16 0L16 36.5491803M24.4705882 13.6557377L16 36.5491803"/>
        <path d="M16,13.6557377 L7.52941176,36.5491803" transform="matrix(-1 0 0 1 23.53 0)"/>
        <polyline points="0 13.656 16 36.549 32 13.656"/>
      </g>
      <g transform="translate(8 31)">
        <polygon stroke-linejoin="round" points="7.858 0 15.548 3.908 7.858 7.817 .167 3.908"/>
        <polyline stroke-linecap="round" stroke-linejoin="round" points="15.548 13.764 7.858 17.672 .167 13.764"/>
        <path d="M.167182663 3.73833544L.167182663 13.9337957M7.85758514 7.81651955L7.85758514 17.6721311M15.5479876 3.73833544L15.5479876 13.9337957"/>
      </g>
    </g>
  </g>
</svg>
