<?xml version="1.0" encoding="UTF-8"?>
<svg width="224px" height="75px" viewBox="0 0 224 75" version="1.1" xmlns="http://www.w3.org/2000/svg" xmlns:xlink="http://www.w3.org/1999/xlink">
    <!-- Generator: Sketch 58 (84663) - https://sketch.com -->
    <title>LOGOS/logo_kpmf</title>
    <desc>Created with Sketch.</desc>
    <defs>
        <rect id="path-1" x="0" y="0" width="224" height="75"></rect>
    </defs>
    <g id="LOGOS/logo_kpmf" stroke="none" stroke-width="1" fill="none" fill-rule="evenodd">
        <mask id="mask-2" fill="white">
            <use xlink:href="#path-1"></use>
        </mask>
        <g id="Background"></g>
        <g id="kpmf" mask="url(#mask-2)">
            <g transform="translate(47.000000, 11.000000)" id="kpmf-seeklogo">
                <g>
                    <polygon id="path2" fill="#808285" points="8.03861619 0.111090909 7.63130548 0.19212987 7.30545692 0.273168831 6.97960836 0.354207792 6.73522193 0.435246753 6.49083551 0.516285714 6.32791123 0.597324675 6.0835248 0.678363636 5.92060052 0.759402597 5.75767624 0.840441558 5.51328982 0.921480519 5.35036554 1.00251948 5.26890339 1.08355844 5.10597911 1.1645974 4.94305483 1.24563636 4.78013055 1.32667532 4.69866841 1.40771429 4.53574413 1.48875325 4.45428198 1.56979221 4.2913577 1.65083117 4.20989556 1.73187013 4.04697128 1.81290909 3.96550914 1.89394805 3.884047 1.97498701 3.72112272 2.05602597 3.63966057 2.13706494 3.55819843 2.2181039 3.47673629 2.29914286 3.39527415 2.38018182 3.23234987 2.46122078 3.15088773 2.54225974 3.06942559 2.6232987 2.98796345 2.70433766 2.90650131 2.78537662 2.82503916 2.86641558 2.74357702 2.94745455 2.66211488 3.02849351 2.58065274 3.10953247 2.4991906 3.27161039 2.41772846 3.35264935 2.33626632 3.43368831 2.25480418 3.51472727 2.17334204 3.59576623 2.0918799 3.75784416 2.01041775 3.83888312 1.92895561 3.91992208 1.84749347 4.082 1.76603133 4.16303896 1.68456919 4.32511688 1.60310705 4.40615584 1.52164491 4.56823377 1.44018277 4.64927273 1.35872063 4.81135065 1.27725849 4.97342857 1.19579634 5.13550649 1.1143342 5.21654545 1.03287206 5.37862338 0.951409922 5.62174026 0.869947781 5.78381818 0.78848564 5.9458961 0.707023499 6.18901299 0.625561358 6.35109091 0.544099217 6.59420779 0.462637076 6.83732468 0.381174935 7.16148052 0.299712794 7.48563636 0.218250653 7.89083117 0.136788512 8.4581039 0.136788512 43.4669351 0.218250653 44.0342078 0.299712794 44.4394026 0.381174935 44.7635584 0.462637076 45.0066753 0.544099217 45.3308312 0.625561358 45.4929091 0.707023499 45.736026 0.78848564 45.9791429 0.869947781 46.1412208 0.951409922 46.3032987 1.03287206 46.4653766 1.1143342 46.6274545 1.19579634 46.7895325 1.27725849 46.9516104 1.35872063 47.1136883 1.44018277 47.2757662 1.52164491 47.3568052 1.60310705 47.5188831 1.68456919 47.5999221 1.76603133 47.762 1.84749347 47.843039 1.92895561 48.0051169 2.01041775 48.0861558 2.0918799 48.1671948 2.17334204 48.2482338 2.25480418 48.4103117 2.33626632 48.4913506 2.41772846 48.5723896 2.4991906 48.6534286 2.58065274 48.7344675 2.66211488 48.8155065 2.74357702 48.8965455 2.82503916 48.9775844 2.90650131 49.0586234 2.98796345 49.1396623 3.06942559 49.2207013 3.15088773 49.3017403 3.23234987 49.3827792 3.31381201 49.4638182 3.39527415 49.5448571 3.47673629 49.6258961 3.55819843 49.7069351 3.63966057 49.787974 3.80258486 49.869013 3.884047 49.9500519 3.96550914 50.0310909 4.12843342 50.1121299 4.20989556 50.1931688 4.2913577 50.2742078 4.45428198 50.3552468 4.53574413 50.4362857 4.69866841 50.5173247 4.86159269 50.5983636 4.94305483 50.6794026 5.10597911 50.7604416 5.26890339 50.8414805 5.43182768 50.9225195 5.59475196 51.0035584 5.75767624 51.0845974 5.92060052 51.1656364 6.16498695 51.2466753 6.32791123 51.3277143 6.57229765 51.4087532 6.81668407 51.4897922 7.0610705 51.5708312 7.38691906 51.6518701 7.71276762 51.7329091 8.12007833 51.8139481 8.77177546 51.894987 121.18953 51.894987 121.759765 51.8139481 122.167076 51.7329091 122.492924 51.6518701 122.818773 51.5708312 123.063159 51.4897922 123.307546 51.4087532 123.551932 51.3277143 123.714856 51.2466753 123.959243 51.1656364 124.122167 51.0845974 124.285091 51.0035584 124.448016 50.9225195 124.61094 50.8414805 124.773864 50.7604416 124.936789 50.6794026 125.099713 50.5983636 125.181175 50.5173247 125.344099 50.4362857 125.425561 50.3552468 125.588486 50.2742078 125.669948 50.1931688 125.832872 50.1121299 125.914334 50.0310909 125.995796 49.9500519 126.158721 49.869013 126.240183 49.787974 126.321645 49.7069351 126.403107 49.6258961 126.484569 49.5448571 126.566031 49.4638182 126.728956 49.3827792 126.810418 49.3017403 126.89188 49.2207013 126.973342 49.1396623 127.054804 49.0586234 127.136266 48.9775844 127.217728 48.8965455 127.299191 48.7344675 127.380653 48.6534286 127.462115 48.5723896 127.543577 48.4913506 127.625039 48.4103117 127.706501 48.3292727 127.787963 48.1671948 127.869426 48.0861558 127.950888 48.0051169 128.03235 47.843039 128.113812 47.762 128.195274 47.5999221 128.276736 47.5188831 128.358198 47.3568052 128.439661 47.2757662 128.521123 47.1136883 128.602585 46.9516104 128.684047 46.8705714 128.765509 46.7084935 128.846971 46.5464156 128.928433 46.3843377 129.009896 46.1412208 129.091358 45.9791429 129.17282 45.8170649 129.254282 45.5739481 129.335744 45.3308312 129.417206 45.0877143 129.498668 44.7635584 129.580131 44.4394026 129.661593 44.1152468 129.743055 43.547974 129.743055 8.29602597 129.661593 7.80979221 129.580131 7.4045974 129.498668 7.08044156 129.417206 6.83732468 129.335744 6.59420779 129.254282 6.35109091 129.17282 6.10797403 129.091358 5.9458961 129.009896 5.70277922 128.928433 5.5407013 128.846971 5.37862338 128.765509 5.21654545 128.684047 5.05446753 128.602585 4.89238961 128.521123 4.81135065 128.439661 4.64927273 128.358198 4.48719481 128.276736 4.40615584 128.195274 4.24407792 128.113812 4.16303896 128.03235 4.00096104 127.950888 3.91992208 127.869426 3.83888312 127.787963 3.67680519 127.706501 3.59576623 127.625039 3.51472727 127.543577 3.43368831 127.462115 3.35264935 127.380653 3.19057143 127.299191 3.10953247 127.217728 3.02849351 127.136266 2.94745455 127.054804 2.86641558 126.973342 2.78537662 126.89188 2.70433766 126.810418 2.6232987 126.728956 2.54225974 126.647493 2.46122078 126.566031 2.38018182 126.403107 2.29914286 126.321645 2.2181039 126.240183 2.13706494 126.158721 2.05602597 126.077258 1.97498701 125.914334 1.89394805 125.832872 1.81290909 125.75141 1.73187013 125.588486 1.65083117 125.507023 1.56979221 125.344099 1.48875325 125.262637 1.40771429 125.099713 1.32667532 124.936789 1.24563636 124.773864 1.1645974 124.692402 1.08355844 124.529478 1.00251948 124.366554 0.921480519 124.203629 0.840441558 123.959243 0.759402597 123.796319 0.678363636 123.633394 0.597324675 123.389008 0.516285714 123.144621 0.435246753 122.900235 0.354207792 122.574386 0.273168831 122.248538 0.19212987 121.841227 0.111090909 121.352454 0.030051948 8.60885117 0.030051948"></polygon>
                    <path d="M1.1143342,9.34953247 L1.1143342,42.2513506 C1.1143342,47.295013 5.09986945,50.9225195 10.238094,50.9225195 L119.641749,50.9225195 C122.60154,50.9225195 124.351619,49.9878701 125.974752,48.6324935 C127.219086,47.5935065 128.765509,44.9908052 128.765509,42.7375844 L128.765509,9.51161039 C128.765509,4.99706494 124.840052,1.00251948 120.374909,1.00251948 L9.50493473,1.00251948 C5.14671018,1.00251948 1.1143342,5.01124675 1.1143342,9.34953247 L1.1143342,9.34953247 Z" id="path4" fill="#FFFFFF"></path>
                    <path d="M2.82503916,8.94433766 L2.82503916,42.8996623 C2.82503916,46.0838182 5.8764752,49.1396623 9.01616188,49.1396623 L120.537833,49.1396623 C124.133029,49.1396623 126.973342,46.0514026 126.973342,42.4134286 L126.973342,9.67368831 C126.973342,5.99046753 124.193446,2.86641558 120.619295,2.86641558 L8.8532376,2.86641558 C5.91211488,2.86641558 2.82503916,5.96818182 2.82503916,8.94433766 L2.82503916,8.94433766 Z" id="path6" fill="#2E358F"></path>
                    <path d="M3.884047,9.10641558 L3.884047,43.2238182 C3.884047,44.4934286 4.93932115,45.9315325 5.61443864,46.6078701 C6.39104439,47.3861818 7.79456919,48.0861558 9.34201044,48.0861558 L120.700757,48.0861558 C123.530548,48.0861558 125.914334,45.3696623 125.914334,42.4134286 L125.914334,9.67368831 C125.914334,6.6614026 123.605222,3.91992208 120.782219,3.91992208 L8.77177546,3.91992208 C6.42498695,3.91992208 3.884047,6.5985974 3.884047,9.10641558 L3.884047,9.10641558 Z" id="path8" fill="#FFFFFF"></path>
                    <path d="M11.2971018,10.9703117 L11.2971018,38.6856364 C11.2971018,39.7330649 11.8211749,40.5495325 12.8448825,40.5495325 L38.0166841,40.5495325 C38.5913316,40.5495325 39.4830026,39.8536104 39.4830026,39.2529091 L39.4830026,10.8082338 C39.4830026,10.0944156 38.6208616,9.43057143 37.8537598,9.43057143 L13.0078068,9.43057143 C12.1521149,9.43057143 11.2971018,10.0994805 11.2971018,10.9703117 Z" id="path10" fill="#010101"></path>
                    <path d="M69.0537598,25.0710909 L69.4610705,19.6414805 L69.4610705,15.9136883 C69.4610705,14.2402338 67.7836292,10.6461558 66.284047,10.6461558 L65.4694256,10.6461558 C64.9389034,10.6461558 62.8490601,11.6925714 62.363342,11.9485195 L64.3289556,15.6705714 C64.8044909,15.5442857 65.2084073,14.7791429 66.0396606,14.7791429 L66.1211227,14.7791429 C66.384517,14.7791429 66.5284334,15.0735844 66.5284334,15.3464156 L66.5284334,16.480961 C66.5284334,22.9897403 63.2923499,31.2756364 61.0002089,35.5801558 L66.6098956,37.9562857 C66.8502089,36.9304675 78.0054308,18.0595325 78.5033681,17.6965455 C78.5033681,19.4530649 78.4470235,21.557039 78.2532115,23.2014545 C78.1581723,24.0067792 77.9877807,25.0180779 77.9334726,25.8007792 C77.8716971,26.6851169 77.6381723,27.5765455 77.6062663,28.3926753 C77.5580679,29.6167013 77.0041253,32.2254805 76.7285117,33.3546234 C76.5306266,34.1653506 76.3989295,34.9105714 76.1901828,35.7361558 C76.047624,36.2987013 75.607389,37.599039 75.5707311,38.0373247 C76.8283029,38.3287273 82.1294517,40.8736883 82.7393995,40.8736883 C82.8439426,40.8736883 83.913812,37.9988312 84.0315927,37.702026 C84.4541775,36.634 84.8808355,35.4937143 85.346188,34.4716104 C86.2945431,32.3892468 87.118329,30.2974286 88.1433943,28.258961 C89.1816971,26.1941558 90.1870757,24.3366753 91.2382768,22.3424416 C91.7888251,21.2977143 94.2669713,17.5635065 95.0401828,17.0482338 C95.0401828,18.3522857 94.5140731,20.0922597 94.3861097,21.503013 C94.3555614,21.8508052 94.154282,23.4516623 94.0741775,23.7049091 C93.8661097,24.362 93.9183812,25.2564675 93.8009399,26.0263377 C93.3498433,28.9815584 93.1665535,32.2578961 93.1665535,35.6871948 L93.1665535,36.5786234 C93.1665535,38.7035325 93.3613838,40.6937143 93.6889295,42.5420779 C93.8610183,43.5125195 93.9794778,44.3762597 94.2371018,45.2383117 C94.3684595,45.6776104 94.9322454,47.4459481 94.9587206,47.762 C95.7210705,47.3608571 99.787389,44.9712208 100.090836,44.5204416 C100.080653,44.0038182 99.8362663,43.2974286 99.762611,42.6589091 C99.6954047,42.0794805 99.5375718,41.2572727 99.4564491,40.6943896 C99.2802872,39.4723896 99.194752,37.7337662 99.194752,36.4165455 L99.194752,33.3370649 C99.194752,30.5601299 99.6169974,28.1880519 99.8440731,25.717039 C100.059948,23.3662338 100.66107,20.6142857 100.66107,18.2638182 L100.66107,17.0482338 C100.66107,15.8968052 100.209295,13.4254545 99.7340992,12.7838961 C99.4404961,12.3878182 96.8326893,10.9703117 96.343577,10.9703117 C94.4580679,10.9703117 93.1153003,12.5347013 92.2551958,13.6297403 C91.2891906,14.8595065 90.140235,16.0858961 89.2723238,17.3885974 C88.81953,18.0676364 83.7505483,25.2919221 83.6965796,25.3115065 L84.775953,16.7240779 L84.775953,15.9947273 C84.775953,14.5245455 84.4158225,13.0705714 83.8479634,12.1365974 C83.5204178,11.598026 81.6304961,10.1599221 80.9472324,10.1599221 L80.702846,10.1599221 C79.1503133,10.1599221 75.2526893,15.6965714 74.2999217,16.9996104 C73.3817755,18.255039 72.421201,19.6323636 71.6337337,20.9924675 C71.285483,21.5945195 69.3517755,24.853974 69.0537598,25.0710909 L69.0537598,25.0710909 Z" id="path12" fill="#A7A9AC"></path>
                    <path d="M43.2302611,13.4014805 C44.1966057,13.4014805 45.6741253,13.8272727 45.6741253,14.6981039 L45.6741253,34.8768052 C45.6741253,35.9877143 44.2519321,36.4975844 43.148799,36.4975844 L43.148799,37.307974 L54.7978851,37.307974 L54.7978851,36.4975844 L54.3091123,36.4975844 C53.1625326,36.4975844 52.0281723,35.7726234 52.0281723,34.6336883 L52.0281723,26.5071688 L56.0191384,26.6108312 C60.1336554,26.7323896 64.2468146,23.8987273 64.2468146,19.9656364 L64.2468146,18.5069351 C64.2468146,15.1890649 60.6522977,12.5910909 57.2410705,12.5910909 L43.2295822,12.5910909 L43.2302611,13.4014805 Z" id="path14" fill="#2E358F"></path>
                    <path d="M100.66107,13.3204416 C101.548668,13.3940519 103.104935,13.8157922 103.104935,14.6981039 L103.104935,35.0388831 C103.104935,35.9867013 101.615875,36.4975844 100.579608,36.4975844 L100.579608,37.307974 L112.228695,37.307974 L112.228695,36.5786234 C110.965352,36.5516104 109.540444,35.982987 109.540444,34.7147273 L109.540444,25.5573247 L112.880392,25.5573247 C114.512689,25.5573247 116.432141,26.8525974 116.464726,28.3126494 L117.279347,28.3126494 L117.279347,20.694987 L116.464726,20.694987 L116.464726,20.9381039 C116.464726,22.330961 114.530339,23.6123896 112.961854,23.6123896 L109.540444,23.6123896 L109.540444,14.2929091 L113.532089,14.2929091 C115.750574,14.2929091 117.510836,15.5783896 117.932402,17.3821818 L118.680496,17.2896623 L118.175431,12.6721299 L100.66107,12.6721299 L100.66107,13.3204416 Z" id="path16" fill="#2E358F"></path>
                    <path d="M52.1096345,24.827974 L52.8427937,24.827974 C55.950235,24.827974 57.7305222,22.877974 57.7305222,19.7225195 L57.7305222,18.669013 C57.7305222,15.8556104 55.4455091,14.6981039 52.5169452,14.6981039 L52.1096345,14.6981039 L52.1096345,24.827974 Z" id="path18" fill="#FFFFFF"></path>
                    <polygon id="path20" fill="#FFFFFF" points="15.3702089 36.5786234 16.7550653 36.5786234 16.7550653 13.3204416 15.3702089 13.3204416"></polygon>
                    <path d="M23.9237337,23.6934286 L23.9237337,26.5297922 C23.9237337,26.8630649 26.143577,30.9403377 26.4762141,31.6082338 C26.7569191,32.1721299 28.9519843,36.5786234 29.2187728,36.5786234 L30.3592428,36.5786234 C30.1684856,35.7648571 27.9965013,31.9577143 27.4540992,30.8785455 C27.1679634,30.3099221 24.4939687,25.1990649 24.4939687,25.1521299 C24.4939687,25.0572468 27.154047,19.8606234 27.4540992,19.2636364 C28.0066841,18.1645455 30.2516449,14.1271169 30.440705,13.3204416 L29.0558486,13.3204416 C28.8681462,14.1220519 26.9877285,17.4365455 26.4765535,18.4532468 C26.1306789,19.1410649 23.9237337,23.2983636 23.9237337,23.6934286 Z" id="path22" fill="#FFFFFF"></path>
                    <path d="M27.8339164,25.0710909 C27.8339164,25.2453247 33.2155091,35.516 33.7806527,36.5786234 L35.084047,36.5786234 C34.5620104,35.5973766 29.1373107,25.1811688 29.1373107,25.1521299 C29.1373107,25.0244935 31.7865274,19.8815584 32.0974413,19.2636364 C32.6798956,18.1051169 34.8702089,14.2341558 35.084047,13.3204416 L33.7806527,13.3204416 C33.5949869,14.1122597 31.3289817,18.1179481 30.794047,19.1825974 C30.4787206,19.8092987 27.8339164,24.9299481 27.8339164,25.0710909 Z" id="path24" fill="#FFFFFF"></path>
                    <path d="M25.4715144,25.0710909 C25.4715144,25.2692987 30.8480157,35.5068831 31.4182507,36.5786234 L32.7216449,36.5786234 C32.2030026,35.6037922 26.7749086,25.1639481 26.7749086,25.1521299 C26.7749086,25.0319221 29.4265013,19.8785195 29.7350392,19.2636364 C30.3185117,18.1000519 32.4955875,14.2854805 32.7216449,13.3204416 L31.6626371,13.3204416 C31.318799,13.3204416 28.8786684,18.4478442 28.5399217,19.1282338 C28.2503916,19.7096883 25.4715144,25.0204416 25.4715144,25.0710909 Z" id="path26" fill="#FFFFFF"></path>
                    <path d="M30.1148564,25.0710909 C30.1148564,25.1369351 35.5276762,35.5750909 36.0615927,36.5786234 L37.3585379,36.582 L31.4063708,25.1463896 L37.4464491,13.3204416 L36.1430548,13.3204416 C35.6261097,14.2925714 30.1148564,25.062987 30.1148564,25.0710909 L30.1148564,25.0710909 Z" id="path28" fill="#FFFFFF"></path>
                    <polygon id="path30" fill="#FFFFFF" points="17.732611 36.5786234 19.0360052 36.5786234 19.0360052 13.3204416 17.732611 13.3204416"></polygon>
                    <polygon id="path32" fill="#FFFFFF" points="22.2944909 36.5786234 23.5978851 36.5786234 23.5978851 13.3204416 22.2944909 13.3204416"></polygon>
                    <polygon id="path34" fill="#FFFFFF" points="20.0950131 36.5786234 21.3169452 36.5786234 21.3169452 13.3204416 20.0950131 13.3204416"></polygon>
                </g>
            </g>
        </g>
    </g>
</svg>