<?xml version="1.0" encoding="UTF-8"?>
<svg width="224px" height="75px" viewBox="0 0 224 75" version="1.1" xmlns="http://www.w3.org/2000/svg" xmlns:xlink="http://www.w3.org/1999/xlink">
    <!-- Generator: Sketch 58 (84663) - https://sketch.com -->
    <title>LOGOS/logo_uzlex</title>
    <desc>Created with Sketch.</desc>
    <defs>
        <rect id="path-1" x="0" y="0" width="224" height="75"></rect>
    </defs>
    <g id="LOGOS/logo_uzlex" stroke="none" stroke-width="1" fill="none" fill-rule="evenodd">
        <mask id="mask-2" fill="white">
            <use xlink:href="#path-1"></use>
        </mask>
        <g id="Background"></g>
        <g id="Ресурс-5" mask="url(#mask-2)" fill-rule="nonzero">
            <g transform="translate(42.000000, 22.000000)" id="Path">
                <path d="M131.311961,30.9221026 C129.188704,30.9221026 127.057477,30.8267179 124.935814,30.9586667 C123.628704,31.0397436 123.126583,30.1637949 122.479404,29.4118462 C121.406617,28.1734359 120.407156,26.8762051 119.351904,25.6187179 C118.747764,24.8937949 118.650528,24.8906154 118.054358,25.6346154 C116.863081,27.1183761 115.687745,28.6175043 114.528349,30.132 C114.126651,30.6550256 113.683509,30.9268718 112.991697,30.9268718 C108.582592,30.9062051 104.173486,30.9268718 99.7611927,30.9268718 C99.4535436,30.9268718 99.0343119,31.0445128 98.8796904,30.7313333 C98.7250688,30.4181538 99.0901032,30.1590256 99.2734174,29.9364615 C101.275528,27.4024103 103.289327,24.8773675 105.314817,22.3613333 C106.988555,20.2777094 108.66867,18.1988547 110.355161,16.1247692 C110.76164,15.6255897 110.796709,15.2424615 110.334438,14.6828718 C106.668154,10.2172821 103.032156,5.7405641 99.3881881,1.27179487 C99.1761812,1.01266667 98.7856422,0.728102564 98.9099771,0.422871795 C99.0343119,0.117641026 99.515711,0.181230769 99.8488647,0.181230769 C104.286663,0.166393162 108.723398,0.158974359 113.159071,0.158974359 C113.693302,0.147312254 114.197853,0.403385437 114.502844,0.840974359 C115.65055,2.28923077 116.854048,3.69138462 118.038417,5.11102564 C118.444897,5.59748718 118.803555,5.64835897 119.232351,5.08082051 C120.252534,3.72953846 121.334885,2.42435897 122.358257,1.07625641 C122.784034,0.462445559 123.500118,0.114709453 124.24719,0.158974359 C128.444289,0.189179487 132.639794,0.170102564 136.84008,0.168512821 C137.106284,0.168512821 137.372489,0.168512821 137.637099,0.179641026 C138.11531,0.20825641 138.285872,0.41174359 137.955906,0.834615385 C137.391617,1.56907692 136.827328,2.30194872 136.250287,3.02528205 C133.620126,6.30757265 130.990497,9.59145299 128.361399,12.8769231 C127.883188,13.4762564 127.404977,14.0755897 126.907638,14.6606154 C126.56492,15.0644103 126.528257,15.4062051 126.894885,15.8465641 C129.379457,18.8405812 131.852339,21.8451966 134.313532,24.8604103 C135.77367,26.6388034 137.229557,28.4203761 138.681193,30.2051282 C138.797557,30.3466154 138.979278,30.4801538 138.883635,30.6820513 C138.756112,30.9491282 138.47875,30.8950769 138.246021,30.8950769 C135.934667,30.8950769 133.623846,30.8950769 131.313555,30.8950769 L131.311961,30.9221026 Z" fill="#82BB2B"></path>
                <path d="M4.12377294,11.0328205 C4.18912844,13.5764103 3.97393349,16.7813333 4.22579128,19.9814872 C4.38519495,22.016359 4.91122706,23.9717436 6.32354358,25.5360513 C8.28102064,27.7060513 10.8027867,28.0065128 13.4967087,27.4342051 C16.1906307,26.8618974 17.6491743,25.0352821 18.4382225,22.5425641 C18.9020872,21.0609231 19.0343922,19.536359 19.0312041,17.9927179 C19.0312041,12.3221026 19.0312041,6.65307692 19.0104817,0.982461538 C19.0104817,0.405384615 19.1380046,0.168512821 19.7564908,0.200307692 C20.6571216,0.246410256 21.5625344,0.235282051 22.4663532,0.200307692 C22.976445,0.182820513 23.1788876,0.343384615 23.1773029,0.872769231 C23.1549771,6.91379487 23.1773029,12.9548205 23.1230963,18.9958462 C23.1102656,20.962485 22.6873906,22.9049612 21.8813417,24.6998462 C20.5598853,27.6392821 18.3425803,29.5469744 15.2230505,30.3815897 C12.4924656,31.1112821 9.73956422,31.1224103 7.04883028,30.2671282 C3.45268349,29.1225128 1.4856422,26.4660513 0.581823394,22.9272821 C0.191012416,21.3560501 0.000878296613,19.7418591 0.015940367,18.1230769 C0.0223165138,12.4 0.0170030581,6.67957265 0,0.961794872 C0,0.365641026 0.15940367,0.171692308 0.760355505,0.203487179 C1.6359555,0.248793297 2.51332202,0.248793297 3.38892202,0.203487179 C4.00740826,0.168512821 4.14449541,0.41174359 4.14449541,0.990410256 C4.10942661,4.11584615 4.12377294,7.24128205 4.12377294,11.0328205 Z" fill="#3A3937"></path>
                <path d="M39.4380619,30.386359 C35.9040826,30.386359 32.3716972,30.3720513 28.8393119,30.3974872 C28.2016972,30.3974872 28.0104128,30.2385128 27.9705619,29.5565128 C27.9099885,28.4723077 28.2893693,27.6488205 28.9014794,26.7951282 C34.2064335,19.3763248 39.4933219,11.9479829 44.7621445,4.51010256 C44.868945,4.35907692 44.9853096,4.21282051 45.0809518,4.05702564 C45.304117,3.70410256 45.2116628,3.51333333 44.782867,3.51015385 C44.304656,3.51015385 43.826445,3.51015385 43.3482339,3.51015385 C39.0443349,3.51015385 34.7404358,3.49584615 30.4365367,3.53241026 C29.6570528,3.53241026 29.3812844,3.30348718 29.4609862,2.53723077 C29.5072134,1.98230633 29.5072134,1.42451419 29.4609862,0.869589744 C29.4291055,0.378358974 29.6203899,0.205076923 30.0986009,0.214615385 C31.187328,0.233692308 32.276055,0.214615385 33.3647821,0.214615385 C38.8371101,0.214615385 44.3094381,0.232102564 49.7833601,0.206666667 C50.4656078,0.206666667 50.6680505,0.34974359 50.693555,1.07148718 C50.7302179,2.13820513 50.4177867,2.97917949 49.8008945,3.84241026 C44.4555581,11.3269231 39.1341323,18.8278632 33.836617,26.3452308 C33.705906,26.529641 33.4221674,26.6870256 33.5624427,26.9493333 C33.7027179,27.211641 33.9992087,27.0765128 34.2175917,27.0765128 C39.4508142,27.0860513 44.6824427,27.100359 49.9156651,27.0637949 C50.735,27.0637949 51.0187385,27.2895385 50.9135321,28.0987179 C50.855908,28.6270744 50.855908,29.1601051 50.9135321,29.6884615 C50.9693234,30.2703077 50.7302179,30.4054359 50.1866514,30.4023108 C46.609633,30.3784103 43.0230505,30.3879487 39.4380619,30.386359 Z" fill="#3A3937"></path>
                <path d="M77.8192775,15.2488205 C77.8192775,10.533641 77.8336239,5.81846154 77.8049312,1.10010256 C77.8049312,0.416512821 77.9643349,0.190769231 78.6880275,0.195464706 C83.788945,0.227333333 88.8898624,0.227333333 93.9907798,0.195464706 C94.6156422,0.195464706 94.869094,0.341794872 94.8117087,0.990410256 C94.7603483,1.5720275 94.7560837,2.15682747 94.7989564,2.73912821 C94.8451835,3.34164103 94.6108601,3.51651282 94.0226606,3.51333333 C90.3818807,3.4974359 86.7411009,3.50538462 83.1019151,3.4974359 C81.880883,3.4974359 81.8888532,3.4974359 81.8904472,4.68815385 C81.8904472,7.17769231 81.9111697,9.66882051 81.877695,12.1599487 C81.877695,12.8181026 82.0689794,13.02 82.7384748,13.0120513 C86.2182569,12.9786667 89.698039,13.0120513 93.1762271,12.9754872 C93.8791972,12.9675385 94.1422133,13.1789744 94.0704817,13.8832308 C94.0216673,14.4120272 94.0216673,14.9441779 94.0704817,15.4729744 C94.1214908,16.1088718 93.8536927,16.2789744 93.2368005,16.2678462 C89.7570183,16.2408205 86.2772362,16.2678462 82.7990482,16.2328718 C82.0323165,16.2233333 81.8681307,16.4888205 81.8761009,17.1867179 C81.910107,20.180735 81.910107,23.1742222 81.8761009,26.1671795 C81.8665367,26.8507692 82.0355046,27.0828718 82.7528211,27.0765128 C86.6837156,27.0431282 90.6146101,27.0765128 94.5486927,27.0431282 C95.2962959,27.0351795 95.5545298,27.2545641 95.4875803,27.9842564 C95.4445427,28.5387775 95.4445427,29.0957866 95.4875803,29.6503077 C95.5242431,30.2067179 95.3186124,30.386359 94.7575115,30.3815897 C91.9424427,30.3593333 89.1273739,30.373641 86.309117,30.373641 C83.7331537,30.373641 81.1571904,30.3577436 78.5812271,30.386359 C77.9866514,30.386359 77.8065252,30.2130769 77.8097133,29.6169231 C77.8272477,24.8381538 77.8176835,20.0434872 77.8192775,15.2488205 Z" fill="#3A3937"></path>
                <path d="M55.8677982,15.2297436 C55.8677982,10.5145641 55.8821445,5.79938462 55.8518578,1.08102564 C55.8518578,0.367230769 56.0622706,0.144666667 56.7604587,0.200307692 C57.4753977,0.261518189 58.1942812,0.261518189 58.9092202,0.200307692 C59.6966743,0.128769231 59.9580963,0.359282051 59.9549083,1.19548718 C59.9214335,9.11241026 59.9357798,17.0325128 59.9357798,24.9589744 C59.9357798,27.0844615 59.9357798,27.0860513 62.1068578,27.0860513 C65.5866399,27.0860513 69.066422,27.0987692 72.5462041,27.0749231 C73.1344037,27.0749231 73.365539,27.2338974 73.3288761,27.838 C73.2922133,28.4738974 73.3081537,29.1097949 73.3288761,29.7456923 C73.3448165,30.1955897 73.2316399,30.4117949 72.7103899,30.4102138 C67.3193578,30.3943077 61.9277943,30.3943077 56.5356995,30.4102138 C55.8231651,30.4102138 55.8662041,30.0111795 55.8662041,29.5374359 C55.8662041,24.7682051 55.8662041,19.9989744 55.8662041,15.2297436 L55.8677982,15.2297436 Z" fill="#3A3937"></path>
            </g>
        </g>
    </g>
</svg>