<?xml version="1.0" encoding="UTF-8"?>
<svg width="224px" height="75px" viewBox="0 0 224 75" version="1.1" xmlns="http://www.w3.org/2000/svg" xmlns:xlink="http://www.w3.org/1999/xlink">
    <!-- Generator: Sketch 58 (84663) - https://sketch.com -->
    <title>LOGOS/logo_maxplus</title>
    <desc>Created with Sketch.</desc>
    <defs>
        <rect id="path-1" x="0" y="0" width="224" height="75"></rect>
    </defs>
    <g id="LOGOS/logo_maxplus" stroke="none" stroke-width="1" fill="none" fill-rule="evenodd">
        <mask id="mask-2" fill="white">
            <use xlink:href="#path-1"></use>
        </mask>
        <g id="Background"></g>
        <rect id="Rectangle" fill="#D8D8D8" opacity="0" mask="url(#mask-2)" x="0" y="7.10542736e-15" width="224" height="75"></rect>
        <g id="Ресурс-2" mask="url(#mask-2)" fill-rule="nonzero">
            <g transform="translate(34.000000, 24.000000)">
                <path d="M97.8043301,13.0603448 C97.8043301,13.0603448 105.756944,13.0215517 106.249493,13.0603448 C102.144918,17.6043103 93.5714869,26.8034483 93.5714869,26.8034483 C93.5714869,26.8034483 116.659722,26.8034483 127.359837,26.7801724 C128.714346,26.7801724 130.181732,26.5706897 131.390016,25.812931 C132.598301,25.0551724 133.067761,24.3181034 133.267859,23.4232759 C133.611618,21.9362069 132.942059,21.1344828 131.895392,20.7336207 C130.969297,20.3793103 129.530131,20.5474138 129.214592,20.5913793 L129.101716,20.6094828 C128.757958,20.6818966 126.680016,21.0931034 126.572271,20.6844828 C126.454265,20.237069 126.851895,19.9086207 127.108431,19.65 C129.668068,16.8399652 133.707018,15.9621869 137.187729,17.4594828 C140.353382,18.7655172 141.312827,22.9448276 139.078399,25.7353448 C137.539183,27.6465517 135.502288,28.7560345 133.178072,29.2887931 C131.799463,29.6154292 130.389517,29.7888769 128.973448,29.8060345 C113.986618,29.8344828 82.3583007,29.8060345 82.3583007,29.8060345 L97.8043301,13.0603448 Z" id="Path" fill="#000000"></path>
                <path d="M113.319624,20.9224138 L120.130654,20.9224138 C120.130654,20.9224138 127.31366,13.3836207 130.561405,10.4353448 C134.899428,6.49137931 140.068627,5.15689655 145.804771,6.42155172 C147.93402,6.89224138 149.601503,8.175 150.871356,9.95431034 C151.589459,10.9582684 151.561203,12.3202909 150.802092,13.2931034 C150.145359,14.187931 148.967859,14.5396552 147.785229,14.0482759 C146.725735,13.6060345 145.732941,12.9956897 144.706797,12.4965517 C139.863399,10.2051724 133.365343,11.1801724 129.458301,14.862931 C126.695408,17.4646552 120.736078,23.4155172 120.736078,23.4155172 L103.532778,23.4155172 L115.0025,11.1672414 L122.713971,11.1672414" id="Path" fill="#181242"></path>
                <polygon id="Path" fill="#181242" points="0 29.7905172 21.1565196 4.75086207 29.2912745 4.75086207 8.22710784 29.7905172"></polygon>
                <polygon id="Path" fill="#890F02" points="22.6572549 2.96896552 24.9840359 0.343965517 32.6108497 0.343965517 37.1925817 11.8008621 47.128219 0.343965517 68.6413235 0.369827586 63.5978268 6.07241379 49.8731536 6.07241379 42.1539869 14.8344828 35.2685621 14.8344828 30.4739052 2.96896552"></polygon>
                <polygon id="Path" fill="#000000" points="35.3019118 29.7905172 50.2066503 12.6051724 58.2003105 12.6051724 64.5829248 29.7905172 60.8605882 29.7905172 55.7016503 15.7551724 51.5534641 20.5862069 57.5641013 20.5862069 54.3394444 23.9974138 48.5006863 23.9974138 43.3956209 29.7905172"></polygon>
                <path d="M102.688775,-3.53823973e-05 L93.0378922,-3.53823973e-05 L77.0505719,17.1568966 L75.36,12.6051724 L67.9486765,12.6051724 L71.7582353,22.8646552 L65.3448366,29.7905172 L69.2390523,29.7905172 L72.8562092,25.8181034 L74.3312908,29.7905172 L81.7297876,29.7905172 L78.1382843,20.1103448 L85.4803431,12.0284483 C85.4803431,12.0284483 96.5678268,12.2198276 100.238856,12.0413793 C104.379346,12.0413793 108.573709,10.7017241 110.18732,7.68362069 C111.593137,5.07672414 112.514101,-0.0155172414 102.688775,-3.53823973e-05 Z M103.335245,6.64396552 C102.232141,8.88103448 100.690359,9.77327586 97.2245588,9.77069526 L87.8430392,9.77069526 L94.0666013,2.73359378 L97.9556863,2.73359378 C102.90683,2.72586207 104.435784,4.39655172 103.335245,6.64396552 Z" id="Shape" fill="#000000"></path>
                <path d="M151.135541,4.50517241 C151.133583,4.12741749 151.20868,3.75328481 151.356209,3.40603448 C151.498545,3.071634 151.703197,2.76786789 151.959069,2.5112069 C152.217957,2.25744967 152.520459,2.05326631 152.851814,1.90862069 C153.548895,1.61202616 154.335288,1.61202616 155.032369,1.90862069 C155.364056,2.05265142 155.666663,2.2569057 155.925114,2.5112069 C156.181885,2.76711508 156.386664,3.07106891 156.527974,3.40603448 C156.676644,3.75292529 156.75179,4.12730155 156.748595,4.50517241 C156.752085,4.88056634 156.676905,5.25247234 156.527974,5.59655172 C156.385909,5.92881455 156.181163,6.23008619 155.925114,6.48362069 C155.109847,7.2855334 153.898993,7.52051709 152.846683,7.08103448 C152.178098,6.7991852 151.64387,6.26710436 151.356209,5.59655172 C151.208515,5.25207939 151.133388,4.88044016 151.135541,4.50517241 L151.135541,4.50517241 Z M151.576801,4.50517241 C151.575238,4.82100636 151.639021,5.13370179 151.764101,5.42327586 C151.883805,5.71288073 152.05804,5.97635769 152.277173,6.19913793 C152.959162,6.88696791 153.985762,7.09130017 154.875882,6.71637931 C155.157991,6.59594692 155.413504,6.420118 155.627533,6.19913793 C155.845677,5.97554604 156.019777,5.71227317 156.140605,5.42327586 C156.263672,5.13315377 156.32653,4.82070687 156.32531,4.50517241 C156.327851,4.18533 156.264974,3.86839213 156.140605,3.57413793 C155.901907,3.00239063 155.450717,2.54753426 154.883578,2.30689655 C154.29252,2.05862069 153.627578,2.05862069 153.03652,2.30689655 C152.755646,2.42959758 152.500544,2.60514361 152.284869,2.82413793 C152.066088,3.04025901 151.891737,3.29775888 151.771797,3.58189655 C151.644092,3.87272468 151.577701,4.1871238 151.576801,4.50517241 Z M152.846683,2.90172414 L153.954918,2.90172414 C154.100093,2.90187857 154.244746,2.91923911 154.385899,2.95344828 C154.51964,2.98266847 154.646711,3.0370685 154.760441,3.1137931 C154.867048,3.18685551 154.954962,3.28434687 155.016977,3.39827586 C155.087825,3.53164594 155.122347,3.68156271 155.117026,3.83275862 C155.12563,4.04009807 155.054917,4.24284993 154.919493,4.39913793 C154.777429,4.54913649 154.592853,4.65120753 154.391029,4.69137931 L155.240163,6.08017241 L154.550082,6.08017241 L153.811258,4.75344828 L153.408497,4.75344828 L153.408497,6.08017241 L152.841552,6.08017241 L152.846683,2.90172414 Z M153.872827,4.29311225 C154.033886,4.29371858 154.193461,4.26207158 154.342288,4.2 C154.489842,4.13634314 154.579219,3.98337813 154.562908,3.82241379 C154.57839,3.67387073 154.496288,3.53242878 154.360245,3.47327586 C154.221367,3.41481961 154.072051,3.38577005 153.921569,3.38793103 L153.408497,3.38793103 L153.408497,4.29311225 L153.872827,4.29311225 Z" id="Shape" fill="#070707"></path>
            </g>
        </g>
    </g>
</svg>