<?xml version="1.0" encoding="UTF-8"?>
<svg width="224px" height="75px" viewBox="0 0 224 75" version="1.1" xmlns="http://www.w3.org/2000/svg" xmlns:xlink="http://www.w3.org/1999/xlink">
    <!-- Generator: Sketch 58 (84663) - https://sketch.com -->
    <title>LOGOS/logo_scorpio5star</title>
    <desc>Created with Sketch.</desc>
    <defs>
        <path d="M84.0855381,1.13686838e-13 C86.5883377,1.13686838e-13 88.5166954,0.662707228 89.8706689,1.98814157 C91.2246425,3.3135759 91.9016191,5.17016791 91.9016191,7.55797328 C91.9016191,9.291493 91.6058692,10.7130253 91.0143606,11.8226128 C90.4228519,12.9322004 89.5680835,13.7955747 88.4500295,14.4127616 C87.3319756,15.0299486 85.938703,15.3385375 84.2701699,15.3385375 C82.5742838,15.3385375 81.170754,15.0721056 80.0595383,14.5392337 C78.9483227,14.0063619 78.0473967,13.163223 77.3567334,12.0097916 C76.6660701,10.8563601 76.3207437,9.41290623 76.3207437,7.67938651 C76.3207437,5.25785507 77.0045584,3.37259634 78.3722085,2.02355376 C79.7398586,0.674511174 81.6442827,1.13686838e-13 84.0855381,1.13686838e-13 Z M84.0752808,3.47039469 C83.1384405,3.47039469 82.3862442,3.79753261 81.8186694,4.45181827 C81.2510947,5.10610392 80.9673115,6.18869435 80.9673115,7.69962205 C80.9673115,9.19705931 81.2493851,10.2729046 81.8135408,10.9271903 C82.3776964,11.5814759 83.1452785,11.9086139 84.1163101,11.9086139 C85.1146946,11.9086139 85.8874053,11.5882211 86.4344653,10.9474258 C86.9815254,10.3066306 87.2550513,9.15658905 87.2550513,7.49726667 C87.2550513,6.1010076 86.9695586,5.08080945 86.3985647,4.43664161 C85.8275708,3.79247378 85.0531506,3.47039469 84.0752808,3.47039469 Z" id="path-1"></path>
        <polygon id="path-2" points="71.0149556 0.25294422 75.6717808 0.25294422 75.6717808 15.0855933 71.0149556 15.0855933"></polygon>
        <path d="M65.4629917,0.25294422 C67.1452013,0.25294422 68.40513,0.647533256 69.2428157,1.43672317 C70.0805013,2.22591308 70.4993379,3.34897418 70.4993379,4.80594017 C70.4993379,6.30337744 70.0428915,7.47365433 69.1299851,8.31680594 C68.2170787,9.15995756 66.8238061,9.58152704 64.9501255,9.58152704 L62.4063091,9.58152704 L62.4063091,15.0855933 L57.7392266,15.0855933 L57.7392266,0.25294422 L65.4629917,0.25294422 Z M63.7295039,3.26803932 L62.4063091,3.26803932 L62.4063091,6.57654971 L63.5448721,6.57654971 C64.4406829,6.57654971 65.0697925,6.42309842 65.4322197,6.11619123 C65.794647,5.80928404 65.9758579,5.41638129 65.9758579,4.93747117 C65.9758579,4.47205148 65.8185805,4.07746244 65.504021,3.75369222 C65.1894615,3.429922 64.5979617,3.26803932 63.7295039,3.26803932 Z" id="path-3"></path>
        <path d="M51.3256475,0.25294422 C52.76168,0.25294422 53.8592027,0.374356231 54.6182485,0.617183896 C55.3772943,0.860011561 55.9893085,1.31024777 56.4543096,1.96790603 C56.9193106,2.62556429 57.1518076,3.42654631 57.1518076,4.37087612 C57.1518076,5.19379209 56.9740158,5.9037151 56.6184268,6.50066645 C56.2628377,7.09761779 55.7739102,7.58157956 55.1516294,7.95256627 C54.7550109,8.18864872 54.2113781,8.38425696 53.5207148,8.53939686 C54.0746131,8.72151761 54.4780638,8.90363562 54.7310791,9.08575637 C54.9020354,9.2071702 55.1499182,9.46685701 55.4747351,9.86482457 C55.799552,10.2627921 56.0166632,10.5696947 56.1260752,10.7855415 L58.3724292,15.0855933 L53.1206792,15.0855933 L50.6384067,10.5528328 C50.3238472,9.96599932 50.0434832,9.58490051 49.7973062,9.40952497 C49.4622319,9.18018773 49.0827147,9.06552083 48.6587432,9.06552083 L48.2484502,9.06552083 L48.2484502,15.0855933 L43.5813677,15.0855933 L43.5813677,0.25294422 L51.3256475,0.25294422 Z M50.2896577,3.24780378 L48.2484502,3.24780378 L48.2484502,6.26289888 L50.2075991,6.26289888 C50.4195849,6.26289888 50.8298737,6.19544776 51.438478,6.0605435 C51.7461993,5.99983659 51.9975012,5.84469902 52.1923914,5.59512614 C52.3872815,5.34555326 52.4847251,5.05888601 52.4847251,4.73511579 C52.4847251,4.25620568 52.3308668,3.88859709 52.0231455,3.63227899 C51.7154242,3.3759609 51.1376008,3.24780378 50.2896577,3.24780378 Z" id="path-4"></path>
        <path d="M35.3009556,1.13686838e-13 C37.8037552,1.13686838e-13 39.7321129,0.662707228 41.0860864,1.98814157 C42.44006,3.3135759 43.1170366,5.17016791 43.1170366,7.55797328 C43.1170366,9.291493 42.8212867,10.7130253 42.2297781,11.8226128 C41.6382694,12.9322004 40.783501,13.7955747 39.665447,14.4127616 C38.5473931,15.0299486 37.1541205,15.3385375 35.4855874,15.3385375 C33.7897013,15.3385375 32.3861715,15.0721056 31.2749558,14.5392337 C30.1637401,14.0063619 29.2628142,13.163223 28.5721509,12.0097916 C27.8814876,10.8563601 27.5361611,9.41290623 27.5361611,7.67938651 C27.5361611,5.25785507 28.2199759,3.37259634 29.587626,2.02355376 C30.955276,0.674511174 32.8597002,1.13686838e-13 35.3009556,1.13686838e-13 Z M35.2906982,3.47039469 C34.3538579,3.47039469 33.6016617,3.79753261 33.0340869,4.45181827 C32.4665121,5.10610392 32.182729,6.18869435 32.182729,7.69962205 C32.182729,9.19705931 32.4648026,10.2729046 33.0289583,10.9271903 C33.5931139,11.5814759 34.360696,11.9086139 35.3317275,11.9086139 C36.3301121,11.9086139 37.1028228,11.5882211 37.6498828,10.9474258 C38.1969428,10.3066306 38.4704688,9.15658905 38.4704688,7.49726667 C38.4704688,6.1010076 38.1849761,5.08080945 37.6139822,4.43664161 C37.0429883,3.79247378 36.268568,3.47039469 35.2906982,3.47039469 Z" id="path-5"></path>
        <path d="M25.2920596,9.02504976 L29.3642173,10.239182 C29.0906873,11.3656326 28.659884,12.3065757 28.0717944,13.0620395 C27.4837049,13.8175034 26.7537326,14.3874653 25.8818557,14.7719424 C25.0099788,15.1564196 23.9004893,15.3486553 22.553354,15.3486553 C20.9190122,15.3486553 19.5838638,15.1142626 18.5478689,14.6454703 C17.511874,14.176678 16.6177862,13.3520881 15.8655786,12.1716759 C15.1133711,10.9912636 14.7372729,9.48035856 14.7372729,7.63891543 C14.7372729,5.18365793 15.3988637,3.29671292 16.7220652,1.9780238 C18.0452666,0.659334673 19.9172096,2.84217094e-14 22.3379502,2.84217094e-14 C24.2321455,2.84217094e-14 25.7211522,0.377726257 26.8050149,1.1331901 C27.8888776,1.88865395 28.6940695,3.04881317 29.2206147,4.61370257 L25.1176851,5.51418399 C24.9740818,5.06225472 24.8236426,4.73174425 24.6663628,4.52264265 C24.4065093,4.17189158 24.0885354,3.90208711 23.7124316,3.71322114 C23.3363279,3.52435518 22.9157818,3.42992362 22.4507808,3.42992362 C21.3976902,3.42992362 20.5907888,3.84812055 20.0300522,4.68452695 C19.6060807,5.30508654 19.3940981,6.27975518 19.3940981,7.60856213 C19.3940981,9.25439408 19.6471096,10.382514 20.1531401,10.9929558 C20.6591707,11.6033976 21.370338,11.9086139 22.2866636,11.9086139 C23.1756361,11.9086139 23.8474841,11.6624173 24.3022278,11.1700167 C24.7569714,10.6776162 25.0869121,9.96263435 25.2920596,9.02504976 Z" id="path-6"></path>
        <path d="M23.8920596,9.02504976 L27.9642173,10.239182 C27.6906873,11.3656326 27.259884,12.3065757 26.6717944,13.0620395 C26.0837049,13.8175034 25.3537326,14.3874653 24.4818557,14.7719424 C23.6099788,15.1564196 22.5004893,15.3486553 21.153354,15.3486553 C19.5190122,15.3486553 18.1838638,15.1142626 17.1478689,14.6454703 C16.111874,14.176678 15.2177862,13.3520881 14.4655786,12.1716759 C13.7133711,10.9912636 13.3372729,9.48035856 13.3372729,7.63891543 C13.3372729,5.18365793 13.9988637,3.29671292 15.3220652,1.9780238 C16.6452666,0.659334673 18.5172096,2.84217094e-14 20.9379502,2.84217094e-14 C22.8321455,2.84217094e-14 24.3211522,0.377726257 25.4050149,1.1331901 C26.4888776,1.88865395 27.2940695,3.04881317 27.8206147,4.61370257 L23.7176851,5.51418399 C23.5740818,5.06225472 23.4236426,4.73174425 23.2663628,4.52264265 C23.0065093,4.17189158 22.6885354,3.90208711 22.3124316,3.71322114 C21.9363279,3.52435518 21.5157818,3.42992362 21.0507808,3.42992362 C19.9976902,3.42992362 19.1907888,3.84812055 18.6300522,4.68452695 C18.2060807,5.30508654 17.9940981,6.27975518 17.9940981,7.60856213 C17.9940981,9.25439408 18.2471096,10.382514 18.7531401,10.9929558 C19.2591707,11.6033976 19.970338,11.9086139 20.8866636,11.9086139 C21.7756361,11.9086139 22.4474841,11.6624173 22.9022278,11.1700167 C23.3569714,10.6776162 23.6869121,9.96263435 23.8920596,9.02504976 Z" id="path-7"></path>
        <path d="M1.4,10.1784754 L5.82090674,9.90529564 C5.91664224,10.613543 6.11152945,11.1531519 6.40557422,11.5241386 C6.88425174,12.1244626 7.56806652,12.4246201 8.45703906,12.4246201 C9.12034935,12.4246201 9.63150089,12.2711688 9.99050903,11.9642616 C10.3495172,11.6573544 10.5290186,11.3015498 10.5290186,10.896837 C10.5290186,10.5123598 10.3580649,10.1683591 10.0161523,9.86482457 C9.67423983,9.56128999 8.88101469,9.27462274 7.63645313,9.00481422 C5.59865452,8.55288496 4.14554812,7.95257001 3.27709033,7.20385138 C2.40179429,6.45513274 1.96415283,5.50069943 1.96415283,4.34052281 C1.96415283,3.57831375 2.18810217,2.85827307 2.63600757,2.18037917 C3.08391297,1.50248528 3.75747052,0.969621448 4.65670044,0.581771705 C5.55593036,0.193921963 6.78850649,8.52651283e-14 8.35446582,8.52651283e-14 C10.2760142,8.52651283e-14 11.7410873,0.352432088 12.7497292,1.05730684 C13.7583712,1.76218159 14.3584186,2.88355641 14.5498896,4.42146496 L10.1700122,4.67440918 C10.053762,4.0066331 9.80929817,3.52098506 9.43661353,3.21745047 C9.06392888,2.91391589 8.54935826,2.76215088 7.89288623,2.76215088 C7.35266445,2.76215088 6.94579466,2.8751315 6.67226465,3.10109613 C6.39873463,3.32706077 6.26197168,3.60192407 6.26197168,3.92569429 C6.26197168,4.16177674 6.37480112,4.37424776 6.60046338,4.56311372 C6.81928739,4.7587249 7.33898662,4.94084291 8.15957666,5.10947324 C10.190537,5.54116686 11.6453529,5.97791285 12.5240681,6.4197243 C13.4027833,6.86153574 14.0421501,7.40957607 14.4421877,8.06386172 C14.8422254,8.71814738 15.0422412,9.449992 15.0422412,10.2594176 C15.0422412,11.2104926 14.7755534,12.0873571 14.2421699,12.8900374 C13.7087864,13.6927178 12.9634283,14.3014641 12.0060732,14.7162947 C11.0487182,15.1311253 9.84178511,15.3385375 8.38523779,15.3385375 C5.82773217,15.3385375 4.0566519,14.8528894 3.07194385,13.8815788 C2.0872358,12.9102681 1.52992676,11.6759127 1.4,10.1784754 Z" id="path-8"></path>
        <path d="M1.11910481e-13,10.1784754 L4.42090674,9.90529564 C4.51664224,10.613543 4.71152945,11.1531519 5.00557422,11.5241386 C5.48425174,12.1244626 6.16806652,12.4246201 7.05703906,12.4246201 C7.72034935,12.4246201 8.23150089,12.2711688 8.59050903,11.9642616 C8.94951718,11.6573544 9.12901855,11.3015498 9.12901855,10.896837 C9.12901855,10.5123598 8.95806486,10.1683591 8.61615234,9.86482457 C8.27423983,9.56128999 7.48101469,9.27462274 6.23645313,9.00481422 C4.19865452,8.55288496 2.74554812,7.95257001 1.87709033,7.20385138 C1.00179429,6.45513274 0.564152832,5.50069943 0.564152832,4.34052281 C0.564152832,3.57831375 0.788102171,2.85827307 1.23600757,2.18037917 C1.68391297,1.50248528 2.35747052,0.969621448 3.25670044,0.581771705 C4.15593036,0.193921963 5.38850649,2.66453526e-14 6.95446582,2.66453526e-14 C8.87601416,2.66453526e-14 10.3410873,0.352432088 11.3497292,1.05730684 C12.3583712,1.76218159 12.9584186,2.88355641 13.1498896,4.42146496 L8.77001221,4.67440918 C8.65376195,4.0066331 8.40929817,3.52098506 8.03661353,3.21745047 C7.66392888,2.91391589 7.14935826,2.76215088 6.49288623,2.76215088 C5.95266445,2.76215088 5.54579466,2.8751315 5.27226465,3.10109613 C4.99873463,3.32706077 4.86197168,3.60192407 4.86197168,3.92569429 C4.86197168,4.16177674 4.97480112,4.37424776 5.20046338,4.56311372 C5.41928739,4.7587249 5.93898662,4.94084291 6.75957666,5.10947324 C8.79053701,5.54116686 10.2453529,5.97791285 11.1240681,6.4197243 C12.0027833,6.86153574 12.6421501,7.40957607 13.0421877,8.06386172 C13.4422254,8.71814738 13.6422412,9.449992 13.6422412,10.2594176 C13.6422412,11.2104926 13.3755534,12.0873571 12.8421699,12.8900374 C12.3087864,13.6927178 11.5634283,14.3014641 10.6060732,14.7162947 C9.6487182,15.1311253 8.44178511,15.3385375 6.98523779,15.3385375 C4.42773217,15.3385375 2.6566519,14.8528894 1.67194385,13.8815788 C0.687235799,12.9102681 0.129926756,11.6759127 1.11910481e-13,10.1784754 Z" id="path-9"></path>
        <path d="M23.1,28.7987013 L23.1,19.5318823 L25.6976563,19.5318823 C26.6820362,19.5318823 27.3236964,19.578237 27.6226563,19.6709478 C28.0820335,19.810014 28.4666651,20.1123731 28.7765625,20.5780341 C29.0864599,21.0436952 29.2414063,21.6452528 29.2414063,22.382725 C29.2414063,22.9516321 29.1520842,23.4299284 28.9734375,23.8176281 C28.7947908,24.2053278 28.5678399,24.5097939 28.2925781,24.7310355 C28.0173163,24.9522772 27.7375014,25.0987159 27.453125,25.1703561 C27.0666647,25.2588527 26.5070349,25.3031004 25.7742188,25.3031004 L24.71875,25.3031004 L24.71875,28.7987013 L23.1,28.7987013 Z M24.71875,21.0995297 L24.71875,23.7291318 L25.6046875,23.7291318 C26.2427115,23.7291318 26.6692698,23.6806701 26.884375,23.5837452 C27.0994802,23.4868203 27.2680983,23.335114 27.3902344,23.1286217 C27.5123704,22.9221295 27.5734375,22.6819279 27.5734375,22.4080096 C27.5734375,22.0708795 27.4877613,21.7927513 27.3164062,21.5736167 C27.1450512,21.354482 26.9281263,21.217525 26.665625,21.1627413 C26.4723949,21.1206001 26.0841175,21.0995297 25.5007813,21.0995297 L24.71875,21.0995297 Z M32.0304688,28.7987013 L30.49375,28.7987013 L30.49375,22.0856305 L31.9210938,22.0856305 L31.9210938,23.0401255 C32.1653658,22.5892139 32.3850251,22.2921224 32.5800781,22.1488421 C32.7751312,22.0055618 32.9966133,21.9339227 33.2445313,21.9339227 C33.594533,21.9339227 33.9317692,22.0455954 34.25625,22.2689441 L33.7804688,23.8176281 C33.5216133,23.6237782 33.2809907,23.5268548 33.0585938,23.5268548 C32.8434885,23.5268548 32.6611987,23.5953333 32.5117188,23.7322924 C32.3622388,23.8692516 32.2446619,24.1168278 32.1589844,24.4750286 C32.0733069,24.8332294 32.0304688,25.5833328 32.0304688,26.7253612 L32.0304688,28.7987013 Z M38.28125,26.6621496 L39.8125,26.9592441 C39.615624,27.6082196 39.3048198,28.1023186 38.8800781,28.4415558 C38.4553364,28.780793 37.9239615,28.9504091 37.2859375,28.9504091 C36.2760366,28.9504091 35.5286483,28.5690363 35.04375,27.8062793 C34.6609356,27.1952309 34.4695313,26.4240573 34.4695313,25.4927352 C34.4695313,24.3802057 34.7210912,23.508948 35.2242187,22.878936 C35.7273463,22.248924 36.3635378,21.9339227 37.1328125,21.9339227 C37.9968793,21.9339227 38.6786433,22.2636732 39.178125,22.9231841 C39.6776067,23.582695 39.9164064,24.5930168 39.8945312,25.9541798 L36.0445312,25.9541798 C36.0554688,26.4809457 36.1794259,26.8907634 36.4164063,27.1836452 C36.6533866,27.476527 36.9486961,27.6229657 37.3023437,27.6229657 C37.54297,27.6229657 37.7453117,27.5471126 37.909375,27.395404 C38.0734383,27.2436954 38.1973954,26.9992797 38.28125,26.6621496 Z M38.36875,24.8669404 C38.3578124,24.352817 38.2429698,23.9619625 38.0242188,23.6943655 C37.8054677,23.4267684 37.5393245,23.2929719 37.2257813,23.2929719 C36.8903629,23.2929719 36.6132823,23.434143 36.3945312,23.7164895 C36.1757802,23.998836 36.0682291,24.3823158 36.071875,24.8669404 L38.36875,24.8669404 Z M41.0320313,22.0856305 L42.4484375,22.0856305 L42.4484375,23.0021986 C42.9552109,22.2900111 43.5585902,21.9339227 44.2585938,21.9339227 C44.6304706,21.9339227 44.9531236,22.0224181 45.2265625,22.1994114 C45.5000014,22.3764047 45.7242179,22.6439978 45.8992188,23.0021986 C46.1544284,22.6439978 46.429686,22.3764047 46.725,22.1994114 C47.020314,22.0224181 47.3356754,21.9339227 47.6710938,21.9339227 C48.0976584,21.9339227 48.4585923,22.0340067 48.7539062,22.2341778 C49.0492202,22.4343488 49.2697909,22.7282797 49.415625,23.1159794 C49.5213547,23.4025401 49.5742188,23.8660871 49.5742188,24.5066344 L49.5742188,28.7987013 L48.0375,28.7987013 L48.0375,24.9617578 C48.0375,24.2959258 47.9846359,23.8660913 47.8789062,23.6722414 C47.736718,23.4193938 47.5179702,23.2929719 47.2226562,23.2929719 C47.007551,23.2929719 46.8052093,23.368825 46.615625,23.5205336 C46.4260407,23.6722422 46.2893233,23.894534 46.2054688,24.1874159 C46.1216142,24.4802977 46.0796875,24.9427912 46.0796875,25.5749102 L46.0796875,28.7987013 L44.5429688,28.7987013 L44.5429688,25.1197868 C44.5429688,24.4665971 44.5156253,24.0451907 44.4609375,23.855555 C44.4062497,23.6659193 44.3214849,23.5247482 44.2066406,23.4320374 C44.0917963,23.3393266 43.9359385,23.2929719 43.7390625,23.2929719 C43.5020821,23.2929719 43.288803,23.366718 43.0992188,23.5142124 C42.9096345,23.6617069 42.7738285,23.8745171 42.6917969,24.1526495 C42.6097652,24.4307819 42.56875,24.8922219 42.56875,25.5369833 L42.56875,28.7987013 L41.0320313,28.7987013 L41.0320313,22.0856305 Z M51.1054688,21.1753836 L51.1054688,19.5318823 L52.6421875,19.5318823 L52.6421875,21.1753836 L51.1054688,21.1753836 Z M51.1054688,28.7987013 L51.1054688,22.0856305 L52.6421875,22.0856305 L52.6421875,28.7987013 L51.1054688,28.7987013 Z M58.0398437,28.7987013 L58.0398437,27.793637 C57.8283844,28.1518378 57.5503923,28.4341801 57.2058594,28.6406723 C56.8613264,28.8471645 56.4976582,28.9504091 56.1148437,28.9504091 C55.7247376,28.9504091 55.3747411,28.8513786 55.0648437,28.6533146 C54.7549464,28.4552507 54.5307299,28.1771225 54.3921875,27.8189217 C54.2536451,27.4607209 54.184375,26.9655684 54.184375,26.3334493 L54.184375,22.0856305 L55.7210938,22.0856305 L55.7210938,25.1703561 C55.7210938,26.1143205 55.7493487,26.6927008 55.8058594,26.9055142 C55.8623701,27.1183276 55.9653638,27.2868902 56.1148437,27.4112069 C56.2643237,27.5355237 56.4539051,27.5976811 56.6835938,27.5976811 C56.9460951,27.5976811 57.181249,27.5144533 57.3890625,27.3479953 C57.596876,27.1815373 57.7390621,26.9750482 57.815625,26.7285218 C57.8921879,26.4819953 57.9304687,25.8783307 57.9304687,24.9175097 L57.9304687,22.0856305 L59.4671875,22.0856305 L59.4671875,28.7987013 L58.0398437,28.7987013 Z M60.94375,22.0856305 L62.3601563,22.0856305 L62.3601563,23.0021986 C62.8669296,22.2900111 63.470309,21.9339227 64.1703125,21.9339227 C64.5421894,21.9339227 64.8648424,22.0224181 65.1382813,22.1994114 C65.4117201,22.3764047 65.6359366,22.6439978 65.8109375,23.0021986 C66.0661471,22.6439978 66.3414048,22.3764047 66.6367188,22.1994114 C66.9320327,22.0224181 67.2473942,21.9339227 67.5828125,21.9339227 C68.0093771,21.9339227 68.370311,22.0340067 68.665625,22.2341778 C68.960939,22.4343488 69.1815097,22.7282797 69.3273438,23.1159794 C69.4330734,23.4025401 69.4859375,23.8660871 69.4859375,24.5066344 L69.4859375,28.7987013 L67.9492188,28.7987013 L67.9492188,24.9617578 C67.9492188,24.2959258 67.8963547,23.8660913 67.790625,23.6722414 C67.6484368,23.4193938 67.429689,23.2929719 67.134375,23.2929719 C66.9192698,23.2929719 66.716928,23.368825 66.5273438,23.5205336 C66.3377595,23.6722422 66.2010421,23.894534 66.1171875,24.1874159 C66.0333329,24.4802977 65.9914063,24.9427912 65.9914063,25.5749102 L65.9914063,28.7987013 L64.4546875,28.7987013 L64.4546875,25.1197868 C64.4546875,24.4665971 64.427344,24.0451907 64.3726563,23.855555 C64.3179685,23.6659193 64.2332037,23.5247482 64.1183594,23.4320374 C64.0035151,23.3393266 63.8476572,23.2929719 63.6507813,23.2929719 C63.4138009,23.2929719 63.2005218,23.366718 63.0109375,23.5142124 C62.8213532,23.6617069 62.6855473,23.8745171 62.6035156,24.1526495 C62.521484,24.4307819 62.4804688,24.8922219 62.4804688,25.5369833 L62.4804688,28.7987013 L60.94375,28.7987013 L60.94375,22.0856305 Z" id="path-10"></path>
        <path d="M97.86006,2.57500081 C97.86006,3.03623088 97.7431638,3.46595585 97.5093679,3.86418864 C97.2755719,4.26242142 96.9568159,4.57627815 96.5530903,4.80576823 C96.1493646,5.03525831 95.7137124,5.15000163 95.2461206,5.15000163 C94.7808096,5.15000163 94.3462979,5.03525831 93.9425722,4.80576823 C93.5388466,4.57627815 93.2200906,4.26242142 92.9862946,3.86418864 C92.7524987,3.46595585 92.6356025,3.03623088 92.6356025,2.57500081 C92.6356025,2.11602065 92.7524987,1.68685814 92.9862946,1.28750041 C93.2200906,0.88814267 93.5388466,0.573723478 93.9425722,0.344233398 C94.3462979,0.114743319 94.7808096,0 95.2461206,0 C95.7137124,0 96.1493646,0.114743319 96.5530903,0.344233398 C96.9568159,0.573723478 97.2755719,0.88814267 97.5093679,1.28750041 C97.7431638,1.68685814 97.86006,2.11602065 97.86006,2.57500081 Z M97.3536948,2.57500081 C97.3536948,2.00127561 97.1478434,1.51136664 96.7361345,1.1052592 C96.3244255,0.699151751 95.8277592,0.496101074 95.2461206,0.496101074 C94.6644819,0.496101074 94.1678156,0.699151751 93.7561066,1.1052592 C93.3443977,1.51136664 93.1385463,2.00127561 93.1385463,2.57500081 C93.1385463,3.14872601 93.3443977,3.63863499 93.7561066,4.04474243 C94.1678156,4.45084988 94.6644819,4.65390055 95.2461206,4.65390055 C95.8277592,4.65390055 96.3244255,4.45084988 96.7361345,4.04474243 C97.1478434,3.63863499 97.3536948,3.14872601 97.3536948,2.57500081 Z M94.0623207,1.19806722 L95.3111269,1.19806722 C95.664672,1.19806722 95.9207032,1.26837563 96.0792282,1.40899455 C96.2377533,1.54961347 96.3170146,1.73804 96.3170146,1.97427979 C96.3170146,2.15877181 96.2565707,2.31851251 96.1356811,2.45350667 C96.0147915,2.58850084 95.8243362,2.68637014 95.5643095,2.74711751 C95.6715135,2.78761576 95.7502046,2.83036327 95.8003852,2.87536133 C95.8710942,2.9383586 95.9452235,3.03172817 96.0227753,3.15547282 C96.0273372,3.16447243 96.1778767,3.42995697 96.4743984,3.95193441 L95.6532656,3.95193441 C95.3863961,3.42770707 95.2073453,3.11441281 95.1161079,3.01204224 C95.0248704,2.90967166 94.9336344,2.85848714 94.8423969,2.85848714 C94.8218685,2.85848714 94.7933572,2.86186195 94.7568623,2.86861165 L94.7568623,3.95193441 L94.0623207,3.95193441 L94.0623207,1.19806722 Z M94.7568623,2.3657609 L95.0579443,2.3657609 C95.2586666,2.3657609 95.4000825,2.33370027 95.4821962,2.26957804 C95.5643099,2.20545582 95.6053662,2.12277313 95.6053662,2.02152751 C95.6053662,1.92028188 95.5660206,1.8375992 95.4873283,1.77347697 C95.408636,1.70935474 95.2746331,1.67729411 95.0853154,1.67729411 L94.7568623,1.67729411 L94.7568623,2.3657609 Z" id="path-11"></path>
    </defs>
    <g id="LOGOS/logo_scorpio5star" stroke="none" stroke-width="1" fill="none" fill-rule="evenodd">
        <path d="M0,75 L224,0" id="Path-7" stroke="#EBEBEB" stroke-width="2" stroke-linecap="round"></path>
        <g id="Group-7" transform="translate(9.000000, 9.000000)" fill-rule="nonzero">
            <g id="Group-8" transform="translate(0.000000, 0.889025)">
                <g id="Combined-Shape">
                    <use fill="#000000" xlink:href="#path-1"></use>
                    <path d="M84.0855381,1.13686838e-13 C86.5883377,1.13686838e-13 88.5166954,0.662707228 89.8706689,1.98814157 C91.2246425,3.3135759 91.9016191,5.17016791 91.9016191,7.55797328 C91.9016191,9.291493 91.6058692,10.7130253 91.0143606,11.8226128 C90.4228519,12.9322004 89.5680835,13.7955747 88.4500295,14.4127616 C87.3319756,15.0299486 85.938703,15.3385375 84.2701699,15.3385375 C82.5742838,15.3385375 81.170754,15.0721056 80.0595383,14.5392337 C78.9483227,14.0063619 78.0473967,13.163223 77.3567334,12.0097916 C76.6660701,10.8563601 76.3207437,9.41290623 76.3207437,7.67938651 C76.3207437,5.25785507 77.0045584,3.37259634 78.3722085,2.02355376 C79.7398586,0.674511174 81.6442827,1.13686838e-13 84.0855381,1.13686838e-13 Z M84.0752808,3.47039469 C83.1384405,3.47039469 82.3862442,3.79753261 81.8186694,4.45181827 C81.2510947,5.10610392 80.9673115,6.18869435 80.9673115,7.69962205 C80.9673115,9.19705931 81.2493851,10.2729046 81.8135408,10.9271903 C82.3776964,11.5814759 83.1452785,11.9086139 84.1163101,11.9086139 C85.1146946,11.9086139 85.8874053,11.5882211 86.4344653,10.9474258 C86.9815254,10.3066306 87.2550513,9.15658905 87.2550513,7.49726667 C87.2550513,6.1010076 86.9695586,5.08080945 86.3985647,4.43664161 C85.8275708,3.79247378 85.0531506,3.47039469 84.0752808,3.47039469 Z" stroke-linejoin="square" fill="#F80005" fill-rule="evenodd"></path>
                </g>
                <polygon id="Path" fill="#FFFFFF" points="72.4149556 0.25294422 77.0717808 0.25294422 77.0717808 15.0855933 72.4149556 15.0855933"></polygon>
                <g id="Path">
                    <use fill="#000000" xlink:href="#path-2"></use>
                    <polygon stroke-linejoin="square" fill="#F80005" fill-rule="evenodd" points="71.0149556 0.25294422 75.6717808 0.25294422 75.6717808 15.0855933 71.0149556 15.0855933"></polygon>
                </g>
                <path d="M66.8629917,0.25294422 C68.5452013,0.25294422 69.80513,0.647533256 70.6428157,1.43672317 C71.4805013,2.22591308 71.8993379,3.34897418 71.8993379,4.80594017 C71.8993379,6.30337744 71.4428915,7.47365433 70.5299851,8.31680594 C69.6170787,9.15995756 68.2238061,9.58152704 66.3501255,9.58152704 L63.8063091,9.58152704 L63.8063091,15.0855933 L59.1392266,15.0855933 L59.1392266,0.25294422 L66.8629917,0.25294422 Z M65.1295039,3.26803932 L63.8063091,3.26803932 L63.8063091,6.57654971 L64.9448721,6.57654971 C65.8406829,6.57654971 66.4697925,6.42309842 66.8322197,6.11619123 C67.194647,5.80928404 67.3758579,5.41638129 67.3758579,4.93747117 C67.3758579,4.47205148 67.2185805,4.07746244 66.904021,3.75369222 C66.5894615,3.429922 65.9979617,3.26803932 65.1295039,3.26803932 Z" id="Combined-Shape" fill="#FFFFFF"></path>
                <g id="Combined-Shape">
                    <use fill="#000000" xlink:href="#path-3"></use>
                    <path d="M65.4629917,0.25294422 C67.1452013,0.25294422 68.40513,0.647533256 69.2428157,1.43672317 C70.0805013,2.22591308 70.4993379,3.34897418 70.4993379,4.80594017 C70.4993379,6.30337744 70.0428915,7.47365433 69.1299851,8.31680594 C68.2170787,9.15995756 66.8238061,9.58152704 64.9501255,9.58152704 L62.4063091,9.58152704 L62.4063091,15.0855933 L57.7392266,15.0855933 L57.7392266,0.25294422 L65.4629917,0.25294422 Z M63.7295039,3.26803932 L62.4063091,3.26803932 L62.4063091,6.57654971 L63.5448721,6.57654971 C64.4406829,6.57654971 65.0697925,6.42309842 65.4322197,6.11619123 C65.794647,5.80928404 65.9758579,5.41638129 65.9758579,4.93747117 C65.9758579,4.47205148 65.8185805,4.07746244 65.504021,3.75369222 C65.1894615,3.429922 64.5979617,3.26803932 63.7295039,3.26803932 Z" stroke-linejoin="square" fill="#F80005" fill-rule="evenodd"></path>
                </g>
                <path d="M52.0256475,0.25294422 C53.46168,0.25294422 54.5592027,0.374356231 55.3182485,0.617183896 C56.0772943,0.860011561 56.6893085,1.31024777 57.1543096,1.96790603 C57.6193106,2.62556429 57.8518076,3.42654631 57.8518076,4.37087612 C57.8518076,5.19379209 57.6740158,5.9037151 57.3184268,6.50066645 C56.9628377,7.09761779 56.4739102,7.58157956 55.8516294,7.95256627 C55.4550109,8.18864872 54.9113781,8.38425696 54.2207148,8.53939686 C54.7746131,8.72151761 55.1780638,8.90363562 55.4310791,9.08575637 C55.6020354,9.2071702 55.8499182,9.46685701 56.1747351,9.86482457 C56.499552,10.2627921 56.7166632,10.5696947 56.8260752,10.7855415 L59.0724292,15.0855933 L53.8206792,15.0855933 L51.3384067,10.5528328 C51.0238472,9.96599932 50.7434832,9.58490051 50.4973062,9.40952497 C50.1622319,9.18018773 49.7827147,9.06552083 49.3587432,9.06552083 L48.9484502,9.06552083 L48.9484502,15.0855933 L44.2813677,15.0855933 L44.2813677,0.25294422 L52.0256475,0.25294422 Z M50.9896577,3.24780378 L48.9484502,3.24780378 L48.9484502,6.26289888 L50.9075991,6.26289888 C51.1195849,6.26289888 51.5298737,6.19544776 52.138478,6.0605435 C52.4461993,5.99983659 52.6975012,5.84469902 52.8923914,5.59512614 C53.0872815,5.34555326 53.1847251,5.05888601 53.1847251,4.73511579 C53.1847251,4.25620568 53.0308668,3.88859709 52.7231455,3.63227899 C52.4154242,3.3759609 51.8376008,3.24780378 50.9896577,3.24780378 Z" id="Combined-Shape" fill="#FFFFFF"></path>
                <g id="Combined-Shape">
                    <use fill="#000000" xlink:href="#path-4"></use>
                    <path d="M51.3256475,0.25294422 C52.76168,0.25294422 53.8592027,0.374356231 54.6182485,0.617183896 C55.3772943,0.860011561 55.9893085,1.31024777 56.4543096,1.96790603 C56.9193106,2.62556429 57.1518076,3.42654631 57.1518076,4.37087612 C57.1518076,5.19379209 56.9740158,5.9037151 56.6184268,6.50066645 C56.2628377,7.09761779 55.7739102,7.58157956 55.1516294,7.95256627 C54.7550109,8.18864872 54.2113781,8.38425696 53.5207148,8.53939686 C54.0746131,8.72151761 54.4780638,8.90363562 54.7310791,9.08575637 C54.9020354,9.2071702 55.1499182,9.46685701 55.4747351,9.86482457 C55.799552,10.2627921 56.0166632,10.5696947 56.1260752,10.7855415 L58.3724292,15.0855933 L53.1206792,15.0855933 L50.6384067,10.5528328 C50.3238472,9.96599932 50.0434832,9.58490051 49.7973062,9.40952497 C49.4622319,9.18018773 49.0827147,9.06552083 48.6587432,9.06552083 L48.2484502,9.06552083 L48.2484502,15.0855933 L43.5813677,15.0855933 L43.5813677,0.25294422 L51.3256475,0.25294422 Z M50.2896577,3.24780378 L48.2484502,3.24780378 L48.2484502,6.26289888 L50.2075991,6.26289888 C50.4195849,6.26289888 50.8298737,6.19544776 51.438478,6.0605435 C51.7461993,5.99983659 51.9975012,5.84469902 52.1923914,5.59512614 C52.3872815,5.34555326 52.4847251,5.05888601 52.4847251,4.73511579 C52.4847251,4.25620568 52.3308668,3.88859709 52.0231455,3.63227899 C51.7154242,3.3759609 51.1376008,3.24780378 50.2896577,3.24780378 Z" stroke-linejoin="square" fill="#F80005" fill-rule="evenodd"></path>
                </g>
                <path d="M36.7009556,5.5067062e-14 C39.2037552,5.5067062e-14 41.1321129,0.662707228 42.4860864,1.98814157 C43.84006,3.3135759 44.5170366,5.17016791 44.5170366,7.55797328 C44.5170366,9.291493 44.2212867,10.7130253 43.6297781,11.8226128 C43.0382694,12.9322004 42.183501,13.7955747 41.065447,14.4127616 C39.9473931,15.0299486 38.5541205,15.3385375 36.8855874,15.3385375 C35.1897013,15.3385375 33.7861715,15.0721056 32.6749558,14.5392337 C31.5637401,14.0063619 30.6628142,13.163223 29.9721509,12.0097916 C29.2814876,10.8563601 28.9361611,9.41290623 28.9361611,7.67938651 C28.9361611,5.25785507 29.6199759,3.37259634 30.987626,2.02355376 C32.355276,0.674511174 34.2597002,5.5067062e-14 36.7009556,5.5067062e-14 Z M36.6906982,3.47039469 C35.7538579,3.47039469 35.0016617,3.79753261 34.4340869,4.45181827 C33.8665121,5.10610392 33.582729,6.18869435 33.582729,7.69962205 C33.582729,9.19705931 33.8648026,10.2729046 34.4289583,10.9271903 C34.9931139,11.5814759 35.760696,11.9086139 36.7317275,11.9086139 C37.7301121,11.9086139 38.5028228,11.5882211 39.0498828,10.9474258 C39.5969428,10.3066306 39.8704688,9.15658905 39.8704688,7.49726667 C39.8704688,6.1010076 39.5849761,5.08080945 39.0139822,4.43664161 C38.4429883,3.79247378 37.668568,3.47039469 36.6906982,3.47039469 Z" id="Combined-Shape" fill="#FFFFFF"></path>
                <g id="Combined-Shape">
                    <use fill="#000000" xlink:href="#path-5"></use>
                    <path d="M35.3009556,1.13686838e-13 C37.8037552,1.13686838e-13 39.7321129,0.662707228 41.0860864,1.98814157 C42.44006,3.3135759 43.1170366,5.17016791 43.1170366,7.55797328 C43.1170366,9.291493 42.8212867,10.7130253 42.2297781,11.8226128 C41.6382694,12.9322004 40.783501,13.7955747 39.665447,14.4127616 C38.5473931,15.0299486 37.1541205,15.3385375 35.4855874,15.3385375 C33.7897013,15.3385375 32.3861715,15.0721056 31.2749558,14.5392337 C30.1637401,14.0063619 29.2628142,13.163223 28.5721509,12.0097916 C27.8814876,10.8563601 27.5361611,9.41290623 27.5361611,7.67938651 C27.5361611,5.25785507 28.2199759,3.37259634 29.587626,2.02355376 C30.955276,0.674511174 32.8597002,1.13686838e-13 35.3009556,1.13686838e-13 Z M35.2906982,3.47039469 C34.3538579,3.47039469 33.6016617,3.79753261 33.0340869,4.45181827 C32.4665121,5.10610392 32.182729,6.18869435 32.182729,7.69962205 C32.182729,9.19705931 32.4648026,10.2729046 33.0289583,10.9271903 C33.5931139,11.5814759 34.360696,11.9086139 35.3317275,11.9086139 C36.3301121,11.9086139 37.1028228,11.5882211 37.6498828,10.9474258 C38.1969428,10.3066306 38.4704688,9.15658905 38.4704688,7.49726667 C38.4704688,6.1010076 38.1849761,5.08080945 37.6139822,4.43664161 C37.0429883,3.79247378 36.268568,3.47039469 35.2906982,3.47039469 Z" stroke-linejoin="square" fill="#F80005" fill-rule="evenodd"></path>
                </g>
                <g id="Path">
                    <use fill="#000000" xlink:href="#path-6"></use>
                    <path d="M25.2920596,9.02504976 L29.3642173,10.239182 C29.0906873,11.3656326 28.659884,12.3065757 28.0717944,13.0620395 C27.4837049,13.8175034 26.7537326,14.3874653 25.8818557,14.7719424 C25.0099788,15.1564196 23.9004893,15.3486553 22.553354,15.3486553 C20.9190122,15.3486553 19.5838638,15.1142626 18.5478689,14.6454703 C17.511874,14.176678 16.6177862,13.3520881 15.8655786,12.1716759 C15.1133711,10.9912636 14.7372729,9.48035856 14.7372729,7.63891543 C14.7372729,5.18365793 15.3988637,3.29671292 16.7220652,1.9780238 C18.0452666,0.659334673 19.9172096,2.84217094e-14 22.3379502,2.84217094e-14 C24.2321455,2.84217094e-14 25.7211522,0.377726257 26.8050149,1.1331901 C27.8888776,1.88865395 28.6940695,3.04881317 29.2206147,4.61370257 L25.1176851,5.51418399 C24.9740818,5.06225472 24.8236426,4.73174425 24.6663628,4.52264265 C24.4065093,4.17189158 24.0885354,3.90208711 23.7124316,3.71322114 C23.3363279,3.52435518 22.9157818,3.42992362 22.4507808,3.42992362 C21.3976902,3.42992362 20.5907888,3.84812055 20.0300522,4.68452695 C19.6060807,5.30508654 19.3940981,6.27975518 19.3940981,7.60856213 C19.3940981,9.25439408 19.6471096,10.382514 20.1531401,10.9929558 C20.6591707,11.6033976 21.370338,11.9086139 22.2866636,11.9086139 C23.1756361,11.9086139 23.8474841,11.6624173 24.3022278,11.1700167 C24.7569714,10.6776162 25.0869121,9.96263435 25.2920596,9.02504976 Z" stroke-linejoin="square" fill="#FFFFFF" fill-rule="evenodd"></path>
                </g>
                <g id="Path">
                    <use fill="#000000" xlink:href="#path-7"></use>
                    <path d="M23.8920596,9.02504976 L27.9642173,10.239182 C27.6906873,11.3656326 27.259884,12.3065757 26.6717944,13.0620395 C26.0837049,13.8175034 25.3537326,14.3874653 24.4818557,14.7719424 C23.6099788,15.1564196 22.5004893,15.3486553 21.153354,15.3486553 C19.5190122,15.3486553 18.1838638,15.1142626 17.1478689,14.6454703 C16.111874,14.176678 15.2177862,13.3520881 14.4655786,12.1716759 C13.7133711,10.9912636 13.3372729,9.48035856 13.3372729,7.63891543 C13.3372729,5.18365793 13.9988637,3.29671292 15.3220652,1.9780238 C16.6452666,0.659334673 18.5172096,2.84217094e-14 20.9379502,2.84217094e-14 C22.8321455,2.84217094e-14 24.3211522,0.377726257 25.4050149,1.1331901 C26.4888776,1.88865395 27.2940695,3.04881317 27.8206147,4.61370257 L23.7176851,5.51418399 C23.5740818,5.06225472 23.4236426,4.73174425 23.2663628,4.52264265 C23.0065093,4.17189158 22.6885354,3.90208711 22.3124316,3.71322114 C21.9363279,3.52435518 21.5157818,3.42992362 21.0507808,3.42992362 C19.9976902,3.42992362 19.1907888,3.84812055 18.6300522,4.68452695 C18.2060807,5.30508654 17.9940981,6.27975518 17.9940981,7.60856213 C17.9940981,9.25439408 18.2471096,10.382514 18.7531401,10.9929558 C19.2591707,11.6033976 19.970338,11.9086139 20.8866636,11.9086139 C21.7756361,11.9086139 22.4474841,11.6624173 22.9022278,11.1700167 C23.3569714,10.6776162 23.6869121,9.96263435 23.8920596,9.02504976 Z" stroke-linejoin="square" fill="#F80005" fill-rule="evenodd"></path>
                </g>
                <g id="Path">
                    <use fill="#000000" xlink:href="#path-8"></use>
                    <path d="M1.4,10.1784754 L5.82090674,9.90529564 C5.91664224,10.613543 6.11152945,11.1531519 6.40557422,11.5241386 C6.88425174,12.1244626 7.56806652,12.4246201 8.45703906,12.4246201 C9.12034935,12.4246201 9.63150089,12.2711688 9.99050903,11.9642616 C10.3495172,11.6573544 10.5290186,11.3015498 10.5290186,10.896837 C10.5290186,10.5123598 10.3580649,10.1683591 10.0161523,9.86482457 C9.67423983,9.56128999 8.88101469,9.27462274 7.63645313,9.00481422 C5.59865452,8.55288496 4.14554812,7.95257001 3.27709033,7.20385138 C2.40179429,6.45513274 1.96415283,5.50069943 1.96415283,4.34052281 C1.96415283,3.57831375 2.18810217,2.85827307 2.63600757,2.18037917 C3.08391297,1.50248528 3.75747052,0.969621448 4.65670044,0.581771705 C5.55593036,0.193921963 6.78850649,8.52651283e-14 8.35446582,8.52651283e-14 C10.2760142,8.52651283e-14 11.7410873,0.352432088 12.7497292,1.05730684 C13.7583712,1.76218159 14.3584186,2.88355641 14.5498896,4.42146496 L10.1700122,4.67440918 C10.053762,4.0066331 9.80929817,3.52098506 9.43661353,3.21745047 C9.06392888,2.91391589 8.54935826,2.76215088 7.89288623,2.76215088 C7.35266445,2.76215088 6.94579466,2.8751315 6.67226465,3.10109613 C6.39873463,3.32706077 6.26197168,3.60192407 6.26197168,3.92569429 C6.26197168,4.16177674 6.37480112,4.37424776 6.60046338,4.56311372 C6.81928739,4.7587249 7.33898662,4.94084291 8.15957666,5.10947324 C10.190537,5.54116686 11.6453529,5.97791285 12.5240681,6.4197243 C13.4027833,6.86153574 14.0421501,7.40957607 14.4421877,8.06386172 C14.8422254,8.71814738 15.0422412,9.449992 15.0422412,10.2594176 C15.0422412,11.2104926 14.7755534,12.0873571 14.2421699,12.8900374 C13.7087864,13.6927178 12.9634283,14.3014641 12.0060732,14.7162947 C11.0487182,15.1311253 9.84178511,15.3385375 8.38523779,15.3385375 C5.82773217,15.3385375 4.0566519,14.8528894 3.07194385,13.8815788 C2.0872358,12.9102681 1.52992676,11.6759127 1.4,10.1784754 Z" stroke-linejoin="square" fill="#FFFFFF" fill-rule="evenodd"></path>
                </g>
                <g id="Path">
                    <use fill="#000000" xlink:href="#path-9"></use>
                    <path d="M1.11910481e-13,10.1784754 L4.42090674,9.90529564 C4.51664224,10.613543 4.71152945,11.1531519 5.00557422,11.5241386 C5.48425174,12.1244626 6.16806652,12.4246201 7.05703906,12.4246201 C7.72034935,12.4246201 8.23150089,12.2711688 8.59050903,11.9642616 C8.94951718,11.6573544 9.12901855,11.3015498 9.12901855,10.896837 C9.12901855,10.5123598 8.95806486,10.1683591 8.61615234,9.86482457 C8.27423983,9.56128999 7.48101469,9.27462274 6.23645313,9.00481422 C4.19865452,8.55288496 2.74554812,7.95257001 1.87709033,7.20385138 C1.00179429,6.45513274 0.564152832,5.50069943 0.564152832,4.34052281 C0.564152832,3.57831375 0.788102171,2.85827307 1.23600757,2.18037917 C1.68391297,1.50248528 2.35747052,0.969621448 3.25670044,0.581771705 C4.15593036,0.193921963 5.38850649,2.66453526e-14 6.95446582,2.66453526e-14 C8.87601416,2.66453526e-14 10.3410873,0.352432088 11.3497292,1.05730684 C12.3583712,1.76218159 12.9584186,2.88355641 13.1498896,4.42146496 L8.77001221,4.67440918 C8.65376195,4.0066331 8.40929817,3.52098506 8.03661353,3.21745047 C7.66392888,2.91391589 7.14935826,2.76215088 6.49288623,2.76215088 C5.95266445,2.76215088 5.54579466,2.8751315 5.27226465,3.10109613 C4.99873463,3.32706077 4.86197168,3.60192407 4.86197168,3.92569429 C4.86197168,4.16177674 4.97480112,4.37424776 5.20046338,4.56311372 C5.41928739,4.7587249 5.93898662,4.94084291 6.75957666,5.10947324 C8.79053701,5.54116686 10.2453529,5.97791285 11.1240681,6.4197243 C12.0027833,6.86153574 12.6421501,7.40957607 13.0421877,8.06386172 C13.4422254,8.71814738 13.6422412,9.449992 13.6422412,10.2594176 C13.6422412,11.2104926 13.3755534,12.0873571 12.8421699,12.8900374 C12.3087864,13.6927178 11.5634283,14.3014641 10.6060732,14.7162947 C9.6487182,15.1311253 8.44178511,15.3385375 6.98523779,15.3385375 C4.42773217,15.3385375 2.6566519,14.8528894 1.67194385,13.8815788 C0.687235799,12.9102681 0.129926756,11.6759127 1.11910481e-13,10.1784754 Z" stroke-linejoin="square" fill="#F80005" fill-rule="evenodd"></path>
                </g>
            </g>
            <g id="Premium-Copy">
                <use fill="#000000" xlink:href="#path-10"></use>
                <use fill="#F80005" xlink:href="#path-10"></use>
            </g>
            <g id="®">
                <use fill="#000000" xlink:href="#path-11"></use>
                <use fill="#000000" xlink:href="#path-11"></use>
                <path d="M97.86006,2.57500081 C97.86006,3.03623088 97.7431638,3.46595585 97.5093679,3.86418864 C97.2755719,4.26242142 96.9568159,4.57627815 96.5530903,4.80576823 C96.1493646,5.03525831 95.7137124,5.15000163 95.2461206,5.15000163 C94.7808096,5.15000163 94.3462979,5.03525831 93.9425722,4.80576823 C93.5388466,4.57627815 93.2200906,4.26242142 92.9862946,3.86418864 C92.7524987,3.46595585 92.6356025,3.03623088 92.6356025,2.57500081 C92.6356025,2.11602065 92.7524987,1.68685814 92.9862946,1.28750041 C93.2200906,0.88814267 93.5388466,0.573723478 93.9425722,0.344233398 C94.3462979,0.114743319 94.7808096,0 95.2461206,0 C95.7137124,0 96.1493646,0.114743319 96.5530903,0.344233398 C96.9568159,0.573723478 97.2755719,0.88814267 97.5093679,1.28750041 C97.7431638,1.68685814 97.86006,2.11602065 97.86006,2.57500081 Z M97.3536948,2.57500081 C97.3536948,2.00127561 97.1478434,1.51136664 96.7361345,1.1052592 C96.3244255,0.699151751 95.8277592,0.496101074 95.2461206,0.496101074 C94.6644819,0.496101074 94.1678156,0.699151751 93.7561066,1.1052592 C93.3443977,1.51136664 93.1385463,2.00127561 93.1385463,2.57500081 C93.1385463,3.14872601 93.3443977,3.63863499 93.7561066,4.04474243 C94.1678156,4.45084988 94.6644819,4.65390055 95.2461206,4.65390055 C95.8277592,4.65390055 96.3244255,4.45084988 96.7361345,4.04474243 C97.1478434,3.63863499 97.3536948,3.14872601 97.3536948,2.57500081 Z M94.0623207,1.19806722 L95.3111269,1.19806722 C95.664672,1.19806722 95.9207032,1.26837563 96.0792282,1.40899455 C96.2377533,1.54961347 96.3170146,1.73804 96.3170146,1.97427979 C96.3170146,2.15877181 96.2565707,2.31851251 96.1356811,2.45350667 C96.0147915,2.58850084 95.8243362,2.68637014 95.5643095,2.74711751 C95.6715135,2.78761576 95.7502046,2.83036327 95.8003852,2.87536133 C95.8710942,2.9383586 95.9452235,3.03172817 96.0227753,3.15547282 C96.0273372,3.16447243 96.1778767,3.42995697 96.4743984,3.95193441 L95.6532656,3.95193441 C95.3863961,3.42770707 95.2073453,3.11441281 95.1161079,3.01204224 C95.0248704,2.90967166 94.9336344,2.85848714 94.8423969,2.85848714 C94.8218685,2.85848714 94.7933572,2.86186195 94.7568623,2.86861165 L94.7568623,3.95193441 L94.0623207,3.95193441 L94.0623207,1.19806722 Z M94.7568623,2.3657609 L95.0579443,2.3657609 C95.2586666,2.3657609 95.4000825,2.33370027 95.4821962,2.26957804 C95.5643099,2.20545582 95.6053662,2.12277313 95.6053662,2.02152751 C95.6053662,1.92028188 95.5660206,1.8375992 95.4873283,1.77347697 C95.408636,1.70935474 95.2746331,1.67729411 95.0853154,1.67729411 L94.7568623,1.67729411 L94.7568623,2.3657609 Z" stroke-linejoin="square" fill="#F80005" fill-rule="evenodd"></path>
            </g>
        </g>
        <g id="Ресурс-1" transform="translate(125.000000, 34.000000)" fill="#000000" fill-rule="nonzero">
            <path d="M83.7438961,9.21257143 C83.8309462,9.204 83.9231169,9.18342857 84.0135807,9.18342857 C85.5156215,9.18342857 87.0159555,9.15428571 88.5162894,9.18342857 C89.6923191,9.21085714 90.6584045,9.69771429 91.2575139,10.7571429 C91.6880767,11.4820406 91.8145413,12.3489457 91.609128,13.1674286 C91.3940631,14.0554286 90.9553989,14.7497143 90.1309833,15.1714286 C90.0966385,15.1928185 90.0679461,15.2222237 90.0473469,15.2571429 C90.0342646,15.2804895 90.0255849,15.3060606 90.021744,15.3325714 C90.7283859,16.7417143 91.9283117,19.6765714 91.9487941,20.064 C91.2660482,20.064 90.5952505,20.064 89.921039,20.064 C89.7110946,20.064 89.6667161,19.9268571 89.6086827,19.7965714 C89.3987384,19.3217143 89.2007421,18.8417143 88.9993321,18.3634286 C88.6579592,17.5577143 88.3165863,16.7537143 87.9854545,15.9428571 C87.9377868,15.7979122 87.7949699,15.7068292 87.6440816,15.7251429 C87.1132468,15.7251429 86.580705,15.7251429 86.0498701,15.7251429 C85.8689425,15.7251429 85.7699443,15.7817143 85.7716512,15.9822857 C85.7801855,17.2028571 85.7818924,18.4217143 85.7887199,19.6405714 C85.7887199,19.7485714 85.7972542,19.8565714 85.8057885,20.0194286 C85.1269787,20.0707207 84.4454468,20.0747303 83.7660853,20.0314286 C83.7353618,16.428 83.7660853,12.8331429 83.7438961,9.21257143 Z M87.1456772,13.8137143 L87.1456772,13.7931429 L88.2090538,13.7931429 C88.5264409,13.7912394 88.831347,13.6687467 89.0624861,13.4502857 C89.4778065,13.1113123 89.6517476,12.556193 89.504564,12.0394286 C89.3799629,11.5577143 88.9925046,11.3228571 88.5231169,11.2165714 C88.3633263,11.1812182 88.2002784,11.1628315 88.0366605,11.1617143 C87.3829314,11.1531429 86.7274954,11.1617143 86.0737662,11.1617143 C85.798961,11.1617143 85.7784787,11.1942857 85.7801855,11.4617143 C85.7801855,12.1474286 85.7801855,12.8331429 85.7801855,13.5188571 C85.7801855,13.7725714 85.8194434,13.8154286 86.0840074,13.8154286 C86.4390353,13.812 86.7923562,13.8137143 87.1456772,13.8137143 Z" id="Shape"></path>
            <path d="M68.5323191,12.1817143 L66.5318738,12.7988571 C66.4777894,12.6759935 66.4343871,12.5486619 66.4021521,12.4182857 C66.1990353,11.2028571 64.7806308,10.7657143 63.9681633,10.9285714 C63.6585679,10.9836109 63.3662118,11.1110451 63.114731,11.3005714 C62.5890167,11.7085714 62.5548794,12.3102857 63.0669388,12.7234286 C63.2690546,12.8829716 63.5013332,12.9996159 63.7496846,13.0662857 C64.5109462,13.2737143 65.2858627,13.4382857 66.0471243,13.6371429 C66.6603579,13.7805172 67.2340992,14.0592654 67.726679,14.4531429 C68.3012308,14.9304787 68.654928,15.6242098 68.7047124,16.3714286 C68.8191052,17.2065915 68.6188365,18.0545559 68.143154,18.7491429 C67.7632379,19.3111167 67.2104722,19.7326117 66.5694249,19.9491429 C65.3464362,20.3668545 64.022083,20.3782744 62.7921336,19.9817143 C61.6263451,19.6148571 60.8446011,18.8091429 60.3393692,17.7188571 C60.1857514,17.388 60.0765121,17.0331429 59.9280148,16.6405714 L61.9369944,16.1691429 C62.0120965,16.3405714 62.0871985,16.512 62.15718,16.6937143 C62.4353989,17.3914286 62.887718,17.9297143 63.618256,18.1422857 C64.3214842,18.348 65.0486085,18.3857143 65.7381818,18.0771429 C66.2446961,17.8902377 66.5603153,17.3819219 66.504564,16.8428571 C66.5079429,16.6212351 66.4120797,16.4097967 66.2434137,16.2668571 C65.959691,16.0317819 65.6291011,15.8605072 65.2739147,15.7645714 C64.236141,15.4902857 63.1642301,15.3342857 62.1810761,14.8731429 C61.2969202,14.4582857 60.8155844,13.7434286 60.644898,12.7902857 C60.5639761,12.3158165 60.5720807,11.8303351 60.6687941,11.3588571 C60.7694198,10.8727344 61.0097612,10.4269147 61.3600742,10.0765714 C61.9153225,9.52197201 62.6334038,9.16137031 63.4083117,9.048 C64.4048538,8.84300426 65.4400825,8.95134685 66.3731354,9.35828571 C67.0851851,9.65594841 67.6609878,10.2098019 67.9878293,10.9114286 C68.1414471,11.2422857 68.3138404,11.5645714 68.4486827,11.904 C68.4794063,11.9708571 68.4947681,12.0497143 68.5323191,12.1817143 Z" id="Path"></path>
            <path d="M26.6373284,18.0754286 L26.6373284,20.0434286 L19.3558442,20.0434286 L19.3558442,9.20914286 L26.4768831,9.20914286 L26.4768831,11.1514286 L21.5064935,11.1514286 C21.4774768,11.928 21.5064935,12.6668571 21.487718,13.4417143 L25.394731,13.4417143 C25.5142115,13.7691429 25.5244527,14.9194286 25.4186271,15.3548571 L21.8717625,15.3548571 C21.513321,15.3548571 21.4894249,15.3754286 21.4894249,15.7114286 L21.4894249,17.808 C21.4894249,17.8748571 21.5013729,17.9417143 21.513321,18.0651429 C22.3667532,18.0925714 23.2201855,18.0651429 24.0736178,18.0771429 C24.9270501,18.0891429 25.7736549,18.0754286 26.6373284,18.0754286 Z" id="Path"></path>
            <path d="M83.4946939,20.0657143 C82.7658627,20.0657143 82.1138404,20.0657143 81.4618182,20.0657143 C81.3345077,20.0694604 81.2226091,19.9815695 81.1955473,19.8565714 C80.9531725,19.1297143 80.7039703,18.4062857 80.456475,17.6828571 C80.4267032,17.5641231 80.383763,17.4491182 80.3284601,17.34 C80.2758176,17.2528862 80.190178,17.1910071 80.0912059,17.1685714 C79.1524304,17.1565714 78.2136549,17.1685714 77.2612245,17.1685714 C77.0649351,17.8182857 76.8805937,18.432 76.6962523,19.044 C76.6177365,19.3062857 76.5409276,19.5685714 76.4624119,19.8308571 C76.4197403,19.968 76.36,20.0862857 76.1876067,20.0862857 L74.3578479,20.0862857 C75.5389981,16.4228571 76.7013729,12.8245714 77.8637477,9.216 L79.9922078,9.216 C81.149462,12.7868571 82.3596289,16.3782857 83.4946939,20.0657143 Z M78.8571429,12.6085714 C78.7717996,12.6805714 78.7103525,12.7062857 78.6966976,12.7474286 C78.4338404,13.5737143 78.1846382,14.4034286 77.9047124,15.2828571 C78.5023533,15.346253 79.1044663,15.355433 79.7037477,15.3102857 C79.4204082,14.3845714 79.1490167,13.5154286 78.8571429,12.6085714 Z" id="Shape"></path>
            <path d="M13.5695733,20.0417143 C12.3645269,16.4417143 11.1577737,12.8417143 9.93395176,9.18171429 L11.5025603,9.18171429 C12.1955473,9.18171429 12.2040816,9.18171429 12.4276809,9.84171429 C13.0284972,11.6165714 13.6247619,13.3925714 14.216475,15.1697143 C14.3154731,15.4662857 14.3974026,15.7697143 14.4946939,16.0697143 C14.5313378,16.1462426 14.5759663,16.2186482 14.6278293,16.2857143 C14.6891637,16.2092098 14.7423657,16.1264743 14.7865677,16.0388571 C15.249697,14.6354286 15.7099814,13.232 16.1674212,11.8285714 C16.4541744,10.9594286 16.7443414,10.092 17.0396289,9.20571429 L19.0383673,9.20571429 C19.0057345,9.40279397 18.9624297,9.5979406 18.9086456,9.79028571 C18.0426964,12.3834286 17.1733333,14.9765714 16.3005566,17.5697143 C16.0274583,18.384 15.7526531,19.1982857 15.4693135,20.0417143 L13.5695733,20.0417143 Z" id="Path"></path>
            <path d="M0,9.20914286 L6.96742115,9.20914286 L6.96742115,11.1428571 C6.83428571,11.1531429 6.69261596,11.1702857 6.54923933,11.1702857 C5.1974026,11.1702857 3.84613482,11.1702857 2.49543599,11.1702857 C2.1387013,11.1702857 2.13358071,11.1874286 2.1387013,11.5388571 C2.14894249,12.0531429 2.1387013,12.5794286 2.1387013,13.1005714 C2.1387013,13.3748571 2.18649351,13.4434286 2.45959184,13.4434286 L6.02011132,13.4228571 C6.05595547,13.4228571 6.09179963,13.452 6.14983302,13.4777143 L6.14983302,15.336 L5.68556586,15.336 C4.60853432,15.336 3.52979592,15.336 2.44252319,15.324 C2.15918367,15.324 2.12846011,15.3548571 2.13016698,15.6548571 C2.13927025,17.0674286 2.14552876,18.4794286 2.14894249,19.8908571 C2.14176253,19.9432868 2.12976323,19.994936 2.11309833,20.0451429 C1.40912981,20.0837 0.703489388,20.0796928 0,20.0331429 L0,9.20914286 Z" id="Path"></path>
            <path d="M68.3428571,9.204 L76.1090909,9.204 L76.1090909,11.1634286 L73.2927644,11.1634286 L73.2927644,20.0382857 C72.5880883,20.0821431 71.8815922,20.0884377 71.1762523,20.0571429 C71.1580439,19.96665 71.1460674,19.8750042 71.1404082,19.7828571 C71.1404082,17.016 71.1443908,14.2485714 71.1523562,11.4805714 C71.1523562,11.1977143 71.1148052,11.1668571 70.8109833,11.1685714 C70.1828571,11.1685714 69.5564378,11.1788571 68.9334323,11.1805714 C68.7627458,11.1805714 68.5818182,11.1617143 68.3530983,11.1497143 L68.3428571,9.204 Z" id="Path"></path>
            <path d="M7.6057885,9.204 L9.69499072,9.204 C9.71717996,9.50742857 9.75985158,9.79028571 9.75814471,10.0748571 C9.75814471,13.3902857 9.73595547,16.704 9.72400742,20.0485714 L7.6057885,20.0485714 L7.6057885,9.204 Z" id="Path"></path>
            <path d="M57.8149165,9.47657143 C54.7015955,9.47657143 51.5899814,9.51085714 48.4766605,9.504 C47.8451206,9.504 47.9014471,9.63428571 47.5634879,8.94342857 C46.1689796,6.07885714 44.7488683,3.22628571 43.3372913,0.372 C43.2792579,0.257142857 43.202449,0.150857143 43.1102783,0.00171428567 C42.9583673,0.301714286 42.8337662,0.543428571 42.7125788,0.785142857 L40.3980705,5.41371429 C39.7801855,6.64971429 39.1469388,7.87714286 38.5546568,9.12514286 C38.4692343,9.38500773 38.2144346,9.54941764 37.9435993,9.51942857 C34.7227458,9.50742857 31.5001855,9.51942857 28.2776252,9.51942857 L27.7962894,9.51942857 L36.5012987,20.616 C36.6054174,20.4977143 36.6719852,20.424 36.7300186,20.3588571 C36.7675696,20.3211429 36.8034137,20.28 36.8409647,20.2422857 C37.4692006,19.4681623 38.2298519,18.8127603 39.0871985,18.3068571 C40.8436528,17.2171408 42.9567752,16.8660912 44.9690538,17.3297143 C46.5450789,17.6532767 47.9867916,18.4480826 49.1047866,19.6097143 C50.8918738,21.4611429 51.7623748,23.6862857 51.4756215,26.2954286 C51.4585529,26.4514286 51.4363636,26.604 51.4124675,26.7548571 C51.4124675,26.7548571 51.4124675,26.7668571 51.4124675,26.7737143 C51.4005195,26.844 51.3885714,26.9142857 51.3749165,26.9845714 C50.6778531,30.8203073 47.41995,33.6539609 43.5404082,33.7988571 L43.378256,33.7988571 C42.870799,33.8369073 42.3605291,33.798774 41.8642672,33.6857143 L41.7720965,33.6668571 C41.1520429,33.5562614 40.5466901,33.3744987 39.9679406,33.1251429 L39.8296846,33.0754286 C38.8055659,32.5611429 38.2781447,32.2182857 37.7814471,31.7417143 C37.2878255,31.306407 36.8467194,30.8144779 36.4671614,30.276 L34.657885,31.572 C35.1320904,32.2601932 35.6925694,32.8841829 36.3254917,33.4285714 C38.223525,35.0828571 40.1010761,35.8542857 42.584564,35.964 C43.4654982,35.9848206 44.346249,35.9153179 45.2131354,35.7565714 C46.7302575,35.4699787 48.1657212,34.8506837 49.4171429,33.9428571 C50.6858432,33.0044266 51.7234528,31.7863707 52.4502412,30.3822857 C53.074254,29.2193502 53.4634679,27.9440991 53.5955473,26.6297143 C53.7060093,25.7307465 53.6777991,24.8200472 53.5119109,23.9297143 C53.3921234,23.2437575 53.2302316,22.5658934 53.0271614,21.9 C52.212987,19.5222857 50.637551,17.748 48.5449351,16.4228571 C47.4591812,15.730919 46.240995,15.275398 44.9690538,15.0857143 C44.1839449,14.9739373 43.3893755,14.9446362 42.5982189,14.9982857 C41.7407269,15.0267719 40.8902445,15.1638554 40.0669388,15.4062857 C38.8584787,15.7868571 37.7217069,16.3097143 36.7590353,17.1428571 C36.7231746,17.1623493 36.6836262,17.1740318 36.6429685,17.1771429 C36.3528015,16.8102857 36.0626345,16.4485714 35.7775881,16.0851429 C35.4925417,15.7217143 35.2074954,15.3497143 34.9241558,14.9828571 C34.6408163,14.616 34.3540631,14.2474286 34.0707236,13.8822857 C33.787384,13.5171429 33.4716141,13.1674286 33.2036364,12.7885714 C32.9356586,12.4097143 32.5823377,12.1234286 32.3502041,11.64 L39.7187384,11.64 C39.7699443,11.556 39.8006679,11.5097143 39.824564,11.4685714 C40.379295,10.3851429 40.9408534,9.30514286 41.4836364,8.21142857 C41.9820408,7.20857143 42.4599629,6.19542857 42.9430056,5.18571429 C43.001039,5.06571429 43.0778479,5.02457143 43.1870872,5.06571429 C44.2783426,7.27028571 45.3593568,9.45485714 46.4301299,11.6194286 C46.4743739,11.631767 46.5194347,11.6409329 46.5649722,11.6468571 C49.7727396,11.6537143 52.9810761,11.6571429 56.1899814,11.6571429 C56.3397079,11.6667695 56.4847829,11.6028634 56.5791466,11.4857143 C57.0263451,10.9714286 57.4803711,10.4571429 57.9326902,9.94285714 C58.0521707,9.80571429 58.1682375,9.66514286 58.3235622,9.48 L57.8149165,9.47657143 Z" id="Path"></path>
        </g>
    </g>
</svg>