<?xml version="1.0" encoding="UTF-8"?>
<svg width="224px" height="75px" viewBox="0 0 224 75" version="1.1" xmlns="http://www.w3.org/2000/svg" xmlns:xlink="http://www.w3.org/1999/xlink">
    <!-- Generator: Sketch 58 (84663) - https://sketch.com -->
    <title>LOGOS/logo_teckwrap</title>
    <desc>Created with Sketch.</desc>
    <defs>
        <rect id="path-1" x="0" y="0" width="224" height="75"></rect>
    </defs>
    <g id="LOGOS/logo_teckwrap" stroke="none" stroke-width="1" fill="none" fill-rule="evenodd">
        <mask id="mask-2" fill="white">
            <use xlink:href="#path-1"></use>
        </mask>
        <g id="Background"></g>
        <rect id="Rectangle" fill="#D8D8D8" opacity="0" mask="url(#mask-2)" x="0" y="7.10542736e-15" width="224" height="75"></rect>
        <g id="Ресурс-1" mask="url(#mask-2)">
            <g transform="translate(37.000000, 22.000000)">
                <path d="M56.1023622,0 C57.132874,0.177165354 58.1840551,0.274606299 59.1879921,0.552165354 C60.6879921,0.965551181 62.1702756,1.47047244 63.617126,2.02854331 C64.4077215,2.36410624 65.07218,2.9407281 65.515748,3.6761811 C67.148622,6.05610236 68.8464567,8.40059055 70.5354331,10.7244094 C70.7089663,10.9087799 70.9496025,11.0152561 71.2027559,11.019685 C74.0551181,11.0403543 76.9074803,11.019685 79.765748,11.019685 C80.613189,11.019685 80.7135827,11.1732283 80.3858268,11.9734252 L76.3700787,21.7913386 C76.2992126,21.9655512 76.2372047,22.1427165 76.1633858,22.3346457 C76.7125984,22.4645669 76.9547244,22.2253937 77.1348425,21.7824803 C78.4990157,18.4222441 79.8897638,15.0708661 81.2509843,11.7106299 C81.3711155,11.2531307 81.808415,10.9528014 82.2785433,11.0049213 C84.9360236,11.0344488 87.5935039,11.0049213 90.2509843,11.0049213 C91.2047244,11.0049213 91.3080709,11.1555118 90.9507874,12.0265748 C89.6102362,15.2805118 88.2706693,18.5354331 86.9320866,21.7913386 C86.8641732,21.9537402 86.8110236,22.1220472 86.7490157,22.2933071 C87.773622,22.4438976 88.2253937,22.1427165 88.5206693,21.3927165 C89.8198819,18.144685 91.1781496,14.8966535 92.4950787,11.6633858 C92.6158908,11.2249959 93.0384987,10.9403312 93.4901575,10.9931102 C96.2007874,11.019685 98.9114173,10.9931102 101.625,10.9931102 C102.401575,10.9931102 102.581693,11.2706693 102.283465,11.988189 L101.654528,13.5177165 C101.654528,13.5472441 101.654528,13.5856299 101.654528,13.6653543 L102.227362,13.6653543 C110.483268,13.6653543 118.740157,13.6653543 126.998031,13.6653543 C133.452756,13.6653543 139.908465,13.6712598 146.365157,13.6830709 C148.570866,13.6830709 150.451772,15.9242126 149.808071,17.9675197 C149.263156,19.6208656 148.5601,21.2178211 147.708661,22.7362205 C147.059055,23.9173228 145.872047,24.507874 144.484252,24.507874 C142.594488,24.507874 140.701772,24.5285433 138.812008,24.507874 C138.456826,24.4507184 138.116516,24.6733273 138.026575,25.0216535 C137.512795,26.3474409 136.931102,27.6466535 136.405512,28.9694882 C136.289815,29.3915537 135.887445,29.6693507 135.451772,29.6279528 C130.582677,29.6279528 125.707677,29.6279528 120.847441,29.6279528 C120.08563,29.6279528 119.937992,29.4124016 120.218504,28.7244094 C120.776575,27.3602362 121.337598,25.9990157 121.90748,24.5905512 C121.387795,24.4281496 121.074803,24.5167323 120.841535,25.0393701 C120.233268,26.4035433 119.557087,27.7352362 118.92815,29.0905512 C118.804085,29.4339967 118.465334,29.6517651 118.101378,29.6220472 C113.875,29.6220472 109.648622,29.6220472 105.422244,29.6220472 C104.74311,29.6220472 104.607283,29.4271654 104.698819,28.7185039 C104.878937,27.3454724 105.044291,25.9694882 105.215551,24.5846457 C104.79626,24.4311024 104.57185,24.5108268 104.409449,24.9271654 C103.866142,26.2972441 103.275591,27.6496063 102.726378,29.019685 C102.611756,29.4245144 102.220012,29.6860943 101.802165,29.636811 C99.4133858,29.613189 97.0246063,29.636811 94.632874,29.636811 C93.8533465,29.636811 93.7086614,29.4212598 94.003937,28.6978346 C94.1633858,28.3021654 94.3257874,27.9094488 94.5324803,27.4015748 C94.1397638,27.6318898 93.8503937,27.8120079 93.5521654,27.9744094 C91.5679593,29.0836961 89.3292658,29.6576157 87.0561024,29.6397638 C85.4320866,29.6220472 83.8080709,29.6397638 82.1870079,29.6397638 C81.436091,29.6446851 80.6966415,29.4555 80.0403543,29.0905512 C79.8546233,29.0038571 79.6418652,28.9953468 79.4498031,29.0669291 C78.6782192,29.4401774 77.8325125,29.6349523 76.9753937,29.636811 C72.605315,29.636811 68.238189,29.6574803 63.8681102,29.636811 C62.6789753,29.6175401 61.4939244,29.7808581 60.3543307,30.121063 C58.0776789,30.8400581 55.7195762,31.2696157 53.3356299,31.3996063 C51.1003289,31.5020641 48.8795447,30.991539 46.9133858,29.9232283 C46.5887685,29.7532072 46.2286221,29.662159 45.8622047,29.6574803 C35.7677165,29.6417323 25.6742126,29.6417323 15.5816929,29.6574803 C15.4370079,29.6574803 15.2864173,29.6574803 15.1535433,29.6574803 C14.5629921,29.6338583 14.4094488,29.4035433 14.625,28.863189 C15.0767717,27.7234252 15.5521654,26.5895669 16.015748,25.4557087 C16.9291339,23.2352362 17.8395669,21.0137795 18.7470472,18.7913386 C18.8120079,18.6318898 18.8622047,18.4694882 18.9419291,18.2391732 C18.1948819,18.2391732 17.503937,18.2125984 16.8159449,18.2627953 C16.6653543,18.2627953 16.4793307,18.5344488 16.4025591,18.7204724 C15.2450787,21.5108268 14.1023622,24.3100394 12.9537402,27.1062992 C12.6968504,27.7559055 12.4015748,28.390748 12.1505906,29.0551181 C12.0537262,29.4309918 11.6985396,29.6811232 11.3120079,29.6456693 C8.54527559,29.6456693 5.78149606,29.6456693 3.01771654,29.6456693 C2.34448819,29.6456693 2.19389764,29.4153543 2.45374016,28.7775591 C3.80019685,25.4783465 5.1476378,22.1850394 6.49606299,18.8976378 C6.5757874,18.7027559 6.64665354,18.5049213 6.74704724,18.2450787 C6.50787402,18.2450787 6.31889764,18.2185039 6.13287402,18.2185039 C4.42027559,18.2185039 2.71062992,18.2185039 0.998031496,18.2185039 C0.268700787,18.2185039 0.144685039,18.0324803 0.434055118,17.3326772 C1.23425197,15.4133858 2.05807087,13.4940945 2.84940945,11.5777559 C2.96667371,11.1972402 3.34010899,10.955752 3.73523622,11.0049213 C8.67519685,11.0049213 13.6151575,11.0049213 18.5551181,11.0049213 C20.5334646,11.0049213 22.511811,11.0049213 24.4901575,11.0049213 C25.1751969,11.0049213 25.2933071,11.1732283 25.0511811,11.8051181 C24.8090551,12.4370079 24.5816929,12.9862205 24.3188976,13.6417323 C24.5374016,13.6417323 24.7027559,13.6771654 24.8681102,13.6771654 C28.0600394,13.6771654 31.2549213,13.7450787 34.4438976,13.6476378 C35.8169291,13.6033465 37.1870079,13.257874 38.5482283,12.9950787 C42.2633508,12.239041 46.0155442,11.6782324 49.7893701,11.3149606 C50.6751969,11.238189 51.5433071,11.105315 52.511811,10.9872047 C52.1988189,10.6062992 51.9212598,10.3021654 51.6879921,9.98326772 C49.6683071,7.3257874 47.0403543,5.38582677 44.1200787,3.82677165 C43.8804635,3.70574518 43.6504613,3.56655929 43.4320866,3.41043307 C43.0334646,3.11515748 43.0098425,2.81988189 43.4498031,2.59547244 C44.5773905,1.98359192 45.7466133,1.4517682 46.9488189,1.00393701 C48.1860236,0.584645669 49.5,0.392716535 50.7874016,0.0974409449 C50.8877953,0.0738188976 50.9852362,0.032480315 51.0826772,0 L56.1023622,0 Z M14.9970472,29.1643701 L39.2716535,29.1643701 C44.0885827,29.1643701 48.9025591,29.1643701 53.7135827,29.1643701 C54.0326911,29.2127499 54.3369705,29.0128677 54.4192913,28.7007874 C54.992126,27.2627953 55.6181102,25.8484252 56.1909449,24.4074803 C56.3976378,23.878937 56.7992126,24.0974409 57.1240157,24.0915354 C57.4488189,24.0856299 57.5108268,24.386811 57.4812992,24.6820866 C57.386811,25.5856299 57.2893701,26.4891732 57.1860236,27.3897638 C57.1269685,27.9655512 57.0797244,28.5383858 57.0206693,29.1614173 L57.738189,29.1614173 C60.8877953,29.1614173 64.0433071,29.1614173 67.2047244,29.1614173 C70.4320866,29.1614173 73.6594488,29.1614173 76.8897638,29.1614173 C77.8025329,29.1858698 78.7038405,28.9536373 79.4911417,28.4911417 C79.6684716,28.4194574 79.8689596,28.4336223 80.0344488,28.5295276 C80.6426644,28.9467633 81.3638166,29.16826 82.101378,29.1643701 C83.9379921,29.1643701 85.7746063,29.1820866 87.6112205,29.1643701 C88.2754332,29.1518151 88.9369172,29.0756802 89.5866142,28.9370079 C91.9068902,28.5128991 94.0447183,27.3971525 95.7194882,25.7362205 C95.2322835,26.9438976 94.8011811,28.015748 94.3582677,29.105315 C94.4377378,29.127547 94.5186351,29.1443185 94.6003937,29.1555118 C97.0068898,29.1555118 99.4163386,29.1555118 101.822835,29.1555118 C102.147638,29.1555118 102.23622,28.984252 102.339567,28.7362205 C102.930118,27.3031496 103.526575,25.8759843 104.128937,24.4547244 C104.193898,24.3011811 104.350394,24.0974409 104.483268,24.0826772 C104.90083,24.0513539 105.319909,24.0454375 105.738189,24.0649606 C105.566929,25.7687008 105.401575,27.4251969 105.233268,29.105315 C105.401575,29.1230315 105.528543,29.1466535 105.643701,29.1466535 C109.759843,29.1466535 113.878937,29.1466535 117.998031,29.1466535 C118.264288,29.1596823 118.506263,28.9927196 118.588583,28.7391732 C119.105315,27.628937 119.645669,26.5246063 120.174213,25.4143701 C120.876969,23.9379921 120.876969,23.9379921 122.613189,24.0944882 L120.575787,29.1141732 C120.779528,29.1141732 120.900591,29.1437008 121.021654,29.1437008 C125.816929,29.1437008 130.612205,29.1437008 135.40748,29.1437008 C135.675586,29.1780804 135.927851,29.0090627 135.998031,28.7480315 C136.567913,27.3277559 137.179134,25.9251969 137.740157,24.5049213 C137.822674,24.1921987 138.129835,23.993824 138.448819,24.0472441 C140.427165,24.0472441 142.405512,24.0472441 144.386811,24.0472441 C145.499225,24.0901275 146.55833,23.5694564 147.20374,22.6624016 C148.227173,21.1796233 148.966099,19.5195428 149.382874,17.7667323 C149.858268,15.9064961 148.201772,14.1112205 146.199803,14.1082677 C139.833661,14.1082677 133.46752,14.1082677 127.101378,14.1082677 L101.412402,14.1082677 C101.229331,14.1082677 101.043307,14.0905512 100.82185,14.0787402 C101.182087,13.1781496 101.518701,12.3336614 101.875984,11.4212598 C99.0620079,11.4212598 96.3543307,11.4212598 93.6437008,11.4212598 C93.2900122,11.3690944 92.9538741,11.5919132 92.8641732,11.9379921 C91.5295276,15.2352362 90.1751969,18.5246063 88.8011811,21.8061024 C88.6861548,22.1015176 88.4790935,22.3520618 88.2106299,22.5206693 C87.5433071,22.8779528 86.7992126,22.8809055 85.9812992,22.8159449 C87.5521654,18.9773622 89.0905512,15.230315 90.6525591,11.4183071 C87.8474409,11.4183071 85.136811,11.4183071 82.4261811,11.4183071 C82.0560372,11.3676461 81.7067467,11.6026233 81.6141732,11.9645669 C80.2559055,15.3287402 78.8779528,18.6830709 77.480315,22.0275591 C77.363936,22.3352984 77.1363422,22.5881803 76.8425197,22.7362205 C76.4320866,22.8838583 75.9566929,22.851378 75.4104331,22.9045276 C76.9990157,19.0393701 78.5433071,15.2834646 80.0905512,11.515748 L63.6023622,11.515748 C65.0255906,12.351378 66.5226378,13.0275591 67.9340551,14.1466535 C66.4163386,14.1466535 65.0610236,14.1614173 63.7086614,14.1466535 C63.3732255,14.1045129 63.048861,14.2833904 62.9055118,14.5895669 C62.3149606,15.6230315 61.5974409,16.5974409 61.0866142,17.6663386 C60.5757874,18.7352362 59.7726378,19.1220472 58.6417323,18.9448819 L58.4645669,18.8976378 C59.0994094,17.3238189 59.7283465,15.7588583 60.3809055,14.1437008 L48.2007874,14.1437008 C46.2933071,14.1437008 44.382874,14.1732283 42.4783465,14.1437008 C40.5738189,14.1141732 38.734252,14.1998031 36.8681102,14.1702756 C32.6781496,14.1082677 28.488189,14.1525591 24.2982283,14.1525591 L23.6220472,14.1525591 L24.6643701,11.4950787 C24.4990157,11.4950787 24.398622,11.4655512 24.2952756,11.4655512 C17.4822835,11.4655512 10.6692913,11.4655512 3.85629921,11.4655512 C3.57207001,11.4431516 3.31242068,11.6270182 3.23917323,11.9025591 C2.48326772,13.6948819 1.71850394,15.496063 0.962598425,17.3001969 C0.906496063,17.4360236 0.86515748,17.5807087 0.797244094,17.7785433 L7.45866142,17.7785433 C5.90551181,21.5905512 4.35826772,25.3435039 2.79035433,29.1614173 L3.30413386,29.1614173 C5.88779528,29.1614173 8.47440945,29.1614173 11.0610236,29.1614173 C11.4103817,29.2052462 11.7379019,28.9826841 11.8257874,28.6417323 C13.2283465,25.1811024 14.6633858,21.7352362 16.0659449,18.2716535 C16.1441069,17.9242723 16.4792504,17.697824 16.8307087,17.7549213 C17.4891732,17.7933071 18.1505906,17.7549213 18.8120079,17.7549213 C19.4261811,17.7549213 19.5679134,17.9734252 19.3316929,18.5492126 L16.8720472,24.5816929 L14.9970472,29.1643701 L14.9970472,29.1643701 Z M43.886811,2.99409449 C44.0846457,3.1269685 44.1820866,3.20374016 44.2824803,3.25984252 C47.2795276,4.89271654 50.0787402,6.80314961 52.1190945,9.58759843 C52.9311024,10.6948819 53.7874016,11.0639764 55.1574803,10.8425197 C57.3366142,10.4704724 59.515748,10.1545276 61.5620079,9.28051181 C62.7162546,8.84451167 63.747655,8.13529726 64.5679134,7.21358268 C65.7490157,5.79330709 65.4980315,3.91830709 63.9773622,2.8996063 C63.4493953,2.55717024 62.8885396,2.26833452 62.3031496,2.03740157 C60.173471,1.22534734 57.9339447,0.737628263 55.6594488,0.590551181 C51.8562992,0.271653543 48.2037402,0.80019685 44.7490157,2.4773622 C44.4832677,2.60728346 44.2352362,2.7726378 43.886811,2.98228346 L43.886811,2.99409449 Z" id="Shape" fill="#0A0A0A"></path>
                <path d="M14.9970472,29.1643701 L16.8720472,24.5816929 L19.3435039,18.5610236 C19.5797244,17.9704724 19.4379921,17.769685 18.8238189,17.7667323 C18.1624016,17.7667323 17.5009843,17.7933071 16.8425197,17.7667323 C16.4887843,17.7023144 16.1468615,17.9272294 16.0659449,18.2775591 C14.6633858,21.7293307 13.2283465,25.1751969 11.8110236,28.6417323 C11.734454,28.9913713 11.4045068,29.2254036 11.0492126,29.1820866 C8.46259843,29.1555118 5.87598425,29.1820866 3.28937008,29.1820866 L2.79035433,29.1820866 C4.35826772,25.3435039 5.90551181,21.5905512 7.45866142,17.7785433 L0.797244094,17.7785433 C0.86515748,17.5807087 0.906496063,17.4360236 0.962598425,17.3001969 C1.71850394,15.496063 2.48326772,13.6948819 3.23031496,11.8877953 C3.30295322,11.615738 3.55756972,11.4328096 3.83858268,11.4507874 C10.6535433,11.4625984 17.4665354,11.4625984 24.2775591,11.4507874 C24.3779528,11.4507874 24.4812992,11.4507874 24.6466535,11.480315 L23.6043307,14.1377953 L24.2805118,14.1377953 C28.4734252,14.1377953 32.6633858,14.0935039 36.8533465,14.1555118 C38.7253937,14.1850394 40.5974409,14.0905512 42.4635827,14.128937 C44.3297244,14.1673228 46.2785433,14.128937 48.1860236,14.128937 L60.3779528,14.128937 C59.7253937,15.7440945 59.0964567,17.3090551 58.4616142,18.882874 L58.6269685,18.9183071 C59.757874,19.0954724 60.5433071,18.7411417 61.0688976,17.6397638 C61.5944882,16.5383858 62.3031496,15.6023622 62.8937008,14.5688976 C63.03705,14.2627211 63.3614145,14.0838436 63.6968504,14.1259843 C65.0492126,14.1496063 66.4015748,14.1259843 67.9222441,14.1259843 C66.5108268,13.0068898 65.0137795,12.3307087 63.5905512,11.4950787 L80.0787402,11.4950787 C78.5285433,15.2746063 76.9872047,19.0305118 75.398622,22.9074803 C75.8808348,22.906077 76.36131,22.8496088 76.8307087,22.7391732 C77.1268191,22.5983462 77.3595772,22.3518965 77.4832677,22.0482283 C78.882874,18.7017717 80.2608268,15.3474409 81.617126,11.9852362 C81.7085211,11.6224626 82.0586653,11.3869111 82.4291339,11.4389764 C85.1397638,11.4596457 87.8474409,11.4389764 90.6555118,11.4389764 C89.0935039,15.2509843 87.5551181,19.0068898 85.984252,22.8366142 C86.8021654,22.886811 87.5462598,22.8838583 88.2135827,22.5413386 C88.4820463,22.3727311 88.6891076,22.1221869 88.8041339,21.8267717 C90.1820866,18.5433071 91.5354331,15.253937 92.8641732,11.9586614 C92.9563203,11.6129813 93.2925548,11.3909396 93.6466535,11.4419291 C96.3543307,11.4625984 99.0649606,11.4419291 101.878937,11.4419291 C101.521654,12.3277559 101.185039,13.1870079 100.824803,14.0994094 C101.043307,14.0994094 101.229331,14.128937 101.415354,14.128937 L127.104331,14.128937 C133.470472,14.128937 139.836614,14.128937 146.202756,14.128937 C148.207677,14.128937 149.858268,15.9271654 149.385827,17.7874016 C148.969052,19.5402121 148.230126,21.2002926 147.206693,22.6830709 C146.562919,23.5930566 145.503717,24.1171059 144.389764,24.0767717 C142.408465,24.0767717 140.430118,24.0767717 138.451772,24.0767717 C138.13367,24.0231004 137.826872,24.2199624 137.74311,24.5314961 C137.182087,25.9547244 136.562008,27.3572835 136.000984,28.7775591 C135.930804,29.0385902 135.678539,29.2076079 135.410433,29.1732283 C130.615157,29.1732283 125.819882,29.1732283 121.024606,29.1732283 C120.903543,29.1732283 120.78248,29.1584646 120.57874,29.1437008 L122.616142,24.1240157 C120.879921,23.9704724 120.879921,23.9704724 120.174213,25.4438976 C119.645669,26.5541339 119.108268,27.6584646 118.591535,28.7687008 C118.509216,29.0222471 118.267241,29.1892099 118.000984,29.1761811 C113.88189,29.1761811 109.762795,29.1761811 105.646654,29.1761811 C105.522638,29.1761811 105.404528,29.1525591 105.23622,29.1348425 C105.404528,27.4547244 105.569882,25.7982283 105.741142,24.0944882 C105.322862,24.074965 104.903782,24.0808815 104.48622,24.1122047 C104.353346,24.1122047 104.190945,24.3307087 104.13189,24.4812992 C103.523622,25.9045276 102.927165,27.3326772 102.34252,28.765748 C102.239173,29.0137795 102.150591,29.1850394 101.825787,29.1850394 C99.4192913,29.1702756 97.0098425,29.1850394 94.6033465,29.1850394 C94.5215371,29.1741429 94.4406191,29.1573672 94.3612205,29.1348425 C94.8041339,28.0452756 95.2470472,26.9734252 95.7224409,25.765748 C94.0426093,27.4158107 91.9042596,28.521002 89.5866142,28.9370079 C88.9412506,29.0696278 88.2847747,29.140812 87.6259843,29.1496063 C85.7893701,29.1791339 83.9527559,29.1496063 82.1161417,29.1496063 C81.3785804,29.1534963 80.6574282,28.9319995 80.0492126,28.5147638 C79.8841352,28.4175256 79.683015,28.403316 79.5059055,28.476378 C78.7184216,28.938431 77.8172428,29.1706304 76.9045276,29.1466535 C73.6742126,29.1466535 70.4468504,29.1466535 67.2194882,29.1466535 C64.0698819,29.1466535 60.9143701,29.1466535 57.7529528,29.1466535 L57.0354331,29.1466535 C57.0944882,28.5206693 57.1417323,27.9478346 57.2007874,27.375 C57.2923228,26.4744094 57.3897638,25.5708661 57.496063,24.6673228 C57.5255906,24.3720472 57.496063,24.0767717 57.1387795,24.0767717 C56.7814961,24.0767717 56.4124016,23.8641732 56.2027559,24.3927165 C55.6358268,25.8336614 55.0216535,27.2480315 54.4311024,28.6860236 C54.3580738,29.0000869 54.0602912,29.2087892 53.7401575,29.1702756 C48.9271654,29.1584646 44.113189,29.1584646 39.2982283,29.1702756 L14.9970472,29.1702756 L14.9970472,29.1643701 Z M84.0177165,24.265748 L88.742126,12.75 C86.8641732,12.75 85.0836614,12.7647638 83.3001969,12.75 C82.9388244,12.6963232 82.5973459,12.930848 82.5177165,13.2874016 C81.2509843,16.4173228 79.9517717,19.5354331 78.6791339,22.6683071 C78.3838583,23.4064961 77.8641732,23.9557087 77.1112205,24.0531496 C75.9301181,24.2037402 74.7490157,24.1889764 73.4586614,24.2480315 L78.1505906,12.8090551 L68.3120079,12.8090551 L68.878937,13.1840551 C69.7224034,13.7034215 70.3439712,14.5164028 70.6240157,15.4665354 C70.7544181,15.8894246 70.7292825,16.3450073 70.5531496,16.7509843 C69.0944882,20.2352362 67.6683071,23.7431102 66.230315,27.2450787 C66.1594488,27.4222441 66.0944882,27.5994094 66,27.8356299 L66.6614173,27.8356299 C69.7470472,27.8356299 72.8326772,27.8061024 75.9183071,27.8356299 C77.4655512,27.8562992 78.9448819,27.8356299 79.8602362,26.2322835 C80.4064961,27.3779528 81.2214567,27.871063 82.4143701,27.8356299 C83.9645669,27.7883858 85.5177165,27.8031496 87.0679134,27.8356299 C89.0387534,27.847334 90.9809943,27.3640582 92.7165354,26.4301181 C94.1102362,25.7125984 95.1998031,24.6909449 95.746063,23.1377953 C96.2509843,21.7116142 96.8769685,20.3326772 97.4498031,18.9360236 C97.8454724,17.9734252 98.2440945,17.0108268 98.6545276,16.0216535 C99.459323,16.5433517 100.033226,17.3540023 100.257874,18.2864173 L105.304134,18.2864173 C106.302165,18.2864173 107.30315,18.2864173 108.301181,18.2864173 C108.959646,18.2864173 109.15748,18.6112205 108.915354,19.2253937 C108.620079,19.9694882 108.253937,20.2145669 107.38878,20.2175197 C104.893701,20.2175197 102.395669,20.2175197 99.8976378,20.2175197 C99.5834091,20.1782105 99.2893187,20.3797638 99.2125984,20.6870079 C98.3267717,22.898622 97.4143701,25.1161417 96.5108268,27.3070866 C96.4458661,27.4635827 96.3897638,27.6200787 96.3011811,27.8474409 C97.8690945,27.8474409 99.3484252,27.8474409 100.827756,27.8474409 C101.146217,27.8909255 101.445491,27.6850148 101.518701,27.3720472 C102.132874,25.8395669 102.78248,24.3188976 103.426181,22.7834646 C104.376969,22.7834646 105.301181,22.7627953 106.228346,22.7834646 C106.854331,22.8011811 107.146654,23.1850394 107.081693,23.8051181 C107.043307,24.1624016 107.007874,24.5167323 106.975394,24.871063 C106.880906,25.8366142 106.792323,26.8051181 106.697835,27.7972441 L111.788386,27.7972441 C111.788386,26.2175197 111.788386,24.6732283 111.788386,23.1259843 C111.808079,22.6262228 111.475777,22.1806912 110.991142,22.0570866 C110.849015,21.9992932 110.711763,21.9301731 110.580709,21.8503937 C110.580709,21.8001969 110.607283,21.7529528 110.619094,21.7027559 C110.801578,21.670928 110.986103,21.6521795 111.17126,21.6466535 C112.074708,21.7205447 112.924027,21.2078605 113.279528,20.3740157 C113.701772,19.488189 114.088583,18.5521654 114.46063,17.6309055 C114.523294,17.4267181 114.529417,17.2093597 114.478346,17.0019685 C114.298228,16.0541339 113.483268,15.4429134 112.411417,15.4429134 L98.8877953,15.4429134 C99.2568898,14.5216535 99.5964567,13.6712598 99.9566929,12.7677165 C98.0757874,12.7677165 96.2923228,12.7824803 94.511811,12.7677165 C94.1607503,12.719507 93.8297656,12.9435582 93.7440945,13.2874016 C92.5246063,16.3051181 91.2608268,19.3021654 90.0472441,22.3228346 C89.6692913,23.2588583 89.0137795,23.8582677 88.0600394,23.9822835 C86.7785433,24.1505906 85.476378,24.1712598 84.0177165,24.2775591 L84.0177165,24.265748 Z M9.4015748,16.4734252 L4.73917323,27.8474409 C6.61712598,27.8474409 8.40059055,27.8474409 10.1811024,27.8474409 C10.5349612,27.8991394 10.8705146,27.6745865 10.9576772,27.3277559 C12.3572835,23.8641732 13.7923228,20.4183071 15.1919291,16.9576772 C15.2819054,16.6115976 15.6219998,16.3921405 15.9744094,16.4527559 C17.0787402,16.4793307 18.1860236,16.4527559 19.2903543,16.4527559 C20.2322835,16.4527559 21.0620079,17.7283465 20.7135827,18.6141732 C19.5442913,21.4783465 18.3730315,24.3405512 17.1998031,27.2007874 C17.1230315,27.386811 17.0580709,27.5787402 16.9783465,27.7913386 L33.4192913,27.7913386 C31.996063,26.5009843 31.742126,26.2116142 31.4379921,25.234252 C31.3799138,24.9424464 31.0989875,24.7507863 30.8061024,24.8031496 C28.5059055,24.8031496 26.2057087,24.8031496 23.9173228,24.8031496 C23.734252,24.8031496 23.5511811,24.7854331 23.2972441,24.7706693 C23.5127953,24.2273622 23.7283465,23.7785433 23.8700787,23.3090551 C23.9002069,23.1369352 23.9981057,22.9840886 24.1418529,22.8847421 C24.2856,22.7853956 24.4631855,22.7478496 24.6348425,22.7805118 C26.6663386,22.8041339 28.7007874,22.7805118 30.7352362,22.7805118 C30.9094488,22.7805118 31.1958661,22.730315 31.2401575,22.6240157 C31.5620079,21.8503937 31.8307087,21.0561024 32.1496063,20.2086614 L25.1633858,20.2086614 C25.367126,19.6948819 25.5708661,19.2431102 25.7244094,18.7765748 C25.7956072,18.4407591 26.1177996,18.2199014 26.4566929,18.2746063 C28.8188976,18.2982283 31.1988189,18.2746063 33.5698819,18.2746063 C34.9990157,18.2746063 35.0019685,18.2746063 35.5275591,16.9311024 C35.7194882,16.4498031 35.8996063,15.9625984 36.1181102,15.3956693 L21.6968504,15.3956693 C22.0541339,14.4891732 22.3818898,13.6564961 22.7185039,12.8090551 C22.6536806,12.7841705 22.586362,12.7663509 22.5177165,12.7559055 C16.5433071,12.7559055 10.5698819,12.7559055 4.59744094,12.7559055 C4.39099048,12.8108291 4.2205321,12.9563159 4.13385827,13.1515748 C3.70570866,14.1082677 3.31299213,15.0826772 2.91141732,16.0511811 C2.86122047,16.1722441 2.82874016,16.3021654 2.77559055,16.4734252 L9.4015748,16.4734252 Z M112.482283,27.8474409 C114.129921,27.8474409 115.606299,27.8474409 117.08563,27.8474409 C117.404824,27.8916631 117.710595,27.7034962 117.814961,27.398622 C118.435039,26.0580709 119.066929,24.7234252 119.734252,23.4094488 C119.86122,23.1555118 120.162402,22.8188976 120.395669,22.8188976 C121.762795,22.7627953 123.132874,22.7923228 124.576772,22.7923228 L122.53937,27.7913386 C122.620212,27.8161204 122.703285,27.8329328 122.787402,27.8415354 C124.26378,27.8415354 125.740157,27.8415354 127.216535,27.8415354 C127.420908,27.7930064 127.591121,27.6522534 127.677165,27.4606299 C128.998031,24.2933071 130.30315,21.1200787 131.59252,17.9409449 C131.698346,17.6831794 131.733018,17.4017267 131.692913,17.1259843 C131.498031,16.0482283 130.715551,15.4488189 129.552165,15.4488189 L115.17815,15.4488189 C116.031496,16.0807087 116.409449,16.9458661 116.616142,17.8966535 C116.692913,18.242126 116.846457,18.3041339 117.162402,18.3041339 C119.211614,18.3041339 121.260827,18.3041339 123.310039,18.3041339 C124.060039,18.3041339 124.807087,18.3041339 125.557087,18.3041339 C126.094488,18.3218504 126.277559,18.6259843 126.106299,19.125 C125.811024,19.9429134 125.441929,20.226378 124.55315,20.2293307 C122.557087,20.2293307 120.561024,20.2293307 118.564961,20.2293307 C117.521107,20.168861 116.530104,20.6933758 115.99311,21.5905512 C114.797244,23.6072835 113.695866,25.6771654 112.482283,27.859252 L112.482283,27.8474409 Z M58.9931102,27.8149606 L64.1161417,27.8149606 C64.1161417,26.4360236 64.0807087,25.0984252 64.1161417,23.7637795 C64.148622,22.8779528 63.9596457,22.2135827 62.9940945,21.992126 C62.9704724,21.992126 62.9586614,21.9360236 62.9084646,21.8474409 C63.3070866,21.7322835 63.6879921,21.617126 64.0718504,21.5137795 C65.222505,21.2575258 66.1977237,20.4990224 66.7293307,19.4468504 C67.3346457,18.265748 68.0816929,17.1437008 68.7637795,15.9980315 C68.8582677,15.8356299 68.9409449,15.6702756 69.0590551,15.4311024 C67.4793307,15.4311024 65.988189,15.4311024 64.4970472,15.4311024 C64.2123296,15.4022743 63.9391174,15.5511926 63.8090551,15.8061024 C63.1181102,16.9281496 62.3887795,18.0265748 61.7066929,19.1574803 C61.367126,19.7214567 60.9035433,20.1112205 60.2687008,20.1377953 C59.0521654,20.1909449 57.8297244,20.1377953 56.5570866,20.1377953 L58.4616142,15.4133858 C56.8996063,15.4133858 55.4409449,15.4340551 53.9793307,15.4133858 C53.6257196,15.367763 53.295082,15.5975498 53.2145669,15.9448819 C52.0482283,18.8503937 50.8523622,21.7440945 49.6712598,24.640748 L48.3602362,27.8474409 C49.9370079,27.8474409 51.4340551,27.8474409 52.9311024,27.8474409 C53.2341651,27.8849481 53.5158383,27.6852162 53.5807087,27.386811 C54.1476378,25.984252 54.761811,24.5994094 55.3080709,23.1968504 C55.3713835,22.9158461 55.6400715,22.7307213 55.9251969,22.7716535 C56.6722441,22.7952756 57.4222441,22.7716535 58.1722441,22.7716535 C59.238189,22.7716535 59.5009843,23.0905512 59.3740157,24.132874 C59.226378,25.3346457 59.1200787,26.5393701 58.9931102,27.7854331 L58.9931102,27.8149606 Z M129.962598,27.7854331 C130.15748,27.7854331 130.29626,27.8179134 130.435039,27.8179134 C131.790354,27.8179134 133.145669,27.8179134 134.498031,27.8179134 C134.803587,27.8643747 135.093283,27.6673816 135.162402,27.3661417 C135.720472,25.9812992 136.319882,24.6112205 136.863189,23.2322835 C136.960523,22.9185249 137.274228,22.7245067 137.598425,22.7775591 C139.810039,22.7952756 142.027559,22.7775591 144.230315,22.7775591 C145.266732,22.7775591 146.061024,22.3494094 146.495079,21.3838583 C147.026575,20.2027559 147.537402,19.0068898 148.042323,17.8080709 C148.11988,17.6109724 148.154119,17.3994935 148.142717,17.1879921 C148.09252,16.1692913 147.242126,15.4399606 146.093504,15.4370079 C141.386811,15.4370079 136.680118,15.4370079 131.973425,15.4370079 C131.828825,15.4494485 131.684942,15.4691585 131.542323,15.496063 C132.661417,16.1515748 133.511811,16.9045276 133.851378,18.1033465 C133.877953,18.1948819 134.146654,18.2746063 134.285433,18.2746063 C135.711614,18.2893701 137.134843,18.2746063 138.561024,18.2746063 C139.70374,18.2746063 140.843504,18.2746063 141.98622,18.2746063 C142.594488,18.2746063 142.783465,18.5698819 142.576772,19.1604331 C142.281496,19.9488189 141.918307,20.2145669 141.044291,20.2175197 C138.566929,20.2175197 136.089567,20.2175197 133.612205,20.2175197 C133.242903,20.1712793 132.898027,20.4105294 132.812008,20.7726378 C132.023622,22.7568898 131.205709,24.726378 130.396654,26.7017717 C130.251969,27.0590551 130.101378,27.4192913 129.950787,27.8208661 L129.962598,27.7854331 Z M50.7874016,15.4370079 L39.5669291,15.4370079 C38.2883858,15.4370079 37.6417323,15.8651575 37.148622,17.0580709 C36.0088583,19.8139764 34.8740157,22.5767717 33.7440945,25.3464567 C33.6533997,25.5577807 33.6023533,25.783986 33.5935039,26.0137795 C33.5935039,27.0531496 34.4114173,27.8415354 35.5364173,27.8444882 C39.4438976,27.8444882 43.3484252,27.8444882 47.25,27.8444882 C47.3681102,27.8444882 47.4832677,27.8444882 47.7106299,27.8120079 C46.7155512,27.121063 45.9655512,26.3356299 45.6614173,25.2608268 C45.5492126,24.859252 45.3395669,24.7942913 44.9793307,24.7972441 C43.2076772,24.7972441 41.4507874,24.7972441 39.6820866,24.7972441 C39.496063,24.7972441 39.3100394,24.7972441 39.0767717,24.773622 C39.1535433,24.5639764 39.2037402,24.4163386 39.2627953,24.2716535 C39.9714567,22.5442913 40.7007874,20.8257874 41.3769685,19.0866142 C41.5243894,18.5566382 42.0351246,18.2123927 42.5816929,18.2746063 C44.7903543,18.2952756 47.0108268,18.2893701 49.2135827,18.2746063 C49.390748,18.2746063 49.6712598,18.1830709 49.7273622,18.0531496 C50.0935039,17.2293307 50.4064961,16.378937 50.7814961,15.4340551 L50.7874016,15.4370079 Z M47.5393701,25.984252 L47.7135827,25.9399606 L50.3149606,19.5738189 C47.7933071,19.5738189 45.3543307,19.5738189 42.9153543,19.5738189 C42.7667593,19.57428 42.6269275,19.6441959 42.5374016,19.7627953 C42.023622,20.9645669 41.5364173,22.1751969 41.007874,23.4714567 L41.6633858,23.4714567 C43.1220472,23.4714567 44.5836614,23.4714567 46.0423228,23.4714567 C46.4261811,23.4714567 46.5797244,23.5777559 46.7007874,23.9586614 C46.9281496,24.6496063 47.2559055,25.3110236 47.5393701,25.984252 L47.5393701,25.984252 Z M34.7037402,19.609252 C33.7883858,19.5561024 33.7883858,19.5561024 33.4990157,20.3208661 C33.1505906,21.253937 32.8169291,22.1899606 32.4448819,23.1082677 C32.2322835,23.6279528 32.4448819,24.0324803 32.6633858,24.5846457 C33.3720472,22.8602362 34.0275591,21.2568898 34.7037402,19.6122047 L34.7037402,19.609252 Z M115.41437,18.8533465 C115.352362,19.0098425 115.278543,19.1811024 115.207677,19.355315 C114.735236,20.5068898 114.274606,21.6702756 113.167323,22.4025591 C113.096194,22.4521409 113.049076,22.5292422 113.037402,22.6151575 C113.063976,23.0019685 113.11122,23.3887795 113.158465,23.8523622 C114.112205,22.3759843 114.634843,20.6870079 115.948819,19.7450787 L115.41437,18.859252 L115.41437,18.8533465 Z M65.9616142,24.4694882 L67.1427165,21.5905512 L65.2411417,22.3080709 C66.0531496,22.898622 65.7785433,23.7312992 65.9704724,24.4694882 L65.9616142,24.4694882 Z" id="Shape" fill="#F2F2F2"></path>
                <path d="M43.886811,2.99409449 C44.2352362,2.78740157 44.4773622,2.61614173 44.7490157,2.48917323 C48.2037402,0.812007874 51.8562992,0.295275591 55.6594488,0.590551181 C57.9341444,0.736204137 60.1738816,1.22396912 62.3031496,2.03740157 C62.8817614,2.26642063 63.4357555,2.55331041 63.9566929,2.89370079 C65.492126,3.91240157 65.7283465,5.78444882 64.5472441,7.20767717 C63.7269857,8.12939175 62.6955853,8.83860616 61.5413386,9.2746063 C59.4950787,10.1604331 57.3159449,10.4557087 55.136811,10.8366142 C53.7667323,11.0698819 52.9074803,10.6889764 52.0984252,9.58169291 C50.0787402,6.79133858 47.2795276,4.89271654 44.2913386,3.2480315 C44.1879921,3.18897638 44.0935039,3.11515748 43.8956693,2.98228346 M56.7490157,9.91240157 C56.6043307,9.71751969 56.503937,9.56988189 56.394685,9.43110236 C54.496063,6.93897638 52.5856299,4.45570866 50.7106299,1.94291339 C50.3503937,1.46161417 50.0167323,1.24901575 49.4438976,1.58267717 C49.5177165,1.69783465 49.5885827,1.81889764 49.6712598,1.93110236 C51.6230315,4.49704724 53.5895669,7.0511811 55.5147638,9.63188976 C55.875,10.113189 56.2293307,10.1190945 56.7490157,9.92716535 M58.6889764,9.5226378 C58.609252,9.39862205 58.5442913,9.27755906 58.4616142,9.16830709 C56.5718504,6.66437008 54.6643701,4.17224409 52.8070866,1.6476378 C52.4350394,1.13976378 52.0570866,1.125 51.5137795,1.25492126 C51.6112205,1.40255906 51.6761811,1.50590551 51.75,1.60334646 C53.6427165,4.125 55.5472441,6.6230315 57.4222441,9.1742126 C57.761811,9.63484252 58.0777559,9.90944882 58.6889764,9.5226378 M47.4242126,2.12007874 C47.5187008,2.24704724 47.5895669,2.34448819 47.6663386,2.44192913 C49.6062992,4.88385827 51.5462598,7.31102362 53.4448819,9.7765748 C53.7154979,10.2208876 54.2704123,10.4004187 54.75,10.1988189 C54.628937,10.0305118 54.5344488,9.88582677 54.4281496,9.75295276 C52.4911417,7.29035433 50.5423228,4.84251969 48.628937,2.37106299 C48.265748,1.89862205 47.9468504,1.78051181 47.4183071,2.12893701 M53.9586614,1.18110236 C54.0679134,1.34940945 54.1564961,1.49704724 54.253937,1.63582677 L59.4212598,8.76082677 C59.8346457,9.32775591 59.8612205,9.33366142 60.5462598,8.94685039 C60.4488189,8.80216535 60.3572835,8.6515748 60.2509843,8.51279528 C58.5974409,6.24212598 56.9202756,3.98622047 55.2962598,1.69192913 C55.0211033,1.23409353 54.4689561,1.02322936 53.9586614,1.18110236 M56.4153543,1.29625984 C56.515748,1.45866142 56.5925197,1.59153543 56.6781496,1.72440945 C58.1663386,3.8503937 59.6535433,5.9753937 61.1397638,8.09940945 C61.5590551,8.68996063 61.5679134,8.68996063 62.2027559,8.19094488 C62.105315,8.0492126 62.0108268,7.89566929 61.9074803,7.75984252 C60.5610236,5.84645669 59.1850394,3.94488189 57.8740157,1.99901575 C57.5647912,1.50113131 56.993907,1.22895215 56.4124016,1.30216535 M58.9340551,1.73031496 L63.1535433,7.67716535 L63.7795276,7.12795276 C62.6899606,5.61023622 61.5974409,4.13385827 60.5816929,2.60137795 C60.2268496,2.03977432 59.600956,1.70828671 58.9370079,1.73031496 M64.3228346,6.31299213 C64.6830709,5.64271654 64.6801181,5.59251969 64.3228346,5.06988189 C63.9271654,4.5 63.5049213,3.94488189 63.1417323,3.35433071 C62.8139764,2.8257874 62.2913386,2.69291339 61.6653543,2.46850394 C62.5954724,3.80905512 63.4576772,5.04625984 64.3228346,6.30708661 M48.023622,4.91338583 L48.1417323,4.77755906 C47.6633858,4.18700787 47.1555118,3.59645669 46.7185039,2.97637795 C46.3848425,2.49212598 46.0659449,2.45374016 45.5374016,2.92913386 C46.3818898,3.6023622 47.2057087,4.25492126 48.0265748,4.91338583" id="Shape" fill="#F2F2F2"></path>
                <path d="M84.0177165,24.265748 C85.476378,24.1712598 86.7785433,24.1505906 88.0600394,23.9704724 C89.0137795,23.8464567 89.6692913,23.2470472 90.0472441,22.3110236 C91.2608268,19.2903543 92.5246063,16.2903543 93.7440945,13.2755906 C93.8207932,12.9250474 94.153065,12.6915591 94.5088583,12.738189 C96.2805118,12.7647638 98.0728346,12.738189 99.9566929,12.738189 C99.5935039,13.644685 99.253937,14.4891732 98.8848425,15.4133858 L112.408465,15.4133858 C113.48622,15.4133858 114.301181,16.0246063 114.475394,16.9724409 C114.526464,17.1798321 114.520342,17.3971906 114.457677,17.601378 C114.082677,18.5255906 113.695866,19.4409449 113.276575,20.3444882 C112.919431,21.1755945 112.069481,21.6838983 111.168307,21.605315 C110.983188,21.6133059 110.798763,21.6330305 110.616142,21.6643701 C110.616142,21.7145669 110.59252,21.761811 110.577756,21.8090551 C110.70339,21.8994174 110.836786,21.9784669 110.976378,22.0452756 C111.461013,22.1688802 111.793316,22.6144118 111.773622,23.1141732 C111.773622,24.6584646 111.773622,26.2057087 111.773622,27.7854331 L106.683071,27.7854331 C106.777559,26.7933071 106.866142,25.8248031 106.96063,24.8562992 C106.99311,24.5049213 107.028543,24.1476378 107.066929,23.7933071 C107.13189,23.1702756 106.84252,22.7893701 106.213583,22.7716535 C105.286417,22.7450787 104.362205,22.7716535 103.411417,22.7716535 C102.767717,24.3100394 102.11811,25.8277559 101.503937,27.363189 C101.430727,27.6761566 101.131453,27.8820672 100.812992,27.8385827 C99.3366142,27.8149606 97.8602362,27.8385827 96.2893701,27.8385827 C96.375,27.6112205 96.4340551,27.4517717 96.496063,27.2982283 C97.3996063,25.0984252 98.3267717,22.898622 99.2125984,20.6870079 C99.2857193,20.375311 99.583178,20.1697709 99.9005906,20.2116142 C102.398622,20.2322835 104.896654,20.2116142 107.391732,20.2116142 C108.25689,20.2116142 108.623031,19.9635827 108.918307,19.2194882 C109.160433,18.605315 108.962598,18.2893701 108.304134,18.2805118 C107.306102,18.2805118 106.305118,18.2805118 105.307087,18.2805118 L100.246063,18.2805118 C100.020706,17.3476421 99.4470626,16.5363018 98.6427165,16.0127953 C98.2352362,17.0049213 97.8336614,17.9675197 97.4379921,18.9271654 C96.8651575,20.3267717 96.2391732,21.7057087 95.7372047,23.1318898 C95.1879921,24.6850394 94.0984252,25.7066929 92.7047244,26.4242126 C90.9734496,27.3598399 89.0358306,27.8480509 87.0679134,27.8444882 C85.5177165,27.8208661 83.9645669,27.8061024 82.4143701,27.8444882 C81.2332677,27.8799213 80.4064961,27.3838583 79.8602362,26.2411417 C78.9448819,27.8297244 77.4655512,27.8651575 75.9183071,27.8444882 C72.8326772,27.8031496 69.7470472,27.8444882 66.6614173,27.8444882 L66,27.8444882 C66.0974409,27.5964567 66.1594488,27.4192913 66.230315,27.253937 C67.6683071,23.7519685 69.0974409,20.2440945 70.5531496,16.7450787 C70.7308447,16.3394728 70.7560116,15.8833223 70.6240157,15.4606299 C70.3439712,14.5104972 69.7224034,13.697516 68.878937,13.1781496 L68.3149606,12.8001969 L78.1535433,12.8001969 C76.6003937,16.5915354 75.0590551,20.3474409 73.4616142,24.242126 C74.7549213,24.1801181 75.9448819,24.1978346 77.1141732,24.0472441 C77.867126,23.9498031 78.3809055,23.4005906 78.6820866,22.6624016 C79.9517717,19.5295276 81.253937,16.4114173 82.5206693,13.2814961 C82.6065732,12.9334764 82.9424914,12.7074021 83.2972441,12.7588583 C85.0688976,12.7854331 86.8612205,12.7588583 88.7391732,12.7588583 L84.0147638,24.2746063" id="Path" fill="#0A0A0A"></path>
                <path d="M9.4015748,16.4734252 L2.76673228,16.4734252 C2.81988189,16.3021654 2.8523622,16.1781496 2.90255906,16.0511811 C3.30413386,15.0826772 3.69685039,14.1082677 4.125,13.1515748 C4.21742094,12.9613637 4.39121749,12.8234127 4.59744094,12.7765748 C10.5698819,12.7588583 16.5433071,12.7588583 22.5177165,12.7765748 C22.5860525,12.7870689 22.6532691,12.803873 22.7185039,12.8267717 L21.6968504,15.4163386 L36.1122047,15.4163386 C35.8996063,15.9832677 35.7194882,16.4704724 35.5216535,16.9517717 C34.996063,18.2952756 34.9931102,18.2952756 33.5639764,18.2952756 C31.2017717,18.2952756 28.8218504,18.2952756 26.4507874,18.2952756 C26.1118941,18.2405707 25.7897017,18.4614284 25.7185039,18.7972441 C25.5649606,19.2637795 25.3612205,19.7155512 25.1574803,20.2293307 L32.1318898,20.2293307 C31.8188976,21.0767717 31.5413386,21.871063 31.2224409,22.644685 C31.1781496,22.7509843 30.8917323,22.8011811 30.7175197,22.8011811 C28.6830709,22.8011811 26.648622,22.8218504 24.617126,22.8011811 C24.4454689,22.7685189 24.2678835,22.8060649 24.1241363,22.9054114 C23.9803892,23.0047578 23.8824903,23.1576045 23.8523622,23.3297244 C23.7106299,23.7992126 23.4950787,24.2480315 23.2795276,24.7913386 C23.5334646,24.8061024 23.7165354,24.8238189 23.8996063,24.8238189 C26.1998031,24.8238189 28.5,24.8238189 30.8001969,24.8238189 C30.9453343,24.7992368 31.09425,24.8342716 31.2132033,24.9209852 C31.3321567,25.0076989 31.4110783,25.1387512 31.4320866,25.2844488 C31.7273622,26.261811 31.9901575,26.5511811 33.4133858,27.8415354 L16.9783465,27.8415354 C17.0580709,27.6259843 17.1230315,27.4340551 17.1998031,27.2509843 C18.3809055,24.3887795 19.5521654,21.5265748 20.7135827,18.6643701 C21.0767717,17.7785433 20.2322835,16.5059055 19.2903543,16.5029528 C18.1860236,16.5029528 17.0787402,16.5206693 15.9744094,16.5029528 C15.6219998,16.4423373 15.2819054,16.6617944 15.1919291,17.007874 C13.7923228,20.4685039 12.3572835,23.9143701 10.9547244,27.375 C10.8700395,27.7238703 10.5332313,27.9505435 10.1781496,27.8976378 C8.40649606,27.8740157 6.61712598,27.8976378 4.73917323,27.8976378 L9.4015748,16.4734252" id="Path" fill="#0A0A0A"></path>
                <path d="M112.482283,27.8474409 C113.695866,25.6653543 114.797244,23.5954724 115.99311,21.5787402 C116.530104,20.6815647 117.521107,20.15705 118.564961,20.2175197 C120.561024,20.2175197 122.557087,20.2175197 124.55315,20.2175197 C125.438976,20.2175197 125.822835,19.9222441 126.106299,19.113189 C126.277559,18.6141732 126.106299,18.3100394 125.557087,18.2923228 C124.807087,18.2687008 124.060039,18.2923228 123.310039,18.2923228 C121.260827,18.2923228 119.211614,18.2923228 117.162402,18.2923228 C116.846457,18.2923228 116.692913,18.2273622 116.616142,17.8848425 C116.409449,16.9340551 116.025591,16.0688976 115.17815,15.4370079 L129.540354,15.4370079 C130.70374,15.4370079 131.48622,16.0275591 131.681102,17.1141732 C131.726026,17.39078 131.695422,17.674385 131.59252,17.9350394 C130.30315,21.1181102 128.998031,24.2933071 127.677165,27.4606299 C127.588969,27.6488539 127.419102,27.786054 127.216535,27.8326772 C125.740157,27.859252 124.26378,27.8326772 122.787402,27.8326772 C122.703515,27.8226046 122.620572,27.8058185 122.53937,27.7824803 L124.576772,22.7805118 C123.132874,22.7805118 121.762795,22.753937 120.395669,22.8100394 C120.162402,22.8100394 119.86122,23.1466535 119.734252,23.4005906 C119.066929,24.7145669 118.435039,26.0580709 117.814961,27.3897638 C117.714559,27.6945238 117.413027,27.8860708 117.094488,27.8474409 C115.61811,27.8238189 114.141732,27.8474409 112.491142,27.8474409" id="Path" fill="#0A0A0A"></path>
                <path d="M58.9931102,27.8031496 C59.1200787,26.5570866 59.226378,25.3523622 59.3740157,24.1505906 C59.5009843,23.1082677 59.238189,22.7893701 58.1722441,22.7893701 C57.4222441,22.7893701 56.6722441,22.7893701 55.9251969,22.7893701 C55.6400715,22.7484379 55.3713835,22.9335626 55.3080709,23.2145669 C54.75,24.617126 54.1476378,26.0019685 53.5807087,27.4045276 C53.5158383,27.7029327 53.2341651,27.9026647 52.9311024,27.8651575 C51.4340551,27.8415354 49.9370079,27.8651575 48.3602362,27.8651575 L49.6712598,24.6584646 C50.8523622,21.761811 52.0334646,18.8681102 53.2145669,15.9655512 C53.2992518,15.6166809 53.6360601,15.3900076 53.9911417,15.4429134 C55.4675197,15.4753937 56.9114173,15.4429134 58.4734252,15.4429134 L56.5688976,20.1673228 C57.8415354,20.1673228 59.0639764,20.2057087 60.2805118,20.1673228 C60.9153543,20.140748 61.378937,19.7509843 61.7185039,19.1870079 C62.4005906,18.0561024 63.1299213,16.9576772 63.8208661,15.8356299 C63.9509284,15.5807202 64.2241407,15.4318019 64.5088583,15.4606299 C66,15.4753937 67.4911417,15.4606299 69.0708661,15.4606299 C68.9438976,15.6998031 68.8612205,15.8651575 68.7755906,16.0275591 C68.0935039,17.1732283 67.3464567,18.2893701 66.7411417,19.476378 C66.2095347,20.52855 65.234316,21.2870534 64.0836614,21.5433071 C63.6998031,21.6466535 63.3188976,21.761811 62.9202756,21.8769685 C62.9704724,21.9655512 62.9822835,22.0187008 63.0059055,22.0216535 C63.9714567,22.2372047 64.1604331,22.9074803 64.1279528,23.7933071 C64.0807087,25.125 64.1279528,26.4507874 64.1279528,27.8415354 L58.9931102,27.8031496 Z" id="Path" fill="#0A0A0A"></path>
                <path d="M129.962598,27.8120079 C130.122047,27.4104331 130.257874,27.0501969 130.408465,26.6899606 C131.214567,24.7175197 132.035433,22.7480315 132.823819,20.7637795 C132.909838,20.4016711 133.254714,20.162421 133.624016,20.2086614 C136.101378,20.2352362 138.57874,20.2086614 141.056102,20.2086614 C141.941929,20.2086614 142.302165,19.9399606 142.588583,19.1515748 C142.792323,18.5905512 142.603346,18.2893701 141.998031,18.265748 C140.855315,18.2509843 139.715551,18.265748 138.572835,18.265748 C137.146654,18.265748 135.723425,18.265748 134.297244,18.265748 C134.143701,18.265748 133.889764,18.1860236 133.863189,18.0944882 C133.523622,16.8956693 132.682087,16.1427165 131.554134,15.4872047 C131.696722,15.460108 131.840614,15.4403967 131.985236,15.4281496 C136.691929,15.4281496 141.398622,15.4281496 146.105315,15.4281496 C147.253937,15.4281496 148.104331,16.1604331 148.151575,17.1791339 C148.163916,17.3904218 148.130685,17.6018934 148.054134,17.7992126 C147.549213,18.9980315 147.038386,20.1909449 146.50689,21.375 C146.072835,22.3405512 145.278543,22.765748 144.242126,22.7687008 C142.030512,22.7687008 139.812992,22.7687008 137.610236,22.7687008 C137.275203,22.713255 136.952954,22.9216937 136.866142,23.25 C136.319882,24.640748 135.723425,26.0108268 135.165354,27.3838583 C135.096236,27.6850981 134.80654,27.8820912 134.500984,27.8356299 C133.148622,27.8120079 131.790354,27.8356299 130.437992,27.8356299 C130.299213,27.8356299 130.160433,27.8179134 129.965551,27.8031496" id="Path" fill="#0A0A0A"></path>
                <path d="M50.7874016,15.4370079 C50.4153543,16.3818898 50.0994094,17.2322835 49.7332677,18.0561024 C49.6801181,18.1860236 49.3966535,18.2775591 49.2194882,18.2775591 C47.007874,18.2923228 44.7903543,18.2982283 42.5875984,18.2775591 C42.0407159,18.2140576 41.5292191,18.5588165 41.382874,19.0895669 C40.7066929,20.8287402 39.9773622,22.5472441 39.2687008,24.2746063 C39.2096457,24.4192913 39.1594488,24.5698819 39.0826772,24.7765748 C39.3159449,24.7765748 39.5049213,24.8001969 39.6909449,24.8001969 C41.4625984,24.8001969 43.234252,24.8001969 44.9852362,24.8001969 C45.3454724,24.8001969 45.5580709,24.859252 45.6673228,25.2637795 C45.9625984,26.3533465 46.7214567,27.1240157 47.7165354,27.8149606 C47.4891732,27.8326772 47.3740157,27.8474409 47.2559055,27.8474409 C43.3523622,27.8474409 39.4478346,27.8474409 35.5423228,27.8474409 C34.4173228,27.8474409 33.5846457,27.0590551 33.5994094,26.019685 C33.6079216,25.7898474 33.6589817,25.5635812 33.75,25.3523622 C34.8779528,22.5846457 36.0127953,19.8218504 37.1545276,17.0639764 C37.6476378,15.882874 38.2942913,15.4429134 39.5728346,15.4429134 L50.7933071,15.4429134 L50.7874016,15.4370079 Z" id="Path" fill="#0A0A0A"></path>
                <path d="M47.5393701,25.984252 C47.2440945,25.3110236 46.9281496,24.6525591 46.7037402,23.9586614 C46.6827028,23.8053634 46.6005433,23.6670965 46.4759592,23.5753269 C46.3513751,23.4835574 46.1949645,23.4460919 46.0423228,23.4714567 C44.5836614,23.492126 43.125,23.4714567 41.6633858,23.4714567 L41.007874,23.4714567 C41.5364173,22.1751969 42.023622,20.9645669 42.5374016,19.7627953 C42.6269275,19.6441959 42.7667593,19.57428 42.9153543,19.5738189 C45.3543307,19.5738189 47.7933071,19.5738189 50.3149606,19.5738189 L47.7135827,25.9399606 L47.5393701,25.984252" id="Path" fill="#0A0A0A"></path>
                <path d="M34.7037402,19.609252 C34.0275591,21.2509843 33.3690945,22.8572835 32.6633858,24.5816929 C32.4478346,24.0324803 32.2322835,23.6279528 32.4419291,23.105315 C32.8169291,22.1840551 33.1505906,21.2480315 33.4990157,20.3179134 C33.7942913,19.5531496 33.7942913,19.5531496 34.7037402,19.6062992" id="Path" fill="#0A0A0A"></path>
                <path d="M115.41437,18.8503937 L115.948819,19.7362205 C114.623031,20.6781496 114.112205,22.3523622 113.158465,23.8435039 C113.108268,23.3799213 113.063976,22.9931102 113.037402,22.6062992 C113.049076,22.5203839 113.096194,22.4432826 113.167323,22.3937008 C114.274606,21.6614173 114.735236,20.5009843 115.207677,19.3464567 C115.278543,19.1722441 115.352362,19.0009843 115.41437,18.8444882" id="Path" fill="#0A0A0A"></path>
                <path d="M65.9616142,24.4665354 C65.769685,23.7283465 66.0442913,22.898622 65.2322835,22.3051181 L67.1338583,21.5875984 L65.9527559,24.4665354" id="Path" fill="#0A0A0A"></path>
                <path d="M56.7401575,9.9242126 C56.2204724,10.1309055 55.8543307,10.125 55.5088583,9.62893701 C53.5807087,7.04822835 51.6141732,4.49409449 49.6653543,1.92814961 C49.5797244,1.81594488 49.5088583,1.69488189 49.4350394,1.57972441 C50.007874,1.24606299 50.3415354,1.45866142 50.7017717,1.93996063 C52.5767717,4.46751969 54.4901575,6.9507874 56.3976378,9.4488189 C56.5068898,9.58759843 56.6072835,9.74409449 56.7519685,9.93011811" id="Path" fill="#0A0A0A"></path>
                <path d="M58.6801181,9.51968504 C58.0688976,9.90649606 57.7529528,9.63188976 57.4133858,9.17125984 C55.5383858,6.63779528 53.6338583,4.12204724 51.7411417,1.6003937 C51.6673228,1.50295276 51.6023622,1.3996063 51.5049213,1.2519685 C52.0482283,1.12204724 52.4261811,1.13681102 52.7982283,1.64468504 C54.6555118,4.16929134 56.5629921,6.66437008 58.4527559,9.16535433 C58.5354331,9.2746063 58.6003937,9.39566929 58.6801181,9.51968504" id="Path" fill="#0A0A0A"></path>
                <path d="M47.4242126,2.1230315 C47.9527559,1.75984252 48.2716535,1.89271654 48.6348425,2.36220472 C50.5482283,4.84251969 52.5,7.29035433 54.4340551,9.74409449 C54.5403543,9.8769685 54.6348425,10.0216535 54.7559055,10.1929134 C54.2760182,10.3963262 53.7194849,10.2195893 53.4448819,9.7765748 C51.5462598,7.31102362 49.6062992,4.88385827 47.6663386,2.44192913 C47.5895669,2.34744094 47.5187008,2.24704724 47.4242126,2.1230315" id="Path" fill="#0A0A0A"></path>
                <path d="M53.9586614,1.18110236 C54.4701112,1.01732127 55.0269554,1.22782062 55.3021654,1.68897638 C56.9261811,3.98326772 58.6003937,6.23917323 60.2568898,8.50984252 C60.3602362,8.64862205 60.4517717,8.80511811 60.5521654,8.94389764 C59.867126,9.33070866 59.8405512,9.32775591 59.4271654,8.75787402 L54.2568898,1.64173228 C54.1564961,1.50295276 54.0679134,1.34645669 53.9616142,1.18996063" id="Path" fill="#0A0A0A"></path>
                <path d="M56.4153543,1.30216535 C56.995857,1.23016373 57.5652619,1.50218713 57.8740157,1.99901575 C59.1820866,3.94488189 60.5580709,5.83759843 61.9045276,7.76574803 C62.007874,7.90748031 62.1023622,8.06102362 62.1998031,8.19685039 C61.5649606,8.70767717 61.5561024,8.70767717 61.136811,8.10531496 C59.6505906,5.98326772 58.1692913,3.85826772 56.6929134,1.73031496 C56.6072835,1.60334646 56.5305118,1.46751969 56.4301181,1.30216535" id="Path" fill="#0A0A0A"></path>
                <path d="M58.9370079,1.73326772 C59.6007845,1.70878525 60.2273981,2.03952924 60.5816929,2.60137795 C61.5974409,4.13385827 62.6899606,5.61023622 63.7795276,7.12795276 C63.5816929,7.2992126 63.4015748,7.46161417 63.1564961,7.67716535 C61.7509843,5.69291339 60.3661417,3.74409449 58.9399606,1.73326772" id="Path" fill="#0A0A0A"></path>
                <path d="M64.3228346,6.31299213 L61.6653543,2.47440945 C62.2942913,2.69586614 62.8169291,2.82874016 63.1417323,3.36023622 C63.5049213,3.9507874 63.9271654,4.50590551 64.3228346,5.0757874 C64.6860236,5.5984252 64.6889764,5.6515748 64.3228346,6.31889764" id="Path" fill="#0A0A0A"></path>
                <path d="M48.023622,4.91929134 C47.2027559,4.26082677 46.378937,3.60826772 45.5344488,2.93503937 C46.0659449,2.45964567 46.3848425,2.4980315 46.7155512,2.98228346 C47.1525591,3.61122047 47.6604331,4.18700787 48.1387795,4.78346457 L48.0206693,4.91929134" id="Path" fill="#0A0A0A"></path>
            </g>
        </g>
    </g>
</svg>