<?xml version="1.0" encoding="UTF-8"?>
<svg width="224px" height="75px" viewBox="0 0 224 75" version="1.1" xmlns="http://www.w3.org/2000/svg" xmlns:xlink="http://www.w3.org/1999/xlink">
    <!-- Generator: Sketch 58 (84663) - https://sketch.com -->
    <title>LOGOS/logo_oracal</title>
    <desc>Created with Sketch.</desc>
    <defs>
        <rect id="path-1" x="0" y="0" width="224" height="75"></rect>
    </defs>
    <g id="LOGOS/logo_oracal" stroke="none" stroke-width="1" fill="none" fill-rule="evenodd">
        <mask id="mask-2" fill="white">
            <use xlink:href="#path-1"></use>
        </mask>
        <g id="Background"></g>
        <g id="Ресурс-1" mask="url(#mask-2)">
            <g transform="translate(44.000000, 13.000000)">
                <path d="M121.024678,6.91935484 C121.464998,5.55927265 122.070455,4.25911534 122.82731,3.0483871 C123.685926,1.9150228 124.678698,0.891331714 125.783626,5.32907052e-15 C109.880409,5.32907052e-15 93.9531579,5.32907052e-15 78.009883,0.0483870968 C75.8627485,0.233870968 73.6835673,0.177419355 71.5123977,1.70967742 C70.2913069,2.60889945 69.3022483,3.7897672 68.6281871,5.15322581 C67.8991228,7.10483871 67.025848,9.18548387 66.2246784,11.2016129 C69.0901135,9.96183989 72.2255044,9.48954184 75.3259649,9.83064516 C76.7964999,10.0442601 78.244607,10.3924775 79.6522807,10.8709677 C81.5789618,11.618786 83.310715,12.7992875 84.7156725,14.3225806 L86.3740936,10.2903226 L96.1403509,10.2903226 L99.4171345,18.2580645 L99.4171345,10.2822581 L107.75731,10.2822581 L107.75731,24.1935484 L114.302865,24.1935484 L121.024678,6.91935484 Z" id="Path" fill="#E30613" fill-rule="nonzero"></path>
                <path d="M103.655322,30.1774194 L95.3792398,30.1774194 L94.8184211,28.233871 L87.6639766,28.233871 L87.1111696,30.1774194 L79.9006433,30.1774194 C78.11642,30.8273134 76.259961,31.2552183 74.3725731,31.4516129 C72.4870193,31.4905755 70.6037665,31.2983005 68.764386,30.8790323 C68.0917393,30.6826612 67.4332401,30.4401586 66.7935088,30.1532258 L58.6696491,30.1532258 L54.3433333,40.983871 L93.4484211,40.983871 C93.6313508,42.477412 94.0877137,43.9238859 94.794386,45.25 C95.3694351,46.1912466 96.094899,47.0304855 96.9415205,47.733871 C98.1677595,48.6058454 99.6591892,49.0168375 101.155673,48.8951613 C102.526137,48.7831482 103.813756,48.1893364 104.792982,47.2177419 C106.803918,45.2096774 107.244561,43.1048387 107.677193,41 L111.907368,30.1774194 L103.655322,30.1774194 Z" id="Path" fill="#E30613" fill-rule="nonzero"></path>
                <path d="M77.1366082,17.5806452 C75.0695906,15.3225806 72.9064327,14.6451613 70.7032164,16.1290323 C68.8153375,17.4706179 68.1143665,19.9569913 69.0207602,22.0967742 C69.2732229,22.6482697 69.6052918,23.1591685 70.0061988,23.6129032 C71.5364327,25.0080645 73.4512281,25.516129 75.2538596,24.4758065 C76.105156,23.9289605 76.8337242,23.2093225 77.3929825,22.3629032 L81.3988304,22.3629032 L83.3777193,17.5241935 L77.1366082,17.5806452 Z" id="Path" fill="#E30613" fill-rule="nonzero"></path>
                <polygon id="Path" fill="#E30613" fill-rule="nonzero" points="90.4921053 22.516129 92.0383626 22.516129 91.2692398 20.1290323"></polygon>
                <path d="M38.36,42.2822581 L92.0383626,42.2822581 C91.9924644,43.7956807 92.4398523,45.2826439 93.3122222,46.516129 C94.4659064,48.1290323 95.5635088,49.1290323 97.0616959,49.4758065 L45.1699415,49.4758065 C43.4187276,49.5265094 41.7258711,48.8396413 40.4991228,47.5806452 C39.0768357,46.1964183 38.3001978,44.2727662 38.36,42.2822581 Z" id="Path" fill="#E30613" fill-rule="nonzero"></path>
                <path d="M136.19883,7.15322581 L122.635029,7.15322581 C122.586133,5.32325529 123.321625,3.56053812 124.653977,2.31451613 C125.843736,0.976878252 127.549264,0.221380752 129.332807,0.241935484 C131.188559,0.201228854 132.973004,0.961389545 134.235965,2.33064516 C135.527394,3.59390012 136.238501,5.34102538 136.19883,7.15322581 L136.19883,7.15322581 Z" id="Path" fill="#E30613" fill-rule="nonzero"></path>
                <path d="M96.0361988,10.266129 L86.5263158,10.266129 L84.8198246,14.4112903 C84.537453,14.0836294 84.2379245,13.7713581 83.9225146,13.4758065 C82.9815284,12.6886238 81.967367,11.9945554 80.8940936,11.4032258 C78.5067808,10.2844579 75.9082626,9.69586784 73.2749708,9.67741935 C71.8882261,9.7285145 70.5081165,9.89575902 69.1489474,10.1774194 C67.8520496,10.5124998 66.59693,10.9940506 65.4074854,11.6129032 C64.5536244,12.088272 63.74854,12.6474427 63.0039766,13.2822581 C62.3051118,13.9665399 61.6769863,14.7203963 61.1292398,15.5322581 L58.9660819,10.266129 L49.4161404,10.266129 L47.2209357,15.5967742 C47.0004315,14.640063 46.5615421,13.7482138 45.9390643,12.9919355 C45.1373631,12.1717655 44.2127875,11.4832865 43.1990643,10.9516129 C42.127334,10.5530471 40.9998514,10.3271526 39.8581871,10.2822581 C36.5573684,10.2822581 33.2645614,10.2822581 29.9637427,10.2822581 L22.9775439,10.2822581 L22.9775439,12.25 C21.6686076,11.4722606 20.2798242,10.8395375 18.8354971,10.3629032 C17.3585306,9.99438664 15.8460862,9.78887402 14.3249123,9.75 C13.7080117,9.75 13.0830994,9.79032258 12.4581871,9.85483871 C10.9770188,10.0551189 9.52304,10.423039 8.12385965,10.9516129 C6.77207765,11.5912668 5.49562233,12.3811243 4.31830409,13.3064516 C3.44535206,14.1176308 2.68053974,15.0392878 2.04298246,16.0483871 C1.50275983,17.1108771 1.09893693,18.2381962 0.84122807,19.4032258 C0.739555853,20.5095304 0.788072045,21.6246203 0.985438596,22.7177419 C1.28563103,23.7847201 1.72474305,24.8070308 2.29134503,25.7580645 C2.93315786,26.6304389 3.6546873,27.4404237 4.44649123,28.1774194 C5.28863744,28.8598128 6.19569281,29.4567975 7.15444444,29.9596774 C8.57112109,30.615337 10.0538202,31.1155322 11.5769006,31.4516129 C13.1174662,31.6550378 14.6751622,31.6928852 16.2236842,31.5645161 C18.6227381,31.261069 20.9273962,30.4354987 22.9775439,29.1451613 L22.9775439,30.233871 L31.3818129,30.233871 L31.3818129,23.483871 L34.5864912,23.483871 L38.5923392,30.2177419 L49.8087135,30.2177419 L50.4736842,28.2258065 L57.804386,28.2258065 L58.3652047,30.1774194 L66.8495906,30.1774194 C68.9363034,30.9534999 71.1260933,31.4128271 73.347076,31.5403226 C75.5682151,31.4140207 77.758179,30.954657 79.8445614,30.1774194 L87.0550877,30.1774194 L87.6078947,28.2258065 L94.9385965,28.2258065 L95.4994152,30.1774194 L119.622632,30.1774194 L119.622632,24.1451613 L107.685205,24.1451613 L107.685205,10.266129 L99.4892398,10.266129 L99.4892398,18.6612903 L96.0361988,10.266129 Z M81.5190058,22.3629032 L77.4090058,22.3629032 C77.1630964,22.8653923 76.8323754,23.3210853 76.4315789,23.7096774 C75.2100186,24.8887063 73.4467782,25.3030477 71.8328655,24.7903226 C69.4990945,24.0203901 68.1171841,21.6034908 68.6281871,19.1854839 C68.7541347,18.6127476 68.9792239,18.0667882 69.2931579,17.5725806 C69.9586506,16.5311733 71.0024309,15.7931051 72.2014035,15.516129 C73.454034,15.2365789 74.765741,15.4936391 75.8226901,16.2258065 C76.3408081,16.5922833 76.7818859,17.0581943 77.1205848,17.5967742 L83.4498246,17.5967742 L81.5190058,22.3629032 Z M44.0643275,23.3064516 L43.471462,22.6209677 C43.8777895,22.4207363 44.2664273,22.1860162 44.6331579,21.9193548 L44.0643275,23.3064516 Z M10.7196491,17.6612903 C12.1031364,15.7278932 14.7504836,15.2275778 16.7364327,16.5241935 C17.6960641,17.1262192 18.398656,18.0663098 18.7073099,19.1612903 C19.1257782,20.4718506 18.9805254,21.8988645 18.3067251,23.0967742 C17.9699151,23.6875425 17.5174642,24.2033351 16.9767836,24.6129032 C15.958981,25.3854842 14.6598985,25.6793375 13.4115789,25.4193548 C12.790857,25.2798227 12.2082475,25.0044938 11.7050877,24.6129032 C10.0209538,23.3612832 9.32346148,21.1639992 9.9745614,19.1612903 C10.1313312,18.6292359 10.3809142,18.1295097 10.7116374,17.6854839 L10.7196491,17.6612903 Z M37.7430994,16.1290323 C38.1436842,16.0725806 38.8807602,16.6451613 38.3680117,17.1854839 C38.1959086,17.334758 37.9781774,17.4201475 37.7511111,17.4274194 L31.3818129,17.4274194 L31.3818129,16.1290323 L37.7430994,16.1290323 Z M55.0403509,22.5080645 L53.3338596,22.5080645 L54.1911111,19.8709677 L55.0403509,22.5080645 Z M92.1184795,22.5080645 L90.4119883,22.5080645 L91.2692398,19.8709677 L92.1184795,22.5080645 Z" id="Shape" fill="#1D1D1B" fill-rule="evenodd"></path>
                <path d="M14.332924,10.8951613 C21.1909357,10.8951613 26.7830994,15.2983871 26.7830994,20.6935484 C26.7830994,26.0887097 21.1749123,30.483871 14.332924,30.483871 C7.49093567,30.483871 1.89076023,26.0887097 1.89076023,20.6935484 C1.89076023,15.2983871 7.48292398,10.8951613 14.332924,10.8951613 Z M14.332924,14.7258065 C17.6072297,14.7258065 20.2615788,17.3976556 20.2615788,20.6935484 C20.2615788,23.9894412 17.6072297,26.6612903 14.332924,26.6612903 C11.0586183,26.6612903 8.40426913,23.9894412 8.40426913,20.6935484 C8.40426913,17.3976556 11.0586183,14.7258065 14.332924,14.7258065 Z M30.2521637,15.016129 L37.7430994,15.016129 C38.7683562,14.9751208 39.634298,15.7747344 39.6819298,16.8064516 C39.6342793,17.8393594 38.7697088,18.6413029 37.7430994,18.6048387 L30.2521637,18.6048387 L30.2521637,15.016129 Z M31.0533333,11.4274194 L39.8661988,11.4274194 C43.391345,11.4274194 46.2755556,13.8467742 46.2194737,16.8629032 C46.2194737,19.3548387 44.1925146,21.4677419 41.4925731,22.1048387 L47.6054971,29.0725806 L39.177193,29.0725806 L35.171345,22.3387097 L30.2521637,22.3387097 L30.2521637,29.0725806 L24.107193,29.0725806 L24.107193,28.3225806 L24.3795906,28.0967742 L24.8122222,27.7016129 L25.2288304,27.2903226 L25.6133918,26.8629032 L25.9739181,26.4193548 L26.3104094,25.9596774 L26.6228655,25.4919355 L26.9032749,25 L27.1516374,24.5 L27.3759649,23.983871 L27.5602339,23.4596774 L27.7204678,22.9274194 L27.848655,22.3790323 L27.9367836,21.8225806 L27.9928655,21.2580645 L27.9928655,20.6935484 L27.9928655,20.1209677 L27.9367836,19.5564516 L27.848655,19 L27.7204678,18.4596774 L27.5602339,17.9193548 L27.3759649,17.3951613 L27.1516374,16.8790323 L26.9032749,16.3790323 L26.6228655,15.8951613 L26.3104094,15.4193548 L25.9739181,14.9596774 L25.6374269,14.516129 L25.2528655,14.0887097 L24.8362573,13.7096774 L24.4036257,13.3145161 L24.1312281,13.0967742 L24.1312281,11.483871 L31.0773684,11.483871 L31.0533333,11.4274194 Z M59.2865497,29.0322581 L65.4876023,29.0322581 L58.277076,11.4032258 L50.2653801,11.4032258 L44.9135673,24.1935484 L49.1036842,28.9677419 L49.6725146,27.0887097 L58.6856725,27.0887097 L59.2865497,29.0322581 Z M54.1911111,16.1290323 L56.5946199,23.6209677 L51.7876023,23.6209677 L54.1911111,16.1290323 Z M85.5248538,23.483871 C83.6981871,27.4516129 78.8030409,30.3467742 73.2509357,30.3467742 C70.9675765,30.3702096 68.7119426,29.8419922 66.6733333,28.8064516 L61.730117,16.8064516 C63.4366082,13.3387097 68.0112865,10.8467742 73.3630994,10.8467742 C78.538655,10.8467742 82.9771345,13.1693548 84.8198246,16.4919355 L77.7134503,16.4919355 C76.6219961,15.109674 74.9650028,14.3024256 73.2108772,14.2983871 C70.0322567,14.416225 67.5158557,17.0442218 67.5158557,20.2459677 C67.5158557,23.4477137 70.0322567,26.0757105 73.2108772,26.1935484 C75.1512003,26.1817124 76.9563768,25.191405 78.0178947,23.5564516 L85.5248538,23.483871 Z M96.3246199,29.0322581 L102.549708,29.0322581 L95.3391813,11.4032258 L87.3274854,11.4032258 L85.6690643,15.4354839 C86.1097076,16.0967742 86.4702339,16.7983871 86.9589474,17.5645161 L84.7957895,17.5645161 L82.8249123,22.4032258 L87.3274854,22.4032258 C86.6493734,24.2604997 85.5901998,25.9531607 84.2189474,27.3709677 C83.5572175,28.0059713 82.8323499,28.5707718 82.0557895,29.0564516 L86.1898246,29.0564516 L86.7506433,27.1048387 L95.7878363,27.1048387 L96.3246199,29.0322581 Z M91.2692398,16.1290323 L93.6727485,23.6209677 L88.865731,23.6209677 L91.2692398,16.1290323 Z M100.626901,11.3790323 L106.555556,11.3790323 L106.555556,25.2903226 L118.500994,25.2903226 L118.500994,29.0322581 L103.831579,29.0322581 L100.626901,21.2258065 L100.626901,11.3790323 Z" id="Shape" fill="#FFFFFF" fill-rule="evenodd"></path>
            </g>
        </g>
    </g>
</svg>