<?xml version="1.0" encoding="UTF-8"?>
<svg width="224px" height="75px" viewBox="0 0 224 75" version="1.1" xmlns="http://www.w3.org/2000/svg" xmlns:xlink="http://www.w3.org/1999/xlink">
    <!-- Generator: Sketch 58 (84663) - https://sketch.com -->
    <title>LOGOS/logo_scorpio</title>
    <desc>Created with Sketch.</desc>
    <defs>
        <rect id="path-1" x="0" y="0" width="224" height="75"></rect>
        <path d="M122.122197,2.84217094e-14 C125.697625,2.84217094e-14 128.452422,0.959782883 130.38667,2.87937744 C132.320918,4.798972 133.288027,7.48782939 133.288027,10.9460303 C133.288027,13.456645 132.865527,15.515416 132.020515,17.1224048 C131.175503,18.7293936 129.954405,19.9797978 128.357185,20.8736548 C126.759965,21.7675118 124.769576,22.2144336 122.385957,22.2144336 C119.963263,22.2144336 117.95822,21.8285667 116.370769,21.0568213 C114.783318,20.2850759 113.496281,19.0639781 112.509619,17.3934912 C111.522957,15.7230043 111.029634,13.6324849 111.029634,11.1218701 C111.029634,7.61482459 112.006512,4.88444987 113.960298,2.93066406 C115.914084,0.976878252 118.63469,2.84217094e-14 122.122197,2.84217094e-14 Z M122.107544,5.02608887 C120.769201,5.02608887 119.694635,5.49987482 118.883813,6.44746094 C118.072992,7.39504706 117.667588,8.96293665 117.667588,11.1511768 C117.667588,13.319879 118.07055,14.8779998 118.876487,15.8255859 C119.682423,16.7731721 120.778969,17.246958 122.166157,17.246958 C123.592421,17.246958 124.696293,16.7829408 125.477808,15.8548926 C126.259322,14.9268443 126.650073,13.2612669 126.650073,10.8581104 C126.650073,8.83594204 126.242227,7.35841368 125.426521,6.42548096 C124.610815,5.49254823 123.504501,5.02608887 122.107544,5.02608887 Z" id="path-3"></path>
        <path d="M120.122197,1.13686838e-13 C123.697625,1.13686838e-13 126.452422,0.959782883 128.38667,2.87937744 C130.320918,4.798972 131.288027,7.48782939 131.288027,10.9460303 C131.288027,13.456645 130.865527,15.515416 130.020515,17.1224048 C129.175503,18.7293936 127.954405,19.9797978 126.357185,20.8736548 C124.759965,21.7675118 122.769576,22.2144336 120.385957,22.2144336 C117.963263,22.2144336 115.95822,21.8285667 114.370769,21.0568213 C112.783318,20.2850759 111.496281,19.0639781 110.509619,17.3934912 C109.522957,15.7230043 109.029634,13.6324849 109.029634,11.1218701 C109.029634,7.61482459 110.006512,4.88444987 111.960298,2.93066406 C113.914084,0.976878252 116.63469,1.13686838e-13 120.122197,1.13686838e-13 Z M120.107544,5.02608887 C118.769201,5.02608887 117.694635,5.49987482 116.883813,6.44746094 C116.072992,7.39504706 115.667588,8.96293665 115.667588,11.1511768 C115.667588,13.319879 116.07055,14.8779998 116.876487,15.8255859 C117.682423,16.7731721 118.778969,17.246958 120.166157,17.246958 C121.592421,17.246958 122.696293,16.7829408 123.477808,15.8548926 C124.259322,14.9268443 124.650073,13.2612669 124.650073,10.8581104 C124.650073,8.83594204 124.242227,7.35841368 123.426521,6.42548096 C122.610815,5.49254823 121.504501,5.02608887 120.107544,5.02608887 Z" id="path-4"></path>
        <polygon id="path-5" points="101.449937 0.366333008 108.102544 0.366333008 108.102544 21.8481006 101.449937 21.8481006"></polygon>
        <path d="M93.5185596,0.366333008 C95.9217161,0.366333008 97.7216143,0.937806785 98.9183081,2.08077148 C100.115002,3.22373618 100.71334,4.85023847 100.71334,6.96032715 C100.71334,9.1290294 100.061274,10.8239132 98.7571216,12.0450293 C97.4529696,13.2661454 95.4625801,13.8766943 92.7858936,13.8766943 L89.1518701,13.8766943 L89.1518701,21.8481006 L82.4846094,21.8481006 L82.4846094,0.366333008 L93.5185596,0.366333008 Z M91.0421484,4.73302246 L89.1518701,4.73302246 L89.1518701,9.5246582 L90.7783887,9.5246582 C92.0581184,9.5246582 92.9568464,9.3024184 93.4745996,8.85793213 C93.9923528,8.41344586 94.2512256,7.84441428 94.2512256,7.15082031 C94.2512256,6.47676421 94.0265436,5.90529043 93.5771729,5.43638184 C93.1278021,4.96747324 92.2828024,4.73302246 91.0421484,4.73302246 Z" id="path-6"></path>
        <path d="M73.3223535,0.366333008 C75.3738286,0.366333008 76.9417182,0.542171093 78.0260693,0.893852539 C79.1104205,1.24553398 79.9847265,1.89760022 80.6490137,2.8500708 C81.3133008,3.80254138 81.6454395,4.96258431 81.6454395,6.33023438 C81.6454395,7.52204372 81.3914511,8.55020808 80.8834668,9.4147583 C80.3754825,10.2793085 79.6770145,10.9802187 78.788042,11.5175098 C78.2214441,11.8594223 77.4448259,12.142717 76.4581641,12.3674023 C77.2494473,12.6311634 77.8258055,12.8949206 78.1872559,13.1586816 C78.4314791,13.3345224 78.7855975,13.7106205 79.2496216,14.2869873 C79.7136457,14.8633541 80.0238046,15.3078337 80.1801074,15.6204395 L83.3891846,21.8481006 L75.8866846,21.8481006 L72.3405811,15.2834131 C71.8912103,14.4335163 71.4906902,13.88158 71.1390088,13.6275879 C70.6603313,13.2954443 70.1181638,13.129375 69.5124902,13.129375 L68.9263574,13.129375 L68.9263574,21.8481006 L62.2590967,21.8481006 L62.2590967,0.366333008 L73.3223535,0.366333008 Z M71.8423682,4.70371582 L68.9263574,4.70371582 L68.9263574,9.07040527 L71.7251416,9.07040527 C72.0279784,9.07040527 72.6141054,8.97271745 73.48354,8.77733887 C73.9231418,8.68941851 74.2821446,8.46473651 74.5605591,8.10328613 C74.8389736,7.74183576 74.9781787,7.3266625 74.9781787,6.85775391 C74.9781787,6.16415994 74.7583811,5.6317613 74.3187793,5.26054199 C73.8791775,4.88932269 73.0537154,4.70371582 71.8423682,4.70371582 Z" id="path-7"></path>
        <path d="M50.4299365,1.13686838e-13 C54.0053646,1.13686838e-13 56.7601612,0.959782883 58.6944092,2.87937744 C60.6286571,4.798972 61.5957666,7.48782939 61.5957666,10.9460303 C61.5957666,13.456645 61.1732668,15.515416 60.3282544,17.1224048 C59.483242,18.7293936 58.2621442,19.9797978 56.6649243,20.8736548 C55.0677044,21.7675118 53.077315,22.2144336 50.6936963,22.2144336 C48.2710019,22.2144336 46.2659593,21.8285667 44.6785083,21.0568213 C43.0910573,20.2850759 41.8040202,19.0639781 40.8173584,17.3934912 C39.8306966,15.7230043 39.337373,13.6324849 39.337373,11.1218701 C39.337373,7.61482459 40.3142513,4.88444987 42.2680371,2.93066406 C44.2218229,0.976878252 46.9424289,1.13686838e-13 50.4299365,1.13686838e-13 Z M50.4152832,5.02608887 C49.0769399,5.02608887 48.0023738,5.49987482 47.1915527,6.44746094 C46.3807316,7.39504706 45.9753271,8.96293665 45.9753271,11.1511768 C45.9753271,13.319879 46.3782894,14.8779998 47.1842261,15.8255859 C47.9901627,16.7731721 49.0867086,17.246958 50.4738965,17.246958 C51.9001601,17.246958 53.0040326,16.7829408 53.7855469,15.8548926 C54.5670612,14.9268443 54.9578125,13.2612669 54.9578125,10.8581104 C54.9578125,8.83594204 54.5499658,7.35841368 53.7342603,6.42548096 C52.9185547,5.49254823 51.8122401,5.02608887 50.4152832,5.02608887 Z" id="path-8"></path>
        <path d="M36.1315137,13.0707617 L41.9488818,14.8291602 C41.5581247,16.4605713 40.9426914,17.8233165 40.1025635,18.9174365 C39.2624356,20.0115566 38.219618,20.8370187 36.9740796,21.3938477 C35.7285411,21.9506766 34.1435562,22.2290869 32.2190771,22.2290869 C29.8843031,22.2290869 27.9769483,21.8896217 26.4969556,21.2106812 C25.0169628,20.5317406 23.7396945,19.3375069 22.6651123,17.6279443 C21.5905301,15.9183818 21.0532471,13.7301745 21.0532471,11.0632568 C21.0532471,7.50736666 21.9983768,4.77454975 23.8886646,2.86472412 C25.7789523,0.954898491 28.4531565,2.84217094e-14 31.9113574,2.84217094e-14 C34.6173508,2.84217094e-14 36.7445032,0.547051821 38.2928784,1.64117188 C39.8412537,2.73529193 40.9915278,4.41552252 41.7437354,6.68191406 L35.8824072,7.98605957 C35.6772597,7.33154132 35.4623465,6.85287098 35.2376611,6.55003418 C34.8664418,6.04204987 34.4121934,5.65129857 33.8749023,5.37776855 C33.3376112,5.10423854 32.7368311,4.96747559 32.0725439,4.96747559 C30.5681289,4.96747559 29.4154125,5.5731401 28.6143604,6.7844873 C28.0086868,7.68322878 27.7058545,9.09481785 27.7058545,11.0192969 C27.7058545,13.4029156 28.0672994,15.0367444 28.7902002,15.9208325 C29.5131009,16.8049206 30.5290543,17.246958 31.8380908,17.246958 C33.1080516,17.246958 34.0678345,16.8903974 34.7174683,16.1772656 C35.367102,15.4641338 35.8384458,14.4286429 36.1315137,13.0707617 Z" id="path-9"></path>
        <path d="M34.1315137,13.0707617 L39.9488818,14.8291602 C39.5581247,16.4605713 38.9426914,17.8233165 38.1025635,18.9174365 C37.2624356,20.0115566 36.219618,20.8370187 34.9740796,21.3938477 C33.7285411,21.9506766 32.1435562,22.2290869 30.2190771,22.2290869 C27.8843031,22.2290869 25.9769483,21.8896217 24.4969556,21.2106812 C23.0169628,20.5317406 21.7396945,19.3375069 20.6651123,17.6279443 C19.5905301,15.9183818 19.0532471,13.7301745 19.0532471,11.0632568 C19.0532471,7.50736666 19.9983768,4.77454975 21.8886646,2.86472412 C23.7789523,0.954898491 26.4531565,2.84217094e-14 29.9113574,2.84217094e-14 C32.6173508,2.84217094e-14 34.7445032,0.547051821 36.2928784,1.64117188 C37.8412537,2.73529193 38.9915278,4.41552252 39.7437354,6.68191406 L33.8824072,7.98605957 C33.6772597,7.33154132 33.4623465,6.85287098 33.2376611,6.55003418 C32.8664418,6.04204987 32.4121934,5.65129857 31.8749023,5.37776855 C31.3376112,5.10423854 30.7368311,4.96747559 30.0725439,4.96747559 C28.5681289,4.96747559 27.4154125,5.5731401 26.6143604,6.7844873 C26.0086868,7.68322878 25.7058545,9.09481785 25.7058545,11.0192969 C25.7058545,13.4029156 26.0672994,15.0367444 26.7902002,15.9208325 C27.5131009,16.8049206 28.5290543,17.246958 29.8380908,17.246958 C31.1080516,17.246958 32.0678345,16.8903974 32.7174683,16.1772656 C33.367102,15.4641338 33.8384458,14.4286429 34.1315137,13.0707617 Z" id="path-10"></path>
        <path d="M2,14.7412402 L8.31558105,14.3456006 C8.45234606,15.3713381 8.73075636,16.1528407 9.15082031,16.6901318 C9.83464535,17.5595665 10.8115236,17.9942773 12.0814844,17.9942773 C13.0290705,17.9942773 13.759287,17.7720375 14.2721558,17.3275513 C14.7850245,16.883065 15.0414551,16.3677617 15.0414551,15.781626 C15.0414551,15.224797 14.7972355,14.7265891 14.3087891,14.2869873 C13.8203426,13.8473855 12.6871638,13.4322122 10.9092188,13.0414551 C7.99807789,12.3869368 5.92221161,11.5175152 4.68155762,10.4331641 C3.4311347,9.34881294 2.80593262,7.96653021 2.80593262,6.28627441 C2.80593262,5.18238543 3.12586024,4.1395679 3.7657251,3.15779053 C4.40558995,2.17601316 5.36781503,1.40427934 6.6524292,0.842565918 C7.93704337,0.280852497 9.69786642,8.52651283e-14 11.9349512,8.52651283e-14 C14.6800202,8.52651283e-14 16.7729819,0.510418887 18.2138989,1.53127197 C19.654816,2.55212506 20.5120266,4.17618515 20.7855566,6.40350098 L14.5285889,6.76983398 C14.3625171,5.80271001 14.0132831,5.09935767 13.4808765,4.65975586 C12.9484698,4.22015405 12.2133689,4.00035645 11.2755518,4.00035645 C10.5038064,4.00035645 9.9225638,4.16398355 9.53180664,4.49124268 C9.14104948,4.8185018 8.94567383,5.21657969 8.94567383,5.68548828 C8.94567383,6.0274008 9.10685874,6.33511745 9.4292334,6.60864746 C9.74183913,6.8919464 10.4842666,7.15570353 11.6565381,7.39992676 C14.55791,8.02513822 16.6362185,8.65766689 17.8915259,9.29753174 C19.1468333,9.93739659 20.0602144,10.7311102 20.6316968,11.6786963 C21.2031791,12.6262824 21.488916,13.6861953 21.488916,14.8584668 C21.488916,16.2358858 21.1079335,17.5058275 20.345957,18.6683301 C19.5839806,19.8308326 18.5191833,20.7124653 17.1515332,21.3132544 C15.7838831,21.9140435 14.059693,22.2144336 11.9789111,22.2144336 C8.32533167,22.2144336 5.79521699,21.5110813 4.38849121,20.1043555 C2.98176543,18.6976297 2.18560965,16.9099425 2,14.7412402 Z" id="path-11"></path>
        <path d="M1.11910481e-13,14.7412402 L6.31558105,14.3456006 C6.45234606,15.3713381 6.73075636,16.1528407 7.15082031,16.6901318 C7.83464535,17.5595665 8.8115236,17.9942773 10.0814844,17.9942773 C11.0290705,17.9942773 11.759287,17.7720375 12.2721558,17.3275513 C12.7850245,16.883065 13.0414551,16.3677617 13.0414551,15.781626 C13.0414551,15.224797 12.7972355,14.7265891 12.3087891,14.2869873 C11.8203426,13.8473855 10.6871638,13.4322122 8.90921875,13.0414551 C5.99807789,12.3869368 3.92221161,11.5175152 2.68155762,10.4331641 C1.4311347,9.34881294 0.805932617,7.96653021 0.805932617,6.28627441 C0.805932617,5.18238543 1.12586024,4.1395679 1.7657251,3.15779053 C2.40558995,2.17601316 3.36781503,1.40427934 4.6524292,0.842565918 C5.93704337,0.280852497 7.69786642,2.66453526e-14 9.93495117,2.66453526e-14 C12.6800202,2.66453526e-14 14.7729819,0.510418887 16.2138989,1.53127197 C17.654816,2.55212506 18.5120266,4.17618515 18.7855566,6.40350098 L12.5285889,6.76983398 C12.3625171,5.80271001 12.0132831,5.09935767 11.4808765,4.65975586 C10.9484698,4.22015405 10.2133689,4.00035645 9.27555176,4.00035645 C8.50380636,4.00035645 7.9225638,4.16398355 7.53180664,4.49124268 C7.14104948,4.8185018 6.94567383,5.21657969 6.94567383,5.68548828 C6.94567383,6.0274008 7.10685874,6.33511745 7.4292334,6.60864746 C7.74183913,6.8919464 8.4842666,7.15570353 9.65653809,7.39992676 C12.55791,8.02513822 14.6362185,8.65766689 15.8915259,9.29753174 C17.1468333,9.93739659 18.0602144,10.7311102 18.6316968,11.6786963 C19.2031791,12.6262824 19.488916,13.6861953 19.488916,14.8584668 C19.488916,16.2358858 19.1079335,17.5058275 18.345957,18.6683301 C17.5839806,19.8308326 16.5191833,20.7124653 15.1515332,21.3132544 C13.7838831,21.9140435 12.059693,22.2144336 9.97891113,22.2144336 C6.32533167,22.2144336 3.79521699,21.5110813 2.38849121,20.1043555 C0.981765427,18.6976297 0.185609652,16.9099425 1.11910481e-13,14.7412402 Z" id="path-12"></path>
        <path d="M34,41.7084639 L34,28.2875537 L37.7109375,28.2875537 C39.1171945,28.2875537 40.033852,28.3546881 40.4609375,28.4889589 C41.1171908,28.6903651 41.6666645,29.1282645 42.109375,29.8026701 C42.5520855,30.4770757 42.7734375,31.3482971 42.7734375,32.4163603 C42.7734375,33.2402948 42.6458346,33.9329997 42.390625,34.4944958 C42.1354154,35.0559919 41.8111999,35.4969428 41.4179688,35.8173618 C41.0247376,36.1377808 40.625002,36.3498644 40.21875,36.4536191 C39.6666639,36.5817867 38.8671927,36.6458696 37.8203125,36.6458696 L36.3125,36.6458696 L36.3125,41.7084639 L34,41.7084639 Z M36.3125,30.5579396 L36.3125,34.3663289 L37.578125,34.3663289 C38.4895879,34.3663289 39.0989568,34.2961429 39.40625,34.1557689 C39.7135432,34.0153949 39.9544262,33.7956823 40.1289062,33.4966246 C40.3033863,33.1975669 40.390625,32.8496887 40.390625,32.4529795 C40.390625,31.964722 40.2682304,31.5619156 40.0234375,31.2445483 C39.7786446,30.9271809 39.4687519,30.7288293 39.09375,30.6494874 C38.817707,30.5884553 38.263025,30.5579396 37.4296875,30.5579396 L36.3125,30.5579396 Z M46.7578125,41.7084639 L44.5625,41.7084639 L44.5625,31.9860856 L46.6015625,31.9860856 L46.6015625,33.3684577 C46.9505226,32.7154133 47.2643215,32.2851428 47.5429688,32.0776334 C47.821616,31.870124 48.1380191,31.7663708 48.4921875,31.7663708 C48.99219,31.7663708 49.473956,31.9281037 49.9375,32.2515743 L49.2578125,34.4944958 C48.888019,34.2137478 48.5442724,34.0733759 48.2265625,34.0733759 C47.9192693,34.0733759 47.6588552,34.1725517 47.4453125,34.3709063 C47.2317698,34.5692609 47.0638027,34.9278196 46.9414062,35.4465931 C46.8190098,35.9653667 46.7578125,37.0517233 46.7578125,38.7056955 L46.7578125,41.7084639 Z M55.6875,38.6141477 L57.875,39.0444224 C57.5937486,39.9843181 57.1497426,40.6999097 56.5429688,41.1912188 C55.9361949,41.6825279 55.1770879,41.9281787 54.265625,41.9281787 C52.8229095,41.9281787 51.7552118,41.3758457 51.0625,40.2711632 C50.5156223,39.3861965 50.2421875,38.2693243 50.2421875,36.920513 C50.2421875,35.3092634 50.6015589,34.0474419 51.3203125,33.1350107 C52.0390661,32.2225796 52.9479112,31.7663708 54.046875,31.7663708 C55.2812562,31.7663708 56.2552048,32.2439405 56.96875,33.1990942 C57.6822952,34.1542479 58.0234377,35.6174725 57.9921875,37.5888121 L52.4921875,37.5888121 C52.5078126,38.3517144 52.6848941,38.9452435 53.0234375,39.3694172 C53.3619809,39.7935909 53.7838516,40.0056745 54.2890625,40.0056745 C54.6328142,40.0056745 54.9218738,39.8958182 55.15625,39.6761024 C55.3906262,39.4563865 55.5677077,39.1024051 55.6875,38.6141477 Z M55.8125,36.0141896 C55.7968749,35.269597 55.6328141,34.7035319 55.3203125,34.3159776 C55.0078109,33.9284232 54.6276064,33.7346489 54.1796875,33.7346489 C53.7005184,33.7346489 53.3046891,33.9391037 52.9921875,34.3480193 C52.6796859,34.756935 52.5260416,35.3123195 52.53125,36.0141896 L55.8125,36.0141896 Z M59.6171875,31.9860856 L61.640625,31.9860856 L61.640625,33.313529 C62.364587,32.282085 63.2265575,31.7663708 64.2265625,31.7663708 C64.7578152,31.7663708 65.218748,31.8945365 65.609375,32.1508717 C66.000002,32.4072068 66.3203113,32.7947554 66.5703125,33.313529 C66.9348977,32.7947554 67.3281229,32.4072068 67.75,32.1508717 C68.1718771,31.8945365 68.6223934,31.7663708 69.1015625,31.7663708 C69.7109405,31.7663708 70.2265604,31.9113201 70.6484375,32.201223 C71.0703146,32.4911258 71.3854156,32.9168189 71.59375,33.478315 C71.7447924,33.8933339 71.8203125,34.5646778 71.8203125,35.492367 L71.8203125,41.7084639 L69.625,41.7084639 L69.625,36.1515113 C69.625,35.1872028 69.5494799,34.5646839 69.3984375,34.2839358 C69.1953115,33.9177427 68.8828146,33.7346489 68.4609375,33.7346489 C68.1536443,33.7346489 67.8645847,33.8445052 67.59375,34.0642211 C67.3229153,34.2839369 67.1276048,34.6058769 67.0078125,35.0300506 C66.8880202,35.4542242 66.828125,36.1240424 66.828125,37.0395252 L66.828125,41.7084639 L64.6328125,41.7084639 L64.6328125,36.3803809 C64.6328125,35.434382 64.5937504,34.8240693 64.515625,34.5494245 C64.4374996,34.2747797 64.3164071,34.0703249 64.1523438,33.9360541 C63.9882804,33.8017833 63.7656264,33.7346489 63.484375,33.7346489 C63.1458316,33.7346489 62.8411472,33.8414536 62.5703125,34.0550663 C62.2994778,34.2686789 62.1054693,34.5768868 61.9882812,34.9796993 C61.8710932,35.3825117 61.8125,36.0508041 61.8125,36.9845965 L61.8125,41.7084639 L59.6171875,41.7084639 L59.6171875,31.9860856 Z M74.0078125,30.667797 L74.0078125,28.2875537 L76.203125,28.2875537 L76.203125,30.667797 L74.0078125,30.667797 Z M74.0078125,41.7084639 L74.0078125,31.9860856 L76.203125,31.9860856 L76.203125,41.7084639 L74.0078125,41.7084639 Z M83.9140625,41.7084639 L83.9140625,40.2528536 C83.6119777,40.7716272 83.2148462,41.1805367 82.7226562,41.4795944 C82.2304663,41.7786521 81.7109402,41.9281787 81.1640625,41.9281787 C80.606768,41.9281787 80.106773,41.7847552 79.6640625,41.497904 C79.221352,41.2110527 78.9010427,40.8082463 78.703125,40.2894728 C78.5052073,39.7706992 78.40625,39.0535818 78.40625,38.138099 L78.40625,31.9860856 L80.6015625,31.9860856 L80.6015625,36.4536191 C80.6015625,37.8207401 80.6419267,38.6583942 80.7226562,38.9666068 C80.8033858,39.2748193 80.9505198,39.5189444 81.1640625,39.6989893 C81.3776052,39.8790343 81.6484359,39.9690554 81.9765625,39.9690554 C82.3515644,39.9690554 82.6874985,39.8485186 82.984375,39.6074415 C83.2812515,39.3663644 83.4843745,39.0673112 83.59375,38.7102729 C83.7031255,38.3532346 83.7578125,37.4789617 83.7578125,36.0874279 L83.7578125,31.9860856 L85.953125,31.9860856 L85.953125,41.7084639 L83.9140625,41.7084639 Z M88.0625,31.9860856 L90.0859375,31.9860856 L90.0859375,33.313529 C90.8098995,32.282085 91.67187,31.7663708 92.671875,31.7663708 C93.2031277,31.7663708 93.6640605,31.8945365 94.0546875,32.1508717 C94.4453145,32.4072068 94.7656238,32.7947554 95.015625,33.313529 C95.3802102,32.7947554 95.7734354,32.4072068 96.1953125,32.1508717 C96.6171896,31.8945365 97.0677059,31.7663708 97.546875,31.7663708 C98.156253,31.7663708 98.6718729,31.9113201 99.09375,32.201223 C99.5156271,32.4911258 99.8307281,32.9168189 100.039062,33.478315 C100.190105,33.8933339 100.265625,34.5646778 100.265625,35.492367 L100.265625,41.7084639 L98.0703125,41.7084639 L98.0703125,36.1515113 C98.0703125,35.1872028 97.9947924,34.5646839 97.84375,34.2839358 C97.640624,33.9177427 97.3281271,33.7346489 96.90625,33.7346489 C96.5989568,33.7346489 96.3098972,33.8445052 96.0390625,34.0642211 C95.7682278,34.2839369 95.5729173,34.6058769 95.453125,35.0300506 C95.3333327,35.4542242 95.2734375,36.1240424 95.2734375,37.0395252 L95.2734375,41.7084639 L93.078125,41.7084639 L93.078125,36.3803809 C93.078125,35.434382 93.0390629,34.8240693 92.9609375,34.5494245 C92.8828121,34.2747797 92.7617196,34.0703249 92.5976562,33.9360541 C92.4335929,33.8017833 92.2109389,33.7346489 91.9296875,33.7346489 C91.5911441,33.7346489 91.2864597,33.8414536 91.015625,34.0550663 C90.7447903,34.2686789 90.5507818,34.5768868 90.4335938,34.9796993 C90.3164057,35.3825117 90.2578125,36.0508041 90.2578125,36.9845965 L90.2578125,41.7084639 L88.0625,41.7084639 L88.0625,31.9860856 Z" id="path-13"></path>
        <path d="M33,41.7084639 L33,28.2875537 L36.7109375,28.2875537 C38.1171945,28.2875537 39.033852,28.3546881 39.4609375,28.4889589 C40.1171908,28.6903651 40.6666645,29.1282645 41.109375,29.8026701 C41.5520855,30.4770757 41.7734375,31.3482971 41.7734375,32.4163603 C41.7734375,33.2402948 41.6458346,33.9329997 41.390625,34.4944958 C41.1354154,35.0559919 40.8111999,35.4969428 40.4179688,35.8173618 C40.0247376,36.1377808 39.625002,36.3498644 39.21875,36.4536191 C38.6666639,36.5817867 37.8671927,36.6458696 36.8203125,36.6458696 L35.3125,36.6458696 L35.3125,41.7084639 L33,41.7084639 Z M35.3125,30.5579396 L35.3125,34.3663289 L36.578125,34.3663289 C37.4895879,34.3663289 38.0989568,34.2961429 38.40625,34.1557689 C38.7135432,34.0153949 38.9544262,33.7956823 39.1289062,33.4966246 C39.3033863,33.1975669 39.390625,32.8496887 39.390625,32.4529795 C39.390625,31.964722 39.2682304,31.5619156 39.0234375,31.2445483 C38.7786446,30.9271809 38.4687519,30.7288293 38.09375,30.6494874 C37.817707,30.5884553 37.263025,30.5579396 36.4296875,30.5579396 L35.3125,30.5579396 Z M45.7578125,41.7084639 L43.5625,41.7084639 L43.5625,31.9860856 L45.6015625,31.9860856 L45.6015625,33.3684577 C45.9505226,32.7154133 46.2643215,32.2851428 46.5429688,32.0776334 C46.821616,31.870124 47.1380191,31.7663708 47.4921875,31.7663708 C47.99219,31.7663708 48.473956,31.9281037 48.9375,32.2515743 L48.2578125,34.4944958 C47.888019,34.2137478 47.5442724,34.0733759 47.2265625,34.0733759 C46.9192693,34.0733759 46.6588552,34.1725517 46.4453125,34.3709063 C46.2317698,34.5692609 46.0638027,34.9278196 45.9414062,35.4465931 C45.8190098,35.9653667 45.7578125,37.0517233 45.7578125,38.7056955 L45.7578125,41.7084639 Z M54.6875,38.6141477 L56.875,39.0444224 C56.5937486,39.9843181 56.1497426,40.6999097 55.5429688,41.1912188 C54.9361949,41.6825279 54.1770879,41.9281787 53.265625,41.9281787 C51.8229095,41.9281787 50.7552118,41.3758457 50.0625,40.2711632 C49.5156223,39.3861965 49.2421875,38.2693243 49.2421875,36.920513 C49.2421875,35.3092634 49.6015589,34.0474419 50.3203125,33.1350107 C51.0390661,32.2225796 51.9479112,31.7663708 53.046875,31.7663708 C54.2812562,31.7663708 55.2552048,32.2439405 55.96875,33.1990942 C56.6822952,34.1542479 57.0234377,35.6174725 56.9921875,37.5888121 L51.4921875,37.5888121 C51.5078126,38.3517144 51.6848941,38.9452435 52.0234375,39.3694172 C52.3619809,39.7935909 52.7838516,40.0056745 53.2890625,40.0056745 C53.6328142,40.0056745 53.9218738,39.8958182 54.15625,39.6761024 C54.3906262,39.4563865 54.5677077,39.1024051 54.6875,38.6141477 Z M54.8125,36.0141896 C54.7968749,35.269597 54.6328141,34.7035319 54.3203125,34.3159776 C54.0078109,33.9284232 53.6276064,33.7346489 53.1796875,33.7346489 C52.7005184,33.7346489 52.3046891,33.9391037 51.9921875,34.3480193 C51.6796859,34.756935 51.5260416,35.3123195 51.53125,36.0141896 L54.8125,36.0141896 Z M58.6171875,31.9860856 L60.640625,31.9860856 L60.640625,33.313529 C61.364587,32.282085 62.2265575,31.7663708 63.2265625,31.7663708 C63.7578152,31.7663708 64.218748,31.8945365 64.609375,32.1508717 C65.000002,32.4072068 65.3203113,32.7947554 65.5703125,33.313529 C65.9348977,32.7947554 66.3281229,32.4072068 66.75,32.1508717 C67.1718771,31.8945365 67.6223934,31.7663708 68.1015625,31.7663708 C68.7109405,31.7663708 69.2265604,31.9113201 69.6484375,32.201223 C70.0703146,32.4911258 70.3854156,32.9168189 70.59375,33.478315 C70.7447924,33.8933339 70.8203125,34.5646778 70.8203125,35.492367 L70.8203125,41.7084639 L68.625,41.7084639 L68.625,36.1515113 C68.625,35.1872028 68.5494799,34.5646839 68.3984375,34.2839358 C68.1953115,33.9177427 67.8828146,33.7346489 67.4609375,33.7346489 C67.1536443,33.7346489 66.8645847,33.8445052 66.59375,34.0642211 C66.3229153,34.2839369 66.1276048,34.6058769 66.0078125,35.0300506 C65.8880202,35.4542242 65.828125,36.1240424 65.828125,37.0395252 L65.828125,41.7084639 L63.6328125,41.7084639 L63.6328125,36.3803809 C63.6328125,35.434382 63.5937504,34.8240693 63.515625,34.5494245 C63.4374996,34.2747797 63.3164071,34.0703249 63.1523438,33.9360541 C62.9882804,33.8017833 62.7656264,33.7346489 62.484375,33.7346489 C62.1458316,33.7346489 61.8411472,33.8414536 61.5703125,34.0550663 C61.2994778,34.2686789 61.1054693,34.5768868 60.9882812,34.9796993 C60.8710932,35.3825117 60.8125,36.0508041 60.8125,36.9845965 L60.8125,41.7084639 L58.6171875,41.7084639 L58.6171875,31.9860856 Z M73.0078125,30.667797 L73.0078125,28.2875537 L75.203125,28.2875537 L75.203125,30.667797 L73.0078125,30.667797 Z M73.0078125,41.7084639 L73.0078125,31.9860856 L75.203125,31.9860856 L75.203125,41.7084639 L73.0078125,41.7084639 Z M82.9140625,41.7084639 L82.9140625,40.2528536 C82.6119777,40.7716272 82.2148462,41.1805367 81.7226562,41.4795944 C81.2304663,41.7786521 80.7109402,41.9281787 80.1640625,41.9281787 C79.606768,41.9281787 79.106773,41.7847552 78.6640625,41.497904 C78.221352,41.2110527 77.9010427,40.8082463 77.703125,40.2894728 C77.5052073,39.7706992 77.40625,39.0535818 77.40625,38.138099 L77.40625,31.9860856 L79.6015625,31.9860856 L79.6015625,36.4536191 C79.6015625,37.8207401 79.6419267,38.6583942 79.7226562,38.9666068 C79.8033858,39.2748193 79.9505198,39.5189444 80.1640625,39.6989893 C80.3776052,39.8790343 80.6484359,39.9690554 80.9765625,39.9690554 C81.3515644,39.9690554 81.6874985,39.8485186 81.984375,39.6074415 C82.2812515,39.3663644 82.4843745,39.0673112 82.59375,38.7102729 C82.7031255,38.3532346 82.7578125,37.4789617 82.7578125,36.0874279 L82.7578125,31.9860856 L84.953125,31.9860856 L84.953125,41.7084639 L82.9140625,41.7084639 Z M87.0625,31.9860856 L89.0859375,31.9860856 L89.0859375,33.313529 C89.8098995,32.282085 90.67187,31.7663708 91.671875,31.7663708 C92.2031277,31.7663708 92.6640605,31.8945365 93.0546875,32.1508717 C93.4453145,32.4072068 93.7656238,32.7947554 94.015625,33.313529 C94.3802102,32.7947554 94.7734354,32.4072068 95.1953125,32.1508717 C95.6171896,31.8945365 96.0677059,31.7663708 96.546875,31.7663708 C97.156253,31.7663708 97.6718729,31.9113201 98.09375,32.201223 C98.5156271,32.4911258 98.8307281,32.9168189 99.0390625,33.478315 C99.1901049,33.8933339 99.265625,34.5646778 99.265625,35.492367 L99.265625,41.7084639 L97.0703125,41.7084639 L97.0703125,36.1515113 C97.0703125,35.1872028 96.9947924,34.5646839 96.84375,34.2839358 C96.640624,33.9177427 96.3281271,33.7346489 95.90625,33.7346489 C95.5989568,33.7346489 95.3098972,33.8445052 95.0390625,34.0642211 C94.7682278,34.2839369 94.5729173,34.6058769 94.453125,35.0300506 C94.3333327,35.4542242 94.2734375,36.1240424 94.2734375,37.0395252 L94.2734375,41.7084639 L92.078125,41.7084639 L92.078125,36.3803809 C92.078125,35.434382 92.0390629,34.8240693 91.9609375,34.5494245 C91.8828121,34.2747797 91.7617196,34.0703249 91.5976562,33.9360541 C91.4335929,33.8017833 91.2109389,33.7346489 90.9296875,33.7346489 C90.5911441,33.7346489 90.2864597,33.8414536 90.015625,34.0550663 C89.7447903,34.2686789 89.5507818,34.5768868 89.4335938,34.9796993 C89.3164057,35.3825117 89.2578125,36.0508041 89.2578125,36.9845965 L89.2578125,41.7084639 L87.0625,41.7084639 L87.0625,31.9860856 Z" id="path-14"></path>
        <path d="M140.463511,3.72931152 C140.463511,4.39729989 140.296516,5.0196602 139.962522,5.59641113 C139.628528,6.17316206 139.173162,6.62771318 138.596411,6.96007812 C138.01966,7.29244307 137.3973,7.45862305 136.729312,7.45862305 C136.064582,7.45862305 135.443851,7.29244307 134.8671,6.96007812 C134.290349,6.62771318 133.834983,6.17316206 133.500989,5.59641113 C133.166995,5.0196602 133,4.39729989 133,3.72931152 C133,3.06458164 133.166995,2.44303593 133.500989,1.86465576 C133.834983,1.28627559 134.290349,0.830909865 134.8671,0.498544922 C135.443851,0.166179979 136.064582,0 136.729312,0 C137.3973,0 138.01966,0.166179979 138.596411,0.498544922 C139.173162,0.830909865 139.628528,1.28627559 139.962522,1.86465576 C140.296516,2.44303593 140.463511,3.06458164 140.463511,3.72931152 Z M139.740132,3.72931152 C139.740132,2.89839917 139.446058,2.18887582 138.857903,1.60072021 C138.269747,1.0125646 137.560224,0.718491211 136.729312,0.718491211 C135.898399,0.718491211 135.188876,1.0125646 134.60072,1.60072021 C134.012565,2.18887582 133.718491,2.89839917 133.718491,3.72931152 C133.718491,4.56022388 134.012565,5.26974722 134.60072,5.85790283 C135.188876,6.44605844 135.898399,6.74013184 136.729312,6.74013184 C137.560224,6.74013184 138.269747,6.44605844 138.857903,5.85790283 C139.446058,5.26974722 139.740132,4.56022388 139.740132,3.72931152 Z M135.038169,1.73513184 L136.822178,1.73513184 C137.327242,1.73513184 137.693001,1.8369578 137.919465,2.04061279 C138.14593,2.24426778 138.25916,2.51716138 138.25916,2.85930176 C138.25916,3.1264971 138.172812,3.3578457 138.000112,3.55335449 C137.827413,3.74886328 137.555334,3.89060503 137.183867,3.97858398 C137.337016,4.03723662 137.449432,4.09914681 137.521118,4.16431641 C137.622131,4.25555384 137.72803,4.39077873 137.838818,4.56999512 C137.845335,4.58302904 138.060392,4.96752389 138.483994,5.72349121 L137.310947,5.72349121 C136.929705,4.96426541 136.673918,4.5105289 136.543579,4.36226807 C136.41324,4.21400723 136.282903,4.13987793 136.152563,4.13987793 C136.123237,4.13987793 136.082507,4.14476558 136.030371,4.15454102 L136.030371,5.72349121 L135.038169,5.72349121 L135.038169,1.73513184 Z M136.030371,3.42627441 L136.460488,3.42627441 C136.747235,3.42627441 136.949257,3.37984177 137.066562,3.2869751 C137.183868,3.19410842 137.24252,3.07436108 137.24252,2.92772949 C137.24252,2.7810979 137.186312,2.66135056 137.073894,2.56848389 C136.961476,2.47561721 136.770044,2.42918457 136.49959,2.42918457 L136.030371,2.42918457 L136.030371,3.42627441 Z" id="path-15"></path>
        <path d="M139.800086,3.72931152 C139.800086,4.39729989 139.633091,5.0196602 139.299097,5.59641113 C138.965103,6.17316206 138.509737,6.62771318 137.932986,6.96007812 C137.356235,7.29244307 136.733875,7.45862305 136.065887,7.45862305 C135.401157,7.45862305 134.780426,7.29244307 134.203675,6.96007812 C133.626924,6.62771318 133.171558,6.17316206 132.837564,5.59641113 C132.50357,5.0196602 132.336575,4.39729989 132.336575,3.72931152 C132.336575,3.06458164 132.50357,2.44303593 132.837564,1.86465576 C133.171558,1.28627559 133.626924,0.830909865 134.203675,0.498544922 C134.780426,0.166179979 135.401157,0 136.065887,0 C136.733875,0 137.356235,0.166179979 137.932986,0.498544922 C138.509737,0.830909865 138.965103,1.28627559 139.299097,1.86465576 C139.633091,2.44303593 139.800086,3.06458164 139.800086,3.72931152 Z M139.076707,3.72931152 C139.076707,2.89839917 138.782633,2.18887582 138.194478,1.60072021 C137.606322,1.0125646 136.896799,0.718491211 136.065887,0.718491211 C135.234974,0.718491211 134.525451,1.0125646 133.937295,1.60072021 C133.34914,2.18887582 133.055066,2.89839917 133.055066,3.72931152 C133.055066,4.56022388 133.34914,5.26974722 133.937295,5.85790283 C134.525451,6.44605844 135.234974,6.74013184 136.065887,6.74013184 C136.896799,6.74013184 137.606322,6.44605844 138.194478,5.85790283 C138.782633,5.26974722 139.076707,4.56022388 139.076707,3.72931152 Z M134.374744,1.73513184 L136.158753,1.73513184 C136.663817,1.73513184 137.029576,1.8369578 137.25604,2.04061279 C137.482505,2.24426778 137.595735,2.51716138 137.595735,2.85930176 C137.595735,3.1264971 137.509387,3.3578457 137.336687,3.55335449 C137.163988,3.74886328 136.891909,3.89060503 136.520442,3.97858398 C136.673591,4.03723662 136.786007,4.09914681 136.857693,4.16431641 C136.958706,4.25555384 137.064605,4.39077873 137.175393,4.56999512 C137.18191,4.58302904 137.396967,4.96752389 137.820569,5.72349121 L136.647522,5.72349121 C136.26628,4.96426541 136.010493,4.5105289 135.880154,4.36226807 C135.749815,4.21400723 135.619478,4.13987793 135.489138,4.13987793 C135.459812,4.13987793 135.419082,4.14476558 135.366946,4.15454102 L135.366946,5.72349121 L134.374744,5.72349121 L134.374744,1.73513184 Z M135.366946,3.42627441 L135.797063,3.42627441 C136.083809,3.42627441 136.285832,3.37984177 136.403137,3.2869751 C136.520443,3.19410842 136.579095,3.07436108 136.579095,2.92772949 C136.579095,2.7810979 136.522887,2.66135056 136.410469,2.56848389 C136.298051,2.47561721 136.106619,2.42918457 135.836165,2.42918457 L135.366946,2.42918457 L135.366946,3.42627441 Z" id="path-16"></path>
    </defs>
    <g id="LOGOS/logo_scorpio" stroke="none" stroke-width="1" fill="none" fill-rule="evenodd">
        <mask id="mask-2" fill="white">
            <use xlink:href="#path-1"></use>
        </mask>
        <g id="Background"></g>
        <g id="Group-7" mask="url(#mask-2)">
            <g transform="translate(42.000000, 17.000000)">
                <g id="Group-8" stroke-width="1" fill-rule="evenodd" transform="translate(0.000000, 1.287554)">
                    <g id="Combined-Shape" fill-rule="nonzero">
                        <use fill="#000000" xlink:href="#path-3"></use>
                        <path d="M122.122197,2.84217094e-14 C125.697625,2.84217094e-14 128.452422,0.959782883 130.38667,2.87937744 C132.320918,4.798972 133.288027,7.48782939 133.288027,10.9460303 C133.288027,13.456645 132.865527,15.515416 132.020515,17.1224048 C131.175503,18.7293936 129.954405,19.9797978 128.357185,20.8736548 C126.759965,21.7675118 124.769576,22.2144336 122.385957,22.2144336 C119.963263,22.2144336 117.95822,21.8285667 116.370769,21.0568213 C114.783318,20.2850759 113.496281,19.0639781 112.509619,17.3934912 C111.522957,15.7230043 111.029634,13.6324849 111.029634,11.1218701 C111.029634,7.61482459 112.006512,4.88444987 113.960298,2.93066406 C115.914084,0.976878252 118.63469,2.84217094e-14 122.122197,2.84217094e-14 Z M122.107544,5.02608887 C120.769201,5.02608887 119.694635,5.49987482 118.883813,6.44746094 C118.072992,7.39504706 117.667588,8.96293665 117.667588,11.1511768 C117.667588,13.319879 118.07055,14.8779998 118.876487,15.8255859 C119.682423,16.7731721 120.778969,17.246958 122.166157,17.246958 C123.592421,17.246958 124.696293,16.7829408 125.477808,15.8548926 C126.259322,14.9268443 126.650073,13.2612669 126.650073,10.8581104 C126.650073,8.83594204 126.242227,7.35841368 125.426521,6.42548096 C124.610815,5.49254823 123.504501,5.02608887 122.107544,5.02608887 Z" stroke-linejoin="square" fill="#FFFFFF" fill-rule="evenodd"></path>
                    </g>
                    <g id="Combined-Shape" fill-rule="nonzero">
                        <use fill="#000000" xlink:href="#path-4"></use>
                        <path d="M120.122197,1.13686838e-13 C123.697625,1.13686838e-13 126.452422,0.959782883 128.38667,2.87937744 C130.320918,4.798972 131.288027,7.48782939 131.288027,10.9460303 C131.288027,13.456645 130.865527,15.515416 130.020515,17.1224048 C129.175503,18.7293936 127.954405,19.9797978 126.357185,20.8736548 C124.759965,21.7675118 122.769576,22.2144336 120.385957,22.2144336 C117.963263,22.2144336 115.95822,21.8285667 114.370769,21.0568213 C112.783318,20.2850759 111.496281,19.0639781 110.509619,17.3934912 C109.522957,15.7230043 109.029634,13.6324849 109.029634,11.1218701 C109.029634,7.61482459 110.006512,4.88444987 111.960298,2.93066406 C113.914084,0.976878252 116.63469,1.13686838e-13 120.122197,1.13686838e-13 Z M120.107544,5.02608887 C118.769201,5.02608887 117.694635,5.49987482 116.883813,6.44746094 C116.072992,7.39504706 115.667588,8.96293665 115.667588,11.1511768 C115.667588,13.319879 116.07055,14.8779998 116.876487,15.8255859 C117.682423,16.7731721 118.778969,17.246958 120.166157,17.246958 C121.592421,17.246958 122.696293,16.7829408 123.477808,15.8548926 C124.259322,14.9268443 124.650073,13.2612669 124.650073,10.8581104 C124.650073,8.83594204 124.242227,7.35841368 123.426521,6.42548096 C122.610815,5.49254823 121.504501,5.02608887 120.107544,5.02608887 Z" stroke-linejoin="square" fill="#F80005" fill-rule="evenodd"></path>
                    </g>
                    <polygon id="Path" fill="#FFFFFF" fill-rule="nonzero" points="103.449937 0.366333008 110.102544 0.366333008 110.102544 21.8481006 103.449937 21.8481006"></polygon>
                    <g id="Path" fill-rule="nonzero">
                        <use fill="#000000" xlink:href="#path-5"></use>
                        <polygon stroke-linejoin="square" fill="#F80005" fill-rule="evenodd" points="101.449937 0.366333008 108.102544 0.366333008 108.102544 21.8481006 101.449937 21.8481006"></polygon>
                    </g>
                    <path d="M95.5185596,0.366333008 C97.9217161,0.366333008 99.7216143,0.937806785 100.918308,2.08077148 C102.115002,3.22373618 102.71334,4.85023847 102.71334,6.96032715 C102.71334,9.1290294 102.061274,10.8239132 100.757122,12.0450293 C99.4529696,13.2661454 97.4625801,13.8766943 94.7858936,13.8766943 L91.1518701,13.8766943 L91.1518701,21.8481006 L84.4846094,21.8481006 L84.4846094,0.366333008 L95.5185596,0.366333008 Z M93.0421484,4.73302246 L91.1518701,4.73302246 L91.1518701,9.5246582 L92.7783887,9.5246582 C94.0581184,9.5246582 94.9568464,9.3024184 95.4745996,8.85793213 C95.9923528,8.41344586 96.2512256,7.84441428 96.2512256,7.15082031 C96.2512256,6.47676421 96.0265436,5.90529043 95.5771729,5.43638184 C95.1278021,4.96747324 94.2828024,4.73302246 93.0421484,4.73302246 Z" id="Combined-Shape" fill="#FFFFFF" fill-rule="nonzero"></path>
                    <g id="Combined-Shape" fill-rule="nonzero">
                        <use fill="#000000" xlink:href="#path-6"></use>
                        <path d="M93.5185596,0.366333008 C95.9217161,0.366333008 97.7216143,0.937806785 98.9183081,2.08077148 C100.115002,3.22373618 100.71334,4.85023847 100.71334,6.96032715 C100.71334,9.1290294 100.061274,10.8239132 98.7571216,12.0450293 C97.4529696,13.2661454 95.4625801,13.8766943 92.7858936,13.8766943 L89.1518701,13.8766943 L89.1518701,21.8481006 L82.4846094,21.8481006 L82.4846094,0.366333008 L93.5185596,0.366333008 Z M91.0421484,4.73302246 L89.1518701,4.73302246 L89.1518701,9.5246582 L90.7783887,9.5246582 C92.0581184,9.5246582 92.9568464,9.3024184 93.4745996,8.85793213 C93.9923528,8.41344586 94.2512256,7.84441428 94.2512256,7.15082031 C94.2512256,6.47676421 94.0265436,5.90529043 93.5771729,5.43638184 C93.1278021,4.96747324 92.2828024,4.73302246 91.0421484,4.73302246 Z" stroke-linejoin="square" fill="#F80005" fill-rule="evenodd"></path>
                    </g>
                    <path d="M74.3223535,0.366333008 C76.3738286,0.366333008 77.9417182,0.542171093 79.0260693,0.893852539 C80.1104205,1.24553398 80.9847265,1.89760022 81.6490137,2.8500708 C82.3133008,3.80254138 82.6454395,4.96258431 82.6454395,6.33023438 C82.6454395,7.52204372 82.3914511,8.55020808 81.8834668,9.4147583 C81.3754825,10.2793085 80.6770145,10.9802187 79.788042,11.5175098 C79.2214441,11.8594223 78.4448259,12.142717 77.4581641,12.3674023 C78.2494473,12.6311634 78.8258055,12.8949206 79.1872559,13.1586816 C79.4314791,13.3345224 79.7855975,13.7106205 80.2496216,14.2869873 C80.7136457,14.8633541 81.0238046,15.3078337 81.1801074,15.6204395 L84.3891846,21.8481006 L76.8866846,21.8481006 L73.3405811,15.2834131 C72.8912103,14.4335163 72.4906902,13.88158 72.1390088,13.6275879 C71.6603313,13.2954443 71.1181638,13.129375 70.5124902,13.129375 L69.9263574,13.129375 L69.9263574,21.8481006 L63.2590967,21.8481006 L63.2590967,0.366333008 L74.3223535,0.366333008 Z M72.8423682,4.70371582 L69.9263574,4.70371582 L69.9263574,9.07040527 L72.7251416,9.07040527 C73.0279784,9.07040527 73.6141054,8.97271745 74.48354,8.77733887 C74.9231418,8.68941851 75.2821446,8.46473651 75.5605591,8.10328613 C75.8389736,7.74183576 75.9781787,7.3266625 75.9781787,6.85775391 C75.9781787,6.16415994 75.7583811,5.6317613 75.3187793,5.26054199 C74.8791775,4.88932269 74.0537154,4.70371582 72.8423682,4.70371582 Z" id="Combined-Shape" fill="#FFFFFF" fill-rule="nonzero"></path>
                    <g id="Combined-Shape" fill-rule="nonzero">
                        <use fill="#000000" xlink:href="#path-7"></use>
                        <path d="M73.3223535,0.366333008 C75.3738286,0.366333008 76.9417182,0.542171093 78.0260693,0.893852539 C79.1104205,1.24553398 79.9847265,1.89760022 80.6490137,2.8500708 C81.3133008,3.80254138 81.6454395,4.96258431 81.6454395,6.33023438 C81.6454395,7.52204372 81.3914511,8.55020808 80.8834668,9.4147583 C80.3754825,10.2793085 79.6770145,10.9802187 78.788042,11.5175098 C78.2214441,11.8594223 77.4448259,12.142717 76.4581641,12.3674023 C77.2494473,12.6311634 77.8258055,12.8949206 78.1872559,13.1586816 C78.4314791,13.3345224 78.7855975,13.7106205 79.2496216,14.2869873 C79.7136457,14.8633541 80.0238046,15.3078337 80.1801074,15.6204395 L83.3891846,21.8481006 L75.8866846,21.8481006 L72.3405811,15.2834131 C71.8912103,14.4335163 71.4906902,13.88158 71.1390088,13.6275879 C70.6603313,13.2954443 70.1181638,13.129375 69.5124902,13.129375 L68.9263574,13.129375 L68.9263574,21.8481006 L62.2590967,21.8481006 L62.2590967,0.366333008 L73.3223535,0.366333008 Z M71.8423682,4.70371582 L68.9263574,4.70371582 L68.9263574,9.07040527 L71.7251416,9.07040527 C72.0279784,9.07040527 72.6141054,8.97271745 73.48354,8.77733887 C73.9231418,8.68941851 74.2821446,8.46473651 74.5605591,8.10328613 C74.8389736,7.74183576 74.9781787,7.3266625 74.9781787,6.85775391 C74.9781787,6.16415994 74.7583811,5.6317613 74.3187793,5.26054199 C73.8791775,4.88932269 73.0537154,4.70371582 71.8423682,4.70371582 Z" stroke-linejoin="square" fill="#F80005" fill-rule="evenodd"></path>
                    </g>
                    <path d="M52.4299365,5.5067062e-14 C56.0053646,5.5067062e-14 58.7601612,0.959782883 60.6944092,2.87937744 C62.6286571,4.798972 63.5957666,7.48782939 63.5957666,10.9460303 C63.5957666,13.456645 63.1732668,15.515416 62.3282544,17.1224048 C61.483242,18.7293936 60.2621442,19.9797978 58.6649243,20.8736548 C57.0677044,21.7675118 55.077315,22.2144336 52.6936963,22.2144336 C50.2710019,22.2144336 48.2659593,21.8285667 46.6785083,21.0568213 C45.0910573,20.2850759 43.8040202,19.0639781 42.8173584,17.3934912 C41.8306966,15.7230043 41.337373,13.6324849 41.337373,11.1218701 C41.337373,7.61482459 42.3142513,4.88444987 44.2680371,2.93066406 C46.2218229,0.976878252 48.9424289,5.5067062e-14 52.4299365,5.5067062e-14 Z M52.4152832,5.02608887 C51.0769399,5.02608887 50.0023738,5.49987482 49.1915527,6.44746094 C48.3807316,7.39504706 47.9753271,8.96293665 47.9753271,11.1511768 C47.9753271,13.319879 48.3782894,14.8779998 49.1842261,15.8255859 C49.9901627,16.7731721 51.0867086,17.246958 52.4738965,17.246958 C53.9001601,17.246958 55.0040326,16.7829408 55.7855469,15.8548926 C56.5670612,14.9268443 56.9578125,13.2612669 56.9578125,10.8581104 C56.9578125,8.83594204 56.5499658,7.35841368 55.7342603,6.42548096 C54.9185547,5.49254823 53.8122401,5.02608887 52.4152832,5.02608887 Z" id="Combined-Shape" fill="#FFFFFF" fill-rule="nonzero"></path>
                    <g id="Combined-Shape" fill-rule="nonzero">
                        <use fill="#000000" xlink:href="#path-8"></use>
                        <path d="M50.4299365,1.13686838e-13 C54.0053646,1.13686838e-13 56.7601612,0.959782883 58.6944092,2.87937744 C60.6286571,4.798972 61.5957666,7.48782939 61.5957666,10.9460303 C61.5957666,13.456645 61.1732668,15.515416 60.3282544,17.1224048 C59.483242,18.7293936 58.2621442,19.9797978 56.6649243,20.8736548 C55.0677044,21.7675118 53.077315,22.2144336 50.6936963,22.2144336 C48.2710019,22.2144336 46.2659593,21.8285667 44.6785083,21.0568213 C43.0910573,20.2850759 41.8040202,19.0639781 40.8173584,17.3934912 C39.8306966,15.7230043 39.337373,13.6324849 39.337373,11.1218701 C39.337373,7.61482459 40.3142513,4.88444987 42.2680371,2.93066406 C44.2218229,0.976878252 46.9424289,1.13686838e-13 50.4299365,1.13686838e-13 Z M50.4152832,5.02608887 C49.0769399,5.02608887 48.0023738,5.49987482 47.1915527,6.44746094 C46.3807316,7.39504706 45.9753271,8.96293665 45.9753271,11.1511768 C45.9753271,13.319879 46.3782894,14.8779998 47.1842261,15.8255859 C47.9901627,16.7731721 49.0867086,17.246958 50.4738965,17.246958 C51.9001601,17.246958 53.0040326,16.7829408 53.7855469,15.8548926 C54.5670612,14.9268443 54.9578125,13.2612669 54.9578125,10.8581104 C54.9578125,8.83594204 54.5499658,7.35841368 53.7342603,6.42548096 C52.9185547,5.49254823 51.8122401,5.02608887 50.4152832,5.02608887 Z" stroke-linejoin="square" fill="#F80005" fill-rule="evenodd"></path>
                    </g>
                    <g id="Path" fill-rule="nonzero">
                        <use fill="#000000" xlink:href="#path-9"></use>
                        <path d="M36.1315137,13.0707617 L41.9488818,14.8291602 C41.5581247,16.4605713 40.9426914,17.8233165 40.1025635,18.9174365 C39.2624356,20.0115566 38.219618,20.8370187 36.9740796,21.3938477 C35.7285411,21.9506766 34.1435562,22.2290869 32.2190771,22.2290869 C29.8843031,22.2290869 27.9769483,21.8896217 26.4969556,21.2106812 C25.0169628,20.5317406 23.7396945,19.3375069 22.6651123,17.6279443 C21.5905301,15.9183818 21.0532471,13.7301745 21.0532471,11.0632568 C21.0532471,7.50736666 21.9983768,4.77454975 23.8886646,2.86472412 C25.7789523,0.954898491 28.4531565,2.84217094e-14 31.9113574,2.84217094e-14 C34.6173508,2.84217094e-14 36.7445032,0.547051821 38.2928784,1.64117188 C39.8412537,2.73529193 40.9915278,4.41552252 41.7437354,6.68191406 L35.8824072,7.98605957 C35.6772597,7.33154132 35.4623465,6.85287098 35.2376611,6.55003418 C34.8664418,6.04204987 34.4121934,5.65129857 33.8749023,5.37776855 C33.3376112,5.10423854 32.7368311,4.96747559 32.0725439,4.96747559 C30.5681289,4.96747559 29.4154125,5.5731401 28.6143604,6.7844873 C28.0086868,7.68322878 27.7058545,9.09481785 27.7058545,11.0192969 C27.7058545,13.4029156 28.0672994,15.0367444 28.7902002,15.9208325 C29.5131009,16.8049206 30.5290543,17.246958 31.8380908,17.246958 C33.1080516,17.246958 34.0678345,16.8903974 34.7174683,16.1772656 C35.367102,15.4641338 35.8384458,14.4286429 36.1315137,13.0707617 Z" stroke-linejoin="square" fill="#FFFFFF" fill-rule="evenodd"></path>
                    </g>
                    <g id="Path" fill-rule="nonzero">
                        <use fill="#000000" xlink:href="#path-10"></use>
                        <path d="M34.1315137,13.0707617 L39.9488818,14.8291602 C39.5581247,16.4605713 38.9426914,17.8233165 38.1025635,18.9174365 C37.2624356,20.0115566 36.219618,20.8370187 34.9740796,21.3938477 C33.7285411,21.9506766 32.1435562,22.2290869 30.2190771,22.2290869 C27.8843031,22.2290869 25.9769483,21.8896217 24.4969556,21.2106812 C23.0169628,20.5317406 21.7396945,19.3375069 20.6651123,17.6279443 C19.5905301,15.9183818 19.0532471,13.7301745 19.0532471,11.0632568 C19.0532471,7.50736666 19.9983768,4.77454975 21.8886646,2.86472412 C23.7789523,0.954898491 26.4531565,2.84217094e-14 29.9113574,2.84217094e-14 C32.6173508,2.84217094e-14 34.7445032,0.547051821 36.2928784,1.64117188 C37.8412537,2.73529193 38.9915278,4.41552252 39.7437354,6.68191406 L33.8824072,7.98605957 C33.6772597,7.33154132 33.4623465,6.85287098 33.2376611,6.55003418 C32.8664418,6.04204987 32.4121934,5.65129857 31.8749023,5.37776855 C31.3376112,5.10423854 30.7368311,4.96747559 30.0725439,4.96747559 C28.5681289,4.96747559 27.4154125,5.5731401 26.6143604,6.7844873 C26.0086868,7.68322878 25.7058545,9.09481785 25.7058545,11.0192969 C25.7058545,13.4029156 26.0672994,15.0367444 26.7902002,15.9208325 C27.5131009,16.8049206 28.5290543,17.246958 29.8380908,17.246958 C31.1080516,17.246958 32.0678345,16.8903974 32.7174683,16.1772656 C33.367102,15.4641338 33.8384458,14.4286429 34.1315137,13.0707617 Z" stroke-linejoin="square" fill="#F80005" fill-rule="evenodd"></path>
                    </g>
                    <g id="Path" fill-rule="nonzero">
                        <use fill="#000000" xlink:href="#path-11"></use>
                        <path d="M2,14.7412402 L8.31558105,14.3456006 C8.45234606,15.3713381 8.73075636,16.1528407 9.15082031,16.6901318 C9.83464535,17.5595665 10.8115236,17.9942773 12.0814844,17.9942773 C13.0290705,17.9942773 13.759287,17.7720375 14.2721558,17.3275513 C14.7850245,16.883065 15.0414551,16.3677617 15.0414551,15.781626 C15.0414551,15.224797 14.7972355,14.7265891 14.3087891,14.2869873 C13.8203426,13.8473855 12.6871638,13.4322122 10.9092188,13.0414551 C7.99807789,12.3869368 5.92221161,11.5175152 4.68155762,10.4331641 C3.4311347,9.34881294 2.80593262,7.96653021 2.80593262,6.28627441 C2.80593262,5.18238543 3.12586024,4.1395679 3.7657251,3.15779053 C4.40558995,2.17601316 5.36781503,1.40427934 6.6524292,0.842565918 C7.93704337,0.280852497 9.69786642,8.52651283e-14 11.9349512,8.52651283e-14 C14.6800202,8.52651283e-14 16.7729819,0.510418887 18.2138989,1.53127197 C19.654816,2.55212506 20.5120266,4.17618515 20.7855566,6.40350098 L14.5285889,6.76983398 C14.3625171,5.80271001 14.0132831,5.09935767 13.4808765,4.65975586 C12.9484698,4.22015405 12.2133689,4.00035645 11.2755518,4.00035645 C10.5038064,4.00035645 9.9225638,4.16398355 9.53180664,4.49124268 C9.14104948,4.8185018 8.94567383,5.21657969 8.94567383,5.68548828 C8.94567383,6.0274008 9.10685874,6.33511745 9.4292334,6.60864746 C9.74183913,6.8919464 10.4842666,7.15570353 11.6565381,7.39992676 C14.55791,8.02513822 16.6362185,8.65766689 17.8915259,9.29753174 C19.1468333,9.93739659 20.0602144,10.7311102 20.6316968,11.6786963 C21.2031791,12.6262824 21.488916,13.6861953 21.488916,14.8584668 C21.488916,16.2358858 21.1079335,17.5058275 20.345957,18.6683301 C19.5839806,19.8308326 18.5191833,20.7124653 17.1515332,21.3132544 C15.7838831,21.9140435 14.059693,22.2144336 11.9789111,22.2144336 C8.32533167,22.2144336 5.79521699,21.5110813 4.38849121,20.1043555 C2.98176543,18.6976297 2.18560965,16.9099425 2,14.7412402 Z" stroke-linejoin="square" fill="#FFFFFF" fill-rule="evenodd"></path>
                    </g>
                    <g id="Path" fill-rule="nonzero">
                        <use fill="#000000" xlink:href="#path-12"></use>
                        <path d="M1.11910481e-13,14.7412402 L6.31558105,14.3456006 C6.45234606,15.3713381 6.73075636,16.1528407 7.15082031,16.6901318 C7.83464535,17.5595665 8.8115236,17.9942773 10.0814844,17.9942773 C11.0290705,17.9942773 11.759287,17.7720375 12.2721558,17.3275513 C12.7850245,16.883065 13.0414551,16.3677617 13.0414551,15.781626 C13.0414551,15.224797 12.7972355,14.7265891 12.3087891,14.2869873 C11.8203426,13.8473855 10.6871638,13.4322122 8.90921875,13.0414551 C5.99807789,12.3869368 3.92221161,11.5175152 2.68155762,10.4331641 C1.4311347,9.34881294 0.805932617,7.96653021 0.805932617,6.28627441 C0.805932617,5.18238543 1.12586024,4.1395679 1.7657251,3.15779053 C2.40558995,2.17601316 3.36781503,1.40427934 4.6524292,0.842565918 C5.93704337,0.280852497 7.69786642,2.66453526e-14 9.93495117,2.66453526e-14 C12.6800202,2.66453526e-14 14.7729819,0.510418887 16.2138989,1.53127197 C17.654816,2.55212506 18.5120266,4.17618515 18.7855566,6.40350098 L12.5285889,6.76983398 C12.3625171,5.80271001 12.0132831,5.09935767 11.4808765,4.65975586 C10.9484698,4.22015405 10.2133689,4.00035645 9.27555176,4.00035645 C8.50380636,4.00035645 7.9225638,4.16398355 7.53180664,4.49124268 C7.14104948,4.8185018 6.94567383,5.21657969 6.94567383,5.68548828 C6.94567383,6.0274008 7.10685874,6.33511745 7.4292334,6.60864746 C7.74183913,6.8919464 8.4842666,7.15570353 9.65653809,7.39992676 C12.55791,8.02513822 14.6362185,8.65766689 15.8915259,9.29753174 C17.1468333,9.93739659 18.0602144,10.7311102 18.6316968,11.6786963 C19.2031791,12.6262824 19.488916,13.6861953 19.488916,14.8584668 C19.488916,16.2358858 19.1079335,17.5058275 18.345957,18.6683301 C17.5839806,19.8308326 16.5191833,20.7124653 15.1515332,21.3132544 C13.7838831,21.9140435 12.059693,22.2144336 9.97891113,22.2144336 C6.32533167,22.2144336 3.79521699,21.5110813 2.38849121,20.1043555 C0.981765427,18.6976297 0.185609652,16.9099425 1.11910481e-13,14.7412402 Z" stroke-linejoin="square" fill="#F80005" fill-rule="evenodd"></path>
                    </g>
                </g>
                <g id="Premium-Copy" fill-rule="nonzero">
                    <use fill="#000000" xlink:href="#path-13"></use>
                    <use fill="#FFFFFF" xlink:href="#path-13"></use>
                </g>
                <g id="Premium-Copy" fill-rule="nonzero">
                    <use fill="#000000" xlink:href="#path-14"></use>
                    <use fill="#F80005" xlink:href="#path-14"></use>
                </g>
                <g id="" fill-rule="nonzero">
                    <use fill="#000000" xlink:href="#path-15"></use>
                    <use fill="#000000" xlink:href="#path-15"></use>
                    <path d="M140.463511,3.72931152 C140.463511,4.39729989 140.296516,5.0196602 139.962522,5.59641113 C139.628528,6.17316206 139.173162,6.62771318 138.596411,6.96007812 C138.01966,7.29244307 137.3973,7.45862305 136.729312,7.45862305 C136.064582,7.45862305 135.443851,7.29244307 134.8671,6.96007812 C134.290349,6.62771318 133.834983,6.17316206 133.500989,5.59641113 C133.166995,5.0196602 133,4.39729989 133,3.72931152 C133,3.06458164 133.166995,2.44303593 133.500989,1.86465576 C133.834983,1.28627559 134.290349,0.830909865 134.8671,0.498544922 C135.443851,0.166179979 136.064582,0 136.729312,0 C137.3973,0 138.01966,0.166179979 138.596411,0.498544922 C139.173162,0.830909865 139.628528,1.28627559 139.962522,1.86465576 C140.296516,2.44303593 140.463511,3.06458164 140.463511,3.72931152 Z M139.740132,3.72931152 C139.740132,2.89839917 139.446058,2.18887582 138.857903,1.60072021 C138.269747,1.0125646 137.560224,0.718491211 136.729312,0.718491211 C135.898399,0.718491211 135.188876,1.0125646 134.60072,1.60072021 C134.012565,2.18887582 133.718491,2.89839917 133.718491,3.72931152 C133.718491,4.56022388 134.012565,5.26974722 134.60072,5.85790283 C135.188876,6.44605844 135.898399,6.74013184 136.729312,6.74013184 C137.560224,6.74013184 138.269747,6.44605844 138.857903,5.85790283 C139.446058,5.26974722 139.740132,4.56022388 139.740132,3.72931152 Z M135.038169,1.73513184 L136.822178,1.73513184 C137.327242,1.73513184 137.693001,1.8369578 137.919465,2.04061279 C138.14593,2.24426778 138.25916,2.51716138 138.25916,2.85930176 C138.25916,3.1264971 138.172812,3.3578457 138.000112,3.55335449 C137.827413,3.74886328 137.555334,3.89060503 137.183867,3.97858398 C137.337016,4.03723662 137.449432,4.09914681 137.521118,4.16431641 C137.622131,4.25555384 137.72803,4.39077873 137.838818,4.56999512 C137.845335,4.58302904 138.060392,4.96752389 138.483994,5.72349121 L137.310947,5.72349121 C136.929705,4.96426541 136.673918,4.5105289 136.543579,4.36226807 C136.41324,4.21400723 136.282903,4.13987793 136.152563,4.13987793 C136.123237,4.13987793 136.082507,4.14476558 136.030371,4.15454102 L136.030371,5.72349121 L135.038169,5.72349121 L135.038169,1.73513184 Z M136.030371,3.42627441 L136.460488,3.42627441 C136.747235,3.42627441 136.949257,3.37984177 137.066562,3.2869751 C137.183868,3.19410842 137.24252,3.07436108 137.24252,2.92772949 C137.24252,2.7810979 137.186312,2.66135056 137.073894,2.56848389 C136.961476,2.47561721 136.770044,2.42918457 136.49959,2.42918457 L136.030371,2.42918457 L136.030371,3.42627441 Z" stroke-linejoin="square" fill="#FFFFFF" fill-rule="evenodd"></path>
                </g>
                <g id="" fill-rule="nonzero">
                    <use fill="#000000" xlink:href="#path-16"></use>
                    <use fill="#000000" xlink:href="#path-16"></use>
                    <path d="M139.800086,3.72931152 C139.800086,4.39729989 139.633091,5.0196602 139.299097,5.59641113 C138.965103,6.17316206 138.509737,6.62771318 137.932986,6.96007812 C137.356235,7.29244307 136.733875,7.45862305 136.065887,7.45862305 C135.401157,7.45862305 134.780426,7.29244307 134.203675,6.96007812 C133.626924,6.62771318 133.171558,6.17316206 132.837564,5.59641113 C132.50357,5.0196602 132.336575,4.39729989 132.336575,3.72931152 C132.336575,3.06458164 132.50357,2.44303593 132.837564,1.86465576 C133.171558,1.28627559 133.626924,0.830909865 134.203675,0.498544922 C134.780426,0.166179979 135.401157,0 136.065887,0 C136.733875,0 137.356235,0.166179979 137.932986,0.498544922 C138.509737,0.830909865 138.965103,1.28627559 139.299097,1.86465576 C139.633091,2.44303593 139.800086,3.06458164 139.800086,3.72931152 Z M139.076707,3.72931152 C139.076707,2.89839917 138.782633,2.18887582 138.194478,1.60072021 C137.606322,1.0125646 136.896799,0.718491211 136.065887,0.718491211 C135.234974,0.718491211 134.525451,1.0125646 133.937295,1.60072021 C133.34914,2.18887582 133.055066,2.89839917 133.055066,3.72931152 C133.055066,4.56022388 133.34914,5.26974722 133.937295,5.85790283 C134.525451,6.44605844 135.234974,6.74013184 136.065887,6.74013184 C136.896799,6.74013184 137.606322,6.44605844 138.194478,5.85790283 C138.782633,5.26974722 139.076707,4.56022388 139.076707,3.72931152 Z M134.374744,1.73513184 L136.158753,1.73513184 C136.663817,1.73513184 137.029576,1.8369578 137.25604,2.04061279 C137.482505,2.24426778 137.595735,2.51716138 137.595735,2.85930176 C137.595735,3.1264971 137.509387,3.3578457 137.336687,3.55335449 C137.163988,3.74886328 136.891909,3.89060503 136.520442,3.97858398 C136.673591,4.03723662 136.786007,4.09914681 136.857693,4.16431641 C136.958706,4.25555384 137.064605,4.39077873 137.175393,4.56999512 C137.18191,4.58302904 137.396967,4.96752389 137.820569,5.72349121 L136.647522,5.72349121 C136.26628,4.96426541 136.010493,4.5105289 135.880154,4.36226807 C135.749815,4.21400723 135.619478,4.13987793 135.489138,4.13987793 C135.459812,4.13987793 135.419082,4.14476558 135.366946,4.15454102 L135.366946,5.72349121 L134.374744,5.72349121 L134.374744,1.73513184 Z M135.366946,3.42627441 L135.797063,3.42627441 C136.083809,3.42627441 136.285832,3.37984177 136.403137,3.2869751 C136.520443,3.19410842 136.579095,3.07436108 136.579095,2.92772949 C136.579095,2.7810979 136.522887,2.66135056 136.410469,2.56848389 C136.298051,2.47561721 136.106619,2.42918457 135.836165,2.42918457 L135.366946,2.42918457 L135.366946,3.42627441 Z" stroke-linejoin="square" fill="#F80005" fill-rule="evenodd"></path>
                </g>
            </g>
        </g>
    </g>
</svg>