<?xml version="1.0" encoding="UTF-8"?>
<svg width="224px" height="75px" viewBox="0 0 224 75" version="1.1" xmlns="http://www.w3.org/2000/svg" xmlns:xlink="http://www.w3.org/1999/xlink">
    <!-- Generator: Sketch 58 (84663) - https://sketch.com -->
    <title>LOGOS/logo_nippon</title>
    <desc>Created with Sketch.</desc>
    <defs>
        <rect id="path-1" x="0" y="0" width="224" height="75"></rect>
    </defs>
    <g id="LOGOS/logo_nippon" stroke="none" stroke-width="1" fill="none" fill-rule="evenodd">
        <mask id="mask-2" fill="white">
            <use xlink:href="#path-1"></use>
        </mask>
        <g id="Background"></g>
        <g id="Ресурс-3" mask="url(#mask-2)" fill-rule="nonzero">
            <g transform="translate(16.000000, 13.891562)">
                <path d="M40,44.214821 C35.281268,47.7733186 29.4098869,49.4894006 23.5001343,49.0373868 C19.3100631,48.779035 15.4872492,47.4110957 11.9315315,45.2349792 C10.8230824,44.5559778 10.6361151,44.1253916 11.8747736,43.360273 C14.6929004,41.5823751 17.8347918,40.3693514 21.1229784,39.7897195 C22.124589,39.6207972 22.3649755,39.2332696 22.3382659,38.2826677 C22.2681532,35.8548238 22.2614758,33.4236677 22.3382659,30.9958238 C22.3683143,29.9789779 22.0477989,29.5417673 21.0294947,29.3397229 C18.1248239,28.7832731 15.6875714,27.2960945 13.4172539,25.4611347 C12.542514,24.7556357 12.8096102,24.3946057 13.4973828,23.841468 C15.7677002,22.0031961 18.2717268,20.6021347 21.1329945,19.949631 C22.091202,19.7310257 22.3683143,19.3534347 22.3416046,18.4028328 C22.2714919,15.9186814 22.2681532,13.4345301 22.3416046,10.9503788 C22.3749917,9.86066443 21.9142508,9.53275646 20.9226562,9.38370738 C17.5839542,8.87362831 14.5624288,7.55537201 11.7145159,5.76678306 C10.6227603,5.0811573 10.9032113,4.67706869 11.7445642,4.15374081 C18.1749044,0.179098704 25.0192437,-0.973547506 32.3443561,1.17275923 C34.5730011,1.85646689 36.7046955,2.81924582 38.6878901,4.03781375 C39.6661298,4.62407346 40.0434031,5.00828886 38.7413093,5.81977829 C35.920106,7.59180623 32.9486612,8.87362831 29.6800718,9.39364398 C28.5515905,9.57581508 28.2143816,10.0328989 28.2444299,11.1193011 C28.3178814,13.4908376 28.3412523,15.8689984 28.2444299,18.2372227 C28.1976881,19.3699957 28.6617677,19.7542111 29.666717,20.0026262 C32.457872,20.6915642 34.8984632,22.0727523 37.1287162,23.858029 C37.8999564,24.4707864 37.9133112,24.8516896 37.1287162,25.4942567 C34.8684149,27.3590263 32.3810818,28.7468388 29.5064593,29.3629084 C28.5749614,29.5715771 28.2410912,29.9292949 28.2410912,30.9229554 C28.3078653,33.4037945 28.2978492,35.891258 28.2410912,38.3754093 C28.2410912,39.2432062 28.4581069,39.6075484 29.3829273,39.7797829 C32.9578696,40.3736453 36.3511546,41.7618548 39.3088887,43.8405422 C39.5323706,43.9774321 39.7630703,44.10237 40,44.214821 Z" id="Path" fill="#E31519"></path>
                <path d="M48.9977804,24.8889312 C49.0662811,28.6957508 47.5455655,33.1471647 44.9459638,37.2982179 C44.2164313,38.4625377 43.7643267,38.3106699 43.1204201,37.234096 C37.6746141,28.206399 37.5855632,19.1854516 43.0998698,10.171254 C43.9801039,8.73357211 44.1650558,8.76057083 45.1000904,10.2151269 C47.6791419,14.221062 48.9806552,18.7433476 48.9977804,24.8889312 Z" id="Path" fill="#E31519"></path>
                <path d="M9.99778011,24.8889312 C10.0662897,28.6957508 8.54537598,33.1471647 5.94543556,37.2982179 C5.21580801,38.4625377 4.76706994,38.3106699 4.11965395,37.234096 C-1.32686156,28.206399 -1.41592408,19.1854516 4.1093775,10.171254 C4.98972623,8.73357211 5.17470223,8.76057083 6.10985867,10.2151269 C8.67896976,14.221062 9.98065271,18.7433476 9.99778011,24.8889312 Z" id="Path" fill="#E31519"></path>
                <polygon id="Path" fill="#8C8D8D" points="72.4663212 10.1084384 77 10.1084384 77 35.0715554 74.1794041 35.0715554 74.1794041 35.1084384 61.5336788 18.2629448 61.5336788 35.0715554 57 35.0715554 57 10.1419684 60.6787565 10.1419684 72.4663212 25.5993182"></polygon>
                <polygon id="Path" fill="#8C8D8D" points="83 35.1084384 83 10.1084384 87 10.1084384 87 35.1084384"></polygon>
                <path d="M105.237533,27.7612255 L98.4950131,27.7612255 L98.4950131,35.1084384 L94,35.1084384 L94,10.142018 C97.7533359,10.142018 101.503461,10.1084384 105.253586,10.1084384 C116.902092,10.1084384 116.934199,27.7612255 105.237533,27.7612255 Z M98.4950131,23.446249 L105.237533,23.446249 C111.000782,23.446249 110.968674,14.6013867 105.237533,14.6013867 L98.4950131,14.6013867 L98.4950131,23.446249 Z" id="Shape" fill="#8C8D8D"></path>
                <path d="M129.238209,27.7612255 L122.495284,27.7612255 L122.495284,35.1084384 L118,35.1084384 L118,10.142018 C121.750351,10.142018 125.500702,10.1084384 129.254264,10.1084384 C140.900259,10.1084384 140.935579,27.7612255 129.238209,27.7612255 Z M122.495284,23.446249 L129.238209,23.446249 C135.001805,23.446249 134.966485,14.6013867 129.238209,14.6013867 L122.495284,14.6013867 L122.495284,23.446249 Z" id="Shape" fill="#8C8D8D"></path>
                <path d="M167.999123,22.2140749 C167.927631,28.6629334 163.913887,35.1084384 155.018286,35.1084384 C146.122684,35.1084384 142,28.8037821 142,22.2509639 C142,15.6981456 146.265667,9.1084384 155.018286,9.1084384 C163.770904,9.1084384 168.070615,15.6981456 167.999123,22.2140749 Z M146.715043,22.3213882 C146.823983,26.4194148 149.064054,30.7991388 155.031903,30.7991388 C160.999752,30.7991388 163.239823,26.3825259 163.311315,22.2878528 C163.382806,18.082513 160.996348,13.3808491 155.031903,13.3808491 C149.067458,13.3808491 146.592486,18.1194019 146.715043,22.3213882 Z" id="Shape" fill="#8C8D8D"></path>
                <polygon id="Path" fill="#8C8D8D" points="188.467789 10.1084384 193 10.1084384 193 35.0715554 190.180317 35.0715554 190.180317 35.1084384 177.532211 18.2629448 177.532211 35.0715554 173 35.0715554 173 10.1419684 176.671091 10.1419684 188.467789 25.5993182"></polygon>
            </g>
        </g>
    </g>
</svg>