<?xml version="1.0" encoding="UTF-8"?>
<svg width="224px" height="75px" viewBox="0 0 224 75" version="1.1" xmlns="http://www.w3.org/2000/svg" xmlns:xlink="http://www.w3.org/1999/xlink">
    <!-- Generator: Sketch 58 (84663) - https://sketch.com -->
    <title>LOGOS/logo_avery</title>
    <desc>Created with Sketch.</desc>
    <defs>
        <rect id="path-1" x="0" y="0" width="224" height="75"></rect>
    </defs>
    <g id="LOGOS/logo_avery" stroke="none" stroke-width="1" fill="none" fill-rule="evenodd">
        <mask id="mask-2" fill="white">
            <use xlink:href="#path-1"></use>
        </mask>
        <g id="Background"></g>
        <g id="Ресурс-1" mask="url(#mask-2)" fill-rule="nonzero">
            <g transform="translate(25.000000, 10.000000)">
                <path d="M30.735873,57.1571429 C24.9949206,57.1571429 19.2679365,57.1571429 13.5269841,57.1571429 C11.8499522,57.1689592 10.1742029,57.0609892 8.51238095,56.8340476 C5.39442248,56.39216 2.70064211,54.4163219 1.32960225,51.5656123 C-0.0414376177,48.7149027 0.0906875159,45.3644659 1.68190476,42.6319048 C3.19047619,39.9488095 4.58730159,37.2797619 6.06793651,34.6107143 L12.968254,22.3611905 C15.0355556,18.652619 17.0749206,14.9440476 19.1561905,11.2495238 C20.3574603,9.03 21.6285714,6.79642857 23.0393651,4.61904762 C24.4609789,2.35407256 26.8207076,0.852805966 29.4647619,0.531190476 C33.032899,-0.171749426 36.6781399,1.30343869 38.767619,4.29595238 C40.0425444,6.13455103 41.2221079,8.03820239 42.3015873,9.99928571 C44.3549206,13.5392857 46.352381,17.107381 48.3777778,20.6754762 L55.7949206,33.7678571 C57.4711111,36.7459524 59.1612698,39.71 60.8234921,42.7021429 C61.6081494,44.0558402 62.0360605,45.5886327 62.0666667,47.1552381 C62.1054297,49.2801387 61.4258119,51.3553402 60.1390476,53.0411905 C58.4821833,55.1899442 56.0145579,56.5528154 53.3225397,56.8059524 C51.5346315,57.037588 49.7334628,57.1502141 47.9307937,57.1430952 C42.1479365,57.1852381 36.4349206,57.1571429 30.735873,57.1571429 Z M9.60190476,37.6169048 C10.7892063,37.4764286 11.9346032,37.3640476 13.0939683,37.2095238 C13.2345196,37.163577 13.3504767,37.0621719 13.4152381,36.9285714 L16.7536508,31.0004762 L28.7803175,9.62 C28.9754771,9.29198774 29.2049276,8.98588524 29.4647619,8.70690476 C30.0221159,8.06288459 30.9178903,7.83347201 31.7136508,8.13095238 C32.545915,8.34793645 33.1678504,9.04536219 33.2920635,9.90095238 C33.3791,10.6406903 33.1899475,11.3865814 32.7612698,11.9940476 L27.1739683,21.9397619 L19.8126984,34.9338095 L18.5136508,37.2516667 L18.8907937,37.2516667 C19.8126984,37.2516667 20.7485714,37.2516667 21.6844444,37.2516667 C21.9243566,37.2760314 22.1516516,37.1388795 22.2431746,36.9145238 C24.0217989,33.7678571 25.8004233,30.6211905 27.5790476,27.4745238 L35.3174603,13.7921429 C36.0818771,12.5987268 36.4487903,11.1916147 36.3650794,9.77452381 C36.1332074,7.59086127 34.6177265,5.76195139 32.5238095,5.13880952 C30.3693481,4.49455848 28.0472366,5.31644991 26.7688889,7.17571429 C25.9726984,8.32761905 25.3720635,9.56380952 24.631746,10.7859524 C22.5644444,14.4664286 20.506455,18.1515873 18.4577778,21.8414286 C15.9993651,26.2242857 13.5502646,30.6071429 11.1104762,34.99 C10.5657143,35.875 10.0628571,36.76 9.60190476,37.6169048 Z M39.5079365,14.2978571 C39.2911541,15.5228898 38.9007211,16.7103053 38.3485714,17.8238095 C38.2714774,17.9981994 38.2714774,18.1972768 38.3485714,18.3716667 C39.4660317,20.3664286 40.6114286,22.3611905 41.7428571,24.3559524 C45.4677249,30.9115079 49.1925926,37.4296032 52.9174603,43.9102381 C53.4411181,44.7582387 53.9077689,45.6405268 54.3142857,46.5511905 C54.6456765,47.5842951 54.1854157,48.7068781 53.2262863,49.2048377 C52.2671568,49.7027973 51.0906117,49.430009 50.4450794,48.56 C50.1634098,48.1714055 49.9023068,47.7681475 49.6628571,47.3519048 C47.1765079,42.9971429 44.6994709,38.6330159 42.231746,34.2595238 C40.1365079,30.5603175 38.0366138,26.8611111 35.9320635,23.1619048 C35.9320635,23.0354762 35.7784127,22.9230952 35.6666667,22.7404762 C35.0660317,23.7940476 34.4933333,24.777381 33.9485714,25.7747619 C33.9262589,25.9010039 33.9511332,26.0310851 34.0184127,26.14 L37.5104762,32.2788095 C40.6533333,37.8135714 43.7822222,43.3483333 46.9530159,48.8690476 C47.4105789,49.6699709 47.9590084,50.4147932 48.5873016,51.0885714 C49.7801857,52.2860492 51.4742656,52.8311715 53.1367911,52.5525095 C54.7993166,52.2738476 56.226027,51.2056383 56.968254,49.6838095 C57.8960255,47.8937291 57.7726627,45.7360981 56.6469841,44.0647619 L46.4920635,26.5333333 L39.7733333,14.6911905 L39.5079365,14.2978571 Z M39.3961905,44.9216667 C38.8374603,43.952381 38.3206349,43.1095238 37.8596825,42.2385714 C37.7257914,41.9236515 37.4017218,41.7349662 37.0634921,41.775 L12.4933333,41.775 C11.7809524,41.775 11.0965079,41.775 10.3422222,41.775 C7.4650815,41.7714927 5.0920951,44.0404933 4.95047619,46.9304762 C4.87375628,48.6057029 5.59474037,50.2175727 6.89206349,51.2711905 C8.08308539,52.2037193 9.5777818,52.654676 11.0825397,52.5354762 L43.935873,52.5354762 L44.1873016,52.5354762 C43.5028571,51.6364286 42.7904762,50.7233333 42.1339683,49.8102381 C42.0120833,49.5852517 41.7739394,49.4491739 41.5193651,49.4590476 C31.173545,49.4590476 20.8230688,49.4590476 10.4679365,49.4590476 C10.1993799,49.4618882 9.93163904,49.4288209 9.67174603,49.3607143 C8.78435123,49.1247114 8.13067236,48.3670381 8.02349206,47.4502381 C7.84950326,46.5178325 8.34319761,45.5890865 9.21079365,45.2166667 C9.6885432,45.0148639 10.2011902,44.9098425 10.7193651,44.907619 L39.3263492,44.907619 L39.3961905,44.9216667 Z M31.1269841,30.382381 L27.271746,37.2657143 L35.08,37.2657143 L31.1269841,30.382381 Z" id="Shape" fill="#EE303F"></path>
                <path d="M110.159365,44.0647619 L110.159365,57.0588095 L109.782222,57.0588095 L105.968889,57.0588095 C105.745144,57.0753375 105.536349,56.9448086 105.452063,56.7357143 L100.43746,48.3914286 C100.43746,48.2930952 100.311746,48.2088095 100.186032,47.9980952 L100.186032,57.0307143 L99.6692063,57.0307143 C98.8730159,57.0307143 98.0628571,57.0307143 97.2526984,57.0307143 C96.8615873,57.0307143 96.735873,56.9464286 96.735873,56.525 C96.735873,53.1816667 96.735873,49.8383333 96.735873,46.5090476 C96.735873,45.8066667 96.735873,45.1042857 96.735873,44.4159524 C96.735873,44.022619 96.847619,43.9383333 97.2107937,43.952381 L100.968254,43.952381 C101.208582,43.9239977 101.439763,44.0544216 101.540952,44.2754762 C103.189206,47.085 104.851429,49.7680952 106.499683,52.507381 C106.571334,52.6288814 106.672202,52.7303221 106.793016,52.802381 L106.793016,44.0647619 L110.159365,44.0647619 Z" id="Path" fill="#EE303F"></path>
                <path d="M115.830476,48.2509524 L115.830476,48.7004762 C115.830476,51.3414286 115.830476,53.982381 115.830476,56.6233333 C115.830476,57.002619 115.732698,57.115 115.355556,57.1009524 C114.475556,57.1009524 113.609524,57.1009524 112.729524,57.1009524 C112.422222,57.1009524 112.338413,57.002619 112.338413,56.707619 C112.338413,52.6244444 112.338413,48.5319048 112.338413,44.43 C112.338413,44.135 112.422222,44.0085714 112.743492,44.022619 L116.556825,44.022619 C116.800598,43.9964739 117.032844,44.1331951 117.129524,44.3597619 L122.032381,52.507381 C122.11619,52.6338095 122.2,52.7602381 122.367619,52.985 C122.367619,52.7180952 122.367619,52.5635714 122.367619,52.4230952 C122.367619,49.7821429 122.367619,47.1411905 122.367619,44.5002381 C122.367619,44.1490476 122.367619,43.9945238 122.828571,44.0085714 C123.63873,44.0085714 124.434921,44.0085714 125.245079,44.0085714 C125.789841,44.0085714 125.789841,44.0085714 125.789841,44.5845238 L125.789841,53.0130952 C125.789841,54.2071429 125.789841,55.4011905 125.789841,56.5952381 C125.789841,56.9604762 125.678095,57.0447619 125.328889,57.0447619 L121.627302,57.0447619 C121.370854,57.0612671 121.131267,56.9155774 121.026667,56.6795238 L116.151746,48.5178571 L115.928254,48.1807143 L115.830476,48.2509524 Z" id="Path" fill="#EE303F"></path>
                <path d="M171.284444,44.0507143 L174.720635,44.0507143 L174.720635,44.5283333 C174.720635,48.5459524 174.720635,52.5495238 174.720635,56.5530952 C174.720635,56.9604762 174.720635,57.115 174.189841,57.1009524 C173.016508,57.1009524 171.843175,57.1009524 170.669841,57.1009524 C170.321331,57.1377468 169.988803,56.9450313 169.845714,56.6233333 C168.295238,53.982381 166.716825,51.3695238 165.138413,48.742619 C165.040635,48.56 164.914921,48.3914286 164.817143,48.2228571 L164.705397,48.2228571 L164.705397,48.7145238 C164.705397,51.327381 164.705397,53.9402381 164.705397,56.5530952 C164.705397,56.9745238 164.579683,57.0869048 164.174603,57.0728571 C163.23873,57.0728571 162.288889,57.0728571 161.297143,57.0728571 C161.297143,56.8902381 161.297143,56.7357143 161.297143,56.5811905 C161.297143,52.5354762 161.297143,48.4897619 161.297143,44.4440476 C161.297143,44.0788095 161.408889,43.9804762 161.758095,43.9945238 L165.431746,43.9945238 C165.699412,43.9567635 165.960192,44.0992972 166.074286,44.3457143 C167.72254,47.0990476 169.380106,49.8430159 171.046984,52.577619 C171.127497,52.7005512 171.216164,52.817881 171.312381,52.9288095 L171.284444,44.0507143 Z" id="Path" fill="#EE303F"></path>
                <path d="M144.702857,50.5266667 C144.635325,49.3183635 144.865639,48.1119941 145.373333,47.0147619 C146.181216,45.2686273 147.778763,44.0231011 149.661587,43.6714286 C151.446017,43.2753049 153.298284,43.3089988 155.067302,43.7697619 C157.697258,44.4762472 159.554291,46.8350007 159.634921,49.5714286 C159.790376,51.0021639 159.593705,52.4493939 159.062222,53.7857143 C158.306175,55.5508695 156.742597,56.8350475 154.871746,57.227381 C153.082498,57.6696436 151.213375,57.6696436 149.424127,57.227381 C146.681706,56.6331717 144.697675,54.2318459 144.619048,51.4116667 C144.688889,51.1166667 144.702857,50.8216667 144.702857,50.5266667 Z M152.189841,54.2352381 C153.137855,54.3702542 154.098893,54.1013567 154.841352,53.493348 C155.583811,52.8853392 156.040352,51.9933636 156.100952,51.032381 C156.446947,49.5754385 155.897794,48.0511626 154.704127,47.1552381 C153.9212,46.6331039 152.986526,46.3906867 152.050159,46.4669048 C151.106558,46.3735306 150.165953,46.6716213 149.446058,47.29218 C148.726163,47.9127387 148.289386,48.8019691 148.236825,49.7540476 C147.998754,50.9611658 148.340386,52.2105227 149.15873,53.1254762 C149.963302,53.9167074 151.06777,54.3210795 152.189841,54.2352381 Z" id="Shape" fill="#EE303F"></path>
                <path d="M68.2685714,50.5969048 C68.2685714,48.5740476 68.2685714,46.5652381 68.2685714,44.542381 C68.2685714,44.1490476 68.352381,44.0085714 68.7853968,44.0085714 C71.3834921,44.0085714 73.9815873,44.0085714 76.5796825,44.0085714 C79.1243853,43.9708253 81.3488162,45.7276863 81.9155556,48.2228571 C82.4795094,50.0271986 82.385412,51.9746263 81.6501587,53.7154762 C80.8659499,55.8600027 78.7779558,57.2351812 76.5098413,57.1009524 C73.8977778,57.1009524 71.2857143,57.1009524 68.6736508,57.1009524 C68.3104762,57.1009524 68.2685714,56.9464286 68.2685714,56.637381 L68.2685714,50.5969048 L68.2685714,50.5969048 Z M71.8584127,54.277381 L76.2863492,54.277381 C77.4457143,54.277381 78.1860317,53.1254762 78.4653968,51.9735714 C78.6762817,51.1012774 78.6762817,50.1908654 78.4653968,49.3185714 C78.2428845,48.2321301 77.4055765,47.3790572 76.328254,47.1411905 C75.8711663,47.0265604 75.4024664,46.9652832 74.9314286,46.9585714 C73.9257143,46.9585714 72.92,46.9585714 71.872381,46.9585714 L71.8584127,54.277381 Z" id="Shape" fill="#EE303F"></path>
                <path d="M112.855238,32.5597619 L115.732698,32.5597619 C116.082127,32.5624256 116.430157,32.5151271 116.766349,32.4192857 C117.47873,32.222619 117.772063,31.6747619 117.702222,30.8178571 C117.742084,30.139894 117.230644,29.5565499 116.556825,29.5114286 C115.383492,29.5114286 114.210159,29.5114286 113.036825,29.5114286 L112.464127,29.5114286 L112.464127,39.7380952 L108.846349,39.7380952 L108.846349,26.7019048 L109.349206,26.7019048 C112.142857,26.7019048 114.824762,26.7019048 117.56254,26.7019048 C118.098688,26.7142309 118.630278,26.8041212 119.140952,26.9688095 C120.057802,27.2264198 120.770154,27.9535112 121.012698,28.8792857 C121.411209,29.9721949 121.411209,31.1718527 121.012698,32.2647619 C120.575476,33.4204309 119.537404,34.2372158 118.316825,34.3859524 L117.869841,34.4561905 L122.130159,39.7380952 L121.711111,39.7380952 L118.065397,39.7380952 C117.880517,39.7260974 117.706494,39.646092 117.576508,39.5133333 C116.030688,37.2844444 114.484868,35.0180952 112.939048,32.7142857 C112.903012,32.6676572 112.874711,32.6154759 112.855238,32.5597619 L112.855238,32.5597619 Z" id="Path" fill="#EE303F"></path>
                <path d="M83.6336508,44.022619 L94.7104762,44.022619 C95.1015873,44.022619 95.2273016,44.1209524 95.1993651,44.5142857 C95.1714286,44.907619 95.1993651,45.7083333 95.1993651,46.2983333 C95.1993651,46.8883333 95.0736508,46.7759524 94.7104762,46.7759524 L87.0698413,46.7759524 L87.0698413,49.1219048 L94.0539683,49.1219048 C94.4730159,49.1219048 94.5847619,49.2483333 94.5568254,49.6416667 C94.5288889,50.035 94.5568254,50.7514286 94.5568254,51.3133333 C94.5568254,51.6364286 94.4590476,51.7488095 94.1238095,51.7347619 L87,51.7347619 L87,54.3757143 L94.5568254,54.3757143 C95.1434921,54.3757143 95.1434921,54.3757143 95.1434921,54.9938095 C95.1434921,55.6119048 95.1434921,56.1878571 95.1434921,56.7778571 C95.1434921,57.002619 95.0736508,57.115 94.8222222,57.115 L83.7873016,57.115 L83.6336508,57.115 L83.6336508,44.022619 Z" id="Path" fill="#EE303F"></path>
                <path d="M95.7301587,26.7019048 L96.5961905,26.7019048 C100.018413,26.7019048 103.426667,26.7019048 106.848889,26.7019048 C107.198095,26.7019048 107.32381,26.7861905 107.309841,27.1514286 C107.309841,27.8959524 107.309841,28.6404762 107.309841,29.4552381 L99.1663492,29.4552381 L99.1663492,31.7871429 L106.555556,31.7871429 L106.555556,34.3719048 L99.1803175,34.3719048 L99.1803175,37.055 L99.6971429,37.055 C102.071746,37.055 104.446349,37.055 106.820952,37.055 C107.212063,37.055 107.32381,37.1814286 107.309841,37.5607143 C107.309841,38.1928571 107.309841,38.8109524 107.309841,39.4430952 C107.309841,39.6819048 107.309841,39.8083333 106.974603,39.8083333 L95.9257143,39.8083333 L95.7301587,39.8083333 L95.7301587,26.7019048 Z" id="Path" fill="#EE303F"></path>
                <path d="M67.8495238,39.7380952 C68.3104762,38.642381 68.7295238,37.6028571 69.1625397,36.577381 C70.4941799,33.4213492 71.8165079,30.2559524 73.1295238,27.0811905 C73.1919838,26.8154547 73.4482587,26.6436341 73.7161905,26.6878571 C75.0012698,26.6878571 76.2863492,26.6878571 77.5714286,26.6878571 C77.7640283,26.6652047 77.9455774,26.7829986 78.0044444,26.9688095 L83.2006349,39.4571429 C83.2006349,39.527381 83.2006349,39.6116667 83.2844444,39.7240476 L82.9352381,39.7240476 L79.8063492,39.7240476 C79.5771346,39.7599188 79.3587268,39.6134863 79.3034921,39.3869048 C79.0380952,38.6704762 78.7447619,37.9821429 78.4793651,37.237619 C78.4374748,37.0271657 78.245004,36.8819924 78.032381,36.9004762 L73.1155556,36.9004762 C72.864127,36.9004762 72.7803175,36.9988095 72.6965079,37.2095238 C72.4311111,37.9259524 72.1377778,38.6142857 71.8584127,39.3588095 C71.8032816,39.5948276 71.5810685,39.7518646 71.3415873,39.7240476 C70.3079365,39.7240476 69.288254,39.7240476 68.2546032,39.7240476 L67.8495238,39.7380952 Z M77.3339683,34.3438095 L75.615873,29.8064286 L73.8838095,34.3438095 L77.3339683,34.3438095 Z" id="Shape" fill="#EE303F"></path>
                <path d="M133.500317,53.7857143 C134.478095,53.9683333 135.386032,54.1930952 136.293968,54.3054762 C137.140668,54.3547255 137.989491,54.3547255 138.83619,54.3054762 C139.08741,54.2860807 139.328736,54.1987098 139.534603,54.052619 C139.856675,53.8828517 140.058466,53.5473627 140.058466,53.1816667 C140.058466,52.8159706 139.856675,52.4804816 139.534603,52.3107143 C138.997078,52.0617186 138.4469,51.8413346 137.886349,51.6504762 C137.006349,51.3133333 136.098413,51.032381 135.246349,50.6109524 C134.025472,50.0535731 133.290638,48.7786418 133.416508,47.4361905 C133.407898,45.5893595 134.76653,44.0243752 136.587302,43.7838095 C138.600468,43.3627063 140.678262,43.3627063 142.691429,43.7838095 C142.813133,43.8224537 142.904181,43.9247911 142.928889,44.0507143 C142.928889,44.9357143 142.928889,45.8347619 142.928889,46.7619048 C142.230476,46.677619 141.532063,46.5652381 140.903492,46.5090476 C140.274921,46.4528571 139.506667,46.4247619 138.822222,46.3966667 C138.628868,46.4040115 138.436862,46.4322695 138.249524,46.4809524 C137.676825,46.6214286 137.327619,46.9445238 137.299683,47.3238095 C137.271746,47.7030952 137.509206,48.0402381 138.12381,48.265 C139.269206,48.7004762 140.44254,49.0938095 141.573968,49.5714286 C143.044843,50.0793551 143.987299,51.5241892 143.864762,53.0833333 C143.842941,54.392729 143.158245,55.6004041 142.048889,56.2861905 C140.67414,57.1078851 139.071065,57.457931 137.48127,57.2835714 C136.252063,57.1992857 135.022857,57.002619 133.793651,56.8340476 C133.667937,56.8340476 133.486349,56.6514286 133.486349,56.5390476 C133.486349,55.752381 133.500317,54.7971429 133.500317,53.7857143 Z" id="Path" fill="#EE303F"></path>
                <path d="M80.2812698,26.73 L80.7701587,26.73 C81.7898413,26.73 82.8095238,26.73 83.8152381,26.73 C84.0875317,26.6867077 84.345681,26.8659664 84.4019048,27.137381 C85.4914286,29.9469048 86.6088889,32.7564286 87.712381,35.5659524 L87.7961905,35.6642857 C87.88,35.4254762 87.9638095,35.2147619 88.0336508,35.0040476 C89.0673016,32.4052381 90.1149206,29.792381 91.1206349,27.1795238 C91.2089017,26.8513987 91.5262273,26.6406534 91.8609524,26.6878571 C92.8387302,26.6878571 93.8165079,26.6878571 94.7803175,26.6878571 L95.2692063,26.6878571 C95.1434921,26.9828571 95.0596825,27.1935714 94.975873,27.4183333 L89.8634921,39.415 C89.8023006,39.6531238 89.5755613,39.8091427 89.3326984,39.7802381 C88.3409524,39.7802381 87.3352381,39.7802381 86.3295238,39.7802381 C86.0050938,39.8355582 85.6915396,39.6354413 85.6031746,39.3166667 C84.2063492,36.1278571 82.8933333,32.9530952 81.5384127,29.7783333 L80.3650794,26.9688095 C80.3300505,26.8919063 80.302,26.8119785 80.2812698,26.73 Z" id="Path" fill="#EE303F"></path>
                <path d="M120.76127,26.7019048 L124.714286,26.7019048 C124.812063,26.7019048 124.951746,26.842381 125.021587,26.9407143 L128.164444,32.1383333 L128.164444,32.222619 C129.253968,30.4713492 130.348148,28.7153968 131.446984,26.9547619 C131.532771,26.8219021 131.669185,26.730443 131.824127,26.7019048 L135.888889,26.7019048 L135.609524,27.1654762 C133.905397,29.5957143 132.229206,32.0259524 130.525079,34.4421429 C130.226259,34.8211496 130.068192,35.2930781 130.078095,35.7766667 C130.078095,36.9847619 130.078095,38.1928571 130.078095,39.4009524 C130.078095,39.6819048 129.994286,39.7942857 129.700952,39.7942857 C128.751111,39.7942857 127.80127,39.7942857 126.907302,39.7942857 C126.572063,39.7942857 126.488254,39.6819048 126.502222,39.3728571 C126.502222,38.122619 126.502222,36.872381 126.502222,35.6221429 C126.503453,35.255085 126.391182,34.8967215 126.180952,34.5966667 C124.448889,32.0961905 122.721481,29.5957143 120.99873,27.0952381 C120.910614,26.9698163 120.831269,26.8383887 120.76127,26.7019048 L120.76127,26.7019048 Z" id="Path" fill="#EE303F"></path>
                <path d="M128.080635,44.0507143 L131.698413,44.0507143 L131.698413,57.0447619 C131.624123,57.0526703 131.54921,57.0526703 131.474921,57.0447619 L128.401905,57.0447619 C128.150476,57.0447619 128.03873,57.0447619 128.03873,56.707619 L128.03873,44.2895238 C128.048276,44.2091996 128.062266,44.1294728 128.080635,44.0507143 L128.080635,44.0507143 Z" id="Path" fill="#EE303F"></path>
                <path d="M9.60190476,37.6169048 C10.0628571,36.76 10.5657143,35.875 10.9987302,34.99 C13.4478307,30.6071429 15.8969312,26.2242857 18.3460317,21.8414286 C20.394709,18.1609524 22.4526984,14.4757937 24.52,10.7859524 C25.2044444,9.56380952 25.9168254,8.32761905 26.6571429,7.17571429 C27.9504487,5.26780599 30.335547,4.43970061 32.5238095,5.13880952 C34.6341533,5.74764441 36.1687399,7.57962607 36.4069841,9.77452381 C36.4783017,11.1962215 36.0966102,12.6037087 35.3174603,13.7921429 L27.5371429,27.5166667 C25.7492063,30.6633333 23.970582,33.8006349 22.2012698,36.9285714 C22.1097468,37.1529271 21.8824518,37.290079 21.6425397,37.2657143 C20.7066667,37.2657143 19.7707937,37.2657143 18.8488889,37.2657143 L18.471746,37.2657143 L19.7707937,34.9478571 L27.1320635,21.9538095 L32.7193651,12.0080952 C33.1480427,11.400629 33.3371952,10.6547379 33.2501587,9.915 C33.1375274,9.06540248 32.5337242,8.36432334 31.7136508,8.13095238 C30.9178903,7.83347201 30.0221159,8.06288459 29.4647619,8.70690476 C29.2049276,8.98588524 28.9754771,9.29198774 28.7803175,9.62 L16.7536508,31.0145238 L13.4152381,36.9285714 C13.3475531,37.0568433 13.2319989,37.1528434 13.0939683,37.1954762 C11.9346032,37.3640476 10.7892063,37.4764286 9.60190476,37.6169048 Z" id="Path" fill="#FFFFFF"></path>
                <path d="M39.5079365,14.2978571 L39.7733333,14.6911905 L46.4920635,26.5333333 L56.4933333,44.1209524 C57.6190119,45.7922885 57.7423747,47.9499196 56.8146032,49.74 C56.0723762,51.2618288 54.6456658,52.3300381 52.9831403,52.6087 C51.3206148,52.887362 49.6265349,52.3422397 48.4336508,51.1447619 C47.8053576,50.4709836 47.2569281,49.7261614 46.7993651,48.9252381 C43.6285714,43.4045238 40.4996825,37.8697619 37.3568254,32.335 L33.9206349,26.14 C33.8533554,26.0310851 33.8284811,25.9010039 33.8507937,25.7747619 C34.3955556,24.777381 34.968254,23.7940476 35.5688889,22.7404762 C35.6806349,22.9230952 35.7644444,23.0354762 35.8342857,23.1619048 C37.9295238,26.9079365 40.029418,30.6071429 42.1339683,34.2595238 C44.6016931,38.6236508 47.0787302,42.9877778 49.5650794,47.3519048 C49.804529,47.7681475 50.0656321,48.1714055 50.3473016,48.56 C50.9928339,49.430009 52.169379,49.7027973 53.1285085,49.2048377 C54.0876379,48.7068781 54.5478987,47.5842951 54.2165079,46.5511905 C53.8099911,45.6405268 53.3433403,44.7582387 52.8196825,43.9102381 C49.0948148,37.3546825 45.3699471,30.8365873 41.6450794,24.3559524 C40.5136508,22.3611905 39.368254,20.3664286 38.2507937,18.3716667 C38.1736996,18.1972768 38.1736996,17.9981994 38.2507937,17.8238095 C38.8367921,16.7156413 39.2602287,15.5280139 39.5079365,14.2978571 Z" id="Path" fill="#FFFFFF"></path>
                <path d="M39.3263492,44.9216667 L10.7193651,44.9216667 C10.2011902,44.9238901 9.6885432,45.0289115 9.21079365,45.2307143 C8.34319761,45.6031341 7.84950326,46.5318801 8.02349206,47.4642857 C8.13067236,48.3810858 8.78435123,49.138759 9.67174603,49.3747619 C9.93163904,49.4428686 10.1993799,49.4759358 10.4679365,49.4730952 C20.8137566,49.4730952 31.1642328,49.4730952 41.5193651,49.4730952 C41.7739394,49.4632215 42.0120833,49.5992993 42.1339683,49.8242857 C42.8044444,50.737381 43.5307937,51.6504762 44.1873016,52.5495238 L43.935873,52.5495238 L11.0546032,52.5495238 C9.54984529,52.6687236 8.05514888,52.2177669 6.86412698,51.2852381 C5.56680386,50.2316203 4.84581977,48.6197505 4.92253968,46.9445238 C5.06415859,44.0545409 7.43714499,41.7855403 10.3142857,41.7890476 C11.0266667,41.7890476 11.7111111,41.7890476 12.4653968,41.7890476 L36.9936508,41.7890476 C37.3318805,41.7490138 37.6559501,41.9376991 37.7898413,42.252619 C38.2507937,43.1095238 38.767619,43.952381 39.3263492,44.9216667 Z" id="Path" fill="#FFFFFF"></path>
                <polygon id="Path" fill="#FFFFFF" points="31.1269841 30.382381 35.08 37.2657143 27.2857143 37.2657143"></polygon>
                <path d="M152.189841,54.2352381 C151.077237,54.3128574 149.984603,53.909097 149.186667,53.1254762 C148.368323,52.2105227 148.026691,50.9611658 148.264762,49.7540476 C148.317323,48.8019691 148.7541,47.9127387 149.473995,47.29218 C150.193889,46.6716213 151.134495,46.3735306 152.078095,46.4669048 C153.014462,46.3906867 153.949137,46.6331039 154.732063,47.1552381 C155.92573,48.0511626 156.474884,49.5754385 156.128889,51.032381 C156.069067,51.9990264 155.608635,52.8960613 154.859743,53.5049886 C154.110851,54.113916 153.14224,54.3788425 152.189841,54.2352381 L152.189841,54.2352381 Z" id="Path" fill="#FFFFFF"></path>
                <polygon id="Path" fill="#FFFFFF" points="77.3339683 34.3578571 73.8838095 34.3578571 75.615873 29.8204762"></polygon>
            </g>
        </g>
    </g>
</svg>