<?xml version="1.0" encoding="UTF-8"?>
<svg width="224px" height="75px" viewBox="0 0 224 75" version="1.1" xmlns="http://www.w3.org/2000/svg" xmlns:xlink="http://www.w3.org/1999/xlink">
    <!-- Generator: Sketch 58 (84663) - https://sketch.com -->
    <title>LOGOS/logo_dicoin</title>
    <desc>Created with Sketch.</desc>
    <defs>
        <rect id="path-1" x="0" y="0" width="224" height="75"></rect>
    </defs>
    <g id="LOGOS/logo_dicoin" stroke="none" stroke-width="1" fill="none" fill-rule="evenodd">
        <mask id="mask-2" fill="white">
            <use xlink:href="#path-1"></use>
        </mask>
        <g id="Background"></g>
        <g id="Ресурс-4" mask="url(#mask-2)">
            <g transform="translate(22.000000, 15.000000)">
                <path d="M42.4,29.924 C42.524,37.444 37.936,45.048 27.528,45.048 L15.824,45.048 L15.824,15.308 L27.508,15.308 C37.704,15.308 42.252,22.576 42.4,29.924 Z M21.392,39.652 L27.508,39.652 C34.264,39.652 36.94,34.724 36.812,29.88 C36.684,25.252 33.968,20.62 27.508,20.62 L21.392,20.62 L21.392,39.652 Z" id="Shape" stroke="none" fill="#1D1D1B" fill-rule="nonzero"></path>
                <polygon id="Path" stroke="none" fill="#1D1D1B" fill-rule="nonzero" points="69.952 45.048 47.692 45.048 47.692 15.308 69.952 15.308 69.952 20.748 53.256 20.748 53.256 27.6 69.36 27.6 69.36 32.8 53.256 32.8 53.256 39.516 69.952 39.516"></polygon>
                <path d="M102.204,41.312 C99.144,44.328 95.192,45.712 90.9,45.712 C79.856,45.712 75.18,38.112 75.1397644,30.376 C75.1,22.64 80.152,14.6999884 90.9,14.6999884 C95.0008882,14.6949618 98.9332407,16.3312813 101.82,19.244 L98.08,22.844 C96.1442159,21.0087443 93.5671717,20.0037689 90.9,20.044 C83.72,20.044 80.62,25.396 80.664,30.368 C80.708,35.34 83.552,40.436 90.9,40.436 C93.6862841,40.4191496 96.3613069,39.3405575 98.38,37.42 L102.204,41.312 Z" id="Path" stroke="none" fill="#1D1D1B" fill-rule="nonzero"></path>
                <path d="M136.28,30.348 C136.192,38.04 131.48,45.728 121.024,45.728 C110.568,45.728 105.732,38.208 105.732,30.4 C105.732,22.592 110.744,14.724 121.024,14.724 C131.304,14.724 136.364,22.576 136.28,30.348 Z M111.252,30.476 C111.38,35.364 114.016,40.588 121.024,40.588 C128.032,40.588 130.672,35.32 130.756,30.436 C130.84,25.42 128.036,19.812 121.024,19.812 C114.012,19.812 111.128,25.464 111.252,30.476 Z" id="Shape" stroke="none" fill="#1D1D1B" fill-rule="nonzero"></path>
                <polygon id="Path" stroke="none" fill="#1D1D1B" fill-rule="nonzero" points="142.144 45.048 142.144 15.308 147.708 15.308 147.708 45.048"></polygon>
                <polygon id="Path" stroke="none" fill="#1D1D1B" fill-rule="nonzero" points="174.22 15.268 179.82 15.268 179.82 45.048 176.336 45.048 176.336 45.092 160.712 24.996 160.712 45.048 155.112 45.048 155.112 15.308 159.656 15.308 174.228 33.748"></polygon>
                <path d="M-3.35662853e-07,23.876 C-0.00106118715,17.5433658 2.51409796,11.4697952 6.99194658,6.99194658 C11.4697952,2.51409796 17.5433658,-0.00106118715 23.876,-3.35662852e-07" id="Path" stroke="#1D1D1B" stroke-width="8.00000012" fill="none"></path>
            </g>
        </g>
    </g>
</svg>