<?xml version="1.0" encoding="UTF-8"?>
<svg width="224px" height="75px" viewBox="0 0 224 75" version="1.1" xmlns="http://www.w3.org/2000/svg" xmlns:xlink="http://www.w3.org/1999/xlink">
    <!-- Generator: Sketch 58 (84663) - https://sketch.com -->
    <title>LOGOS/logo_rubberpaint</title>
    <desc>Created with Sketch.</desc>
    <defs>
        <rect id="path-1" x="0" y="0" width="224" height="75"></rect>
    </defs>
    <g id="LOGOS/logo_rubberpaint" stroke="none" stroke-width="1" fill="none" fill-rule="evenodd">
        <mask id="mask-2" fill="white">
            <use xlink:href="#path-1"></use>
        </mask>
        <g id="Background"></g>
        <g id="Ресурс-6" mask="url(#mask-2)" fill-rule="nonzero">
            <g transform="translate(16.000000, 9.000000)">
                <path d="M25.8587967,50.9043972 C25.8587967,50.1855319 25.894834,48.6207092 25.8587967,47.4331915 C25.8227593,46.2456738 25.9428838,45.1217021 25.8587967,43.9739007 C25.786722,42.9889362 26.0910373,42.667234 27.1120954,42.6791489 C31.7128631,42.6791489 33.8951245,42.6791489 38.5159129,42.6791489 C39.2728805,42.7059474 40.0179909,42.4870185 40.638112,42.0556028 C46.5202075,38.0085106 49.2750622,31.2011348 47.7054357,24.5168794 C46.1358091,17.8326241 40.261722,12.6417021 33.2904979,11.4899291 C24.5934855,10.048227 15.7323029,15.12 13.1055809,23.0076596 C12.4790087,25.0018965 12.1802133,27.0831836 12.2206639,29.1716312 C12.2206639,35.7367376 12.2206639,42.301844 12.2206639,48.870922 C12.2206639,49.3673759 12.3007469,50.1378723 12.0004357,50.324539 C11.7001245,50.5112057 11.0874896,49.9273759 10.6990871,49.5778723 C-4.68485477,36.6978723 -2.51060166,13.7934752 15.0395851,3.97163121 C29.030083,-3.88822695 46.7844813,0.270070922 55.6016183,13.4598582 C62.1163693,23.2022695 61.2634855,36.9361702 53.6556017,45.7174468 C53.1496158,46.3350288 52.4410248,46.7567306 51.653527,46.9089362 C49.5273237,47.3299291 47.3810996,47.2544681 45.246888,47.2822695 C44.9425726,47.2822695 44.6422614,47.3339007 44.1577593,47.373617 C44.9182273,48.600151 45.577071,49.8858854 46.1278008,51.218156 C46.348029,51.7860993 46.2559336,52.0720567 45.7273859,52.381844 C42.8357905,54.0197313 39.7001428,55.1914122 36.4377593,55.8530496 C35.8691701,55.9721986 35.6969917,55.8133333 35.5208091,55.2692199 C34.6358921,52.5248227 32.8300207,50.991773 29.9510373,50.9401418 L25.8587967,50.9043972 Z" id="Path" fill="#E40D28"></path>
                <path d="M24.6895851,41.2731915 C24.6895851,45.7095035 24.6575519,50.1458156 24.71361,54.5821277 C24.71361,55.5869504 24.4293154,55.7974468 23.5123651,55.6147518 C20.0968257,54.9395745 16.99361,53.501844 13.9784855,51.8456738 C13.481971,51.5716312 13.401888,51.0712057 13.4098963,50.5707801 C13.51,42.4567376 12.9253942,34.3188652 13.698195,26.2405674 C14.3308506,19.6436879 18.4631328,15.3106383 24.7176141,13.3407092 C31.7048548,11.1205674 37.9953734,12.7092199 43.0325934,18.1304965 C49.2069917,24.790922 47.7254564,36.0028369 40.1215768,40.9832624 C39.6098818,41.3418424 38.9982785,41.5334118 38.3717635,41.5313475 L27.368361,41.5313475 C26.2672199,41.5313475 25.8788174,41.2414184 25.9348755,40.1134752 C26.026971,38.2547518 25.9949378,36.3880851 25.9348755,34.5253901 C25.9348755,33.7112057 26.1911411,33.4331915 27.0119917,33.4649645 C28.2132365,33.5165957 29.4144813,33.5126241 30.6157261,33.4451064 C32.9501452,33.3060993 35.0643361,31.693617 35.5288174,29.7634043 C36.1414523,27.2295035 35.2805602,25.0212766 33.0222199,23.7225532 C31.3329506,22.7115719 29.2268456,22.6767047 27.5045021,23.6312057 C25.6986307,24.5685106 24.6295228,26.0658156 24.6535477,28.2343262 C24.7216183,32.5673759 24.6935892,36.9361702 24.6895851,41.2731915 Z" id="Path" fill="#F8D900"></path>
                <path d="M76.7555394,43.4297872 C76.931722,43.8269504 76.7795643,44.1287943 76.3551245,44.1287943 L74.3250207,44.1287943 C74.0967842,44.1287943 73.9446266,44.0096454 73.8445228,43.7316312 L70.6932573,35.5699291 L68.8713693,35.5699291 L68.8713693,43.5489362 C68.8881488,43.6891943 68.8462657,43.8301473 68.755477,43.9389595 C68.6646882,44.0477716 68.5329211,44.1149419 68.3908714,44.1248227 L66.5129253,44.1248227 C66.3701592,44.11598 66.2373531,44.0492537 66.1457039,43.9403181 C66.0540548,43.8313826 66.0116401,43.6898387 66.0284232,43.5489362 L66.0284232,23.4683688 C66.0116401,23.3274663 66.0540548,23.1859224 66.1457039,23.0769868 C66.2373531,22.9680513 66.3701592,22.9013249 66.5129253,22.8924823 L71.0576349,22.8924823 C74.1047925,22.8924823 76.1108714,25.0451064 76.1108714,29.2470922 C76.0788382,32.1702128 75.1018257,34.1560284 73.4000622,35.0297872 L76.7555394,43.4297872 Z M70.7493154,32.662695 C72.375,32.662695 73.1878423,31.5069504 73.1878423,29.2351773 C73.1878423,26.9634043 72.3870124,25.8036879 70.7493154,25.8036879 L68.8713693,25.8036879 L68.8713693,32.662695 L70.7493154,32.662695 Z" id="Shape" fill="#000000"></path>
                <path d="M77.7966183,23.4683688 C77.7798388,23.3281107 77.8217219,23.1871576 77.9125106,23.0783455 C78.0032993,22.9695334 78.1350665,22.902363 78.2771162,22.8924823 L80.1550622,22.8924823 C80.2978283,22.9013249 80.4306345,22.9680513 80.5222836,23.0769868 C80.6139328,23.1859224 80.6563475,23.3274663 80.6395643,23.4683688 L80.6395643,36.6343262 C80.6395643,39.942695 81.4764315,41.5194326 83.4424689,41.5194326 C85.4085062,41.5194326 86.2453734,39.9307801 86.2453734,36.6343262 L86.2453734,23.4683688 C86.228594,23.3281107 86.270477,23.1871576 86.3612658,23.0783455 C86.4520545,22.9695334 86.5838217,22.902363 86.7258714,22.8924823 L88.6078216,22.8924823 C88.7498713,22.902363 88.8816384,22.9695334 88.9724272,23.0783455 C89.0632159,23.1871576 89.105099,23.3281107 89.0883195,23.4683688 L89.0883195,36.6660993 C89.0883195,42.2462411 86.8540041,44.4941844 83.4504772,44.4941844 C80.0469502,44.4941844 77.816639,42.2462411 77.816639,36.6660993 L77.7966183,23.4683688 Z" id="Path" fill="#000000"></path>
                <path d="M96.2036929,22.8924823 C99.2748755,22.8924823 101.008672,25.0451064 101.008672,28.5957447 C101.008672,30.3273759 100.400041,31.9636879 99.0786722,32.8453901 C100.752407,33.6397163 101.617303,35.6970213 101.617303,37.8814184 C101.617303,42.0675177 99.7113278,44.1287943 96.4359336,44.1287943 L91.835166,44.1287943 C91.6931163,44.1189135 91.5613491,44.0517432 91.4705604,43.9429311 C91.3797716,43.834119 91.3378886,43.6931659 91.354668,43.5529078 L91.354668,23.4683688 C91.3378886,23.3281107 91.3797716,23.1871576 91.4705604,23.0783455 C91.5613491,22.9695334 91.6931163,22.902363 91.835166,22.8924823 L96.2036929,22.8924823 Z M95.8473237,25.8156028 L94.1735892,25.8156028 L94.1735892,31.6896454 L95.8473237,31.6896454 C97.2968257,31.6896454 98.109668,30.7523404 98.109668,28.7784397 C98.109668,26.804539 97.3008299,25.8156028 95.8473237,25.8156028 Z M96.0755602,41.2295035 C97.9054564,41.2295035 98.7182988,40.0380142 98.7182988,37.8933333 C98.7182988,35.7486525 97.9174689,34.6167376 96.0755602,34.6167376 L94.1735892,34.6167376 L94.1735892,41.2295035 L96.0755602,41.2295035 Z" id="Shape" fill="#000000"></path>
                <path d="M107.883797,22.8924823 C110.958983,22.8924823 112.688776,25.0451064 112.688776,28.5957447 C112.688776,30.3273759 112.080145,31.9636879 110.758776,32.8453901 C112.436515,33.6397163 113.297407,35.6970213 113.297407,37.8814184 C113.297407,42.0675177 111.391432,44.1287943 108.116037,44.1287943 L103.519274,44.1287943 C103.376508,44.1199517 103.243702,44.0532253 103.152052,43.9442898 C103.060403,43.8353542 103.017989,43.6938103 103.034772,43.5529078 L103.034772,23.4683688 C103.017989,23.3274663 103.060403,23.1859224 103.152052,23.0769868 C103.243702,22.9680513 103.376508,22.9013249 103.519274,22.8924823 L107.883797,22.8924823 Z M107.531432,25.8156028 L105.853693,25.8156028 L105.853693,31.6896454 L107.531432,31.6896454 C108.976929,31.6896454 109.789772,30.7523404 109.789772,28.7784397 C109.789772,26.804539 108.976929,25.8156028 107.531432,25.8156028 Z M107.759668,41.2295035 C109.58556,41.2295035 110.398402,40.0380142 110.398402,37.8933333 C110.398402,35.7486525 109.597573,34.6167376 107.759668,34.6167376 L105.853693,34.6167376 L105.853693,41.2295035 L107.759668,41.2295035 Z" id="Shape" fill="#000000"></path>
                <path d="M114.714876,23.4683688 C114.698092,23.3274663 114.740507,23.1859224 114.832156,23.0769868 C114.923805,22.9680513 115.056611,22.9013249 115.199378,22.8924823 L123.271743,22.8924823 C123.553002,22.9353499 123.752595,23.1871572 123.728216,23.4683688 L123.728216,25.2278014 C123.759369,25.5133852 123.55808,25.7725863 123.271743,25.8156028 L117.561826,25.8156028 L117.561826,31.7730496 L122.791245,31.7730496 C123.073113,31.7962664 123.285667,32.036962 123.271743,32.3171631 L123.271743,34.1083688 C123.288522,34.2486269 123.246639,34.38958 123.15585,34.4983921 C123.065062,34.6072042 122.933295,34.6743745 122.791245,34.6842553 L117.561826,34.6842553 L117.561826,41.2374468 L123.427905,41.2374468 C123.569954,41.2473276 123.701721,41.3144979 123.79251,41.42331 C123.883299,41.5321222 123.925182,41.6730752 123.908402,41.8133333 L123.908402,43.572766 C123.925182,43.7130241 123.883299,43.8539771 123.79251,43.9627893 C123.701721,44.0716014 123.569954,44.1387717 123.427905,44.1486525 L115.199378,44.1486525 C115.056611,44.1398098 114.923805,44.0730835 114.832156,43.9641479 C114.740507,43.8552124 114.698092,43.7136685 114.714876,43.572766 L114.714876,23.4683688 Z" id="Path" fill="#000000"></path>
                <path d="M136.173112,43.4297872 C136.349295,43.8269504 136.197137,44.1287943 135.792718,44.1287943 L133.75861,44.1287943 C133.530373,44.1287943 133.378216,44.0096454 133.278112,43.7316312 L130.134855,35.5739007 L128.280934,35.5739007 L128.280934,43.5529078 C128.297717,43.6938103 128.255302,43.8353542 128.163653,43.9442898 C128.072004,44.0532253 127.939198,44.1199517 127.796432,44.1287943 L125.918485,44.1287943 C125.776436,44.1189135 125.644669,44.0517432 125.55388,43.9429311 C125.463091,43.834119 125.421208,43.6931659 125.437988,43.5529078 L125.437988,23.4683688 C125.421208,23.3281107 125.463091,23.1871576 125.55388,23.0783455 C125.644669,22.9695334 125.776436,22.902363 125.918485,22.8924823 L130.463195,22.8924823 C133.510353,22.8924823 135.516432,25.0451064 135.516432,29.2470922 C135.512427,32.1702128 134.539419,34.1560284 132.821639,35.0297872 L136.173112,43.4297872 Z M130.166888,32.662695 C131.792573,32.662695 132.605415,31.5069504 132.605415,29.2351773 C132.605415,26.9634043 131.804585,25.8036879 130.166888,25.8036879 L128.264917,25.8036879 L128.264917,32.662695 L130.166888,32.662695 Z" id="Shape" fill="#000000"></path>
                <path d="M144.601846,43.5529078 C144.618626,43.6931659 144.576743,43.834119 144.485954,43.9429311 C144.395165,44.0517432 144.263398,44.1189135 144.121349,44.1287943 L142.243402,44.1287943 C142.100636,44.1199517 141.96783,44.0532253 141.876181,43.9442898 C141.784532,43.8353542 141.742117,43.6938103 141.7589,43.5529078 L141.7589,23.4683688 C141.742117,23.3274663 141.784532,23.1859224 141.876181,23.0769868 C141.96783,22.9680513 142.100636,22.9013249 142.243402,22.8924823 L146.355664,22.8924823 C149.502925,22.8924823 151.561058,25.1364539 151.561058,29.6442553 C151.561058,34.1520567 149.502925,36.3960284 146.355664,36.3960284 L144.601846,36.3960284 L144.601846,43.5529078 Z M146.051349,25.8156028 L144.601846,25.8156028 L144.601846,33.449078 L146.051349,33.449078 C147.801162,33.449078 148.666058,32.2059574 148.666058,29.6283688 C148.666058,27.0507801 147.801162,25.8156028 146.051349,25.8156028 Z" id="Shape" fill="#000000"></path>
                <path d="M151.993506,44.1287943 C151.823011,44.1141678 151.66859,44.0230963 151.574204,43.8815063 C151.479817,43.7399162 151.455806,43.563318 151.509004,43.4019858 L155.725373,23.3492199 C155.801452,23.0434043 155.95361,22.8924823 156.2339,22.8924823 L159.17695,22.8924823 C159.457241,22.8924823 159.609398,23.0434043 159.685477,23.3492199 L163.901846,43.4019858 C163.964652,43.5590028 163.948575,43.7362697 163.858526,43.8796482 C163.768477,44.0230266 163.615151,44.1154881 163.445373,44.1287943 L161.539398,44.1287943 C161.235083,44.1287943 161.0589,43.9460993 161.006846,43.6124823 L160.0939,38.8465248 L155.31695,38.8465248 L154.432033,43.6124823 C154.355954,43.9460993 154.175768,44.1287943 153.895477,44.1287943 L151.993506,44.1287943 Z M157.707427,26.212766 L155.853506,36.0425532 L159.561349,36.0425532 L157.707427,26.212766 Z" id="Shape" fill="#000000"></path>
                <path d="M167.373444,22.8924823 C167.515494,22.902363 167.647261,22.9695334 167.73805,23.0783455 C167.828838,23.1871576 167.870721,23.3281107 167.853942,23.4683688 L167.853942,43.5529078 C167.870721,43.6931659 167.828838,43.834119 167.73805,43.9429311 C167.647261,44.0517432 167.515494,44.1189135 167.373444,44.1287943 L165.491494,44.1287943 C165.349444,44.1189135 165.217677,44.0517432 165.126888,43.9429311 C165.036099,43.834119 164.994216,43.6931659 165.010996,43.5529078 L165.010996,23.4683688 C164.994216,23.3281107 165.036099,23.1871576 165.126888,23.0783455 C165.217677,22.9695334 165.349444,22.902363 165.491494,22.8924823 L167.373444,22.8924823 Z" id="Path" fill="#000000"></path>
                <path d="M173.019295,27.5353191 L173.019295,43.5529078 C173.036078,43.6938103 172.993663,43.8353542 172.902014,43.9442898 C172.810365,44.0532253 172.677559,44.1199517 172.534793,44.1287943 L170.75695,44.1287943 C170.614901,44.1189135 170.483133,44.0517432 170.392345,43.9429311 C170.301556,43.834119 170.259673,43.6931659 170.276452,43.5529078 L170.276452,23.4683688 C170.259673,23.3281107 170.301556,23.1871576 170.392345,23.0783455 C170.483133,22.9695334 170.614901,22.902363 170.75695,22.8924823 L173.880187,22.8924823 C174.125935,22.8957867 174.341296,23.0563973 174.412739,23.2896454 L178.817303,39.4899291 L178.817303,23.4683688 C178.800523,23.3281107 178.842407,23.1871576 178.933195,23.0783455 C179.023984,22.9695334 179.155751,22.902363 179.297801,22.8924823 L181.075643,22.8924823 C181.218409,22.9013249 181.351215,22.9680513 181.442865,23.0769868 C181.534514,23.1859224 181.576928,23.3274663 181.560145,23.4683688 L181.560145,43.5529078 C181.576928,43.6938103 181.534514,43.8353542 181.442865,43.9442898 C181.351215,44.0532253 181.218409,44.1199517 181.075643,44.1287943 L177.952407,44.1287943 C177.708352,44.1104647 177.503508,43.9392811 177.44388,43.7038298 L173.019295,27.5353191 Z" id="Path" fill="#000000"></path>
                <path d="M186.192946,25.8156028 L182.817448,25.8156028 C182.674682,25.8067602 182.541876,25.7400338 182.450227,25.6310983 C182.358578,25.5221627 182.316163,25.3806189 182.332946,25.2397163 L182.332946,23.4683688 C182.316163,23.3274663 182.358578,23.1859224 182.450227,23.0769868 C182.541876,22.9680513 182.674682,22.9013249 182.817448,22.8924823 L192.427407,22.8924823 C192.709745,22.9335089 192.910318,23.1865513 192.88388,23.4683688 L192.88388,25.2278014 C192.917931,25.5087157 192.724428,25.7669506 192.443423,25.8156028 L189.039896,25.8156028 L189.039896,43.5648227 C189.056676,43.7050808 189.014793,43.8460339 188.924004,43.954846 C188.833215,44.0636581 188.701448,44.1308284 188.559398,44.1407092 L186.677448,44.1407092 C186.535398,44.1308284 186.403631,44.0636581 186.312843,43.954846 C186.222054,43.8460339 186.180171,43.7050808 186.19695,43.5648227 L186.192946,25.8156028 Z" id="Path" fill="#000000"></path>
            </g>
        </g>
    </g>
</svg>