<?xml version="1.0" encoding="UTF-8"?>
<svg width="224px" height="75px" viewBox="0 0 224 75" version="1.1" xmlns="http://www.w3.org/2000/svg" xmlns:xlink="http://www.w3.org/1999/xlink">
    <!-- Generator: Sketch 58 (84663) - https://sketch.com -->
    <title>LOGOS/logo_5star</title>
    <desc>Created with Sketch.</desc>
    <defs>
        <rect id="path-1" x="0" y="0" width="224" height="75"></rect>
    </defs>
    <g id="LOGOS/logo_5star" stroke="none" stroke-width="1" fill="none" fill-rule="evenodd">
        <mask id="mask-2" fill="white">
            <use xlink:href="#path-1"></use>
        </mask>
        <g id="Background"></g>
        <g id="Ресурс-1" mask="url(#mask-2)" fill="#000000" fill-rule="nonzero">
            <g transform="translate(39.000000, 9.000000)">
                <path d="M132.897922,14.5865714 C133.036067,14.573 133.182338,14.5404286 133.3259,14.5404286 C135.709573,14.5404286 138.090538,14.4942857 140.471503,14.5404286 C142.337811,14.5838571 143.870946,15.3547143 144.821707,17.0321429 C145.504991,18.1798977 145.705685,19.5524973 145.379703,20.8484286 C145.038404,22.2544286 144.342263,23.3537143 143.033952,24.0214286 C142.979448,24.0552959 142.933914,24.1018542 142.901224,24.1571429 C142.880463,24.1941083 142.866689,24.234596 142.860594,24.2765714 C143.982004,26.5077143 145.886234,31.1545714 145.918738,31.768 C144.83525,31.768 143.770724,31.768 142.700779,31.768 C142.367607,31.768 142.29718,31.5508571 142.205083,31.3445714 C141.871911,30.5927143 141.557699,29.8327143 141.238071,29.0754286 C140.696327,27.7997143 140.154583,26.5267143 139.629091,25.2428571 C139.553444,25.013361 139.3268,24.8691462 139.087347,24.8981429 C138.244935,24.8981429 137.399814,24.8981429 136.557403,24.8981429 C136.270278,24.8981429 136.113173,24.9877143 136.115881,25.3052857 C136.129425,27.2378571 136.132134,29.1677143 136.142968,31.0975714 C136.142968,31.2685714 136.156512,31.4395714 136.170056,31.6974286 C135.092814,31.7786411 134.011253,31.7849896 132.933135,31.7164286 C132.884378,26.011 132.933135,20.3191429 132.897922,14.5865714 Z M138.296401,21.8717143 L138.296401,21.8391429 L139.983933,21.8391429 C140.487613,21.8361291 140.971485,21.6421823 141.338293,21.2962857 C141.997389,20.7595778 142.273426,19.8806389 142.039852,19.0624286 C141.842115,18.2997143 141.227236,17.9278571 140.482338,17.7595714 C140.228757,17.7035955 139.970007,17.6744831 139.710353,17.6727143 C138.672913,17.6591429 137.632764,17.6727143 136.595325,17.6727143 C136.159221,17.6727143 136.126716,17.7242857 136.129425,18.1477143 C136.129425,19.2334286 136.129425,20.3191429 136.129425,21.4048571 C136.129425,21.8065714 136.191725,21.8744286 136.611577,21.8744286 C137.174991,21.869 137.735696,21.8717143 138.296401,21.8717143 Z" id="Shape"></path>
                <path d="M108.757811,19.2877143 L105.583191,20.2648571 C105.497361,20.0703231 105.428484,19.8687146 105.377328,19.6622857 C105.054991,17.7378571 102.804045,17.0457143 101.514694,17.3035714 C101.023379,17.3907172 100.559423,17.5924881 100.160334,17.8925714 C99.3260482,18.5385714 99.2718738,19.4912857 100.08449,20.1454286 C100.405239,20.3980384 100.773855,20.5827251 101.167978,20.6882857 C102.376067,21.0167143 103.605826,21.2772857 104.813915,21.5921429 C105.78709,21.8191522 106.697592,22.2605036 107.479295,22.8841429 C108.391084,23.6399246 108.952386,24.7383321 109.031391,25.9214286 C109.212928,27.2437698 108.89511,28.5863802 108.140223,29.6861429 C107.537312,30.5759348 106.660097,31.2433018 105.642783,31.5861429 C103.701953,32.2475197 101.600262,32.2656011 99.6483859,31.6377143 C97.7983302,31.0568571 96.5577365,29.7811429 95.7559555,28.0548571 C95.5121707,27.531 95.3388126,26.9691429 95.103154,26.3475714 L98.2913173,25.6011429 C98.4105009,25.8725714 98.5296846,26.144 98.6407421,26.4317143 C99.0822635,27.5364286 99.8000742,28.3887143 100.959406,28.7252857 C102.075399,29.051 103.229314,29.1107143 104.323636,28.6221429 C105.127453,28.3262098 105.628326,27.5213763 105.539852,26.6678571 C105.545214,26.3169556 105.393083,25.9821781 105.125417,25.7558571 C104.675162,25.3836546 104.15053,25.1124697 103.586865,24.9605714 C101.939963,24.5262857 100.238887,24.2792857 98.6786642,23.5491429 C97.2755473,22.8922857 96.5116883,21.7604286 96.2408163,20.2512857 C96.1123969,19.5000428 96.1252585,18.7313639 96.2787384,17.9848571 C96.4384271,17.2151628 96.8198384,16.5092816 97.3757699,15.9545714 C98.2569249,15.0764557 99.3964887,14.505503 100.626234,14.326 C102.207703,14.0014234 103.850566,14.1729659 105.33128,14.8172857 C106.461272,15.288585 107.375046,16.1655198 107.893729,17.2764286 C108.137514,17.8002857 108.411095,18.3105714 108.625083,18.848 C108.67384,18.9538571 108.698219,19.0787143 108.757811,19.2877143 Z" id="Path"></path>
                <path d="M42.272282,28.6194286 L42.272282,31.7354286 L30.7168831,31.7354286 L30.7168831,14.5811429 L42.0176623,14.5811429 L42.0176623,17.6564286 L34.1298701,17.6564286 C34.0838219,18.886 34.1298701,20.0558571 34.1000742,21.2827143 L40.300334,21.2827143 C40.4899443,21.8011429 40.5061967,23.6224286 40.338256,24.3118571 L34.7095362,24.3118571 C34.140705,24.3118571 34.1027829,24.3444286 34.1027829,24.8764286 L34.1027829,28.196 C34.1027829,28.3018571 34.121744,28.4077143 34.140705,28.6031429 C35.4950649,28.6465714 36.8494249,28.6031429 38.2037848,28.6221429 C39.5581447,28.6411429 40.9016698,28.6194286 42.272282,28.6194286 Z" id="Path"></path>
                <path d="M132.502449,31.7707143 C131.345826,31.7707143 130.311095,31.7707143 129.276364,31.7707143 C129.074327,31.7766456 128.896749,31.637485 128.853803,31.4395714 C128.469165,30.2887143 128.073692,29.1432857 127.680928,27.9978571 C127.633681,27.8098616 127.565537,27.6277705 127.477774,27.455 C127.394232,27.3170698 127.258326,27.2190946 127.101262,27.1835714 C125.611466,27.1645714 124.12167,27.1835714 122.610204,27.1835714 C122.298701,28.2122857 122.00616,29.184 121.713618,30.153 C121.589017,30.5682857 121.467124,30.9835714 121.342523,31.3988571 C121.274805,31.616 121.18,31.8032857 120.906419,31.8032857 L118.002672,31.8032857 C119.877106,26.0028571 121.721744,20.3055714 123.566382,14.592 L126.944156,14.592 C128.780668,20.2458571 130.70115,25.9322857 132.502449,31.7707143 Z M125.142857,19.9635714 C125.007421,20.0775714 124.909907,20.1182857 124.888237,20.1834286 C124.471095,21.4917143 124.075622,22.8054286 123.631391,24.1978571 C124.579821,24.2982339 125.535349,24.3127689 126.486382,24.2412857 C126.036735,22.7755714 125.606048,21.3994286 125.142857,19.9635714 Z" id="Shape"></path>
                <path d="M21.5343228,31.7327143 C19.6219666,26.0327143 17.7069017,20.3327143 15.7647495,14.5377143 L18.2540631,14.5377143 C19.3538033,14.5377143 19.3673469,14.5377143 19.7221892,15.5827143 C20.6756586,18.3929048 21.6219048,21.2049048 22.5609276,24.0187143 C22.7180334,24.4882857 22.8480519,24.9687143 23.002449,25.4437143 C23.0606013,25.5648841 23.1314248,25.6795264 23.2137291,25.7857143 C23.3110641,25.6645822 23.3954934,25.5335844 23.4656401,25.3948571 C24.2006061,23.1727619 24.9310575,20.9506667 25.6569944,18.7285714 C26.1120594,17.3524286 26.5725417,15.979 27.0411503,14.5757143 L30.2130612,14.5757143 C30.1612744,14.8877571 30.0925515,15.1967393 30.0071985,15.5012857 C28.6329746,19.6070952 27.2533333,23.7129048 25.8682746,27.8187143 C25.4348794,29.108 24.9987755,30.3972857 24.549128,31.7327143 L21.5343228,31.7327143 Z" id="Path"></path>
                <path d="M0,14.5811429 L11.0569944,14.5811429 L11.0569944,17.6428571 C10.8457143,17.6591429 10.6208905,17.6862857 10.3933581,17.6862857 C8.24805195,17.6862857 6.10364873,17.6862857 3.96014842,17.6862857 C3.39402597,17.6862857 3.38589981,17.7134286 3.39402597,18.2698571 C3.41027829,19.0841429 3.39402597,19.9174286 3.39402597,20.7425714 C3.39402597,21.1768571 3.46987013,21.2854286 3.90326531,21.2854286 L9.55365492,21.2528571 C9.61053803,21.2528571 9.66742115,21.299 9.75951763,21.3397143 L9.75951763,24.282 L9.02274583,24.282 C7.3135436,24.282 5.60163265,24.282 3.87617811,24.263 C3.42653061,24.263 3.37777365,24.3118571 3.38048237,24.7868571 C3.39492888,27.0234286 3.40486085,29.2590952 3.41027829,31.4938571 C3.39888402,31.5768708 3.37984166,31.6586486 3.35339518,31.7381429 C2.23622774,31.7991917 1.11640707,31.7928469 0,31.7191429 L0,14.5811429 Z" id="Path"></path>
                <path d="M108.457143,14.573 L120.781818,14.573 L120.781818,17.6754286 L116.31243,17.6754286 L116.31243,31.7272857 C115.19414,31.7967266 114.072962,31.806693 112.953618,31.7571429 C112.924722,31.6138625 112.905716,31.4687567 112.896735,31.3228571 C112.896735,26.942 112.903055,22.5602381 112.915696,18.1775714 C112.915696,17.7297143 112.856104,17.6808571 112.373952,17.6835714 C111.377143,17.6835714 110.383043,17.6998571 109.39436,17.7025714 C109.123488,17.7025714 108.836364,17.6727143 108.473395,17.6537143 L108.457143,14.573 Z" id="Path"></path>
                <path d="M12.0700557,14.573 L15.3855288,14.573 C15.4207421,15.0534286 15.4884601,15.5012857 15.4857514,15.9518571 C15.4857514,21.2012857 15.450538,26.448 15.431577,31.7435714 L12.0700557,31.7435714 L12.0700557,14.573 Z" id="Path"></path>
                <path d="M91.7497588,15.0045714 C86.8090538,15.0045714 81.8710575,15.0588571 76.9303525,15.048 C75.9281262,15.048 76.0175139,15.2542857 75.4811874,14.1604286 C73.2681633,9.62485714 71.0145083,5.10828571 68.774397,0.589 C68.6823006,0.407142857 68.5604082,0.238857143 68.4141373,0.00271428571 C68.1730612,0.477714286 67.9753247,0.860428571 67.7830056,1.24314286 L64.1099814,8.57171429 C63.1294249,10.5287143 62.1244898,12.4721429 61.184564,14.4481429 C61.0490023,14.8595956 60.6446462,15.1199113 60.2148423,15.0724286 C55.1034879,15.0534286 49.9894249,15.0724286 44.8753618,15.0724286 L44.1115028,15.0724286 L57.925974,32.642 C58.0912059,32.4547143 58.196846,32.338 58.2889425,32.2348571 C58.3485343,32.1751429 58.4054174,32.11 58.4650093,32.0502857 C59.4619923,30.8245903 60.6691128,29.7868704 62.0296846,28.9858571 C64.8171011,27.2604729 68.1705346,26.7046445 71.3639332,27.4387143 C73.8650166,27.9510215 76.1529518,29.2094641 77.9271614,31.0487143 C80.7631911,33.9801429 82.1446382,37.5032857 81.6895733,41.6344286 C81.6624861,41.8814286 81.6272727,42.123 81.5893506,42.3618571 C81.5893506,42.3618571 81.5893506,42.3808571 81.5893506,42.3917143 C81.5703896,42.503 81.5514286,42.6142857 81.5297588,42.7255714 C80.4235495,48.7988199 75.2533989,53.285438 69.0967347,53.5148571 L68.8394063,53.5148571 C68.034094,53.5751032 67.2243179,53.5147255 66.4367718,53.3357143 L66.2905009,53.3058571 C65.3065029,53.1307472 64.3458344,52.8429562 63.427384,52.4481429 L63.2079777,52.3694286 C61.5827458,51.5551429 60.7457514,51.0122857 59.9575139,50.2577143 C59.1741578,49.5684778 58.4741417,48.78959 57.8717996,47.937 L55.0005566,49.989 C55.7530999,51.0786393 56.6425558,52.066623 57.6469759,52.9285714 C60.6590724,55.5478571 63.6386642,56.7692857 67.5798516,56.943 C68.9778558,56.975966 70.3755691,56.86592 71.7512801,56.6145714 C74.1588869,56.1607997 76.4369054,55.1802492 78.4228571,53.7428571 C80.4362293,52.2570088 82.0828708,50.3284203 83.2362523,48.1052857 C84.2265335,46.2639711 84.844199,44.2448235 85.0538033,42.1637143 C85.2291017,40.7403486 85.1843333,39.298408 84.9210761,37.8887143 C84.7309785,36.802616 84.4740631,35.7293312 84.1517996,34.675 C82.8597403,30.9102857 80.3595918,28.101 77.0387013,26.0028571 C75.3156571,24.9072884 73.3824487,24.1860469 71.3639332,23.8857143 C70.1179995,23.708734 68.8570524,23.6623406 67.6015213,23.7472857 C66.2407188,23.7923888 64.8910402,24.0094378 63.5844898,24.3932857 C61.6667161,24.9958571 59.8627087,25.8237143 58.3349907,27.1428571 C58.2780815,27.1737198 58.2153198,27.192217 58.1507978,27.1971429 C57.6903154,26.6162857 57.229833,26.0435714 56.7774768,25.4681429 C56.3251206,24.8927143 55.8727644,24.3037143 55.4231169,23.7228571 C54.9734694,23.142 54.5184045,22.5584286 54.068757,21.9802857 C53.6191095,21.4021429 53.1179963,20.8484286 52.6927273,20.2485714 C52.2674583,19.6487143 51.7067532,19.1954286 51.3383673,18.43 L63.0319109,18.43 C63.1131725,18.297 63.1619295,18.2237143 63.1998516,18.1585714 C64.0801855,16.4431429 64.9713544,14.7331429 65.8327273,13.0014286 C66.6236735,11.4135714 67.382115,9.80942857 68.1486827,8.21071429 C68.2407792,8.02071429 68.3626716,7.95557143 68.5360297,8.02071429 C70.2678046,11.5112857 71.9833271,14.9701905 73.6825974,18.3974286 C73.7528107,18.4169644 73.8243203,18.4314772 73.8965863,18.4408571 C78.9871738,18.4517143 84.0786642,18.4571429 89.1710575,18.4571429 C89.4086668,18.472385 89.6388945,18.3712004 89.7886456,18.1857143 C90.4983302,17.3714286 91.2188497,16.5571429 91.9366605,15.7428571 C92.1262709,15.5257143 92.3104638,15.3031429 92.5569573,15.01 L91.7497588,15.0045714 Z" id="Path"></path>
            </g>
        </g>
    </g>
</svg>