<?xml version="1.0" encoding="UTF-8"?>
<svg width="224px" height="75px" viewBox="0 0 224 75" version="1.1" xmlns="http://www.w3.org/2000/svg" xmlns:xlink="http://www.w3.org/1999/xlink">
    <!-- Generator: Sketch 58 (84663) - https://sketch.com -->
    <title>LOGOS/logo_isee2</title>
    <desc>Created with Sketch.</desc>
    <defs>
        <rect id="path-1" x="0" y="0" width="224" height="75"></rect>
    </defs>
    <g id="LOGOS/logo_isee2" stroke="none" stroke-width="1" fill="none" fill-rule="evenodd">
        <mask id="mask-2" fill="white">
            <use xlink:href="#path-1"></use>
        </mask>
        <g id="Background"></g>
        <g id="Ресурс-7" mask="url(#mask-2)" fill-rule="nonzero">
            <g transform="translate(35.000000, 25.000000)">
                <path d="M154.432927,11.06 C153.903659,15.5272727 151.786585,17.4236364 147.40122,17.4236364 C141.66748,17.4236364 135.93374,17.4236364 130.2,17.4236364 C128.599593,17.4236364 128.397967,18.0854545 128.360163,19.4090909 C128.322358,20.7327273 128.776016,21.3181818 130.263008,21.3054545 C137.647561,21.2290909 145.044715,21.3054545 152.44187,21.3054545 L154.105285,21.3054545 L154.105285,27.0454545 L122.60122,27.0454545 C122.60122,24.2963636 122.60122,21.5472727 122.60122,18.7981818 C122.60122,14.0763636 125.121545,11.5436364 129.771545,11.5436364 L146.682927,11.5436364 C148.699187,11.4545455 148.699187,11.4545455 148.699187,9.13818182 C148.699187,7.25454545 148.598374,7.16545455 146.771138,7.16545455 L122.147561,7.16545455 L122.147561,1.36181818 L147.439024,1.36181818 C151.496748,1.36181818 153.739837,3.29636364 154.432927,7.38181818 C154.512275,8.04493951 154.554348,8.71206984 154.558943,9.38 C154.584146,9.87636364 154.432927,11.06 154.432927,11.06 Z" id="Path" fill="#DF7B2F"></path>
                <path d="M54.4894309,26.9309091 C51.3138211,26.9309091 49.3605691,22.9981818 49.4487805,19.8036364 C49.6,15.7945455 49.4487805,11.7727273 49.4487805,7.75090909 C49.4487805,3.72909091 51.8556911,1.27272727 55.9890244,1.27272727 L74.1227642,1.27272727 C77.5247895,1.07190501 80.5457206,3.45281509 81.1796748,6.83454545 C82.1532462,10.1550558 80.9827581,13.7370474 78.2434959,15.82 C77.1249752,16.5909221 75.8158115,17.0316611 74.4630081,17.0927273 C68.4646341,17.22 62.4788618,17.0927273 56.4804878,17.0927273 L55.4471545,17.0927273 L55.4471545,21.1145455 L78.6341463,21.1145455 L78.6341463,26.8927273 L54.4894309,26.9309091 Z M55.3463415,11.2636364 C61.6471545,11.2636364 67.9479675,11.2636364 74.097561,11.2636364 C75.6097561,11.2254545 75.6097561,9.97818182 75.6097561,8.90909091 C75.6097561,7.84 75.2695122,7.07636364 73.9463415,7.07636364 C68.0487805,7.07636364 62.1512195,7.07636364 56.304065,7.07636364 C55.9998841,7.09883536 55.6970464,7.13706751 55.396748,7.19090909 L55.3463415,11.2636364 Z" id="Shape" fill="#000000"></path>
                <path d="M90.3788618,26.9309091 C87.203252,26.9309091 85.25,22.9981818 85.3382114,19.8036364 C85.4768293,15.7945455 85.3382114,11.7727273 85.3382114,7.75090909 C85.3382114,3.72909091 87.745122,1.27272727 91.8784553,1.27272727 L110.012195,1.27272727 C113.415994,1.06615005 116.440248,3.44967901 117.069106,6.83454545 C118.049245,10.1524393 116.883262,13.7360251 114.145528,15.82 C113.026117,16.5891056 111.717478,17.029668 110.365041,17.0927273 C104.379268,17.22 98.3808943,17.0927273 92.395122,17.0927273 L91.248374,17.0927273 L91.248374,21.1145455 L114.523577,21.1145455 L114.523577,26.8927273 L90.3788618,26.9309091 Z M91.2357724,11.2636364 C97.6121951,11.2636364 103.837398,11.2636364 109.986992,11.2636364 C111.44878,11.2636364 111.52439,9.99090909 111.499187,8.90909091 C111.473984,7.82727273 111.171545,7.07636364 109.835772,7.07636364 C103.938211,7.07636364 98.0406504,7.07636364 92.1934959,7.07636364 C91.8851328,7.09877924 91.5780972,7.13701039 91.2735772,7.19090909 L91.2357724,11.2636364 Z" id="Shape" fill="#000000"></path>
                <polygon id="Path" fill="#000000" points="0 26.9309091 0 10.5509091 6.65365854 10.5509091 6.65365854 26.9309091"></polygon>
                <polygon id="Path" fill="#DF7B2F" points="0 1.27272727 6.42682927 1.27272727 6.42682927 7.90363636 0 7.90363636"></polygon>
                <path d="M13.5215447,11.06 C14.050813,15.5272727 16.1678862,17.4236364 20.553252,17.4236364 C26.2869919,17.4236364 32.0207317,17.4236364 37.7544715,17.4236364 C39.354878,17.4236364 39.5565041,18.0854545 39.5943089,19.4090909 C39.6321138,20.7327273 39.1784553,21.3181818 37.704065,21.3054545 C30.3069106,21.2290909 22.9097561,21.3054545 15.5126016,21.3054545 L12.601626,21.3054545 L12.601626,27.0454545 L45.3658537,27.0454545 C45.3658537,24.2963636 45.3658537,21.5472727 45.3658537,18.7981818 C45.3658537,14.0763636 42.8455285,11.5436364 38.1955285,11.5436364 L21.2211382,11.5436364 C19.2426829,11.5436364 19.2174797,11.5436364 19.2174797,9.17636364 C19.2174797,7.29272727 19.3182927,7.20363636 21.1455285,7.20363636 L45.8069106,7.20363636 L45.8069106,1.36181818 L20.5028455,1.36181818 C16.4325203,1.36181818 14.2020325,3.29636364 13.4963415,7.38181818 C13.4169931,8.04493951 13.3749203,8.71206984 13.3703252,9.38 C13.3703252,9.87636364 13.5215447,11.06 13.5215447,11.06 Z" id="Path" fill="#000000"></path>
            </g>
        </g>
    </g>
</svg>