<svg width="65" height="65" viewBox="0 0 65 65" fill="none" xmlns="http://www.w3.org/2000/svg">
<rect x="9" y="11" width="48" height="34" rx="4" stroke="white" stroke-width="1.6"/>
<path fill-rule="evenodd" clip-rule="evenodd" d="M29.0448 24.0417L29.0418 24.0447C29.0021 24.0844 28.9894 24.1449 29.0092 24.1972L31.7462 31.3168C31.767 31.3712 31.8194 31.4078 31.8779 31.4088C31.9363 31.4098 31.9897 31.3743 32.0115 31.3209L32.8813 29.2312L35.5893 31.939C35.6707 32.0203 35.8033 32.0203 35.8847 31.939L36.939 30.8847C37.0203 30.8034 37.0203 30.6707 36.939 30.5894L34.232 27.8816L36.3208 27.0118C36.3752 26.989 36.4098 26.9366 36.4083 26.8781C36.4073 26.8197 36.3707 26.7673 36.3163 26.7465L29.1973 24.0087C29.1439 23.9899 29.0845 24.002 29.0448 24.0417Z" fill="white"/>
<rect x="27" y="44" width="11" height="9" stroke="white" stroke-width="1.6"/>
<rect x="16" y="53" width="34" height="3" rx="0.8" stroke="white" stroke-width="1.6"/>
</svg>
