<svg width="65" height="65" viewBox="0 0 65 65" fill="none" xmlns="http://www.w3.org/2000/svg">
<rect x="14.4023" y="27.3999" width="43.2" height="28" rx="4" stroke="white" stroke-width="1.6"/>
<path d="M12.2756 34.3588L11.4603 31.3162L9.13097 22.6228C8.61638 20.7024 9.75607 18.7283 11.6766 18.2138V18.2138L42.2771 10.0144C44.1976 9.49978 46.1716 10.6395 46.6862 12.56L49.0155 21.2533V21.2533L49.8308 24.296" stroke="white" stroke-width="1.44" stroke-linecap="round"/>
<rect x="9.75391" y="24.5808" width="38.88" height="3.6" transform="rotate(-15 9.75391 24.5808)" fill="white"/>
<path d="M47.4039 34.0425V33.8075C47.4039 32.7612 47.4039 31.7151 47.4039 30.6692C47.4039 30.6128 47.4175 30.5994 47.4736 30.6004C47.6664 30.604 47.8593 30.6033 48.0525 30.6004C48.1013 30.6004 48.1172 30.6102 48.1169 30.6617C48.1142 31.0026 48.1152 31.3436 48.1152 31.6845C48.1152 32.8315 48.1158 33.9786 48.1169 35.126C48.1169 35.1857 48.0993 35.1974 48.0425 35.1964C47.8497 35.1932 47.6568 35.1938 47.464 35.1964C47.4279 35.2001 47.3932 35.1821 47.376 35.1508C46.9079 34.4337 46.439 33.7181 45.9692 33.004L45.1277 31.721C45.1164 31.7041 45.1038 31.6884 45.0805 31.6558V31.7706C45.0805 32.8884 45.0805 34.0061 45.0805 35.1237C45.0805 35.1798 45.0686 35.198 45.0079 35.1967C44.815 35.1925 44.6221 35.1938 44.4293 35.1967C44.3841 35.1967 44.3672 35.1905 44.3672 35.14C44.3687 33.6456 44.3687 32.1511 44.3672 30.6565C44.3672 30.6118 44.3795 30.6007 44.4243 30.601C44.647 30.6033 44.8701 30.603 45.0932 30.601C45.125 30.5983 45.1555 30.6144 45.1705 30.6421C45.7041 31.4594 46.2379 32.2763 46.7722 33.0927C46.9733 33.4004 47.1746 33.7079 47.376 34.0151C47.3847 34.0249 47.394 34.034 47.4039 34.0425Z" fill="white"/>
<path fill-rule="evenodd" clip-rule="evenodd" d="M44.633 37.8364C44.6154 39.1466 45.6972 40.165 46.9843 40.1678C48.2926 40.1678 49.3471 39.1397 49.3465 37.8646C49.3462 36.6074 48.2923 35.5797 47.0099 35.5718C45.7275 35.564 44.6503 36.5604 44.633 37.8364ZM48.4138 36.943C48.5924 37.2264 48.6803 37.5349 48.6826 37.9678C48.6506 38.5726 48.3428 39.1153 47.6828 39.4244C46.9422 39.7712 46.0807 39.5253 45.607 38.8547C45.0806 38.1096 45.2404 37.0589 45.9612 36.5098C46.3351 36.22 46.818 36.1015 47.2872 36.1843C47.7564 36.2672 48.1666 36.5435 48.4138 36.943Z" fill="white"/>
<path d="M52.7795 37.2651C52.7795 37.7706 52.7835 38.2764 52.7795 38.7815C52.7742 39.3007 52.5305 39.6911 52.0688 39.9553C51.7391 40.1442 51.381 40.1924 51.0045 40.147C50.2079 40.0541 49.7196 39.4799 49.6462 38.7777C49.6454 38.7633 49.6454 38.7489 49.6462 38.7345C49.6462 37.7027 49.6456 36.6712 49.6445 35.6398C49.6445 35.5782 49.6625 35.5657 49.7229 35.567C49.9114 35.5708 50.1001 35.5708 50.2888 35.567C50.3416 35.567 50.3509 35.582 50.3509 35.6286C50.3509 36.6645 50.3549 37.7 50.3476 38.7358C50.3443 39.1742 50.6235 39.4508 50.9849 39.5323C51.1771 39.5815 51.3805 39.5703 51.5655 39.5004C51.7524 39.4237 51.9061 39.3112 52.0067 39.1387C52.0717 39.0315 52.106 38.9097 52.1063 38.7856C52.1063 37.7374 52.1063 36.6894 52.104 35.6414C52.104 35.5794 52.1219 35.567 52.1823 35.5683C52.3602 35.5724 52.5381 35.5718 52.7161 35.5683C52.7682 35.5683 52.7841 35.5782 52.7825 35.6322C52.7788 36.176 52.7795 36.7207 52.7795 37.2651Z" fill="white"/>
<path fill-rule="evenodd" clip-rule="evenodd" d="M41.3005 37.2042V38.7384C41.3005 38.7766 41.2839 38.8265 41.3028 38.8499C41.3327 38.8881 41.3904 38.8633 41.4356 38.8646C41.5352 38.8678 41.6324 38.8669 41.731 38.8646C41.7702 38.8646 41.7891 38.8714 41.7885 38.9164C41.786 39.0742 41.786 39.2319 41.7885 39.3897C41.7885 39.4324 41.7735 39.4438 41.7327 39.4432C41.6192 39.4409 41.5053 39.4432 41.3918 39.4409C41.3506 39.4409 41.3377 39.4484 41.3387 39.4921C41.3436 39.6792 41.331 39.8663 41.3416 40.0534C41.3416 40.0657 41.3416 40.0788 41.3416 40.0912C41.3466 40.1564 41.3174 40.1759 41.2507 40.174C41.0731 40.1694 40.8952 40.171 40.7172 40.174C40.6688 40.174 40.6542 40.1596 40.6572 40.112C40.6704 39.9041 40.6605 39.6958 40.6631 39.4878C40.6631 39.4451 40.6459 39.4412 40.6094 39.4412C39.9433 39.4412 39.2768 39.4412 38.61 39.4412C38.5929 39.4402 38.5757 39.4402 38.5586 39.4412C38.5075 39.4471 38.4922 39.4259 38.4922 39.376C38.4948 39.2013 38.4942 39.0266 38.4922 38.8522C38.4922 38.8229 38.5015 38.7943 38.5187 38.7704C38.7894 38.3642 39.0597 37.9576 39.3297 37.5503C39.7367 36.9333 40.145 36.3166 40.5476 35.6972C40.6051 35.6089 40.6615 35.5646 40.774 35.5727C40.934 35.5848 41.0953 35.5766 41.256 35.5753C41.2892 35.5753 41.3045 35.5809 41.3041 35.62C41.3028 36.148 41.3028 36.6762 41.3041 37.2045L41.3005 37.2042ZM40.6635 37.7508C40.6635 37.3948 40.6635 37.0391 40.6635 36.6836C40.6635 36.6618 40.6725 36.6288 40.6463 36.622C40.62 36.6151 40.6131 36.6474 40.6008 36.6663C40.3428 37.0851 40.0846 37.5026 39.8263 37.919C39.6501 38.2032 39.4722 38.4861 39.2952 38.7697C39.2796 38.7948 39.2581 38.8235 39.273 38.8515C39.2879 38.8796 39.3231 38.8652 39.349 38.8652C39.7649 38.8652 40.1809 38.8652 40.5968 38.8669C40.6489 38.8669 40.6655 38.8535 40.6652 38.8C40.6625 38.4506 40.6635 38.1012 40.6635 37.7508Z" fill="white"/>
<path d="M41.2103 34.023C41.3368 33.7048 41.4576 33.4004 41.5798 33.0956C41.8484 32.417 42.1169 31.7384 42.3851 31.06C42.4392 30.9231 42.4946 30.7865 42.5467 30.649C42.5529 30.6183 42.5818 30.5973 42.6135 30.6004C42.8275 30.6028 43.0418 30.6028 43.2565 30.6004C43.3009 30.6004 43.3056 30.6089 43.2896 30.6486C42.9882 31.384 42.6875 32.1199 42.3874 32.8564C42.0776 33.6169 41.7678 34.3765 41.4579 35.1351C41.4483 35.1765 41.4076 35.2033 41.365 35.1964C41.2515 35.1915 41.1379 35.1935 41.0241 35.1964C40.9964 35.2004 40.9702 35.183 40.9637 35.1563C40.5974 34.2521 40.2304 33.3481 39.8626 32.4444C39.6216 31.8524 39.38 31.2605 39.1379 30.6685C39.1107 30.6033 39.1104 30.6033 39.1831 30.6033C39.3912 30.6033 39.599 30.6033 39.8072 30.6033C39.8368 30.5988 39.8649 30.6176 39.8716 30.6464C40.2228 31.5349 40.5748 32.4239 40.9278 33.3134C41.0198 33.5454 41.1124 33.7775 41.2103 34.023Z" fill="white"/>
<path d="M41.4453 35.5753C41.6617 35.5753 41.8695 35.5834 42.076 35.5724C42.1879 35.5665 42.2373 35.605 42.2832 35.7027C42.5879 36.3524 42.9003 36.9984 43.2103 37.6458C43.2166 37.6588 43.2232 37.6715 43.2319 37.6882C43.2641 37.6404 43.2909 37.5892 43.3115 37.5356C43.6172 36.9006 43.9218 36.2651 44.2254 35.6291C44.2376 35.5932 44.2738 35.5707 44.312 35.5753C44.5285 35.5776 44.7436 35.5753 44.9617 35.5753C44.9783 35.5753 44.9949 35.5769 45.0204 35.5782C44.9633 35.6946 44.9092 35.8064 44.8544 35.9159C44.551 36.5287 44.2475 37.1416 43.9439 37.7547C43.8297 37.9848 43.7153 38.2147 43.6007 38.4444C43.5813 38.4816 43.5713 38.5229 43.5715 38.5647C43.5715 39.0784 43.5715 39.5918 43.5734 40.1051C43.5734 40.156 43.5595 40.1677 43.5097 40.1667C43.3235 40.1638 43.1369 40.1641 42.9504 40.1667C42.9046 40.1667 42.8939 40.154 42.8943 40.11C42.8943 39.6009 42.8943 39.0914 42.8943 38.5823C42.895 38.5217 42.8808 38.4619 42.8528 38.4079C42.5286 37.7601 42.2058 37.1118 41.8845 36.4629C41.7517 36.1973 41.6189 35.9318 41.4861 35.6662C41.4752 35.6385 41.4622 35.6105 41.4453 35.5753Z" fill="white"/>
<path d="M48.2148 30.6003C48.4641 30.6003 48.7041 30.6003 48.9451 30.6003C48.9727 30.5971 48.9987 30.6135 49.0072 30.6394C49.2542 31.1583 49.502 31.6767 49.7508 32.1945L50.0027 32.7223C50.0668 32.5919 50.1265 32.4684 50.1853 32.3458C50.4573 31.7784 50.7287 31.2107 50.9996 30.6427C51.0094 30.6145 51.0378 30.5968 51.068 30.6003C51.2906 30.6022 51.5134 30.6022 51.7365 30.6003C51.7913 30.6003 51.7856 30.6172 51.7674 30.6534C51.4899 31.2115 51.2132 31.7697 50.9375 32.3282C50.7434 32.7191 50.5494 33.1102 50.3556 33.5013C50.3439 33.5284 50.3389 33.5577 50.341 33.587C50.341 34.1027 50.341 34.6184 50.341 35.134C50.341 35.1807 50.333 35.1992 50.2796 35.1976C50.0955 35.1941 49.9111 35.1941 49.7265 35.1976C49.6731 35.1976 49.6645 35.1807 49.6645 35.1324C49.6645 34.6148 49.6645 34.0968 49.6645 33.5792C49.6647 33.5415 49.6559 33.5043 49.6386 33.4707C49.1721 32.5328 48.7052 31.5943 48.2381 30.6554C48.2308 30.6407 48.2251 30.6254 48.2148 30.6003Z" fill="white"/>
<path d="M52.1172 32.8961C52.1172 32.1532 52.1172 31.4102 52.1172 30.6672C52.1172 30.6151 52.1298 30.5997 52.1836 30.602C52.3764 30.6053 52.5693 30.6056 52.7622 30.602C52.8193 30.602 52.8325 30.6151 52.8325 30.6711C52.8308 31.9532 52.8297 33.2353 52.8292 34.5174C52.8292 34.5852 52.8491 34.597 52.9132 34.5966C53.4111 34.594 53.9091 34.5966 54.405 34.5944C54.4521 34.5944 54.4714 34.6002 54.4714 34.6543C54.4671 34.8173 54.4681 34.9826 54.4714 35.1469C54.4714 35.1899 54.4578 35.1984 54.4169 35.1984C53.6687 35.1984 52.9206 35.1984 52.1726 35.1984C52.1152 35.1984 52.1188 35.171 52.1188 35.1332C52.118 34.3869 52.1174 33.6413 52.1172 32.8961Z" fill="white"/>
<path d="M44.1129 32.9007C44.1129 33.6435 44.1129 34.3867 44.1129 35.1296C44.1129 35.1886 44.095 35.1977 44.0412 35.1967C43.8613 35.1935 43.6811 35.1931 43.5011 35.1967C43.4437 35.1967 43.4274 35.184 43.4274 35.1253C43.4294 34.0605 43.4294 32.9957 43.4274 31.9309C43.4274 31.5101 43.4274 31.089 43.4258 30.6682C43.4258 30.6095 43.4434 30.5994 43.4975 30.6007C43.6794 30.604 43.8626 30.604 44.0439 30.6007C44.097 30.6007 44.1103 30.6131 44.1103 30.6659C44.1111 31.4108 44.112 32.1557 44.1129 32.9007Z" fill="white"/>
<rect x="19.2031" y="49.8" width="8" height="1.6" rx="0.8" fill="white"/>
<rect x="28" y="49.8" width="8" height="1.6" rx="0.8" fill="white"/>
<rect x="36.8008" y="49.8" width="8" height="1.6" rx="0.8" fill="white"/>
<rect x="45.6016" y="49.8" width="8" height="1.6" rx="0.8" fill="white"/>
</svg>
