<svg width="65" height="65" viewBox="0 0 65 65" fill="none" xmlns="http://www.w3.org/2000/svg">
<path d="M8.19922 24.8395H7.39922C7.39922 25.0654 7.49475 25.2808 7.66221 25.4324C7.82966 25.5841 8.05344 25.6579 8.27826 25.6355L8.19922 24.8395ZM9.79922 24.8395L9.72018 25.6355C9.945 25.6579 10.1688 25.5841 10.3362 25.4324C10.5037 25.2808 10.5992 25.0654 10.5992 24.8395H9.79922ZM9.79922 40.7605H10.5992C10.5992 40.5345 10.5037 40.3191 10.3362 40.1675C10.1688 40.0158 9.945 39.942 9.72018 39.9644L9.79922 40.7605ZM8.19922 40.7605L8.27826 39.9644C8.05344 39.942 7.82966 40.0158 7.66221 40.1675C7.49475 40.3191 7.39922 40.5345 7.39922 40.7605H8.19922ZM8.99922 20C8.99922 17.7908 10.7901 16 12.9992 16V14.4C9.90642 14.4 7.39922 16.9072 7.39922 20H8.99922ZM8.99922 24.8395V20H7.39922V24.8395H8.99922ZM8.99922 24C8.70278 24 8.40953 24.0146 8.12018 24.0434L8.27826 25.6355C8.51516 25.612 8.75566 25.6 8.99922 25.6V24ZM9.87826 24.0434C9.58891 24.0146 9.29566 24 8.99922 24V25.6C9.24278 25.6 9.48328 25.612 9.72018 25.6355L9.87826 24.0434ZM8.99922 20V24.8395H10.5992V20H8.99922ZM12.9992 16C10.7901 16 8.99922 17.7908 8.99922 20H10.5992C10.5992 18.6745 11.6737 17.6 12.9992 17.6V16ZM52.9992 16H12.9992V17.6H52.9992V16ZM56.9992 20C56.9992 17.7908 55.2084 16 52.9992 16V17.6C54.3247 17.6 55.3992 18.6745 55.3992 20H56.9992ZM56.9992 45.5999V20H55.3992V45.5999H56.9992ZM52.9992 49.5999C55.2084 49.5999 56.9992 47.8091 56.9992 45.5999H55.3992C55.3992 46.9254 54.3247 48 52.9992 48V49.5999ZM12.9992 49.5999H52.9992V48H12.9992V49.5999ZM8.99922 45.5999C8.99922 47.8091 10.7901 49.5999 12.9992 49.5999V48C11.6737 48 10.5992 46.9254 10.5992 45.5999H8.99922ZM8.99922 40.7605V45.5999H10.5992V40.7605H8.99922ZM8.99922 41.6C9.29565 41.6 9.58891 41.5853 9.87826 41.5565L9.72018 39.9644C9.48328 39.9879 9.24278 40 8.99922 40V41.6ZM8.12018 41.5565C8.40953 41.5853 8.70278 41.6 8.99922 41.6V40C8.75565 40 8.51516 39.9879 8.27826 39.9644L8.12018 41.5565ZM8.99922 45.5999V40.7605H7.39922V45.5999H8.99922ZM12.9992 49.5999C10.7901 49.5999 8.99922 47.8091 8.99922 45.5999H7.39922C7.39922 48.6927 9.90642 51.1999 12.9992 51.1999V49.5999ZM52.9992 49.5999H12.9992V51.1999H52.9992V49.5999ZM56.9992 45.5999C56.9992 47.8091 55.2084 49.5999 52.9992 49.5999V51.1999C56.092 51.1999 58.5992 48.6927 58.5992 45.5999H56.9992ZM56.9992 20V45.5999H58.5992V20H56.9992ZM52.9992 16C55.2084 16 56.9992 17.7908 56.9992 20H58.5992C58.5992 16.9072 56.092 14.4 52.9992 14.4V16ZM12.9992 16H52.9992V14.4H12.9992V16Z" fill="white"/>
<path d="M21.6109 16V49.6" stroke="white" stroke-width="1.6" stroke-dasharray="4.8"/>
<path fill-rule="evenodd" clip-rule="evenodd" d="M33.3977 30.3893C34.9441 30.3893 36.1977 29.1357 36.1977 27.5893C36.1977 26.0429 34.9441 24.7893 33.3977 24.7893C31.8513 24.7893 30.5977 26.0429 30.5977 27.5893C30.5977 29.1357 31.8513 30.3893 33.3977 30.3893Z" stroke="white" stroke-width="1.6" stroke-linejoin="round"/>
<path fill-rule="evenodd" clip-rule="evenodd" d="M43.7961 40.7892C45.3425 40.7892 46.5961 39.5356 46.5961 37.9892C46.5961 36.4428 45.3425 35.1892 43.7961 35.1892C42.2497 35.1892 40.9961 36.4428 40.9961 37.9892C40.9961 39.5356 42.2497 40.7892 43.7961 40.7892Z" stroke="white" stroke-width="1.6" stroke-linejoin="round"/>
<path d="M45.2429 26.0488L31.5405 39.6765" stroke="white" stroke-width="1.6" stroke-linejoin="round"/>
</svg>
