<svg xmlns="http://www.w3.org/2000/svg" width="100" height="100" viewBox="0 0 100 100">
  <g fill="none" fill-rule="evenodd">
    <path stroke="#0E974F" stroke-width="2" d="M54.5,3.75277675 C51.7153903,2.1450816 48.2846097,2.1450816 45.5,3.75277675 L12.1987298,22.9792741 C9.41412012,24.5869692 7.69872981,27.5581124 7.69872981,30.7735027 L7.69872981,69.2264973 C7.69872981,72.4418876 9.41412012,75.4130308 12.1987298,77.0207259 L45.5,96.2472233 C48.2846097,97.8549184 51.7153903,97.8549184 54.5,96.2472233 L87.8012702,77.0207259 C90.5858799,75.4130308 92.3012702,72.4418876 92.3012702,69.2264973 L92.3012702,30.7735027 C92.3012702,27.5581124 90.5858799,24.5869692 87.8012702,22.9792741 L54.5,3.75277675 Z"/>
    <g fill="#000" fill-rule="nonzero" transform="translate(22 29)">
      <path d="M36.3863415,21.6232258 C34.8292683,21.0270968 33.4087805,20.4580645 32.6712195,19.7535484 C35.075122,19.1032258 36.8507317,16.9354839 36.8507317,14.5509677 L36.8507317,8.77935484 C36.8507317,4.14580645 32.7804878,0.0812903226 28.1365854,0.0270967742 L28.1092683,0.0270967742 L28.1092683,0.0270967742 L28.1092683,0.0270967742 C28.1092683,0.0270967742 28.1365854,0.0270967742 28.1092683,0.0270967742 C23.4107317,0.0270967742 19.3678049,4.17290323 19.3678049,8.88774194 L19.3678049,14.523871 C19.3678049,16.9083871 20.897561,19.0219355 23.2741463,19.6993548 C22.5639024,20.403871 21.0068293,21 19.4497561,21.596129 C15.4614634,23.1406452 9.97073171,25.2541935 9.23317073,32.3806452 C9.09658537,33.7083871 9.88878049,34.9819355 11.1453659,35.4967742 L25.8965854,41.4851613 C26.5521951,41.756129 27.235122,41.8916129 27.9180488,41.8916129 C28.6009756,41.8916129 29.2839024,41.756129 29.9395122,41.4851613 L44.6634146,35.4967742 C45.92,34.9819355 46.7121951,33.7083871 46.5756098,32.3806452 C45.8926829,25.2812903 40.4019512,23.1677419 36.3863415,21.6232258 Z M43.8985366,33.5458065 L29.1746341,39.5341935 C28.382439,39.8593548 27.5356098,39.8593548 26.7434146,39.5341935 L11.9921951,33.5458065 C11.6097561,33.3832258 11.3639024,33.003871 11.3912195,32.5974194 C11.9921951,26.7716129 16.3629268,25.0645161 20.2146341,23.5741935 C22.1814634,22.8154839 23.875122,22.1651613 24.9131707,21 C25.377561,20.4580645 25.5414634,19.7264516 25.3502439,19.0490323 C25.1317073,18.3445161 24.5853659,17.8296774 23.875122,17.64 C22.4,17.2606452 21.3346341,15.9329032 21.3346341,14.4967742 L21.3346341,8.88774194 C21.3346341,5.31096774 24.4487805,2.16774194 27.9726829,2.16774194 L28,2.16774194 L28,2.16774194 L28,2.16774194 L28.0819512,2.16774194 C31.5239024,2.19483871 34.6926829,5.33806452 34.6926829,8.77935484 L34.6926829,14.5509677 C34.6926829,15.9870968 33.5453659,17.3148387 32.0429268,17.7212903 C31.3326829,17.9109677 30.7317073,18.4529032 30.5131707,19.1574194 C30.2946341,19.8619355 30.4585366,20.5935484 30.9502439,21.1083871 C31.9882927,22.2193548 33.6546341,22.8696774 35.5941463,23.6283871 C39.4731707,25.1187097 43.8712195,26.8258065 44.444878,32.6516129 C44.5268293,33.003871 44.2809756,33.4103226 43.8985366,33.5458065 Z"/>
      <path d="M7.29365854 31.7303226L2.56780488 29.7251613C2.32195122 29.6167742 2.15804878 29.3729032 2.18536585 29.1290323 2.67707317 24.3329032 6.3102439 22.923871 9.50634146 21.7045161 11.2 21.0541935 12.6478049 20.4851613 13.5219512 19.4825806 13.9863415 18.9677419 14.1502439 18.2632258 13.9317073 17.6129032 13.7404878 16.9896774 13.3034146 16.5290323 12.675122 16.3664516 11.555122 16.0683871 10.8721951 15.0929032 10.8721951 13.9006452L10.8721951 9.1316129C10.8721951 6.23225806 13.2760976 3.71225806 16.062439 3.65806452L16.062439 3.65806452 16.062439 3.65806452C16.062439 3.65806452 16.062439 3.65806452 16.0897561 3.65806452 16.7453659 3.65806452 17.2643902 3.79354839 17.9746341 4.11870968 18.5209756 4.36258065 19.1765854 4.11870968 19.422439 3.57677419 19.6682927 3.03483871 19.422439 2.38451613 18.8760976 2.14064516 17.8653659 1.68 17.0185366 1.49032258 16.062439 1.49032258 16.0078049 1.49032258 15.9258537 1.49032258 15.8712195 1.49032258L15.8712195 1.46322581 15.9258537 1.49032258C11.9921951 1.59870968 8.74146341 5.06709677 8.74146341 9.1316129L8.74146341 13.8735484C8.74146341 15.8516129 9.91609756 17.6129032 11.6917073 18.2903226 11.0634146 18.7780645 9.91609756 19.2116129 8.76878049 19.6451613 5.35414634 20.9729032.655609756 22.7612903.0546341463 28.8851613-.0546341463 30.0774194.628292683 31.2425806 1.74829268 31.7032258L6.44682927 33.7083871C6.58341463 33.7625806 6.72 33.7896774 6.88390244 33.7896774 7.32097561 33.7896774 7.70341463 33.5458065 7.89463415 33.1393548 8.11317073 32.5974194 7.86731707 31.9470968 7.29365854 31.7303226zM55.9453659 28.8851613C55.3170732 22.7883871 50.6458537 20.9729032 47.2312195 19.6451613 46.0839024 19.2116129 45.0185366 18.7780645 44.3902439 18.2903226 46.2204878 17.6129032 47.5043902 15.8516129 47.5043902 13.8735484L47.5043902 9.1316129C47.5043902 4.98580645 44.0078049 1.49032258 39.937561 1.49032258 38.9541463 1.49032258 38.0253659 1.70709677 37.0419512 2.14064516 36.4956098 2.38451613 36.222439 3.03483871 36.4956098 3.57677419 36.7414634 4.11870968 37.3970732 4.36258065 37.9434146 4.11870968 38.6263415 3.82064516 39.2819512 3.65806452 39.937561 3.65806452 42.7785366 3.65806452 45.3190244 6.20516129 45.3190244 9.1316129L45.3190244 13.8735484C45.3190244 15.0387097 44.4721951 16.0412903 43.3521951 16.3393548 42.7239024 16.5019355 42.204878 16.9896774 42.0136585 17.6129032 41.822439 18.2632258 41.9590244 18.9406452 42.4234146 19.4554839 43.324878 20.4580645 44.7726829 21.0270968 46.4390244 21.6774194 49.635122 22.923871 53.2682927 24.3329032 53.76 29.1019355 53.7873171 29.3458065 53.6234146 29.5896774 53.3502439 29.6980645L48.6517073 31.7032258C48.1053659 31.9470968 47.8321951 32.5703226 48.0780488 33.1393548 48.2692683 33.5458065 48.6517073 33.7896774 49.0887805 33.7896774 49.2253659 33.7896774 49.3892683 33.7625806 49.5258537 33.7083871L54.2243902 31.7032258C55.3717073 31.2696774 56.0819512 30.1045161 55.9453659 28.8851613z"/>
    </g>
  </g>
</svg>
