<svg width="52" height="52" viewBox="0 0 52 52" fill="none" xmlns="http://www.w3.org/2000/svg">
<path fill-rule="evenodd" clip-rule="evenodd" d="M47.5218 1.21973H4.10229C2.50883 1.21973 1.21484 2.50301 1.21484 4.10717V47.5267C1.21484 49.1202 2.50883 50.4142 4.10229 50.4142H47.5218C49.1152 50.4142 50.4093 49.1202 50.4093 47.5267V4.10717C50.4093 2.50301 49.1152 1.21973 47.5218 1.21973Z" stroke="#6D7278" stroke-width="2" stroke-linecap="round" stroke-linejoin="round"/>
<path fill-rule="evenodd" clip-rule="evenodd" d="M17.7049 33.9874C17.7049 33.9874 18.5925 27.1858 11.9727 28.5012L16.4001 25.8168L19.8223 23.7422L25.715 25.2607L25.2017 25.8168L17.7049 33.9874Z" stroke="white" stroke-width="2" stroke-linecap="round" stroke-linejoin="round"/>
<path fill-rule="evenodd" clip-rule="evenodd" d="M39.6526 28.5012C33.0327 27.1858 33.9203 33.9874 33.9203 33.9874L26.4235 25.8168L25.9102 25.2607L31.8028 23.7422L35.225 25.8168L39.6526 28.5012Z" stroke="white" stroke-width="2" stroke-linecap="round" stroke-linejoin="round"/>
<path d="M25.8121 1.21533V50.4098" stroke="#6D7278" stroke-width="2" stroke-linecap="round" stroke-linejoin="round"/>
<path fill-rule="evenodd" clip-rule="evenodd" d="M25.715 25.2607L25.2017 25.8168L17.7049 33.9874C17.7049 33.9874 18.5925 27.1858 11.9727 28.5012L16.4001 25.8168L19.8223 23.7422L25.715 25.2607Z" stroke="#6D7278" stroke-width="2" stroke-linecap="round" stroke-linejoin="round"/>
<path d="M16.401 25.8169H1.21484" stroke="#6D7278" stroke-width="2" stroke-linecap="round" stroke-linejoin="round"/>
<path fill-rule="evenodd" clip-rule="evenodd" d="M39.6526 28.5012C33.0327 27.1858 33.9203 33.9874 33.9203 33.9874L26.4235 25.8168L25.9102 25.2607L31.8028 23.7422L35.225 25.8168L39.6526 28.5012Z" stroke="#6D7278" stroke-width="2" stroke-linecap="round" stroke-linejoin="round"/>
<path d="M50.4088 25.8169H35.2227" stroke="#6D7278" stroke-width="2" stroke-linecap="round" stroke-linejoin="round"/>
<path d="M26.4223 25.8169H25.8127H25.2031" stroke="#6D7278" stroke-width="2" stroke-linecap="round" stroke-linejoin="round"/>
<path fill-rule="evenodd" clip-rule="evenodd" d="M25.8132 24.9184C25.7917 25.036 25.7596 25.1536 25.7169 25.2605L19.8242 23.742C19.5676 23.389 19.3216 23.0147 19.0863 22.619C17.3966 19.6781 17.2362 16.5981 18.7334 15.7319C20.2413 14.8656 22.8294 16.5447 24.5298 19.4749C25.2036 20.6406 25.6313 21.8384 25.8132 22.8971C25.9415 23.6457 25.9415 24.3408 25.8132 24.9184Z" stroke="#6D7278" stroke-width="2" stroke-linecap="round" stroke-linejoin="round"/>
<path fill-rule="evenodd" clip-rule="evenodd" d="M32.5379 22.619C32.3026 23.0147 32.0566 23.389 31.8 23.742L25.9073 25.2605C25.8645 25.1536 25.8324 25.036 25.8111 24.9184C25.6828 24.3408 25.6828 23.6457 25.8111 22.8971C25.9929 21.8384 26.4207 20.6406 27.0944 19.4749C28.7948 16.5447 31.3829 14.8656 32.8908 15.7319C34.388 16.5981 34.2383 19.6781 32.5379 22.619Z" stroke="#6D7278" stroke-width="2" stroke-linecap="round" stroke-linejoin="round"/>
</svg>
