<svg xmlns="http://www.w3.org/2000/svg" width="17" height="17" viewBox="0 0 17 17"><g><g><path fill="#0e974f" d="M16.594 13.2a.927.927 0 0 0-.363-.667 201.99 201.99 0 0 0-3.375-2.22c-.303-.204-.802-.168-1.264.085-.281.154-1.137.644-1.511.859-.329-.232-1.174-.877-2.522-2.225-1.363-1.34-1.997-2.187-2.221-2.515.213-.372.705-1.231.853-1.504.26-.432.299-.915.1-1.264C6.086 3.41 4.264.625 4.065.36c-.298-.417-1.015-.493-1.55-.11C2.491.265.052 2.036.101 2.978l.002.04c.113 2.27 1.831 5.086 5.11 8.366 3.28 3.28 6.093 5 8.362 5.113l.056.002c.93 0 2.693-2.393 2.71-2.416.25-.351.276-.675.253-.883z"/></g></g></svg>