<svg xmlns="http://www.w3.org/2000/svg" width="26" height="26" viewBox="0 0 26 26"><g><g><g/><g><path fill="none" stroke="#000" stroke-miterlimit="50" stroke-width="1.55" d="M12.965 25c6.625 0 11.995-5.373 11.995-12S19.59 1 12.965 1C6.34 1 .97 6.373.97 13s5.37 12 11.995 12z"/></g><g><path fill="#000" d="M16.306 17.407H9.618c-.576 0-1.045-.47-1.045-1.048V11.88h1.628a2.99 2.99 0 0 0 2.76 4.114 2.99 2.99 0 0 0 2.763-4.114h1.627v4.478c0 .578-.468 1.048-1.045 1.048zm-3.344-6.326c.64 0 1.205.317 1.554.802a1.922 1.922 0 0 1-1.553 3.045 1.922 1.922 0 0 1-1.554-3.045 1.911 1.911 0 0 1 1.553-.802zm4.19-2.276v1.858l-1.835.006-.006-1.858 1.6-.004zM9.617 7.55A2.11 2.11 0 0 0 7.51 9.658v6.693a2.11 2.11 0 0 0 2.107 2.108h6.69a2.11 2.11 0 0 0 2.108-2.108V9.658a2.11 2.11 0 0 0-2.108-2.108z"/></g></g></g></svg>