<svg width="65" height="65" viewBox="0 0 65 65" fill="none" xmlns="http://www.w3.org/2000/svg">
<path fill-rule="evenodd" clip-rule="evenodd" d="M51.0903 12.0034H14.4375C13.0923 12.0034 12 13.0867 12 14.4409V51.0937C12 52.4389 13.0923 53.5312 14.4375 53.5312H51.0903C52.4354 53.5312 53.5278 52.4389 53.5278 51.0937V14.4409C53.5278 13.0867 52.4354 12.0034 51.0903 12.0034Z" stroke="black" stroke-width="2" stroke-linecap="round" stroke-linejoin="round"/>
<path fill-rule="evenodd" clip-rule="evenodd" d="M25.9209 39.6647C25.9209 39.6647 26.6702 33.923 21.082 35.0334L24.8195 32.7674L27.7084 31.0161L32.6827 32.298L32.2494 32.7674L25.9209 39.6647Z" stroke="black" stroke-width="2" stroke-linecap="round" stroke-linejoin="round"/>
<path fill-rule="evenodd" clip-rule="evenodd" d="M44.4445 35.0334C38.8563 33.923 39.6055 39.6647 39.6055 39.6647L33.2771 32.7674L32.8438 32.298L37.8181 31.0161L40.707 32.7674L44.4445 35.0334Z" stroke="black" stroke-width="2" stroke-linecap="round" stroke-linejoin="round"/>
<path d="M32.7639 12V53.5278" stroke="black" stroke-width="2" stroke-linecap="round" stroke-linejoin="round"/>
<path fill-rule="evenodd" clip-rule="evenodd" d="M32.6827 32.298L32.2494 32.7674L25.9209 39.6647C25.9209 39.6647 26.6702 33.923 21.082 35.0334L24.8195 32.7674L27.7084 31.0161L32.6827 32.298Z" stroke="black" stroke-width="2" stroke-linecap="round" stroke-linejoin="round"/>
<path d="M24.8194 32.7676H12" stroke="black" stroke-width="2" stroke-linecap="round" stroke-linejoin="round"/>
<path fill-rule="evenodd" clip-rule="evenodd" d="M44.4445 35.0334C38.8563 33.923 39.6055 39.6647 39.6055 39.6647L33.2771 32.7674L32.8438 32.298L37.8181 31.0161L40.707 32.7674L44.4445 35.0334Z" stroke="black" stroke-width="2" stroke-linecap="round" stroke-linejoin="round"/>
<path d="M53.5265 32.7676H40.707" stroke="black" stroke-width="2" stroke-linecap="round" stroke-linejoin="round"/>
<path d="M33.2792 32.7676H32.7646H32.25" stroke="black" stroke-width="2" stroke-linecap="round" stroke-linejoin="round"/>
<path fill-rule="evenodd" clip-rule="evenodd" d="M32.7647 32.009C32.7466 32.1083 32.7195 32.2076 32.6834 32.2979L27.7091 31.016C27.4925 30.718 27.2848 30.4021 27.0862 30.068C25.6598 27.5854 25.5244 24.9854 26.7883 24.2542C28.0612 23.5229 30.2459 24.9403 31.6814 27.4139C32.2501 28.3979 32.6112 29.409 32.7647 30.3028C32.873 30.9347 32.873 31.5215 32.7647 32.009Z" stroke="black" stroke-width="2" stroke-linecap="round" stroke-linejoin="round"/>
<path fill-rule="evenodd" clip-rule="evenodd" d="M38.4433 30.068C38.2447 30.4021 38.037 30.718 37.8204 31.016L32.8461 32.2979C32.81 32.2076 32.7829 32.1083 32.7648 32.009C32.6565 31.5215 32.6565 30.9347 32.7648 30.3028C32.9183 29.409 33.2794 28.3979 33.8481 27.4139C35.2836 24.9403 37.4683 23.5229 38.7412 24.2542C40.0051 24.9854 39.8787 27.5854 38.4433 30.068Z" stroke="black" stroke-width="2" stroke-linecap="round" stroke-linejoin="round"/>
</svg>
