<?xml version="1.0" encoding="UTF-8"?>
<svg width="224px" height="75px" viewBox="0 0 224 75" version="1.1" xmlns="http://www.w3.org/2000/svg" xmlns:xlink="http://www.w3.org/1999/xlink">
    <!-- Generator: Sketch 58 (84663) - https://sketch.com -->
    <title>LOGOS/logo_yandexmarket</title>
    <desc>Created with Sketch.</desc>
    <g id="LOGOS/logo_yandexmarket" stroke="none" stroke-width="1" fill="none" fill-rule="evenodd">
        <rect id="Rectangle" fill="#D8D8D8" opacity="0" x="0" y="7.10542736e-15" width="224" height="75"></rect>
        <g id="Ресурс-1-Copy-4" transform="translate(19.000000, 19.000000)" fill-rule="nonzero">
            <path d="M11.71875,3.06095747 L9.97355769,3.06095747 C7.33413462,3.06095747 4.77403846,4.8041446 4.77403846,9.84719213 C4.77403846,14.7252466 7.11778846,16.3034407 9.97355769,16.3034407 L11.71875,16.3034407 L11.71875,3.06095747 Z M8.99278846,19.0078916 L3.79326923,30.6291391 L0,30.6291391 L5.71153846,18.2403153 C3.02163462,16.8773295 1.24038462,14.423955 1.24038462,9.88306018 C1.24038462,3.48420043 5.28605769,0.306291391 10.0961538,0.306291391 L15,0.306291391 L15,30.6291391 L11.71875,30.6291391 L11.71875,19.0078916 L8.99278846,19.0078916 Z" id="Fill-16" fill="#FF0000"></path>
            <path d="M77.3946624,20.1437129 C77.3946624,13.6041498 79.9492519,9.42415072 84.8815204,9.42415072 C86.2586105,9.37269975 87.6173396,9.74981071 88.766478,10.5024084 L88.3065103,13.5831448 C87.3547704,12.7179673 86.1294546,12.205802 84.8390619,12.1337984 C82.4967651,12.1337984 80.8267287,14.7454226 80.8267287,19.9966777 C80.8267287,25.2479329 82.079256,28.1956374 84.7116862,28.1956374 C86.0105834,28.2084758 87.2692561,27.7501772 88.2498989,26.9073295 L89,29.3089035 C87.7899065,30.3661046 86.2192105,30.9291857 84.6055398,30.8842801 C80.0907804,30.8842801 77.3734331,27.2854199 77.3734331,20.1647179 L77.3946624,20.1437129 Z M67.8556409,20.1857229 L67.8556409,30.5692047 L64.5934088,30.5692047 L64.5934088,9.718221 L67.8556409,9.718221 L67.8556409,19.3595254 L72.9152851,9.718221 L76.2270522,9.718221 L70.9904974,19.5205639 L76.9771533,30.5692047 L73.4389406,30.5692047 L67.8556409,20.1857229 Z M52.5068742,18.2392577 L57.8991104,18.2392577 C57.8991104,14.6824075 57.3117671,12.077785 55.4365144,12.077785 C53.4268095,12.077785 52.7120906,14.5143674 52.5068742,18.2392577 Z M56.1016983,30.84227 C51.7496967,30.84227 49.0748079,27.4044483 49.0748079,20.9909154 C49.0748079,14.2903138 50.9571371,9.4031457 55.4435908,9.4031457 C58.9818035,9.4031457 61.253336,12.0077682 61.253336,19.0864602 L61.253336,20.8648852 L52.4502628,20.8648852 C52.4502628,25.5840132 53.7877072,28.0696073 56.3776789,28.0696073 C57.8723006,28.0342445 59.3198617,27.5454152 60.5244642,26.6692726 L61.2745653,29.1548667 C59.789071,30.2839917 57.9604938,30.8813193 56.0875455,30.8492717 L56.1016983,30.84227 Z M42.2177517,12.3228436 L38.5733926,12.3228436 L38.5733926,12.6939322 C38.5733926,17.0839815 38.3681763,23.4975145 36.6132228,27.9225722 L42.2177517,27.9225722 L42.2177517,12.3228436 Z M47.1075617,34.6721854 L44.184998,34.6721854 L44.184998,30.5692047 L35.1484027,30.5692047 L35.1484027,34.6721854 L32.2187626,34.6721854 L32.2187626,27.9225722 L33.5137485,27.9225722 C35.4385362,23.4975145 35.6366761,17.0419715 35.6366761,11.4966461 L35.6366761,9.718221 L45.4375253,9.718221 L45.4375253,27.9225722 L47.1075617,27.9225722 L47.1075617,34.6721854 Z M30.3364335,9.718221 L30.3364335,30.5692047 L27.1166599,30.5692047 L27.1166599,21.2219706 L22.2622321,21.2219706 L22.2622321,30.5692047 L19,30.5692047 L19,9.718221 L22.2622321,9.718221 L22.2622321,18.5683363 L27.1166599,18.5683363 L27.1166599,9.718221 L30.3364335,9.718221 Z" id="Fill-18" fill="#FFFFFF"></path>
            <g id="Group-22" transform="translate(98.000000, 0.306291)" fill="#FFFFFF">
                <path d="M3.6,8.7583667 C3.1752,7.21401702 2.8296,5.87417026 2.5776,4.52727168 L2.448,4.52727168 C2.5344,5.93763669 2.5776,7.43967542 2.5776,8.94171415 L2.5776,29.8080645 L0.7056,29.8080645 L0.7056,0 L3.1752,0 L8.3232,19.0399276 C8.60859511,20.179865 8.82021612,21.3363144 8.9568,22.5023737 L9.0864,22.5023737 C9.2592,21.3811335 9.5976,19.7944729 9.8064,19.0399276 L14.9976,0 L17.3808,0 L17.3808,29.8080645 L15.3432,29.8080645 L15.3432,8.92055868 C15.3432,7.51019367 15.4224,6.00110311 15.5088,4.5061162 L15.3432,4.5061162 C14.9544,6.17034691 14.6232,7.37620899 14.3136,8.63143385 L9.7632,25.2173264 L8.1,25.2173264 L3.6,8.7583667 Z" id="Fill-20"></path>
            </g>
            <path d="M128.602914,25.0770923 L128.602914,19.4427929 L126.278689,19.4427929 C122.701275,19.4427929 120.981785,20.9850281 120.981785,24.5493051 C120.981785,27.4281442 122.315118,29.0869038 124.384335,29.0869038 C126.453552,29.0869038 127.823315,27.2636391 128.602914,25.0770923 M128.690346,27.4692705 C127.655738,29.4090597 126.103825,30.6291391 123.954463,30.6291391 C121.040073,30.6291391 119,28.4357379 119,24.7138102 C119,20.3338621 121.535519,18.0650628 126.234973,18.0650628 L128.602914,18.0650628 L128.602914,15.5152339 C128.602914,12.3964915 127.349727,11.0598877 124.959927,11.0598877 C123.137253,11.0380819 121.423351,11.873843 120.391621,13.2875608 L119.830601,11.464296 C121.1142,10.0905653 122.988135,9.33502405 124.930783,9.40798238 C128.500911,9.40798238 130.526412,11.2723734 130.526412,15.3233113 L130.526412,26.4548224 C130.511907,27.7253583 130.671075,28.9923777 131,30.2247307 L129.149362,30.2247307 C128.862935,29.333128 128.689301,28.4128526 128.632058,27.4829792" id="Fill-23" fill="#FFFFFF"></path>
            <path d="M145.06809,19.6233237 C145.06809,14.2479098 143.593191,11.0640108 141.218119,11.0640108 C139.376226,11.0640108 137.818234,13.0212127 136.918061,15.1989445 L136.918061,26.7078435 C137.742066,28.3756002 138.884593,29.1888038 140.726486,29.1888038 C143.343912,29.1888038 145.06809,26.094495 145.06809,19.6164321 M136.918061,28.90625 L136.918061,36.6937086 L135,36.6937086 L135,9.81663907 L136.689556,9.81663907 L136.848817,13.1935017 C137.755915,11.2362997 139.265436,9.4031457 141.564339,9.4031457 C145.026544,9.4031457 147,13.5380795 147,19.4648179 C147,27.0041805 144.465666,30.7118377 140.62262,30.7118377 C139.179817,30.7094828 137.818477,30.0460232 136.93191,28.9131416" id="Fill-25" fill="#FFFFFF"></path>
            <polygon id="Fill-27" fill="#FFFFFF" points="152.051852 30.6291391 150 30.6291391 150 9.4031457 152.051852 9.4031457 152.051852 19.3784363 159.451852 9.4031457 161.466667 9.4031457 154.2 19.2573078 162 30.6291391 159.718519 30.6291391 152.051852 19.6349438"></polygon>
            <path d="M164.084578,18.8401735 L172.026527,18.8401735 C172.37151,13.4123405 170.639255,10.9794103 168.429896,10.9794103 C166.220537,10.9794103 164.26074,13.7207401 164.084578,18.8401735 M168.85562,28.969387 C170.611557,28.9265263 172.243315,28.1139651 173.259658,26.7763232 L173.905583,28.3183212 C172.684916,29.8086419 170.776536,30.6664655 168.767539,30.6278915 C164.121278,30.6278915 162,26.6940833 162,20.0120919 C162,13.3301006 164.686463,9.4031457 168.378515,9.4031457 C172.070567,9.4031457 174.580869,13.0833809 173.883563,20.3684648 L164.040538,20.3684648 C164.128618,25.9607775 165.692052,29.0036536 168.85562,29.0036536" id="Fill-29" fill="#FFFFFF"></path>
            <g id="Group-33" transform="translate(175.000000, 9.403146)" fill="#FFFFFF">
                <polygon id="Fill-31" points="7.12941176 1.90349231 7.12941176 20.7261555 5.16705882 20.7261555 5.16705882 1.90349231 0.282352941 1.90349231 0.282352941 0.328660543 11.9717647 0.328660543 11.9717647 1.90349231"></polygon>
            </g>
        </g>
    </g>
</svg>