<svg width="39" height="42" viewBox="0 0 39 42" fill="none" xmlns="http://www.w3.org/2000/svg">
<path d="M17.9753 30.3203C18.3812 31.0066 18.8399 31.655 19.3465 32.2585C20.3144 33.5009 21.9967 34.3582 23.172 35.3645C24.9266 36.9084 26.543 37.1306 28 39C27.2165 38.2421 26.6519 40.0733 26.6403 40.3715C24.5893 41.8748 23.5638 42.7196 21.5358 41.1915C18.9432 39.216 17.0881 36.0976 15.4749 33.1033C15.1177 32.4324 14.4724 32.0685 14 31C14.1959 30.3912 14.3572 29.0282 14.53 28.6307C15.0601 27.3882 17.6642 28.2455 18.4132 28.9537C18.5745 29.1028 17.8486 30.0967 17.9753 30.3203Z" fill="#535152"/>
<path d="M25.4889 31.2154C26.8085 32.0991 28.7337 33.3733 29.3394 34.9558C29.8529 36.5399 29.0778 38.2436 27.5115 38.9736C26.0124 37.4657 24.3724 36.0899 22.6118 34.8633C21.5302 34.031 19.9294 33.363 19.0209 32.2943C18.5453 31.7952 18.1148 31.2589 17.7337 30.6913C17.6148 30.5063 18.2962 29.6637 18.1448 29.561C17.4417 28.9752 14.9973 28.297 14.4997 29.2938C14.3375 29.6226 14.1839 30.4965 14 31C13.3948 30.1236 13.331 28.7391 13.8291 27.8038C14.7701 26.4988 17.074 27.0537 18.2421 27.3311C21.011 28.0299 23.2067 29.674 25.4889 31.2154Z" fill="#646668"/>
<path d="M25.2345 36.2853C26.339 37.3928 27.7716 36.6047 28.5 38C28.761 38.5 28.5 39.5 28 40C27.5 40.5 25.5 41.4999 25.0575 41C23.7854 39.4058 22.9668 36.9863 21.4403 35.686C20.6659 35.019 19.0509 34.2049 18.6637 33.1873C18.6579 32.409 18.427 31.6498 18 31.0052C19.5487 30.8696 21.2633 33.3909 22.4248 34.3971C23.4001 34.9642 24.3386 35.5949 25.2345 36.2853Z" fill="#535152"/>
<path d="M18.4945 37.6028C19.1847 38.4462 22.678 40.0519 22.9647 40.826C20.5119 41.8426 17.8681 38.1227 17.1036 36.979C15.8616 35.2328 14.8027 33.0279 14 31C13.6921 30.0758 14.6933 31.896 14.8313 32.0693C15.9462 33.5595 17.3159 36.1704 18.4945 37.6028Z" fill="#1B1B1B"/>
<path d="M27.4792 9.34671C27.8851 10.033 28.3438 10.6814 28.8504 11.2849C29.8183 12.5273 31.5006 13.3846 32.6759 14.3909C34.4305 15.9348 36.0469 16.157 37.5039 18.0264C36.7204 17.2685 36.1558 19.0997 36.1442 19.3978C34.0932 20.9012 33.0677 21.746 31.0397 20.2178C28.4471 18.2424 26.592 15.1239 24.9788 12.1297C24.6216 11.4588 23.9763 11.0948 23.5039 10.0264C23.6998 9.41758 23.8611 8.05459 24.0339 7.65702C24.564 6.41461 27.1681 7.27187 27.9171 7.98005C28.0784 8.12914 27.3525 9.12307 27.4792 9.34671Z" fill="#535152"/>
<path d="M34.9928 10.2417C36.3124 11.1255 38.2376 12.3997 38.8433 13.9821C39.3568 15.5663 38.5817 17.2699 37.0154 18C35.5163 16.492 33.8763 15.1163 32.1157 13.8897C31.0341 13.0573 29.4333 12.3894 28.5248 11.3207C28.0492 10.8215 27.6187 10.2853 27.2377 9.71768C27.1187 9.53271 27.8001 8.69009 27.6487 8.58734C26.9456 8.00161 24.5012 7.32341 24.0036 8.32016C23.8414 8.64899 23.6878 9.52285 23.5039 10.0264C22.8987 9.14993 22.8349 7.76545 23.333 6.83017C24.274 5.52514 26.5779 6.08003 27.746 6.35748C30.5149 7.05624 32.7106 8.70037 34.9928 10.2417Z" fill="#646668"/>
<path d="M34.7384 15.3116C35.8429 16.4192 37.2755 15.6311 38.0039 17.0264C38.2649 17.5264 38.0039 18.5264 37.5039 19.0264C37.0039 19.5264 35.0039 20.5263 34.5614 20.0263C33.2893 18.4322 32.4707 16.0126 30.9442 14.7124C30.1698 14.0453 28.5548 13.2313 28.1676 12.2137C28.1618 11.4354 27.9309 10.6761 27.5039 10.0316C29.0526 9.89593 30.7672 12.4172 31.9287 13.4235C32.904 13.9906 33.8425 14.6212 34.7384 15.3116Z" fill="#535152"/>
<path d="M27.9984 16.6292C28.6886 17.4725 32.1819 19.0783 32.4686 19.8523C30.0158 20.8689 27.372 17.1491 26.6075 16.0054C25.3655 14.2592 24.3066 12.0543 23.5039 10.0264C23.196 9.10218 24.1972 10.9224 24.3352 11.0956C25.4501 12.5859 26.8198 15.1967 27.9984 16.6292Z" fill="#1B1B1B"/>
<path d="M4.47921 3.34671C4.88514 4.03302 5.34382 4.68135 5.85041 5.28487C6.81831 6.52729 8.50061 7.38455 9.67592 8.39091C11.4305 9.93477 13.0469 10.157 14.5039 12.0264C13.7204 11.2685 13.1558 13.0997 13.1442 13.3978C11.0932 14.9012 10.0677 15.746 8.03971 14.2178C5.44712 12.2424 3.59197 9.12393 1.9788 6.12971C1.6216 5.45881 0.976334 5.09484 0.503906 4.02637C0.699791 3.41758 0.861107 2.05459 1.03395 1.65702C1.56399 0.414609 4.1681 1.27187 4.91707 1.98005C5.07839 2.12914 4.35247 3.12307 4.47921 3.34671Z" fill="#535152"/>
<path d="M11.9928 4.24175C13.3124 5.12547 15.2376 6.39967 15.8433 7.98215C16.3568 9.56625 15.5817 11.2699 14.0154 12C12.5163 10.492 10.8763 9.1163 9.11572 7.88967C8.03411 7.05732 6.43332 6.38939 5.52477 5.32071C5.04924 4.82155 4.61869 4.28532 4.23765 3.71768C4.11868 3.53271 4.80009 2.69009 4.64867 2.58734C3.94562 2.00161 1.50118 1.32341 1.00364 2.32016C0.841394 2.64899 0.68778 3.52285 0.503906 4.02637C-0.101277 3.14993 -0.165087 1.76545 0.333037 0.83017C1.27404 -0.474861 3.57787 0.0800334 4.74601 0.357481C7.51493 1.05624 9.71061 2.70037 11.9928 4.24175Z" fill="#646668"/>
<path d="M11.7384 9.31163C12.8429 10.4192 14.2755 9.63107 15.0039 11.0264C15.2649 11.5264 15.0039 12.5264 14.5039 13.0264C14.0039 13.5264 12.0039 14.5263 11.5614 14.0263C10.2893 12.4322 9.47072 10.0126 7.94417 8.7124C7.16984 8.04533 5.55479 7.23128 5.16762 6.21372C5.1618 5.43536 4.93088 4.67615 4.50391 4.03161C6.05258 3.89593 7.76718 6.41723 8.92868 7.42348C9.90396 7.99055 10.8425 8.62124 11.7384 9.31163Z" fill="#535152"/>
<path d="M4.99841 10.6292C5.68858 11.4725 9.18189 13.0783 9.46858 13.8523C7.01583 14.8689 4.37196 11.1491 3.60747 10.0054C2.36551 8.25919 1.30659 6.05427 0.503906 4.02637C0.195986 3.10218 1.19719 4.92235 1.33522 5.09564C2.45011 6.58589 3.81982 9.19672 4.99841 10.6292Z" fill="#1B1B1B"/>
</svg>
