<svg width="80" height="80" viewBox="0 0 80 80" fill="none" xmlns="http://www.w3.org/2000/svg">
<path d="M35.5 3.75278C38.2846 2.14508 41.7154 2.14508 44.5 3.75278L69.141 17.9793C71.9256 19.587 73.641 22.5581 73.641 25.7735V54.2265C73.641 57.4419 71.9256 60.413 69.141 62.0207L44.5 76.2472C41.7154 77.8549 38.2846 77.8549 35.5 76.2472L10.859 62.0207C8.07437 60.413 6.35898 57.4419 6.35898 54.2265V25.7735C6.35898 22.5581 8.07437 19.587 10.859 17.9793L35.5 3.75278Z" stroke="#0E974F" stroke-width="2"/>
<path fill-rule="evenodd" clip-rule="evenodd" d="M39.7933 24.8097C39.3527 24.7919 38.907 24.7989 38.4557 24.8277C32.2344 25.2281 27.4518 30.346 26.9375 36.4257L26.9164 36.3987L25.612 52.1997C25.4648 53.9892 26.8906 55.5207 28.7019 55.5207H42.3808C43.2361 55.5207 43.9303 54.8326 43.9303 53.9847C43.9303 53.1369 43.2361 52.4487 42.3808 52.4487H39.2819C34.1469 52.4487 29.985 48.3231 29.985 43.2327V41.6967C29.985 39.9995 31.3718 38.6247 33.084 38.6247H45.4798C47.192 38.6247 48.5787 39.9995 48.5787 41.6967V46.3047H42.2446C41.9167 45.3853 41.0404 44.7701 40.0566 44.7687C39.4402 44.7687 38.849 45.0115 38.4132 45.4436C37.9773 45.8757 37.7324 46.4617 37.7324 47.0727C37.734 48.28 38.6755 49.2813 39.8902 49.3677C39.9455 49.3737 40.001 49.3767 40.0566 49.3767H50.1282H51.6777C53.3821 49.3767 54.7766 47.9943 54.7766 46.3047V43.2327C54.7766 41.5431 53.3821 40.1607 51.6777 40.1607V37.0887C51.6777 30.4719 46.4022 25.0772 39.7933 24.8097Z" fill="#0E974F"/>
</svg>
