<svg width="80" height="80" viewBox="0 0 80 80" fill="none" xmlns="http://www.w3.org/2000/svg">
<path d="M35.5 3.75278C38.2846 2.14508 41.7154 2.14508 44.5 3.75278L69.141 17.9793C71.9256 19.587 73.641 22.5581 73.641 25.7735V54.2265C73.641 57.4419 71.9256 60.413 69.141 62.0207L44.5 76.2472C41.7154 77.8549 38.2846 77.8549 35.5 76.2472L10.859 62.0207C8.07437 60.413 6.35898 57.4419 6.35898 54.2265V25.7735C6.35898 22.5581 8.07437 19.587 10.859 17.9793L35.5 3.75278Z" stroke="#0E974F" stroke-width="2"/>
<path fill-rule="evenodd" clip-rule="evenodd" d="M40.4 25.4857C40.1298 25.4858 39.8882 25.6561 39.7942 25.9127L32.1994 40.4994C32.0697 40.7076 32.0006 40.9486 32 41.1948C32 41.9178 32.5786 42.5039 33.2923 42.5039H39.7538V53.6312C39.7538 53.9927 40.0431 54.2857 40.4 54.2857C40.6425 54.286 40.8647 54.1488 40.9755 53.9303L48.6258 39.2337L48.6233 39.2312C48.738 39.0325 48.7989 38.8067 48.8 38.5766C48.8 37.8536 48.2214 37.2675 47.5077 37.2675H41.0462V26.1403C41.0462 25.7788 40.7569 25.4857 40.4 25.4857Z" fill="#0E974F"/>
</svg>
