<svg width="80" height="80" viewBox="0 0 80 80" fill="none" xmlns="http://www.w3.org/2000/svg">
<path d="M35.5 3.75278C38.2846 2.14508 41.7154 2.14508 44.5 3.75278L69.141 17.9793C71.9256 19.587 73.641 22.5581 73.641 25.7735V54.2265C73.641 57.4419 71.9256 60.413 69.141 62.0207L44.5 76.2472C41.7154 77.8549 38.2846 77.8549 35.5 76.2472L10.859 62.0207C8.07437 60.413 6.35898 57.4419 6.35898 54.2265V25.7735C6.35898 22.5581 8.07437 19.587 10.859 17.9793L35.5 3.75278Z" stroke="#0E974F" stroke-width="2"/>
<path fill-rule="evenodd" clip-rule="evenodd" d="M55.5559 39.0542L54.2039 37.6505C53.2205 36.6292 52.7602 35.2086 52.959 33.8018L53.2312 31.8682C53.3505 31.0204 52.7785 30.231 51.9389 30.082L50.0241 29.7442C48.6308 29.4984 47.4272 28.6215 46.7634 27.3652L45.8519 25.6405C45.4528 24.8879 44.5275 24.5854 43.7628 24.9617L42.0162 25.8186C40.7453 26.4422 39.2572 26.4422 37.9863 25.8186L36.2382 24.9617C35.4735 24.5854 34.5482 24.8879 34.149 25.6436L33.2375 27.3683C32.5738 28.6246 31.3717 29.5015 29.9769 29.7472L28.0621 30.0851C27.2224 30.2326 26.6504 31.022 26.7697 31.8697L27.042 33.8033C27.2408 35.2101 26.7804 36.6307 25.797 37.652L24.4451 39.0558C23.8516 39.6716 23.8516 40.6469 24.4451 41.2627L25.797 42.6665C26.7804 43.6878 27.2408 45.1084 27.042 46.5152L26.7697 48.4488C26.6504 49.2965 27.2224 50.086 28.0621 50.2349L29.9769 50.5728C31.3701 50.8185 32.5738 51.6955 33.2375 52.9518L34.149 54.6765C34.5482 55.4321 35.4735 55.7347 36.2397 55.3584L37.9863 54.5014C39.2572 53.8779 40.7453 53.8779 42.0162 54.5014L43.7628 55.3584C44.529 55.7347 45.4528 55.4321 45.8535 54.6765L46.765 52.9518C47.4287 51.697 48.6308 50.8185 50.0256 50.5728L51.9404 50.2349C52.7801 50.0875 53.3521 49.2965 53.2328 48.4488L52.9605 46.5152C52.7617 45.1084 53.2221 43.6878 54.2055 42.6665L55.5574 41.2627C56.1478 40.6469 56.1478 39.6701 55.5559 39.0542ZM37.3898 45.8517L33.8829 42.3301C33.2865 41.7312 33.2865 40.7575 33.8829 40.1585C34.4794 39.5595 35.449 39.5595 36.0455 40.1585L38.4711 42.5943L45.4849 35.5511C46.0813 34.9521 47.051 34.9521 47.6474 35.5511C48.2439 36.15 48.2439 37.1237 47.6474 37.7227L39.5524 45.8517C38.9559 46.4507 37.9863 46.4507 37.3898 45.8517Z" fill="#0E974F"/>
</svg>
